<svg xmlns="http://www.w3.org/2000/svg" width="16" height="16" viewBox="0 0 20 20"><linearGradient id="a" gradientUnits="userSpaceOnUse" x1="288.434" y1="-400.96" x2="306.887" y2="-400.96" gradientTransform="matrix(1 0 0 -1 -287.66 -390.96)"><stop offset="0" stop-color="#f0f0f0"/><stop offset="1" stop-color="#dedede"/></linearGradient><path fill="url(#a)" d="M10 19.227C4.912 19.227.774 15.087.774 10 .774 4.912 4.912.774 10 .774c5.087 0 9.227 4.138 9.227 9.226 0 5.087-4.14 9.227-9.227 9.227z"/><linearGradient id="b" gradientUnits="userSpaceOnUse" x1="2.929" y1="2.928" x2="17.071" y2="17.07"><stop offset="0" stop-color="#454545"/><stop offset="1" stop-color="#1a1a1a"/></linearGradient><path fill="url(#b)" d="M10 0C4.476 0 0 4.476 0 10c0 5.522 4.476 10 10 10 5.523-.002 10-4.48 10-10.002C20 4.474 15.523 0 10 0zm0 18.452c-4.661 0-8.452-3.793-8.452-8.452S5.339 1.548 10 1.548c4.659 0 8.452 3.792 8.452 8.452S14.659 18.452 10 18.452zm5.86-10.369c.174.435-1.755 1.6-4.304 2.601-.093.037-.18.064-.27.099-.007.016-.021.026-.027.041a5.77 5.77 0 0 0-1.083-.127c.135-.5.246-1.032.298-1.625.092.03.182.066.268.117.064-.028.125-.057.193-.085 2.552-1.001 4.751-1.457 4.925-1.021z"/><linearGradient id="c" gradientUnits="userSpaceOnUse" x1="6.029" y1="5.137" x2="11.581" y2="10.688"><stop offset="0" stop-color="#c9473d"/><stop offset="1" stop-color="#9e3939"/></linearGradient><path fill="url(#c)" d="M10 8.646c-.015 0-.028.004-.043.004-1.146-2.937-2.171-5.147-2.366-5.071-.195.073.497 2.38 1.579 5.319a1.499 1.499 0 1 0 2.33 1.248 1.5 1.5 0 0 0-1.5-1.5z"/></svg>