<svg xmlns="http://www.w3.org/2000/svg" width="16" height="16"><path d="M8 .9a1.34 1.34 0 00-1.11.79L.26 13.18c-.61 1.06-.11 1.92 1.11 1.92h13.26c1.22 0 1.71-.86 1.11-1.92L9.11 1.69A1.34 1.34 0 008 .9z" fill="#c9473d"/><path fill="#fff" d="M8 3.83l5.34 9.24H2.66L8 3.83"/><path fill="#222" d="M4.7 6a3.41 3.41 0 01.71-1.13 3.2 3.2 0 011.1-.75A3.73 3.73 0 018 3.83a4.54 4.54 0 011.72.28 3.35 3.35 0 011.11.7 2.54 2.54 0 01.6.91 2.61 2.61 0 01.18.91 3.1 3.1 0 01-.18 1.15 2.81 2.81 0 01-.45.77 3 3 0 01-.59.54l-.62.45a2.88 2.88 0 00-.51.51 1.48 1.48 0 00-.28.72v.55H7v-.65a2.83 2.83 0 01.7-1.76 3.62 3.62 0 01.55-.51q.29-.22.54-.44a1.94 1.94 0 00.4-.48 1.18 1.18 0 00.14-.65 1.32 1.32 0 00-.33-1 1.24 1.24 0 00-.91-.32 1.4 1.4 0 00-.67.15 1.35 1.35 0 00-.46.41 1.76 1.76 0 00-.27.59 3 3 0 00-.09.73H4.43A4.14 4.14 0 014.7 6zM9 12.2v2.23H6.77V12.2z"/></svg>