<svg xmlns="http://www.w3.org/2000/svg" width="16" height="16"><path fill="#c9473d" d="M8 .9a1.34 1.34 0 00-1.11.79L.26 13.18c-.61 1.06-.11 1.92 1.11 1.92h13.26c1.22 0 1.71-.86 1.11-1.92L9.11 1.69A1.34 1.34 0 008 .9"/><path fill="#fff" d="m8 3.83 5.34 9.24H2.66z"/><path fill="#222" d="M4.7 6a3.4 3.4 0 01.71-1.13 3.2 3.2 0 011.1-.75A3.7 3.7 0 018 3.83a4.5 4.5 0 011.72.28 3.4 3.4 0 011.11.7 2.5 2.5 0 01.6.91 2.6 2.6 0 01.18.91 3.1 3.1 0 01-.18 1.15 2.8 2.8 0 01-.45.77 3 3 0 01-.59.54l-.62.45a3 3 0 00-.51.51 1.5 1.5 0 00-.28.72v.55H7v-.65a2.83 2.83 0 01.7-1.76 3.6 3.6 0 01.55-.51q.29-.22.54-.44a2 2 0 00.4-.48 1.2 1.2 0 00.14-.65 1.32 1.32 0 00-.33-1 1.24 1.24 0 00-.91-.32 1.4 1.4 0 00-.67.15 1.35 1.35 0 00-.46.41 1.8 1.8 0 00-.27.59 3 3 0 00-.09.73H4.43A4.1 4.1 0 014.7 6M9 12.2v2.23H6.77V12.2z"/></svg>