<svg xmlns="http://www.w3.org/2000/svg" width="16" height="16" viewBox="0 0 16 16"><path fill="#74b739" d="M6.435 15.379h-.013a1.656 1.656 0 0 1-1.369-.738L.278 7.486a1.653 1.653 0 0 1 .463-2.295c.764-.506 1.431-.3 2.181.793l3.537 5.436 6.514-10.083a1.665 1.665 0 0 1 2.31-.425c.755.519.944 1.549.426 2.302L7.803 14.662c-.31.449-.822.717-1.368.717z"/><path fill="#74b739" d="M6.813.011v1.385c0 .04.222.072.493.072h1.919c.271 0 .493.222.493.493v1.691a.495.495 0 0 1-.493.493H7.306c-.271 0-.493.028-.493.062v1.412c0 .039-.16-.082-.355-.27l-2.279-2.2a.473.473 0 0 1 0-.684l2.279-2.2c.195-.188.355-.303.355-.254z"/></svg>