<svg xmlns="http://www.w3.org/2000/svg" width="16" height="16" viewBox="0 0 16 16"><linearGradient id="a" gradientUnits="userSpaceOnUse" x1="3.354" y1="2.891" x2="13.839" y2="13.375"><stop offset="0" stop-color="#f0f0f0"/><stop offset="1" stop-color="#dedede"/></linearGradient><path fill="url(#a)" d="M11.728 15.485c-1.926-.121-3.636-.993-4.344-2.247l-.128-.226-.258-.026C3.293 12.62.5 10.279.5 7.542c0-3.033 3.364-5.5 7.5-5.5s7.5 2.467 7.5 5.5c0 2.275-1.964 4.345-4.888 5.147l-.52.144.182.507c.282.787.782 1.521 1.454 2.145z"/><linearGradient id="b" gradientUnits="userSpaceOnUse" x1="3.001" y1="2.541" x2="14.781" y2="14.321"><stop offset="0" stop-color="#ccc"/><stop offset="1" stop-color="#b3b3b3"/></linearGradient><path fill="url(#b)" d="M8 2.542c3.859 0 7 2.243 7 5 0 2.048-1.816 3.923-4.52 4.666l-1.039.285.362 1.015c.157.442.377.868.652 1.27-1.194-.319-2.171-.959-2.638-1.785l-.254-.453-.517-.051C3.599 12.148 1 10.021 1 7.542c0-2.757 3.14-5 7-5m0-1c-4.418 0-8 2.687-8 6 0 3.045 3.028 5.555 6.948 5.942C7.78 14.958 9.811 16 12.188 16c.334 0 .66-.024.979-.064-1.164-.688-2.024-1.653-2.421-2.764C13.809 12.33 16 10.131 16 7.542c0-3.314-3.582-6-8-6z"/><g><linearGradient id="c" gradientUnits="userSpaceOnUse" x1="5.436" y1="4.964" x2="10.559" y2="10.088"><stop offset="0" stop-color="#c9473d"/><stop offset="1" stop-color="#9e3939"/></linearGradient><path fill="url(#c)" d="M8.928 9.898v1.82H7.072v-1.82h1.856zm-.52-.709h-.839L7.12 5.548V3.279h1.75v2.269l-.462 3.641z"/></g></svg>