<svg xmlns="http://www.w3.org/2000/svg" width="16" height="16" viewBox="0 0 500 500"><linearGradient id="a" x1="78.338" y1="186.637" x2="421.663" y2="529.962"><stop offset="0" stop-color="#c9473d"/><stop offset="1" stop-color="#9e3939"/></linearGradient><path fill="url(#a)" d="M250 119.566l166.838 288.976H83.16L250 119.566m0-91.398c-12.533 0-25.066 8.235-34.575 24.703L8.115 411.948c-19.015 32.937-3.457 59.885 34.576 59.885H457.31c38.033 0 53.593-26.948 34.576-59.885L284.576 52.87c-9.51-16.466-22.043-24.7-34.576-24.7z"/><path d="M146.944 186.815c5.283-13.59 12.687-25.367 22.196-35.336 9.51-9.963 20.988-17.738 34.426-23.328 13.437-5.583 28.463-8.38 45.077-8.38 21.434 0 39.324 2.944 53.67 8.833 14.344 5.888 25.895 13.218 34.666 21.97 8.752 8.766 15.018 18.197 18.794 28.313 3.77 10.122 5.662 19.558 5.662 28.31 0 14.5-1.894 26.43-5.662 35.79-3.776 9.364-8.46 17.372-14.05 24.003-5.584 6.653-11.776 12.315-18.568 16.988-6.793 4.69-13.217 9.376-19.247 14.048a89.855 89.855 0 0 0-16.083 16.084c-4.69 6.046-7.63 13.584-8.838 22.647v17.214h-61.156v-20.39c.91-12.972 3.402-23.845 7.477-32.604 4.08-8.765 8.834-16.235 14.27-22.422 5.436-6.192 11.165-11.563 17.214-16.084 6.04-4.53 11.63-9.064 16.76-13.596 5.136-4.533 9.29-9.51 12.454-14.946 3.177-5.436 4.612-12.23 4.307-20.383 0-13.89-3.39-24.158-10.195-30.804-6.792-6.638-16.23-9.967-28.312-9.967-8.148 0-15.172 1.587-21.06 4.757-5.89 3.17-10.72 7.404-14.495 12.68-3.78 5.292-6.566 11.485-8.38 18.576-1.814 7.098-2.718 14.72-2.718 22.875h-66.59c.298-16.307 3.09-31.254 8.38-44.845zm135.673 194.337v69.754h-71.122v-69.754h71.122z"/></svg>