<svg xmlns="http://www.w3.org/2000/svg" width="28" height="28"><path d="M2 0h24v28H2z" fill="#6f7685"/><path d="M24.6 1.4v25.2H3.4V1.4h21.2" fill="#1b1d21"/><path d="M3.4 1.4H9v25.2H3.4z" opacity=".25" fill="#74b739"/><path d="M10.39 25.48H9v-1.4h1.4zm0-3.08H9V21h1.4zm0-3.08H9v-1.4h1.4zm0-3.08H9v-1.4h1.4zm0-3.08H9v-1.4h1.4zm0-3.08H9v-1.4h1.4zm0-3.08H9V5.6h1.4zm0-3.08H9v-1.4h1.4z" fill="#6f7685"/><path d="M19.07 1.4h5.53v25.2h-5.53z" opacity=".25" fill="#74b739"/><path d="M17.67 25.48v-1.4h1.4v1.4zm0-3.08V21h1.4v1.4zm0-3.08v-1.4h1.4v1.4zm0-3.08v-1.4h1.4v1.4zm0-3.08v-1.4h1.4v1.4zm0-3.08v-1.4h1.4v1.4zm0-3.08V5.6h1.4V7zm0-3.08v-1.4h1.4v1.4z" fill="#6f7685"/></svg>