<svg xmlns="http://www.w3.org/2000/svg" width="28" height="28"><style>.a{fill:#fff}.b{fill:#b3b3b3}@media (prefers-color-scheme:dark){.a{fill:#1b1d21}.b{fill:#6f7685}}</style><path class="b" d="M2 0h24v28H2z"/><path class="a" d="M3.4 1.4h21.2v25.2H3.4V1.4"/><path d="M3.4 1.4h21.2v7H3.4z" opacity=".25" fill="#74b739"/><path class="b" d="M23.94 8.37v1.4h-1.4v-1.4m-1.68 1.4h-1.4v-1.4h1.4zm-3.08 0h-1.4v-1.4h1.4zm-3.08 0h-1.4v-1.4h1.4zm-3.08 0h-1.4v-1.4h1.4zm-3.08 0h-1.4v-1.4h1.4zm-3.08 0h-1.4v-1.4h1.4z"/><path d="M3.4 21.2h21.2v5.4H3.4z" opacity=".25" fill="#74b739"/><path class="b" d="M23.94 19.8v1.4h-1.4v-1.4m-1.68 1.4h-1.4v-1.4h1.4zm-3.08 0h-1.4v-1.4h1.4zm-3.08 0h-1.4v-1.4h1.4zm-3.08 0h-1.4v-1.4h1.4zm-3.08 0h-1.4v-1.4h1.4zm-3.08 0h-1.4v-1.4h1.4z"/></svg>