<svg xmlns="http://www.w3.org/2000/svg" width="28" height="28" viewBox="0 0 24 24"><style>.a{fill:#fff}.b{fill:#b3b3b3}@media (prefers-color-scheme:dark){.a{fill:#1b1d21}.b{fill:#6f7685}}</style><path class="b" d="M19.45 2.45H4.64a2.2 2.2 0 00-2.2 2.2v14.8a2.2 2.2 0 002.2 2.2h14.81a2.2 2.2 0 002.2-2.2V4.64a2.2 2.2 0 00-2.2-2.2z"/><path class="a" d="M19.45 3.45a1.2 1.2 0 011.2 1.2v14.8a1.2 1.2 0 01-1.2 1.2H4.64a1.2 1.2 0 01-1.2-1.2V4.64a1.2 1.2 0 011.2-1.2h14.81"/><path d="M6 6.29h6.4v6.15H6z" fill="#74b739"/><path class="b" d="M18.01 13.31H5.99v.88h12.02v-.88zm0 1.76H5.99v.88h12.02v-.88zm0 1.76H5.99v.88h12.02v-.88z"/></svg>