<svg xmlns="http://www.w3.org/2000/svg" width="28" height="28" viewBox="0 0 24 24"><path fill="#6f7685" d="M19.45 2.45H4.64a2.2 2.2 0 00-2.2 2.2v14.8a2.2 2.2 0 002.2 2.2h14.81a2.2 2.2 0 002.2-2.2V4.64a2.2 2.2 0 00-2.2-2.2z"/><path fill="#1b1d21" d="M19.45 3.45a1.2 1.2 0 011.2 1.2v14.8a1.2 1.2 0 01-1.2 1.2H4.64a1.2 1.2 0 01-1.2-1.2V4.64a1.2 1.2 0 011.2-1.2h14.81"/><path fill="#74b739" d="M6 6.29h6.4v6.15H6z"/><path fill="#6f7685" d="M18.01 13.31H5.99v.88h12.02zm0 1.76H5.99v.88h12.02zm0 1.76H5.99v.88h12.02z"/></svg>