<svg xmlns="http://www.w3.org/2000/svg" width="16" height="16" viewBox="0 0 500 500"><path fill="#edad3b" d="M395.918 60.227s3.64-11.146-31.355-36.625C329.567-1.876 314.355.556 314.355.556c-18.902-1.51-26.658-.625-36.893 11.356L38.254 340.46a16.625 16.625 0 00-2.488 4.974h-.605S11.38 495 16.297 498.513c4.44 3.17 113.604-52.26 136.59-63.05 1.284-.355 2.573-.957 3.805-1.788l.047-.02-.002-.01a16.612 16.612 0 004.067-3.963l235.122-322.936c14.48-20.427-.006-46.52-.006-46.52zM84.625 458.45s-13.57-31.522-38.39-25.88l-13.31 17.925 19.753-107.102c19.503 1.242 34.64 5.998 43.787 9.71 12.868 5.504 28.633 14.295 36.796 27.05 18.982 29.657 23.476 45.08 23.476 45.08l-72.11 33.216z"/><circle fill="#74b739" cx="323.623" cy="339.25" r="160.75"/><path fill="#fff" d="M422.65 304.436h-54.932c-5.104 0-9.283-4.177-9.283-9.282v-54.928c0-5.106-4.177-9.284-9.282-9.284H297.75c-5.103 0-9.263 4.178-9.238 9.284l.255 54.928c.022 5.105-4.135 9.282-9.24 9.282h-54.93c-5.107 0-9.284 4.18-9.284 9.285v51.062c0 5.106 4.177 9.28 9.283 9.28h54.93c5.106 0 9.283 4.18 9.283 9.286v54.93c0 5.106 4.176 9.282 9.283 9.282h51.06c5.106 0 9.283-4.176 9.283-9.282v-54.93c0-5.107 4.18-9.285 9.283-9.285h54.93c5.106 0 9.284-4.175 9.284-9.28V313.72c0-5.105-4.178-9.284-9.285-9.284z"/></svg>