<svg width="16" height="16" viewBox="0 0 500 500" xmlns="http://www.w3.org/2000/svg"><path fill="#c98613" d="M492.378 95.89s3.348-10.25-28.837-33.683c-32.185-23.432-46.176-21.195-46.176-21.195-17.384-1.389-24.517-.575-33.93 10.444L163.437 353.619a15.29 15.29 0 00-2.288 4.575h-.557s-21.87 137.555-17.349 140.786c4.084 2.915 104.481-48.063 125.621-57.987 1.181-.326 2.367-.88 3.5-1.644l.043-.019-.002-.009a15.278 15.278 0 003.74-3.645l216.24-297.002c13.318-18.787-.005-42.784-.005-42.784zM206.084 462.135s-12.48-28.99-35.307-23.802l-12.241 16.486 18.167-98.501c17.936 1.142 31.858 5.516 40.27 8.93 11.835 5.062 26.334 13.147 33.841 24.878 17.458 27.275 21.591 41.46 21.591 41.46l-66.32 30.548z"/><path fill="#edad3b" d="M382.918 60.727s3.64-11.146-31.355-36.625C316.567-1.376 301.355 1.056 301.355 1.056c-18.902-1.51-26.658-.625-36.893 11.356L25.254 340.96a16.626 16.626 0 00-2.488 4.974h-.605S-1.62 495.5 3.297 499.014c4.44 3.17 113.604-52.26 136.59-63.05 1.284-.356 2.573-.958 3.805-1.789l.047-.02-.002-.01a16.612 16.612 0 004.067-3.963l235.122-322.936c14.48-20.427-.006-46.52-.006-46.52zM71.625 458.95s-13.57-31.522-38.39-25.88l-13.31 17.925 19.753-107.102c19.503 1.242 34.64 5.998 43.787 9.71 12.868 5.504 28.633 14.295 36.796 27.05 18.982 29.657 23.476 45.08 23.476 45.08l-72.11 33.216z"/></svg>