<svg xmlns="http://www.w3.org/2000/svg" width="32" height="32"><path fill="#838990" d="M1.478 21.932c.022-.36-.046-.31-.082-.59.074.033.105-.276.107-.395l-.016.006c.005-.178.06-.582.067-.875l-.04.012c.042-.246.025-.707.035-.885-.01-.404-.058-1.037.052-1.586a6.24 6.24 0 01-.074-.372l.018-.05c.003-.023 1.438-.344 1.65.348l.04-.005-.02.127c.006.157-.046.225-.005.218l.015-.213c-.002.157.03.05.057-.007a1.07 1.07 0 00.005.182c-.018.028-.015-.024-.02-.05-.023.082-.07.196-.062.3-.006.16.064.015.057.204-.033.993.027 1.98.06 3.01.017.024.015-.004.02-.034-.003.312.017.588.016.873.022.077.048.097.066.12-.04-.047.075 1.57.092 1.597l-.07.026c.026.31.09.082.1.37-.093.12.054.47.01.574.01-.003.026.136.057.124-.05.05 0 .146-.003.235-.012.033-.02-.02-.04-.044l.003.205c.026.076.06.092.058.006.04.327.2 1.423.33 2.34a.786.786 0 00.025-.06c.083-.355.19-.582.242-.847l.125-.228c.2-.602.745-2.075 1.383-3.512a48.95 48.95 0 011.657-3.4l-.03.04c.872-1.737 3.056-5.124 4.45-6.598.167-.265.443-.592.65-.842-.105.147-.04.122.05.015.65-.744.068-.03.742-.765.406-.407 1.34-1.43 2.33-2.376a61.155 61.155 0 012.39-2.18c.465-.297.97-.763 1.428-1.048l-.053.02c.448-.362 3.128-2.238 3.745-2.522l-.072.054c.527-.26.42-.285.813-.528-.017.095.44-.116.614-.197l-.015-.01c.26-.127.87-.37 1.303-.568l-.034-.03c.376-.134 1.047-.463 1.313-.568.593-.276 1.51-.716 2.372-.935.17-.095.343-.188.52-.278l.086-.013c.044-.01 1.178 1.12.232 1.682l.027.033-.204.056c-.236.093-.363.088-.334.12l.332-.11c-.242.087-.064.054.035.046-.1.036-.197.07-.275.11-.053 0 .03-.03.066-.05-.136.03-.332.054-.485.13-.25.09.004.064-.285.174-1.52.592-2.947 1.317-4.402 2.122-.025.033.015.01.06-.006-.446.23-.828.46-1.227.683-.1.08-.116.12-.14.154.033-.09-2.136 1.345-2.148 1.4l-.068-.04c-.405.287-.072.146-.45.406-.204.026-.604.462-.758.52.007.005-.168.147-.137.163-.088 0-.19.133-.31.21-.05.02.02-.037.04-.074l-.265.185c-.087.095-.09.14.02.057-.687.502-3.623 3.32-4.222 4.016.05-.115.262-.302.288-.426-.192.15-.233.27-.334.32.01.136-.345.406-.396.608l-.087.015-.055.113c-.745.76-.186.16-.792.883-.355.415-.583.564-.754.817.026-.036.078-.15-.024-.05.023.05-.258.272-.262.356-.09.104-.36.458-.32.3-.02.08-.245.408-.08.235-.08.11-.15.22-.218.288l.087-.15c-.28.357-.38.59-.598.798l.075-.153c-.16.22-.295.404-.3.53l.175-.218c-.26.367-.406.596-.646.888l.072-.112c-.335.35-1.664 2.488-1.923 2.858l.052-.204-.22.316c.018-.036.187-.074.228-.11-.463.723-2.234 4.557-2.42 5.297-.082.296.057.08.065.08-.15.34-.108.13-.216.43-.022.083.043-.004.067-.047-.055.128-.08.255-.107.257.042-.17-.043-.123-.057-.207l-.133.385.044-.003c-.03.086-.184.18-.295.564-.207.645-.45 1.338-.636 1.992.026-.004.08-.136.137-.268-.025.087-.072.217-.08.303.007-.17-.108.267-.088.138-.193.363-.286.855-.407 1.246l.077-.014a3.65 3.65 0 01.318-.034l-.08.02c.3.014 1.815-.315 2.1-.323l-.107.084.238-.023c-.025.01-.154-.13-.172-.105.495-.105 2.99-.91 3.396-1.147.162-.097 0-.09-.004-.095.217-.068.11.014.29-.063.044-.028-.027-.033-.057-.028.08-.025.146-.074.16-.054-.09.058-.023.1-.05.155l.228-.102-.024-.033c.05-.023.174.05.39-.072.37-.18.78-.358 1.147-.55-.016-.018-.1.008-.185.033.05-.025.128-.057.166-.096-.07.083.167-.053.105-.002.315-.05.62-.31.883-.383.055.073 1.263 1.03 1.325 1.113.076-.048.152-.095.17-.116-.006.032-.15.132-.24.167l-.04-.04c-.196.092-.027.056-.21.156.013.047.185-.043.334-.125-.13.082-.244.19-.324.176-.116.086.042.04-.1.143-.115.05-.277.09-.39.18l.006.005c-.28.206-.498.183-.756.366l.037-.002c-.087.074-.3.136-.466.25.046-.034.076-.086-.034-.04-.195.124-.35.164-.486.265l-.165.025c-.71.376-3.67 1.368-4.442 1.54h.032c-.582.157-1.47.394-2.38.582l-.346.068-.177.033-.046.008-.014.002c.04-.002-.374.027-.2.016H4.84l-.02-.002-.084-.004c-.22-.01-.438-.02-.645-.033l-.304-.017-.073-.004h-.022l-.003-.002h-.002c.563.254-.77-.344-.63-.283l-.002-.003-.026-.027-.094-.104-.176-.2-.042-.047-.005-.007-.233-.465v-.005l-.002-.017-.004-.03-.014-.12c-.075-.182-.107-.442-.15-.636.036.105.062.064.046-.02-.097-.596.023-.046-.05-.65-.073-.698-.463-3.352-.557-3.97.028-.34-.064-.75-.053-1.08l-.012.033c-.018-.35-.233-2.34-.22-2.757l.013.056z"/></svg>