<svg width="16" height="16" xmlns="http://www.w3.org/2000/svg"><style>.a{fill:#fff}.b{fill:#b3b3b3}@media (prefers-color-scheme:dark){.a{fill:#1b1d21}.b{fill:#6f7685}}</style><path class="a" d="M2.88 1.92h10.24v12.16H2.88z"/><path class="b" d="M13 2.24v11.52H3V2.24h10m.64-.64H2.4v12.8h11.2zM12 4.1v-.64H4.06v.64zm0 1.7v-.65H4.06v.64zm0 1.7v-.65H4.06v.64zm0 1.7v-.66H4.06v.64zm0 1.7v-.64H4.06v.64zm0 1.7V12H4.06v.64z"/><path d="M15.83 1.6s.1-.3-.83-1-1.34-.6-1.34-.6c-.5 0-.71 0-1 .3L6.3 9.07a.43.43 0 00-.07.13 39.71 39.71 0 00-.5 4.07c.12.08 3-1.39 3.64-1.68h.1a.41.41 0 00.11-.1l6.26-8.6a1.27 1.27 0 00-.01-1.29z" fill="#edad3b"/><path class="a" d="M7.54 12.21s-.36-.84-1-.69l-.38.48.53-2.85a3.69 3.69 0 011.16.26 2.18 2.18 0 011 .72 5.33 5.33 0 01.63 1.2z"/></svg>