<svg xmlns="http://www.w3.org/2000/svg" width="18" height="18"><path fill="#1b1d21" d="M3.24 2.16h11.52v13.68H3.24z"/><path fill="#6f7685" d="M14.58 2.52v13H3.42v-13zm.72-.72H2.7v14.4h12.6zm-1.8 2.81v-.72H4.57v.72zm0 1.91V5.8H4.57v.72zm0 1.91V7.7H4.57v.72zm0 1.91v-.73H4.57v.72zm0 1.91v-.72H4.57v.72zm0 1.91v-.72H4.57v.72z"/><path fill="#6f7685" d="M17.81 1.8s.11-.33-.94-1.1-1.51-.7-1.51-.7c-.56 0-.8 0-1.1.34L7.09 10.2a.5.5 0 00-.07.15H7a45 45 0 00-.57 4.59 44 44 0 004.1-1.94l.11-.05a.5.5 0 00.12-.12l7-9.68a1.43 1.43 0 00.05-1.35"/><path fill="#1b1d21" d="M8.48 13.73s-.41-.94-1.15-.77l-.4.54.59-3.21a4.2 4.2 0 011.31.29 2.5 2.5 0 011.1.81 6.2 6.2 0 01.7 1.35z"/><path fill="gray" d="M13.027 13.745v-1.318c0-.34.287-.625.625-.625h1.63c.339 0 .626.285.626.625v1.318h.959v-1.318a1.59 1.59 0 00-1.585-1.584h-1.63a1.59 1.59 0 00-1.584 1.584v1.318z"/><path fill="#ffad00" d="M17.436 17.614a.32.32 0 01-.319.321h-5.295a.32.32 0 01-.323-.321v-3.707c0-.179.146-.322.323-.322h5.291c.179 0 .322.146.322.322v3.707z"/></svg>