<svg xmlns="http://www.w3.org/2000/svg" width="16" height="16"><path fill="#fff" d="M2.88 1.92h10.24v12.16H2.88z"/><path fill="#b3b3b3" d="M13 2.24v11.52H3V2.24zm.64-.64H2.4v12.8h11.2zM12 4.1v-.64H4.06v.64zm0 1.7v-.65H4.06v.64zm0 1.7v-.65H4.06v.64zm0 1.7v-.66H4.06v.64zm0 1.7v-.64H4.06v.64zm0 1.7V12H4.06v.64z"/><path fill="#edad3b" d="M15.83 1.6s.1-.3-.83-1-1.34-.6-1.34-.6c-.5 0-.71 0-1 .3L6.3 9.07a.4.4 0 00-.07.13 40 40 0 00-.5 4.07c.12.08 3-1.39 3.64-1.68h.1a.4.4 0 00.11-.1l6.26-8.6a1.27 1.27 0 00-.01-1.29"/><path fill="#fff" d="M7.54 12.21s-.36-.84-1-.69l-.38.48.53-2.85a3.7 3.7 0 011.16.26 2.2 2.2 0 011 .72 5.3 5.3 0 01.63 1.2z"/></svg>