<svg xmlns="http://www.w3.org/2000/svg" width="28" height="28" viewBox="0 0 24 24"><style>.a{fill:#fff}.b{fill:#b3b3b3}@media (prefers-color-scheme:dark){.a{fill:#1b1d21}.b{fill:#6f7685}}</style><path class="b" d="M19.4 2.4a2.2 2.2 0 012.2 2.2v14.8a2.2 2.2 0 01-2.2 2.2H4.6a2.2 2.2 0 01-2.2-2.2V4.6a2.2 2.2 0 012.2-2.2z"/><path class="a" d="M19.4 3.4H4.6a1.2 1.2 0 00-1.2 1.2v14.8a1.2 1.2 0 001.2 1.2h14.8a1.2 1.2 0 001.2-1.2V4.6a1.2 1.2 0 00-1.2-1.2"/><path d="M6 11.56h6.4v6.15H6z" fill="#74b739"/><path class="b" d="M18.01 8.93H5.99v-.88h12.02v.88zm0-2.64H5.99v.88h12.02v-.88zm0 3.52H5.99v.88h12.02v-.88z"/></svg>