<svg xmlns="http://www.w3.org/2000/svg" width="16" height="16"><path fill="#f08c00" d="M2.88 2.224h10.24v12.16H2.88V2.224z"/><path opacity=".2" fill="#fff" d="M2.88 2.224h10.24v12.16H2.88V2.224z"/><path fill="#f08c00" d="M2.4 1.904v12.8h11.2v-12.8H2.4zm10.56 12.16H3.04V2.544h9.92v11.52z"/><path opacity=".25" d="M10.848 1.872h-.051a.391.391 0 01.051.192v.288a.384.384 0 01-.384.384h-.319v1.12a.384.384 0 01-.385.384H5.748c.066.114.19.192.332.192h4.064a.384.384 0 00.383-.384v-1.12h.32a.384.384 0 00.385-.384v-.288a.383.383 0 00-.384-.384z"/><path fill="#ccc" d="M10.688 1.68h-.319a.384.384 0 00-.384-.384H5.92a.384.384 0 00-.384.384h-.32a.384.384 0 00-.384.384v.288c0 .212.172.384.384.384h.32v1.12c0 .212.172.384.384.384h4.064a.384.384 0 00.384-.384v-1.12h.319a.384.384 0 00.385-.384v-.288a.384.384 0 00-.384-.384z"/><path fill="#b3b3b3" d="M5.536 2.736h4.832v.544H5.536v-.544z"/><path fill="#fff" d="M10.191 5.403L8.218 7.376a.321.321 0 01-.452 0L5.797 5.418a.32.32 0 00-.452 0L4.093 6.67a.319.319 0 00.001.451l1.975 1.952a.319.319 0 01.001.451l-1.982 1.981a.322.322 0 000 .453l1.244 1.243a.321.321 0 00.452 0l1.982-1.981a.32.32 0 01.452 0l1.987 1.986a.32.32 0 00.453 0l1.243-1.243a.321.321 0 000-.452L9.914 9.524a.32.32 0 010-.452l1.973-1.973a.32.32 0 000-.452l-1.244-1.244a.321.321 0 00-.452 0z"/></svg>