<svg xmlns="http://www.w3.org/2000/svg" width="16" height="16" viewBox="0 0 500 500"><path d="M432.857 185.714H331.43c-9.43 0-17.145-7.714-17.145-17.143V67.144c0-9.428-7.714-17.143-17.143-17.143h-94.914c-9.428 0-17.106 7.714-17.063 17.143l.47 101.43c.043 9.427-7.636 17.142-17.064 17.142H67.144c-9.428 0-17.143 7.714-17.143 17.143v94.285c0 9.43 7.714 17.143 17.143 17.143h101.43c9.427 0 17.142 7.715 17.142 17.144v101.43c0 9.428 7.714 17.142 17.143 17.142h94.285c9.43 0 17.143-7.714 17.143-17.143V331.43c0-9.43 7.715-17.145 17.144-17.145h101.43c9.428 0 17.142-7.714 17.142-17.143v-94.285c-.002-9.428-7.716-17.143-17.145-17.143z" fill="#b3b3b3"/><path d="M329.91 451.422c-7.542 0-14.602-3.01-19.878-8.478L228.55 358.49c-12.21-12.65-14.847-17.78-12.266-23.856 1.607-3.784 5.32-6.23 9.458-6.23h44.306c.156-2.19.27-4.96.27-8.264v-71.09c0-15.586 12.68-28.266 28.266-28.266h62.653c15.585 0 28.265 12.68 28.265 28.265v71.09c0 3.32.135 6.094.317 8.265h43.648c4.198 0 7.96 2.472 9.586 6.298 2.585 6.086-.278 11.866-11.782 23.79l-81.482 84.45c-5.276 5.467-12.336 8.48-19.88 8.48z" fill="#ccc"/><path d="M361.236 230.784c10.046 0 18.265 8.22 18.265 18.265v71.09c0 10.045 1.194 18.265 2.654 18.265h51.314c1.81 0-2.418 5.915-9.393 13.144L342.593 436c-3.487 3.614-8.085 5.422-12.682 5.422-4.597 0-9.193-1.808-12.682-5.422l-81.482-84.452c-6.976-7.23-11.477-13.144-10.004-13.144h52.278c1.265 0 2.298-8.22 2.298-18.265v-71.092c0-10.045 8.22-18.265 18.265-18.265h62.653m0-20h-62.653c-21.1 0-38.265 17.167-38.265 38.266v69.354h-34.575c-8.16 0-15.484 4.836-18.663 12.32-4.922 11.592 2.498 21.02 5.292 24.57 2.322 2.95 5.43 6.457 8.984 10.14l81.48 84.452c7.18 7.438 16.794 11.535 27.076 11.535s19.897-4.096 27.074-11.534l81.482-84.452c3.58-3.71 6.683-7.278 8.976-10.322 2.395-3.18 9.683-12.857 4.814-24.32-3.196-7.525-10.572-12.388-18.79-12.388h-33.966V249.05c0-21.1-17.166-38.266-38.266-38.266z" fill="#fff"/></svg>