<svg xmlns="http://www.w3.org/2000/svg" width="16" height="16" viewBox="0 0 500 500"><style>.a{fill:#fff}@media (prefers-color-scheme:dark){.a{fill:#1b1d21}}</style><path fill="#74b739" d="M432.857 185.715H331.43c-9.43 0-17.144-7.715-17.144-17.143V67.144c0-9.43-7.715-17.144-17.144-17.144h-94.914c-9.43 0-17.107 7.715-17.063 17.144l.47 101.43c.043 9.427-7.636 17.142-17.064 17.142H67.144c-9.43 0-17.143 7.714-17.143 17.143v94.285c0 9.43 7.714 17.143 17.143 17.143h101.43c9.427 0 17.142 7.715 17.142 17.144V432.86c0 9.43 7.714 17.143 17.143 17.143h94.285c9.43 0 17.144-7.714 17.144-17.143V331.43c0-9.43 7.714-17.144 17.143-17.144h101.43c9.428 0 17.142-7.714 17.142-17.143v-94.286c-.002-9.428-7.716-17.142-17.145-17.142z"/><path fill="#edad3b" d="M329.91 451.422c-7.543 0-14.603-3.01-19.878-8.48l-81.482-84.45c-12.21-12.654-14.847-17.783-12.266-23.858 1.607-3.784 5.32-6.23 9.458-6.23h44.307c.155-2.19.27-4.96.27-8.264v-71.09c0-15.585 12.68-28.265 28.264-28.265h62.653c15.585 0 28.265 12.68 28.265 28.264v71.09c0 3.32.135 6.094.317 8.265h43.65c4.197 0 7.96 2.472 9.584 6.297 2.585 6.086-.277 11.866-11.78 23.79l-81.484 84.452c-5.275 5.467-12.335 8.478-19.88 8.478z"/><path class="a" d="M361.236 230.785c10.046 0 18.265 8.22 18.265 18.264v71.09c0 10.046 1.195 18.265 2.654 18.265h51.315c1.808 0-2.42 5.915-9.395 13.145L342.593 436c-3.487 3.615-8.085 5.422-12.682 5.422-4.597 0-9.193-1.807-12.682-5.422l-81.482-84.45c-6.976-7.23-11.477-13.146-10.004-13.146h52.278c1.265 0 2.3-8.22 2.3-18.265v-71.092c0-10.045 8.218-18.264 18.263-18.264h62.653m0-20h-62.653c-21.1 0-38.264 17.166-38.264 38.265v69.354h-34.577c-8.16 0-15.484 4.836-18.663 12.32-4.923 11.59 2.497 21.02 5.29 24.57 2.323 2.95 5.43 6.457 8.984 10.14l81.482 84.452c7.178 7.438 16.793 11.535 27.075 11.535 10.284 0 19.9-4.096 27.076-11.535l81.48-84.45c3.58-3.71 6.685-7.28 8.977-10.324 2.396-3.18 9.684-12.856 4.814-24.318-3.196-7.525-10.57-12.388-18.79-12.388h-33.966V249.05c0-21.1-17.164-38.265-38.264-38.265z"/></svg>