<svg xmlns="http://www.w3.org/2000/svg" width="20" height="20"><path fill="#74b739" d="M19 15.266A3.734 3.734 0 0115.266 19H4.734A3.734 3.734 0 011 15.266V4.734A3.734 3.734 0 014.734 1h10.531A3.735 3.735 0 0119 4.734v10.532z"/><path fill="#fff" d="M4.266 5.142v9.717h7.705v-3.586h3.764V5.142H4.266zm3.832 8.648H5.58v-2.518h2.518v2.518zm0-3.119H5.58V8.152h2.518v2.519zm3.161 3.119H8.741v-2.518h2.518v2.518zm0-3.119H8.741V8.152h2.518v2.519zm3.162 0h-2.519V8.152h2.519v2.519zm-1.205 4.187v-2.52h2.519l-2.519 2.52z"/></svg>