<svg xmlns="http://www.w3.org/2000/svg" width="16" height="16"><linearGradient id="a" x1="8838.547" y1="-12581.34" x2="9150.52" y2="-12893.314" gradientTransform="matrix(.032 0 0 -.032 -280.124 -400.032)"><stop offset="0" stop-color="#c9473d"/><stop offset="1" stop-color="#9e3939"/></linearGradient><path fill="url(#a)" d="M11.04 1.603L8.034 4.608a.49.49 0 01-.689 0l-3-2.984a.49.49 0 00-.689 0L1.749 3.532a.486.486 0 00.002.687L4.76 7.193c.19.189.191.499.001.688L1.741 10.9a.49.49 0 000 .69l1.895 1.894a.49.49 0 00.689 0l3.02-3.019a.49.49 0 01.689 0l3.029 3.027c.188.19.499.19.688 0l1.896-1.895a.491.491 0 000-.689L10.618 7.88a.488.488 0 010-.689l3.005-3.006a.49.49 0 000-.689l-1.895-1.895a.488.488 0 00-.688.002z"/><linearGradient id="b" x1="9005.529" y1="-12736.03" x2="9178.304" y2="-12908.805" gradientTransform="matrix(.032 0 0 -.032 -280.124 -400.032)"><stop offset="0" stop-color="#edad3b"/><stop offset="1" stop-color="#dba049"/></linearGradient><path fill="url(#b)" d="M10.818 15.382a1.04 1.04 0 01-.754-.32l-3.189-3.308c-.465-.482-.566-.674-.473-.894a.365.365 0 01.336-.222h1.769c.008-.091.014-.213.014-.359V7.495A1.07 1.07 0 019.59 6.426h2.453c.59 0 1.07.48 1.07 1.069v2.785c0 .147.007.269.016.359h1.742c.149 0 .283.089.342.225.082.194.034.386-.454.893l-3.19 3.306c-.199.206-.466.32-.751.319z"/><path fill="#FFF" d="M12.044 6.779c.394 0 .716.322.716.715v2.785c0 .393.046.714.104.714h2.009c.071 0-.095.232-.368.516l-3.19 3.307a.686.686 0 01-.993 0l-3.19-3.307c-.272-.283-.449-.516-.392-.516h2.048c.05 0 .09-.321.09-.714V7.495c0-.393.321-.714.715-.714l2.451-.002m-.001-.708H9.591c-.785 0-1.425.639-1.425 1.424v2.791H6.738c-.29 0-.55.172-.662.437-.176.414.085.746.197.888.089.113.209.249.347.392l3.191 3.306c.268.277.624.43 1.008.43.382 0 .739-.152 1.006-.43l3.19-3.306a4.64 4.64 0 00.347-.397c.096-.129.353-.47.18-.878a.724.724 0 00-.669-.44H13.47V7.495a1.428 1.428 0 00-1.427-1.424z"/></svg>