<svg xmlns="http://www.w3.org/2000/svg" width="16" height="16"><style>.a{fill:#fff}.b{fill:#b3b3b3}@media (prefers-color-scheme:dark){.a{fill:#1b1d21}.b{fill:#6f7685}}</style><path class="b" d="M2.4 1.6h11.2v12.8H2.4z"/><path class="a" d="M3.04 2.24h9.92v11.52H3.04z"/><path class="b" d="M12 4.1H4.06v-.64H12zm0 1.06H4.06v.64H12zM4.06 6.85H12v.64H4.06zm0 1.69H12v.64H4.06z"/><path class="b" d="M10 12.62H1.63V10H10zm-7.42-1h6.48V11H2.59zm10.6-3.15v1.4s-.22.07-.5.07h-1.94a.5.5 0 00-.5.5v1.71a.5.5 0 00.5.5h1.94a1.05 1.05 0 01.5.06v1.43s.16-.08.36-.27l2.31-2.23a.48.48 0 000-.68l-2.31-2.24c-.2-.19-.36-.31-.36-.26z"/></svg>