<svg xmlns="http://www.w3.org/2000/svg" width="16" height="16" viewBox="0 0 500 500"><path fill="#fff" d="M410 155v285H90V60h228z"/><path fill="#fff" d="m146.79 396.232-1.346-31.653 12.123-50.51s36.367-17.51 52.53 4.713c16.163 22.225 10.776 46.47 10.776 46.47l-74.082 30.98z"/><path fill="#b3b3b3" d="M353.303 159.253s2.04-6.247-17.573-20.526c-19.612-14.28-28.14-12.917-28.14-12.917-10.592-.846-14.938-.35-20.675 6.365L152.853 316.308a9.3 9.3 0 00-1.396 2.788h-.338s-13.33 83.824-10.574 85.793c2.488 1.775 63.67-29.29 76.55-35.337.72-.2 1.442-.536 2.133-1.003l.025-.01-.002-.007a9.2 9.2 0 002.28-2.222l131.772-180.986c8.118-11.448-.002-26.07-.002-26.07zM178.84 382.435s-7.606-17.666-21.515-14.504l-7.46 10.046 11.07-60.023c10.932.696 19.415 3.362 24.54 5.442 7.213 3.085 16.048 8.01 20.624 15.16 10.636 16.62 13.155 25.264 13.155 25.264l-40.415 18.615z"/><path fill="#b3b3b3" d="M322.597 49.85 75 50v400h350V153zM405 430H95V70h205v107h105z"/></svg>