<svg xmlns="http://www.w3.org/2000/svg" width="16" height="16" viewBox="0 0 500 500"><path fill="#6f7685" d="M414.94 83.144s3.21-9.835-27.667-32.317C356.393 28.345 342.97 30.49 342.97 30.49c-16.678-1.332-23.52-.55-32.553 10.02L99.342 330.42a14.7 14.7 0 00-2.195 4.39h-.534S75.63 466.788 79.967 469.885c3.917 2.797 100.244-46.114 120.526-55.635 1.13-.313 2.27-.844 3.356-1.577.01-.007.04-.02.04-.02l-.002-.008c1.31-.89 2.543-2.06 3.59-3.497l207.467-284.956c12.78-18.023-.004-41.048-.004-41.048M140.26 434.532s-11.974-27.813-33.874-22.835L94.64 427.513l17.43-94.506c17.21 1.097 30.568 5.294 38.638 8.568 11.354 4.856 25.266 12.612 32.47 23.868 16.748 26.17 20.713 39.777 20.713 39.777l-63.632 29.312z"/></svg>