<svg xmlns="http://www.w3.org/2000/svg" width="18" height="18" viewBox="0 10 500 500"><linearGradient id="a" x1="103.431" y1="395.935" x2="396.568" y2="102.797" gradientTransform="matrix(1 0 0 -1 0 533.73)"><stop offset=".115" stop-color="#edad3b"/><stop offset=".751" stop-color="#dba049"/></linearGradient><path fill="url(#a)" d="M216.4 405.795l30.422-15.993c1.746-.918 5.645-.37 8.663 1.217 3.02 1.585 17.75 9.33 32.735 17.207l73.387 38.58c14.985 7.877 24.905.672 22.043-16.016l-13.63-79.464c-2.86-16.688-5.762-33.595-6.443-37.574-.684-3.98.092-8.534 1.724-10.125l25.01-24.376 62.32-60.75c12.124-11.817 8.336-23.478-8.42-25.912l-84.778-12.32-35.233-5.118c-2.625-.38-5.504-2.176-6.398-3.99l-15.25-30.898-38.93-78.877c-7.493-15.182-19.755-15.182-27.248 0L196.92 141.33c-7.494 15.182-14.238 28.846-14.986 30.365-.75 1.52-3.295 3.042-5.656 3.384l-34.757 5.05-85.73 12.456c-16.754 2.434-20.543 14.095-8.42 25.913l61.684 60.125c12.125 11.818 23.52 22.928 25.327 24.688 1.806 1.76 3 4.852 2.655 6.87-.346 2.02-2.97 17.323-5.833 34.01L116.35 430.79c-2.863 16.688 7.057 23.893 22.042 16.016l78.008-41.01z"/><path fill="#FFF" d="M234.906 319.99l13.668-7.185c.783-.414 2.535-.166 3.89.547 1.356.712 7.974 4.19 14.707 7.73l32.968 17.33c6.732 3.54 11.188.304 9.902-7.194l-6.12-35.698-2.897-16.88c-.307-1.786.043-3.835.775-4.55s5.788-5.64 11.234-10.95l27.996-27.29c5.447-5.31 3.746-10.548-3.78-11.642l-38.088-5.534-15.828-2.3c-1.178-.17-2.47-.977-2.873-1.79l-6.853-13.882-17.488-35.435c-3.367-6.82-8.874-6.82-12.24 0l-17.726 35.915-6.732 13.64c-.336.683-1.48 1.368-2.54 1.522l-15.615 2.27-38.513 5.595c-7.527 1.093-9.23 6.33-3.783 11.64l27.712 27.013 11.378 11.092c.81.79 1.348 2.18 1.192 3.085l-2.62 15.277-6.673 38.902c-1.287 7.497 3.17 10.733 9.902 7.194l35.044-18.425z"/></svg>