<svg width="18" height="18" viewBox="0 0 18 19" xmlns="http://www.w3.org/2000/svg" xml:space="preserve" style="fill-rule:evenodd;clip-rule:evenodd;stroke-linejoin:round;stroke-miterlimit:2"><path style="fill:none" d="M0 .324h18v18H0z"/><path d="M4.493 13.263c.421 0 .777.146 1.07.441.294.293.441.645.441 1.051 0 .409-.147.758-.441 1.053a1.465 1.465 0 0 1-1.07.442 1.44 1.44 0 0 1-1.062-.442A1.449 1.449 0 0 1 3 14.755c0-.405.144-.757.431-1.051a1.431 1.431 0 0 1 1.062-.441Zm0-8.995c1.896 0 3.65.469 5.263 1.404a10.422 10.422 0 0 1 3.833 3.821A10.264 10.264 0 0 1 15 14.755c0 .409-.146.758-.44 1.053-.294.292-.65.442-1.07.442-.423 0-.775-.15-1.064-.442a1.46 1.46 0 0 1-.432-1.053c0-2.062-.73-3.828-2.194-5.297-1.461-1.47-3.231-2.205-5.307-2.205-.42 0-.773-.147-1.062-.44A1.454 1.454 0 0 1 3 5.76c0-.408.144-.757.431-1.052a1.43 1.43 0 0 1 1.062-.441v.001Zm0 4.498c1.656 0 3.072.584 4.245 1.754 1.178 1.168 1.766 2.581 1.766 4.237 0 .408-.149.757-.442 1.052a1.465 1.465 0 0 1-1.07.442c-.42 0-.773-.15-1.062-.442a1.445 1.445 0 0 1-.432-1.052c0-.827-.292-1.534-.881-2.123a2.89 2.89 0 0 0-2.123-.882c-.4.008-.785-.152-1.062-.441a1.458 1.458 0 0 1-.431-1.052c0-.407.144-.757.431-1.053a1.43 1.43 0 0 1 1.06-.44h.001Z" style="fill:#ffad00;fill-rule:nonzero"/><path d="m7.098 11.918.41-.591a.515.515 0 0 0-.127-.709l-.47-.325a.505.505 0 0 0-.708.127l-.719 1.035a6.901 6.901 0 0 0-.984-.074c-2.485 0-4.5 1.289-4.5 2.883 0 .971.755 1.826 1.902 2.349l-.408.588a.508.508 0 0 0 .127.706l.469.327c.088.062.188.09.289.09a.504.504 0 0 0 .418-.217l.719-1.032c.318.043.645.072.984.072 2.485 0 4.5-1.29 4.5-2.884 0-.971-.755-1.822-1.902-2.345ZM.956 14.264c0-.701.868-1.46 2.218-1.773a2.245 2.245 0 0 0-.539 3.067l-.181.259c-.931-.375-1.498-.985-1.498-1.553Zm4.981 1.753a2.235 2.235 0 0 0 .813-1.718c0-.481-.154-.922-.411-1.289l.208-.299c.933.378 1.498.985 1.498 1.553-.001.682-.819 1.423-2.108 1.753Z" style="fill:url(#a);fill-rule:nonzero"/><defs><linearGradient id="a" x1="0" y1="0" x2="1" y2="0" gradientUnits="userSpaceOnUse" gradientTransform="rotate(42.069 247.919 -556.491) scale(57.6002)"><stop offset="0" style="stop-color:#636363;stop-opacity:1"/><stop offset="1" style="stop-color:#2e2e2e;stop-opacity:1"/></linearGradient></defs></svg>