<svg xmlns="http://www.w3.org/2000/svg" width="18" height="18"><path fill="#ffad00" d="M4.493 12.939q.631 0 1.07.44.441.442.441 1.052c0 .409-.147.757-.441 1.053a1.46 1.46 0 01-1.07.441 1.44 1.44 0 01-1.062-.441A1.45 1.45 0 013 14.431q0-.608.431-1.052a1.43 1.43 0 011.062-.44m0-8.995q2.844.001 5.263 1.403a10.4 10.4 0 013.833 3.822A10.26 10.26 0 0115 14.431c0 .409-.146.757-.44 1.053q-.44.44-1.07.441-.633-.001-1.064-.441a1.46 1.46 0 01-.432-1.053q.001-3.095-2.194-5.297-2.192-2.205-5.307-2.205-.63 0-1.062-.44A1.45 1.45 0 013 5.436c0-.409.144-.757.431-1.053q.433-.44 1.062-.44zm0 4.497q2.485 0 4.245 1.755 1.767 1.753 1.766 4.236c0 .409-.149.757-.442 1.053a1.46 1.46 0 01-1.07.441q-.63-.001-1.062-.441a1.45 1.45 0 01-.432-1.053 2.9 2.9 0 00-.881-2.122 2.9 2.9 0 00-2.123-.882c-.4.008-.785-.153-1.062-.442a1.45 1.45 0 01-.431-1.051q0-.611.431-1.053a1.43 1.43 0 011.06-.441z"/><path fill="gray" d="m7.098 11.918.41-.591a.515.515 0 00-.127-.709l-.47-.325a.505.505 0 00-.708.127l-.719 1.035a7 7 0 00-.984-.074c-2.485 0-4.5 1.289-4.5 2.883 0 .971.755 1.826 1.902 2.349l-.408.588a.51.51 0 00.127.706l.469.327c.088.062.188.09.289.09a.5.5 0 00.418-.217l.719-1.032c.318.043.645.072.984.072 2.485 0 4.5-1.29 4.5-2.884 0-.971-.755-1.822-1.902-2.345M.956 14.264c0-.701.868-1.46 2.218-1.773a2.245 2.245 0 00-.539 3.067l-.181.259c-.931-.375-1.498-.985-1.498-1.553m4.981 1.753a2.24 2.24 0 00.813-1.718c0-.481-.154-.922-.411-1.289l.208-.299c.933.378 1.498.985 1.498 1.553-.001.682-.819 1.423-2.108 1.753"/></svg>