<svg width="18" height="18" xmlns="http://www.w3.org/2000/svg"><path d="M4.493 12.939c.421 0 .777.146 1.07.44.294.294.441.646.441 1.052 0 .409-.147.757-.441 1.053a1.464 1.464 0 01-1.07.441 1.44 1.44 0 01-1.062-.441A1.45 1.45 0 013 14.431c0-.405.144-.757.431-1.052a1.43 1.43 0 011.062-.44zm0-8.995c1.896 0 3.65.469 5.263 1.403a10.425 10.425 0 013.833 3.822A10.262 10.262 0 0115 14.431c0 .409-.146.757-.44 1.053-.294.292-.65.441-1.07.441-.423 0-.775-.149-1.064-.441a1.46 1.46 0 01-.432-1.053c0-2.063-.73-3.829-2.194-5.297-1.461-1.47-3.231-2.205-5.307-2.205-.42 0-.773-.147-1.062-.44A1.454 1.454 0 013 5.436c0-.409.144-.757.431-1.053.288-.293.643-.44 1.062-.44v.001zm0 4.497c1.656 0 3.072.585 4.245 1.755 1.178 1.168 1.766 2.581 1.766 4.236 0 .409-.149.757-.442 1.053a1.46 1.46 0 01-1.07.441c-.42 0-.773-.149-1.062-.441a1.447 1.447 0 01-.432-1.053 2.89 2.89 0 00-.881-2.122 2.887 2.887 0 00-2.123-.882c-.4.008-.785-.153-1.062-.442a1.454 1.454 0 01-.431-1.051c0-.408.144-.758.431-1.053a1.43 1.43 0 011.06-.441h.001z" fill="#ccc"/><path d="M7.098 11.918l.41-.591a.515.515 0 00-.127-.709l-.47-.325a.505.505 0 00-.708.127l-.719 1.035a6.901 6.901 0 00-.984-.074c-2.485 0-4.5 1.289-4.5 2.883 0 .971.755 1.826 1.902 2.349l-.408.588a.508.508 0 00.127.706l.469.327c.088.062.188.09.289.09a.504.504 0 00.418-.217l.719-1.032c.318.043.645.072.984.072 2.485 0 4.5-1.29 4.5-2.884 0-.971-.755-1.822-1.902-2.345zM.956 14.264c0-.701.868-1.46 2.218-1.773a2.245 2.245 0 00-.539 3.067l-.181.259c-.931-.375-1.498-.985-1.498-1.553zm4.981 1.753a2.235 2.235 0 00.813-1.718c0-.481-.154-.922-.411-1.289l.208-.299c.933.378 1.498.985 1.498 1.553-.001.682-.819 1.423-2.108 1.753z" fill="#636363"/></svg>