<svg width="18" height="18" viewBox="0 0 19 19" xmlns="http://www.w3.org/2000/svg" xml:space="preserve" style="fill-rule:evenodd;clip-rule:evenodd;stroke-linejoin:round;stroke-miterlimit:2"><path style="fill:none" d="M.787.324h18v18h-18z"/><path d="M5.281 13.266c.42 0 .776.146 1.07.441.294.293.44.645.44 1.051 0 .409-.146.757-.44 1.053a1.465 1.465 0 0 1-1.07.441 1.44 1.44 0 0 1-1.062-.441 1.45 1.45 0 0 1-.431-1.053c0-.405.144-.757.431-1.051a1.43 1.43 0 0 1 1.062-.441Zm0-8.995c1.895 0 3.649.469 5.262 1.404a10.407 10.407 0 0 1 3.833 3.821 10.255 10.255 0 0 1 1.411 5.262c0 .409-.146.757-.439 1.053a1.468 1.468 0 0 1-1.071.441c-.422 0-.774-.149-1.063-.441a1.455 1.455 0 0 1-.432-1.053c0-2.062-.731-3.829-2.194-5.297-1.461-1.47-3.232-2.205-5.307-2.205-.42 0-.773-.147-1.062-.44a1.45 1.45 0 0 1-.431-1.053c0-.408.144-.757.431-1.053.287-.293.643-.44 1.062-.44v.001Zm0 4.498c1.655 0 3.071.584 4.245 1.754 1.177 1.168 1.766 2.581 1.766 4.236 0 .409-.15.758-.443 1.053-.28.288-.668.448-1.07.442-.42 0-.773-.15-1.062-.442a1.454 1.454 0 0 1-.432-1.053 2.89 2.89 0 0 0-.881-2.122 2.883 2.883 0 0 0-2.122-.882c-.4.008-.786-.152-1.062-.442a1.446 1.446 0 0 1-.431-1.051c0-.408.144-.758.431-1.053.276-.288.66-.448 1.06-.44h.001Z" style="fill:#ccc;fill-rule:nonzero"/><path d="m7.885 11.918.411-.591a.515.515 0 0 0-.127-.709l-.471-.325a.502.502 0 0 0-.707.127l-.719 1.035a6.904 6.904 0 0 0-.985-.074c-2.485 0-4.5 1.289-4.5 2.883 0 .971.755 1.826 1.903 2.349l-.409.588a.508.508 0 0 0 .128.706l.469.327c.087.062.188.09.289.09a.502.502 0 0 0 .417-.217l.719-1.032c.318.043.646.072.984.072 2.486 0 4.5-1.29 4.5-2.884 0-.971-.754-1.822-1.902-2.345Zm-6.141 2.346c0-.701.867-1.46 2.217-1.773a2.245 2.245 0 0 0-.539 3.067l-.181.259c-.93-.375-1.497-.985-1.497-1.553Zm4.98 1.753a2.232 2.232 0 0 0 .813-1.718c0-.481-.154-.922-.41-1.289l.208-.299c.933.378 1.497.985 1.497 1.553-.001.682-.819 1.423-2.108 1.753Z" style="fill:url(#a);fill-rule:nonzero"/><defs><linearGradient id="a" x1="0" y1="0" x2="1" y2="0" gradientUnits="userSpaceOnUse" gradientTransform="rotate(42.069 248.312 -555.468) scale(57.6002)"><stop offset="0" style="stop-color:#636363;stop-opacity:1"/><stop offset="1" style="stop-color:#2e2e2e;stop-opacity:1"/></linearGradient></defs></svg>