<svg width="18" height="18" xmlns="http://www.w3.org/2000/svg" xml:space="preserve" style="fill-rule:evenodd;clip-rule:evenodd;stroke-linejoin:round;stroke-miterlimit:2"><path style="fill:none" d="M0 0h18v18H0z"/><path d="M4.493 12.939c.421 0 .777.146 1.07.44.294.294.441.646.441 1.052 0 .409-.147.757-.441 1.053a1.464 1.464 0 0 1-1.07.441 1.44 1.44 0 0 1-1.062-.441A1.45 1.45 0 0 1 3 14.431c0-.405.144-.757.431-1.052a1.43 1.43 0 0 1 1.062-.44Zm0-8.995c1.896 0 3.65.469 5.263 1.403a10.425 10.425 0 0 1 3.833 3.822A10.262 10.262 0 0 1 15 14.431c0 .409-.146.757-.44 1.053-.294.292-.65.441-1.07.441-.423 0-.775-.149-1.064-.441a1.46 1.46 0 0 1-.432-1.053c0-2.063-.73-3.829-2.194-5.297-1.461-1.47-3.231-2.205-5.307-2.205-.42 0-.773-.147-1.062-.44A1.454 1.454 0 0 1 3 5.436c0-.409.144-.757.431-1.053.288-.293.643-.44 1.062-.44v.001Zm0 4.497c1.656 0 3.072.585 4.245 1.755 1.178 1.168 1.766 2.581 1.766 4.236 0 .409-.149.757-.442 1.053a1.46 1.46 0 0 1-1.07.441c-.42 0-.773-.149-1.062-.441a1.447 1.447 0 0 1-.432-1.053 2.89 2.89 0 0 0-.881-2.122 2.887 2.887 0 0 0-2.123-.882c-.4.008-.785-.153-1.062-.442a1.454 1.454 0 0 1-.431-1.051c0-.408.144-.758.431-1.053a1.43 1.43 0 0 1 1.06-.441h.001Z" style="fill:#ffad00;fill-rule:nonzero"/></svg>