<svg xmlns="http://www.w3.org/2000/svg" width="16" height="16"><path fill="#b6b6b6" d="M13.416 2H2.584l4.208 5.687V14h2.415V7.688z"/><path fill="#74b739" d="M15.657 10.714h-2.029a.342.342 0 01-.342-.342V8.344A.344.344 0 0012.943 8h-1.898a.341.341 0 00-.341.344l.009 2.028a.342.342 0 01-.341.342H8.343a.344.344 0 00-.343.344v1.886c0 .188.154.343.343.343h2.029c.188 0 .342.153.342.342v2.029c0 .188.154.343.344.343h1.886a.344.344 0 00.343-.343v-2.029c0-.188.154-.342.342-.342h2.029a.344.344 0 00.343-.343v-1.887a.345.345 0 00-.344-.343z"/></svg>