<svg xmlns="http://www.w3.org/2000/svg" width="16" height="16"><path fill="#b6b6b6" d="M13.416 2H2.584l4.208 5.687V14h2.415V7.688z"/><path fill="#db3423" d="M13.868 8.121l-1.595 1.594a.381.381 0 01-.538 0L10.14 8.121a.381.381 0 00-.538 0L8.11 9.612a.38.38 0 00.002.538l1.601 1.587c.148.147.15.388.002.538l-1.594 1.593a.38.38 0 000 .538l1.481 1.482a.381.381 0 00.538 0l1.595-1.594a.383.383 0 01.538 0l1.595 1.594a.383.383 0 00.539 0l1.481-1.482a.381.381 0 000-.538l-1.594-1.593a.385.385 0 010-.541l1.594-1.593a.381.381 0 000-.538l-1.481-1.482a.383.383 0 00-.539 0z"/></svg>