<svg xmlns="http://www.w3.org/2000/svg" width="18" height="18" viewBox="0 0 500 500"><path d="M325.97 259.5L81.487 329.928l-71.02-246.55 244.482-70.425z" fill="#fff"/><path d="M251.524 19.133L319.78 256.08 84.9 323.74 16.645 86.794l234.88-67.66m6.84-12.378L4.268 79.953 78.06 336.118l254.1-73.196L258.364 6.756z" fill="#b3b3b3"/><path d="M406.43 312.813L152.636 330.7 134.598 74.76l253.794-17.89z" fill="#fff"/><path d="M383.763 62.198L401.09 308.17l-243.83 17.175-17.324-245.972 243.827-17.175m9.272-10.678L129.258 70.1l18.73 265.923 263.778-18.58-18.73-265.923z" fill="#b3b3b3"/><path fill="#e6e6e6" d="M446.617 423.137v22.277c0 1.253-1.277 2.277-2.838 2.277H6.4c-2.338 0-4.25-1.536-4.25-3.415V177.988c0-11 9-20 20-20h221.778c11 0 20-8.34 20-18.537s9-18.536 20-18.536h142.69c11 0 20 9 20 20v282.223z"/><path fill="#507ea5" d="M13.423 323h420.294v112.867H13.423z"/><path fill="gray" d="M344.617 349v-41.205c0-10.6 8.954-19.554 19.554-19.554h50.894c10.6 0 19.554 8.955 19.554 19.555V349h30v-41.205c0-27.255-22.3-49.554-49.554-49.554H364.17c-27.254 0-49.553 22.3-49.553 49.555V349h30z"/><path fill="#ffad00" d="M482.383 469.926c0 5.563-4.51 10.074-10.074 10.074H306.925c-5.563 0-10.074-4.51-10.074-10.074V354.074c0-5.563 4.51-10.074 10.074-10.074H472.31c5.562 0 10.073 4.51 10.073 10.074v115.852z"/></svg>