<svg xmlns="http://www.w3.org/2000/svg" width="18" height="18" viewBox="0 0 500 500"><path fill="#fff" d="M325.97 259.5 81.487 329.928l-71.02-246.55 244.482-70.425z"/><path fill="#b3b3b3" d="M251.524 19.133 319.78 256.08 84.9 323.74 16.645 86.794zm6.84-12.378L4.268 79.953 78.06 336.118l254.1-73.196z"/><path fill="#fff" d="M406.43 312.813 152.636 330.7 134.598 74.76l253.794-17.89z"/><path fill="#b3b3b3" d="M383.763 62.198 401.09 308.17l-243.83 17.175-17.324-245.972zm9.272-10.678L129.258 70.1l18.73 265.923 263.778-18.58z"/><path fill="#e6e6e6" d="M446.617 423.137v22.277c0 1.253-1.277 2.277-2.838 2.277H6.4c-2.338 0-4.25-1.536-4.25-3.415V177.988c0-11 9-20 20-20h221.778c11 0 20-8.34 20-18.537s9-18.536 20-18.536h142.69c11 0 20 9 20 20v282.223z"/><path fill="#507ea5" d="M13.423 323h420.294v112.867H13.423z"/></svg>