<svg xmlns="http://www.w3.org/2000/svg" width="18" height="18" viewBox="0 0 16 16"><path fill="#fff" d="M13.12 4.96v9.12H2.88V1.92h7.296z"/><path fill="#b3b3b3" d="M10.323 1.595 2.4 1.6v12.8h11.2V4.896zm2.387 3.301h-2.374l-.01-2.391zm.25 8.864H3.04V2.24H9.6v3.424h3.36z"/><path fill="#507ea5" d="M8.077 5.551v1.706c0 .049-.273.087-.607.087H5.107a.61.61 0 00-.607.607v2.081c0 .335.273.606.607.606H7.47c.334 0 .607.034.607.077v1.737c0 .05.197-.101.437-.333l2.806-2.707a.584.584 0 00.02-.824l-.02-.02-2.806-2.704c-.24-.233-.437-.373-.437-.313"/></svg>