<svg xmlns="http://www.w3.org/2000/svg" width="18" height="18" viewBox="0 0 16 16"><path fill="#1b1d21" d="M13.12 4.96v9.12H2.88V1.92h7.296z"/><path fill="#6f7685" d="M10.323 1.595 2.4 1.6v12.8h11.2V4.896zm2.387 3.301h-2.374l-.01-2.391zm.25 8.864H3.04V2.24H9.6v3.424h3.36z"/><path fill="#6f7685" d="M8.076 5.551v1.705c0 .049-.273.088-.607.088H5.106a.61.61 0 00-.606.608v2.083c0 .334.273.605.606.605h2.363c.334 0 .607.033.607.076v1.735c0 .05.198-.103.438-.333l2.805-2.706a.586.586 0 000-.845L8.514 5.865c-.24-.234-.438-.373-.438-.314"/><path fill="gray" d="M11.027 11.745v-1.318c0-.34.287-.625.625-.625h1.63c.339 0 .626.285.626.625v1.318h.959v-1.318a1.59 1.59 0 00-1.585-1.584h-1.63a1.59 1.59 0 00-1.584 1.584v1.318z"/><path fill="#ffad00" d="M15.436 15.614a.32.32 0 01-.318.321H9.822a.32.32 0 01-.323-.321v-3.707c0-.179.146-.322.323-.322h5.291c.179 0 .322.146.322.322v3.707z"/><path fill="gray" d="m6.309 10.305.365-.525a.455.455 0 00-.113-.63l-.418-.289a.45.45 0 00-.629.113l-.639.92A6 6 0 004 9.828c-2.209 0-4 1.146-4 2.563 0 .863.671 1.623 1.691 2.088l-.363.522a.45.45 0 00.113.628l.417.291c.078.055.167.08.257.08a.45.45 0 00.371-.193l.639-.918c.283.039.574.064.875.064 2.209 0 4-1.146 4-2.563 0-.863-.671-1.62-1.691-2.085M.85 12.391c0-.623.771-1.298 1.971-1.576a1.987 1.987 0 00-.479 2.726l-.161.23c-.827-.333-1.331-.875-1.331-1.38m4.427 1.558c.439-.367.723-.911.723-1.527 0-.428-.137-.82-.365-1.146l.185-.266c.829.336 1.331.876 1.331 1.381-.001.606-.728 1.265-1.874 1.558"/></svg>