<svg width="16" height="16" viewBox="0 0 60 60" xmlns="http://www.w3.org/2000/svg"><path fill="#bbb" d="M54.82 23.376l-1.52-4.19a2.6 2.6 0 00-1.35-1.47 2.55 2.55 0 00-2-.09l-3.64 1.32a19.36 19.36 0 00-3.86-4.22l1.64-3.5a2.67 2.67 0 00.09-2 2.6 2.6 0 00-1.35-1.47l-4-1.89a2.62 2.62 0 00-3.47 1.26l-1.68 3.48a19.47 19.47 0 00-5.7-.25l-1.33-3.64a2.61 2.61 0 00-3.34-1.56l-4.19 1.53a2.62 2.62 0 00-1.48 1.35 2.59 2.59 0 00-.08 2l1.32 3.63a19.87 19.87 0 00-4.22 3.86l-3.5-1.63a2.61 2.61 0 00-3.47 1.25l-1.89 4.05a2.63 2.63 0 001.26 3.47l3.51 1.63a19.52 19.52 0 00-.25 5.71l-3.64 1.32a2.61 2.61 0 00-1.56 3.34l1.53 4.2a2.61 2.61 0 003.34 1.56l3.63-1.32a20.06 20.06 0 003.86 4.21l-1.63 3.51a2.6 2.6 0 001.26 3.46l4 1.89a2.64 2.64 0 002 .09 2.59 2.59 0 001.48-1.35l1.63-3.5a19.87 19.87 0 005.71.25l1.32 3.63a2.58 2.58 0 003.34 1.56l4.2-1.52a2.61 2.61 0 001.56-3.34L41 46.346a19.31 19.31 0 004.21-3.86l3.51 1.64a2.6 2.6 0 003.47-1.26l1.89-4a2.67 2.67 0 00.09-2 2.6 2.6 0 00-1.35-1.47l-3.5-1.64a19.82 19.82 0 00.25-5.7l3.63-1.33a2.59 2.59 0 001.6-3.35h.02z"/><path fill="#fff" d="M37.873 26.723a8.666 8.666 0 01-5.197 11.12c-4.514 1.634-9.505-.694-11.149-5.2a8.666 8.666 0 015.197-11.12c4.514-1.635 9.505.693 11.149 5.2z"/></svg>