<svg xmlns="http://www.w3.org/2000/svg" width="12" height="12" viewBox="0 0 500 500"><path fill="#74b739" d="M500 396.266C500 453.556 453.556 500 396.266 500H103.734C46.444 500 0 453.556 0 396.266V103.734C0 46.444 46.443 0 103.734 0h292.53C453.557 0 500 46.443 500 103.734v292.532z"/><path fill="#fff" d="M120.686 126.368c6.626-17.053 15.915-31.833 27.85-44.335 11.94-12.506 26.336-22.258 43.202-29.276 16.857-7.008 35.714-10.516 56.56-10.516 26.9 0 49.354 3.697 67.358 11.086 17.993 7.39 32.488 16.582 43.482 27.568 10.988 10.995 18.85 22.834 23.59 35.526 4.734 12.7 7.104 24.54 7.104 35.526 0 18.188-2.37 33.166-7.104 44.905-4.74 11.75-10.613 21.8-17.62 30.127-7.018 8.34-14.78 15.446-23.306 21.316-8.526 5.882-16.582 11.752-24.157 17.623a112.957 112.957 0 00-20.18 20.175c-5.88 7.59-9.575 17.057-11.083 28.424v21.6h-76.74v-25.578c1.14-16.288 4.266-29.93 9.38-40.927 5.116-10.99 11.086-20.366 17.906-28.137 6.82-7.762 14.014-14.495 21.6-20.177 7.576-5.686 14.584-11.37 21.033-17.053 6.44-5.686 11.653-11.938 15.63-18.76 3.98-6.82 5.773-15.347 5.4-25.577 0-17.425-4.262-30.313-12.79-38.653-8.524-8.33-20.373-12.506-35.525-12.506-10.23 0-19.042 1.99-26.432 5.97-7.387 3.98-13.455 9.29-18.188 15.915-4.742 6.637-8.242 14.407-10.515 23.305-2.273 8.91-3.412 18.474-3.412 28.707h-83.56c.374-20.465 3.88-39.223 10.518-56.276zM290.93 370.22v87.54h-89.244v-87.54h89.244z"/></svg>