<svg xmlns="http://www.w3.org/2000/svg" width="10.651" height="408.396" viewBox="134.025 0.446 10.651 408.396"><style>.t{fill:#999}@media (prefers-color-scheme:dark){.t{fill:#555}}</style><path class="t" d="M137.542 5.7l-1.91-1.91h6.851l-1.91 1.91.594.594 2.925-2.924-2.924-2.924-.594.594 1.909 1.91h-6.85l1.91-1.91-.594-.594-2.924 2.924 2.924 2.924.593-.594zm6.265 27.76l.594-.593-2.924-2.924-2.924 2.924.594.594 1.91-1.91v6.85l-1.91-1.908-.594.593 2.924 2.924 2.924-2.925-.594-.593-1.91 1.91V31.55l1.91 1.91zm-1.911 34.058V62.62l1.91 1.91.594-.595-2.924-2.925-2.925 2.926.595.594 1.91-1.91v4.897h.84zm-6.203 237.697h.841v-2.699l3.464 3.459.594-.592-3.464-3.464 2.702-.002v-.84h-4.135l-.002 4.138zm4.305 98.73l-3.463 3.463v-2.7h-.84v4.134h4.135v-.84h-2.702l3.464-3.463-.594-.594zm.027-72.987v.84h2.701l-3.461 3.464.592.594 3.465-3.463v2.7h.84v-4.135h-4.137zm3.297 46.569l-3.465-3.463-.592.594 3.461 3.463h-2.699v.84h4.135v-4.134h-.84v2.7zm.485-253.817l-1.91 1.91v-4.896h-.84v4.896l-1.91-1.91-.595.596 2.925 2.924 2.924-2.925-.594-.595zm-6.244-29.73h4.898l-1.91 1.91.596.594 2.922-2.924-2.922-2.925-.595.594 1.91 1.91h-4.897l-.002.841zm6.833 58.92H139.5l1.91-1.91-.596-.593-2.924 2.922 2.924 2.924.596-.594-1.91-1.91h4.896v-.839zm-1.031 28.06l-1.52 2.486-1.511-2.485h-1.067l2.021 3.23-2.197 3.374h1.123l1.612-2.667 1.607 2.667h1.135l-2.192-3.415 2.024-3.19h-1.035zm.28 29.774l-1.33 2.506-.443.88-.482-.97-1.316-2.416h-1.086l2.391 4.225v2.378h.91v-2.36l2.39-4.244-1.034.001zm-.14 31.974c.17-.256.255-.563.255-.92 0-1.07-.734-1.606-2.207-1.606h-1.89v6.604h1.728c.395 0 .754-.045 1.074-.132.321-.088.596-.217.823-.385.228-.17.401-.375.524-.619.123-.245.185-.523.185-.84 0-.221-.035-.416-.104-.591a1.43 1.43 0 00-.711-.769 1.843 1.843 0 00-.507-.173c.386-.123.662-.313.832-.569h-.002zm-.569 1.677a.96.96 0 01.105.455c0 .408-.125.71-.378.898-.252.193-.638.289-1.151.289h-.951v-2.273h.92c.244 0 .463.025.656.075s.357.122.492.215c.13.086.235.202.309.34l-.002.001zm-.209-1.989a.905.905 0 01-.276.34c-.12.091-.265.158-.431.203a2.29 2.29 0 01-.56.063h-.897v-2.064h.93c.263 0 .48.025.65.076.17.049.31.119.41.203.1.086.172.19.211.311.041.119.061.244.061.382a1.135 1.135 0 01-.098.486zm-1.15 32.579c.09.063.173.147.25.254.077.104.149.238.228.4l.984 2.11h1.014l-1.046-2.173a3.743 3.743 0 00-.396-.64 1.05 1.05 0 00-.473-.336c.228-.054.43-.135.607-.245.176-.109.324-.24.443-.39.121-.149.211-.315.271-.5s.09-.378.09-.584c0-.261-.04-.495-.123-.71a1.367 1.367 0 00-.39-.551 1.927 1.927 0 00-.68-.352 3.382 3.382 0 00-.99-.127H139.6v6.604h.897V274.8h.426c.13 0 .25.013.354.04a.86.86 0 01.298.135h.002zm-1.074-.897v-2.184h.851c.399 0 .711.088.932.264.22.176.33.439.33.794 0 .18-.032.342-.098.479a.94.94 0 01-.279.355c-.119.097-.264.17-.434.22-.171.05-.361.07-.572.07l-.73.002z"/></svg>