<svg xmlns="http://www.w3.org/2000/svg" width="10.651" height="408.396" viewBox="134.025 0.446 10.651 408.396"><path fill="#555" d="m137.542 5.7-1.91-1.91h6.851l-1.91 1.91.594.594 2.925-2.924-2.924-2.924-.594.594 1.909 1.91h-6.85l1.91-1.91-.594-.594-2.924 2.924 2.924 2.924zm6.265 27.76.594-.593-2.924-2.924-2.924 2.924.594.594 1.91-1.91v6.85l-1.91-1.908-.594.593 2.924 2.924 2.924-2.925-.594-.593-1.91 1.91V31.55zm-1.911 34.058V62.62l1.91 1.91.594-.595-2.924-2.925-2.925 2.926.595.594 1.91-1.91v4.897zm-6.203 237.697h.841v-2.699l3.464 3.459.594-.592-3.464-3.464 2.702-.002v-.84h-4.135zm4.305 98.73-3.463 3.463v-2.7h-.84v4.134h4.135v-.84h-2.702l3.464-3.463zm.027-72.987v.84h2.701l-3.461 3.464.592.594 3.465-3.463v2.7h.84v-4.135zm3.297 46.569-3.465-3.463-.592.594 3.461 3.463h-2.699v.84h4.135v-4.134h-.84zm.485-253.817-1.91 1.91v-4.896h-.84v4.896l-1.91-1.91-.595.596 2.925 2.924 2.924-2.925zm-6.244-29.73h4.898l-1.91 1.91.596.594 2.922-2.924-2.922-2.925-.595.594 1.91 1.91h-4.897zm6.833 58.92H139.5l1.91-1.91-.596-.593-2.924 2.922 2.924 2.924.596-.594-1.91-1.91h4.896zm-1.031 28.06-1.52 2.486-1.511-2.485h-1.067l2.021 3.23-2.197 3.374h1.123l1.612-2.667 1.607 2.667h1.135l-2.192-3.415 2.024-3.19zm.28 29.774-1.33 2.506-.443.88-.482-.97-1.316-2.416h-1.086l2.391 4.225v2.378h.91v-2.36l2.39-4.244zm-.14 31.974q.255-.384.255-.92.001-1.606-2.207-1.606h-1.89v6.604h1.728q.593 0 1.074-.132.482-.133.823-.385.34-.254.524-.619.185-.366.185-.84 0-.33-.104-.591a1.43 1.43 0 00-.711-.769 1.8 1.8 0 00-.507-.173q.578-.185.832-.569zm-.569 1.677a.96.96 0 01.105.455c0 .408-.125.71-.378.898q-.38.29-1.151.289h-.951v-2.273h.92q.366 0 .656.075c.29.075.357.122.492.215q.196.131.309.34zm-.209-1.989a.9.9 0 01-.276.34q-.181.136-.431.203a2.3 2.3 0 01-.56.063h-.897v-2.064h.93q.395 0 .65.076c.17.049.31.119.41.203q.151.13.211.311.061.177.061.382a1.1 1.1 0 01-.098.486m-1.15 32.579q.135.094.25.254c.077.104.149.238.228.4l.984 2.11h1.014l-1.046-2.173a3.7 3.7 0 00-.396-.64 1.05 1.05 0 00-.473-.336q.342-.08.607-.245t.443-.39q.181-.223.271-.5c.09-.277.09-.378.09-.584 0-.261-.04-.495-.123-.71a1.4 1.4 0 00-.39-.551 1.9 1.9 0 00-.68-.352 3.4 3.4 0 00-.99-.127H139.6v6.604h.897V274.8h.426q.196 0 .354.04a.9.9 0 01.298.135zm-1.074-.897v-2.184h.851q.6 0 .932.264.33.263.33.794 0 .272-.098.479a.94.94 0 01-.279.355q-.179.145-.434.22c-.171.05-.361.07-.572.07z"/></svg>