<svg xmlns="http://www.w3.org/2000/svg" width="14" height="16"><path d="M0 0h14v16H0z" fill="#b3b3b3"/><path d="M.82.8h12.36v14.4H.82V.8" fill="#fff"/><path d="M.82 4.78h3.26v7.33H.82z" fill="#fff"/><path d="M.82.8h12.36v4H.82z" fill="#fff"/><path d="M12.8 4.78v.8H12v-.8m-1 .8h-.81v-.8H11zm-1.79 0h-.82v-.8h.82zm-1.8 0h-.82v-.8h.82zm-1.8 0H4.8v-.8h.81zm-1.79 0H3v-.8h.82zM2 5.58h-.8v-.8H2v.8z" fill="#b3b3b3"/><path d="M.82 12.11h12.36v3.09H.82z" fill="#fff"/><path d="M12.8 11.31v.8H12v-.8m-1 .8h-.81v-.8H11v.8zm-1.79 0h-.82v-.8h.82v.8zm-1.8 0h-.82v-.8h.82v.8zm-1.8 0H4.8v-.8h.81v.8zm-1.79 0H3v-.8h.82v.8zm-1.8 0H1.2v-.8H2v.8zm2.06-2.32h.81v.8h-.81zm0-1h.81V8h-.81zm0-1.76h.81v-.8h-.81z" fill="#b3b3b3"/></svg>