<svg xmlns="http://www.w3.org/2000/svg" width="14" height="16"><style>.a{fill:#fff}.b{fill:#b3b3b3}@media (prefers-color-scheme:dark){.a{fill:#1b1d21}.b{fill:#6f7685}}</style><path class="b" d="M0 0h14v16H0z"/><path class="a" d="M.82.8h12.36v14.4H.82V.8"/><path d="M.82 4.78h3.26v7.33H.82z" opacity=".25" fill="#74b739"/><path d="M.82.8h12.36v4H.82z" opacity=".25" fill="#74b739"/><path class="b" d="M12.8 4.78v.8H12v-.8m-1 .8h-.82v-.8H11zm-1.8 0h-.81v-.8h.82zm-1.8 0h-.81v-.8h.82zm-1.8 0h-.8v-.8h.82zm-1.8 0H3v-.8h.82zm-1.8 0h-.8v-.8H2v.8z"/><path d="M.82 12.11h12.36v3.09H.82z" opacity=".25" fill="#74b739"/><path class="b" d="M12.8 11.31v.8H12v-.8m-1 .8h-.82v-.8H11v.8zm-1.8 0h-.81v-.8h.82v.8zm-1.8 0h-.81v-.8h.82v.8zm-1.8 0h-.8v-.8h.82v.8zm-1.8 0H3v-.8h.82v.8zm-1.8 0h-.8v-.8H2v.8zm2.08-2.32h.82v.8h-.82zm0-1h.82V8h-.82zm0-1.76h.82v-.8h-.82z"/></svg>