<svg xmlns="http://www.w3.org/2000/svg" width="28" height="28" viewBox="0 0 24 24"><path fill="#6f7685" d="M19.4 2.4a2.2 2.2 0 012.2 2.2v14.8a2.2 2.2 0 01-2.2 2.2H4.6a2.2 2.2 0 01-2.2-2.2V4.6a2.2 2.2 0 012.2-2.2z"/><path fill="#1b1d21" d="M19.4 3.4H4.6a1.2 1.2 0 00-1.2 1.2v14.8a1.2 1.2 0 001.2 1.2h14.8a1.2 1.2 0 001.2-1.2V4.6a1.2 1.2 0 00-1.2-1.2"/><path fill="#6f7685" d="M13.12 8.04h4.89v.88h-4.89zm0 1.76h4.89v.88h-4.89zm0 1.76h4.89v.88h-4.89zm0-5.27h4.89v.88h-4.89zm4.89 7.03H5.99v.88h12.02zm0 3.51H5.99v.88h12.02zm0-1.75H5.99v.88h12.02z"/><path fill="#74b739" d="M6 6.29h6.36v6.14H6z"/></svg>