<svg xmlns="http://www.w3.org/2000/svg" width="24" height="24" viewBox="0 0 62 54"><path fill="#fff" d="M4.122-.337A4.115 4.115 0 00.007 3.77v46.136a4.115 4.115 0 004.115 4.108h53.986a4.115 4.115 0 004.118-4.09V3.77a4.115 4.115 0 00-4.118-4.107z"/><path fill="#f47c00" d="M5.537 32.622c1.742 8.104 3.191 15.82 8.267 21.375H4.122a4.115 4.115 0 01-4.115-4.09V3.77A4.115 4.115 0 014.122-.337h6.996a26.8 26.8 0 00-4.453 5.26c-5.536 8.484-3.26 17.734-1.128 27.699m52.57-32.96H47.13c2.6 2.6 4.791 5.965 6.446 10.15l-16.689 3.522c-1.829-3.505-4.61-6.421-10.048-5.275-3 .634-4.989 2.317-5.87 4.16-1.084 2.272-1.617 4.819.975 16.922s4.118 14.215 6.034 15.853c1.558 1.324 4.07 2.059 7.07 1.425 5.442-1.147 6.783-4.934 7.02-8.874l16.689-3.526c.393 8.633-2.279 15.33-6.996 19.96h6.348a4.115 4.115 0 004.118-4.09V3.77a4.115 4.115 0 00-4.118-4.107z"/></svg>