<svg xmlns="http://www.w3.org/2000/svg" width="18" height="18" viewBox="0 0 16 16"><style>.a{fill:#fff}.b{fill:#b3b3b3}@media (prefers-color-scheme:dark){.a{fill:#1b1d21}.b{fill:#6f7685}}</style><path class="a" d="M13.12 4.96v9.12H2.88V1.92h7.296l2.944 3.04z"/><circle fill="#c9473d" cx="8" cy="9" r="3.5"/><g fill="#fff"><path d="M8.914 7.357l-.101-.052v.811l.024.021a1.33 1.33 0 11-2.168 1.032c0-.395.184-.781.493-1.032l.026-.021v-.811l-.102.052a2.049 2.049 0 00-1.117 1.812c0 1.12.911 2.03 2.031 2.03 1.119 0 2.03-.91 2.03-2.03a2.05 2.05 0 00-1.116-1.812z"/><path d="M7.65 6.674h.7v2.169h-.7V6.674z"/></g><path class="a" d="M9.984 2.08l.256 3.2 2.88-.32-3.136-2.88z"/><path class="b" d="M10.323 1.595L2.4 1.6v12.8h11.2V4.896l-3.277-3.301zm2.387 3.301h-2.374l-.01-2.391 2.384 2.391zm.25 8.864H3.04V2.24H9.6v3.424h3.36v8.096z"/></svg>