<svg xmlns="http://www.w3.org/2000/svg" width="18" height="18" viewBox="0 0 16 16"><style>.a{fill:#fff}.b{fill:#b3b3b3}@media (prefers-color-scheme:dark){.a{fill:#1b1d21}.b{fill:#6f7685}}</style><path class="a" d="M13.12 4.96v9.12H2.88V1.92h7.296l2.944 3.04z"/><path class="a" d="M9.984 2.08l.256 3.2 2.88-.32-3.136-2.88z"/><path class="b" d="M10.323 1.595L2.4 1.6v12.8h11.2V4.896l-3.277-3.301zm2.387 3.301h-2.374l-.01-2.391 2.384 2.391zm.25 8.864H3.04V2.24H9.6v3.424h3.36v8.096z"/><circle fill="#c9473d" cx="8" cy="9" r="3.5"/><g fill="#fff"><path d="M8.914 7.357l-.101-.052v.811l.024.021A1.332 1.332 0 018 10.5a1.334 1.334 0 01-1.331-1.331c0-.396.184-.782.493-1.032l.026-.021v-.811l-.102.052a2.049 2.049 0 00-1.117 1.812 2.031 2.031 0 004.06 0c0-.758-.438-1.469-1.115-1.812z"/><path d="M7.65 6.674h.7v2.169h-.7V6.674z"/></g><path fill="gray" d="M6.309 10.305l.365-.525a.455.455 0 00-.113-.63l-.418-.289a.45.45 0 00-.629.113l-.639.92A6.207 6.207 0 004 9.828c-2.209 0-4 1.146-4 2.563 0 .863.671 1.623 1.691 2.088l-.363.522a.45.45 0 00.113.628l.417.291c.078.055.167.08.257.08a.448.448 0 00.371-.193l.639-.918c.283.039.574.064.875.064 2.209 0 4-1.146 4-2.563 0-.863-.671-1.62-1.691-2.085zM.85 12.391c0-.623.771-1.298 1.971-1.576a1.987 1.987 0 00-.479 2.726l-.161.23c-.827-.333-1.331-.875-1.331-1.38zm4.427 1.558c.439-.367.723-.911.723-1.527 0-.428-.137-.82-.365-1.146l.185-.266c.829.336 1.331.876 1.331 1.381-.001.606-.728 1.265-1.874 1.558z"/></svg>