<svg width="24" height="24" xmlns="http://www.w3.org/2000/svg"><path fill="#fff" d="M2.133 14.08c.672 3.094 1.23 6.04 3.189 8.16H1.587A1.58 1.58 0 010 20.678V3.068A1.579 1.579 0 011.587 1.5h2.699a10.242 10.242 0 00-1.718 2.008c-2.135 3.238-1.258 6.77-.435 10.573zM22.41 1.5h-4.234c1.002.992 1.848 2.277 2.486 3.874l-6.437 1.344c-.706-1.337-1.778-2.45-3.876-2.013-1.157.242-1.925.884-2.265 1.588-.418.867-.623 1.84.376 6.46 1 4.62 1.589 5.425 2.328 6.05.6.506 1.57.786 2.727.544 2.1-.437 2.617-1.883 2.708-3.387l6.437-1.346c.152 3.296-.878 5.852-2.698 7.619h2.448A1.58 1.58 0 0024 20.672V3.068A1.579 1.579 0 0022.411 1.5z"/></svg>