<svg xmlns="http://www.w3.org/2000/svg" width="14" height="14" viewBox="0 0 500 500"><circle fill="#ccc" cx="250" cy="250" r="223"/><path fill="#507ea5" d="M393.308 199.617h-79.494c-7.388 0-13.434-6.044-13.434-13.433v-79.49c0-7.39-6.046-13.436-13.434-13.436H212.56c-7.39 0-13.406 6.046-13.372 13.436l.37 79.49c.03 7.39-5.985 13.433-13.373 13.433h-79.493c-7.39 0-13.435 6.05-13.435 13.438v73.893c0 7.39 6.045 13.432 13.435 13.432h79.493c7.388 0 13.433 6.047 13.433 13.438v79.494c0 7.39 6.045 13.432 13.437 13.432h73.893c7.388 0 13.434-6.043 13.434-13.432v-79.494c0-7.39 6.046-13.438 13.434-13.438h79.494c7.39 0 13.436-6.043 13.436-13.432v-73.893c-.003-7.39-6.048-13.438-13.438-13.438z"/></svg>