<svg xmlns="http://www.w3.org/2000/svg" width="16" height="16" viewBox="0 0 500 500"><path fill="#959ba7" d="M451 368.013C451 413.845 413.845 451 368.013 451H133.988C88.154 451 51 413.845 51 368.013V133.988C51 88.154 88.154 51 133.988 51h234.025C413.845 51 451 88.154 451 133.988z"/><path fill="#fff" d="M286.7 338.868a172 172 0 0131.093 19.503v43.452h-212.56v-43.45a172 172 0 0131.093-19.504c18.365 20.877 45.262 34.075 75.187 34.075s56.82-13.198 75.186-34.075zm-75.187 9.986c27.766 0 51.85-15.704 63.898-38.706.19-.356.37-.715.552-1.074q.546-1.091 1.058-2.2c.215-.468.432-.936.638-1.41a77 77 0 002.483-6.586q.203-.624.397-1.257a77 77 0 00.733-2.586c.084-.317.157-.638.235-.956a63 63 0 00.502-2.174q.106-.485.206-.973.285-1.44.518-2.897c.045-.273.08-.55.12-.823q.194-1.325.34-2.665c.02-.193.046-.385.065-.578q.154-1.57.24-3.16.021-.376.036-.758c.052-1.095.085-2.193.085-3.3a71.73 71.73 0 00-11.374-38.846c-.136-.21-.27-.425-.406-.636a77 77 0 00-1.005-1.496q-.43-.614-.87-1.22a73 73 0 00-4.982-6.174c-13.193-14.574-32.26-23.732-53.466-23.732-16.98 0-32.576 5.884-44.896 15.703l-.004.002a72.4 72.4 0 00-18.79 22.59v.003a71.8 71.8 0 00-8.415 33.805c.003 39.82 32.284 72.104 72.106 72.104zm-63.262-156.81c18.168-13.628 40.147-21 63.263-21 5.66 0 11.25.448 16.733 1.315a97.3 97.3 0 015.96-15.71 53 53 0 00.187-4.264c0-28.834-23.375-52.208-52.208-52.208s-52.207 23.374-52.207 52.208c0 15.873 7.095 30.082 18.273 39.657zm-13.62 12.164a73 73 0 01-6.883-6.845 124.6 124.6 0 00-22.515 14.12v31.462h6.073c4.813-14.308 12.7-27.49 23.325-38.737m181.805 59.56c2.106.205 4.238.316 6.398.316 35.75 0 64.732-28.98 64.732-64.73s-28.982-64.73-64.732-64.73c-30.057 0-55.324 20.49-62.61 48.262 9.483 4.935 18.26 11.343 26.036 19.12 16.87 16.87 27.336 38.44 30.175 61.76zm73.897-8.65c-16.488 18.743-40.634 30.592-67.5 30.592-2.007 0-3.998-.074-5.973-.205a105.3 105.3 0 01-5.51 26.13h106.896V272.63a154.4 154.4 0 00-27.914-17.51z"/><circle cx="367.766" cy="370.152" r="53.475" fill="#74b739"/></svg>