<svg xmlns="http://www.w3.org/2000/svg" width="16" height="16" viewBox="0 0 500 500"><circle fill="#74b739" cx="250" cy="250" r="200"/><path fill="#fff" d="M373.205 206.684h-68.343c-6.352 0-11.55-5.195-11.55-11.548v-68.34c0-6.354-5.197-11.552-11.55-11.552h-63.95c-6.353 0-11.526 5.198-11.497 11.552l.317 68.34c.027 6.353-5.145 11.548-11.497 11.548h-68.342c-6.353 0-11.55 5.2-11.55 11.553v63.528c0 6.353 5.197 11.547 11.55 11.547h68.342c6.352 0 11.548 5.2 11.548 11.553v68.343c0 6.353 5.197 11.548 11.552 11.548h63.527c6.352 0 11.55-5.195 11.55-11.548v-68.343c0-6.354 5.197-11.553 11.55-11.553h68.342c6.354 0 11.55-5.194 11.55-11.547v-63.528c.002-6.352-5.195-11.553-11.55-11.553z"/></svg>