<svg xmlns="http://www.w3.org/2000/svg" width="18" height="18" viewBox="0 0 500 500"><path d="M325.97 259.5L81.487 329.928l-71.02-246.55 244.482-70.425z" fill="#aaa"/><path d="M251.524 19.133L319.78 256.08 84.9 323.74 16.645 86.794l234.88-67.66m6.84-12.378L4.268 79.953 78.06 336.118l254.1-73.196L258.364 6.756z" fill="#6f7685"/><path d="M406.43 312.813L152.636 330.7 134.598 74.76l253.794-17.89z" fill="#aaa"/><path d="M383.763 62.198L401.09 308.17l-243.83 17.175-17.324-245.972 243.827-17.175m9.272-10.678L129.258 70.1l18.73 265.923 263.778-18.58-18.73-265.923z" fill="#6f7685"/><path fill="#e6e6e6" d="M446.617 423.137v22.277c0 1.253-1.277 2.277-2.838 2.277H6.4c-2.338 0-4.25-1.536-4.25-3.415V177.988c0-11 9-20 20-20h221.778c11 0 20-8.34 20-18.537s9-18.536 20-18.536h142.69c11 0 20 9 20 20v282.223z"/><path fill="#507ea5" d="M13.423 323h420.294v112.867H13.423z"/><circle fill="#74b739" cx="327.789" cy="340.797" r="152.615"/><path fill="#fff" d="M421.804 307.744h-52.15c-4.847 0-8.813-3.965-8.813-8.813v-52.147c0-4.848-3.965-8.814-8.812-8.814h-48.8c-4.848 0-8.796 3.965-8.773 8.813l.242 52.148c.02 4.85-3.926 8.814-8.772 8.814h-52.15c-4.848 0-8.813 3.97-8.813 8.815v48.476c0 4.848 3.966 8.812 8.813 8.812h52.15c4.847 0 8.813 3.967 8.813 8.815v52.15c0 4.848 3.966 8.813 8.814 8.813h48.477c4.846 0 8.812-3.965 8.812-8.813v-52.15c0-4.85 3.967-8.815 8.813-8.815h52.15c4.85 0 8.814-3.964 8.814-8.812V316.56c-.002-4.847-3.968-8.816-8.816-8.816z"/></svg>