<svg xmlns="http://www.w3.org/2000/svg" width="16" height="16"><path fill="#f08c00" d="M2.88 2.224h10.24v12.16H2.88V2.224z"/><path opacity=".2" fill="#fff" d="M2.88 2.224h10.24v12.16H2.88V2.224z"/><path fill="#f08c00" d="M2.4 1.904v12.8h11.2v-12.8H2.4zm10.56 12.16H3.04V2.544h9.92v11.52z"/><path opacity=".25" d="M10.848 1.872h-.051a.391.391 0 01.051.192v.288a.384.384 0 01-.384.384h-.319v1.12a.384.384 0 01-.385.384H5.748c.066.114.19.192.332.192h4.064a.384.384 0 00.383-.384v-1.12h.32a.384.384 0 00.385-.384v-.288a.383.383 0 00-.384-.384z"/><path fill="#ccc" d="M10.688 1.68h-.319a.384.384 0 00-.384-.384H5.92a.384.384 0 00-.384.384h-.32a.384.384 0 00-.384.384v.288c0 .212.172.384.384.384h.32v1.12c0 .212.172.384.384.384h4.064a.384.384 0 00.384-.384v-1.12h.319a.384.384 0 00.385-.384v-.288a.384.384 0 00-.384-.384z"/><path fill="#b3b3b3" d="M5.536 2.736h4.832v.544H5.536v-.544z"/><path fill="#fff" d="M11.941 9.336H9.993c-.056 0-.101-.313-.101-.694v-2.7a.696.696 0 00-.693-.693h-2.38a.695.695 0 00-.694.693v2.7c0 .382-.039.694-.087.694H4.053c-.056 0 .115.225.38.498l3.095 3.208a.666.666 0 00.942.021l.021-.021 3.095-3.208c.264-.273.425-.498.355-.498z"/></svg>