<svg xmlns="http://www.w3.org/2000/svg" width="16" height="16"><path d="M2.88 2.224h10.24v12.16H2.88z" fill="#6f7685"/><path d="M2.4 1.904v12.8h11.2v-12.8H2.4zm10.56 12.16H3.04V2.544h9.92v11.52z" fill="#6f7685"/><path fill="#ccc" d="M10.688 1.68h-.32a.384.384 0 00-.383-.384H5.92a.384.384 0 00-.384.384h-.32a.384.384 0 00-.384.384v.288c0 .212.172.384.384.384h.32v1.12c0 .212.172.384.384.384h4.064a.384.384 0 00.384-.384v-1.12h.32a.384.384 0 00.384-.384v-.288a.384.384 0 00-.384-.384z"/><path fill="#b3b3b3" d="M5.536 2.736h4.832v.544H5.536z"/><path d="M11.94 9.336H9.994c-.056 0-.1-.313-.1-.694v-2.7A.696.696 0 009.2 5.25H6.82a.695.695 0 00-.694.692v2.7c0 .382-.04.694-.087.694H4.052c-.056 0 .115.225.38.498l3.095 3.208a.667.667 0 00.963 0l3.096-3.208c.264-.273.425-.498.355-.498z" fill="#aaa"/></svg>