<svg xmlns="http://www.w3.org/2000/svg" width="16" height="16"><path d="M2.88 2.224h10.24v12.16H2.88z" fill="#b3b3b3"/><path d="M2.4 1.904v12.8h11.2v-12.8H2.4zm10.56 12.16H3.04V2.544h9.92v11.52z" fill="#b3b3b3"/><path fill="#ccc" d="M10.688 1.68h-.32a.384.384 0 00-.383-.384H5.92a.384.384 0 00-.384.384h-.32a.384.384 0 00-.384.384v.288c0 .212.172.384.384.384h.32v1.12c0 .212.172.384.384.384h4.064a.384.384 0 00.384-.384v-1.12h.32a.384.384 0 00.384-.384v-.288a.384.384 0 00-.384-.384z"/><path fill="#b3b3b3" d="M5.536 2.736h4.832v.544H5.536z"/><path d="M8.087 5.306v1.948c0 .055-.312.1-.694.1h-2.7A.696.696 0 004 8.05v2.378c0 .382.312.694.694.694h2.7c.382 0 .694.04.694.087v1.984c0 .057.225-.115.5-.38l3.207-3.095a.667.667 0 000-.964l-3.21-3.093c-.273-.265-.498-.426-.498-.357z" fill="#fff"/></svg>