<svg xmlns="http://www.w3.org/2000/svg" width="16" height="16"><path fill="#ccc" d="M15 14.125a.875.875 0 01-.875.875H1.875A.875.875 0 011 14.125v-1.75c0-.483.392-.875.875-.875h12.25c.483 0 .875.392.875.875z"/><circle cx="13.297" cy="13.4" r=".5" fill="#74b739"/><circle cx="11.712" cy="13.4" r=".5" fill="#c9473d"/><path fill="#ccc" d="m14.74 10.816-.455-2.734-1.035-6.207A.875.875 0 0012.375 1h-8.75a.875.875 0 00-.875.875L1.716 8.082l-.456 2.734z"/><path fill="#fff" d="M5.207 3.931c-.299-.336-.548-.69-.564-.966-.005-.082.005-.212.143-.384q.217-.275.445-.273c.268 0 .594.266.999.813.051.069.088.134.135.202.154-.048.307-.098.47-.127a8 8 0 00-.282-.41c-.313-.424-.791-.987-1.322-.987-.273 0-.528.145-.757.432a1.1 1.1 0 00-.26.769c.021.362.227.75.654 1.244.106-.112.216-.217.339-.313m2.94 2.705c-.286 0-.519-.208-.519-.465s.232-.464.519-.464.518.208.518.464-.232.465-.518.465m0-.821c-.231 0-.419.16-.419.355s.188.355.419.355.418-.16.418-.355-.187-.355-.418-.355"/><path fill="#fff" d="m11.296 7.904.046-.065-.005-.003c.278-.42.45-.893.45-1.408 0-1.679-1.641-3.04-3.664-3.04-.377 0-.734.061-1.078.149.354.603.708 1.393.386 1.732-.145.155-.335.36-.655.36-.342 0-.758-.236-1.272-.726-.115-.108-.197-.199-.295-.298-.463.509-.749 1.137-.749 1.823 0 1.679 1.64 3.041 3.663 3.041.558 0 1.078-.114 1.548-.302l-.011-.021c.495-.13.92-.459 1.22-.762l.006.005c.032-.031.057-.068.088-.1q.1-.108.175-.198.077-.091.147-.187M7.144 6.189c0-.492.439-.891.979-.891s.98.399.98.891c0 .493-.439.892-.98.892s-.979-.398-.979-.892m1.934.78.648.51c-.157.151-.449.376-.76.367l-.294-.549zm.337 1.719-.318-.598c.358-.05.676-.293.837-.449l.555.436c-.274.272-.651.548-1.074.611"/></svg>