<svg xmlns="http://www.w3.org/2000/svg" width="100" height="75" viewBox="0 0 80 60"><path d="M0 0h80v60H0z" fill="#fff"/><path fill="#7aa8d9" d="M13 13h54v34H13z"/><circle fill="#f2da00" cx="26.7" cy="24.9" r="6.5"/><path fill="#ccc" d="M38 41.8l5.4-1.6 4.4-6.4 5.2 2.8 3-.6 6.4-4.4 4 .167V28.8L60.6 26 55 29.6l-7-6.8-9.6 13.6-7.2-3-11.496 8.552L32 40z"/><path fill="#74b739" d="M66.4 46V31.767l-4-.167L56 36l-3 .6-5.2-2.8-4.4 6.4-5.4 1.6-6-1.8-12.296 1.952L14.8 45.6z"/><path fill="#fff" d="M65 15v30H15V15h50m4-4H11v38h58V11z"/></svg>