<svg xmlns="http://www.w3.org/2000/svg" width="18" height="18" viewBox="0 0 16 16"><path fill="#1b1d21" d="M13.12 4.96v9.12H2.88V1.92h7.296z"/><path fill="#6f7685" d="M10.323 1.595 2.4 1.6v12.8h11.2V4.896zm2.387 3.301h-2.374l-.01-2.391zm.25 8.864H3.04V2.24H9.6v3.424h3.36z"/><path fill="#6f7685" d="M7.924 5.551c0-.06-.197.08-.437.313L4.681 8.568l-.02.02a.583.583 0 00.02.824l2.807 2.707c.24.232.437.383.437.333v-1.737c0-.043.273-.076.606-.076h2.363a.607.607 0 00.607-.606V7.951a.61.61 0 00-.607-.607H8.53c-.333 0-.606-.038-.606-.087z"/></svg>