<svg xmlns="http://www.w3.org/2000/svg" width="18" height="18" viewBox="0 0 16 16"><path fill="#1b1d21" d="M13.12 4.96v9.12H2.88V1.92h7.296z"/><path fill="#1b1d21" d="m4.697 12.68-.043-1.014.388-1.615s1.164-.56 1.68.15.346 1.486.346 1.486l-2.37.994z"/><path fill="#6f7685" d="M11.307 5.096s.064-.2-.563-.657c-.628-.458-.9-.415-.9-.415-.34-.026-.478-.01-.659.204L4.89 10.12a.3.3 0 00-.043.09h-.01s-.428 2.683-.34 2.745c.08.057 2.038-.938 2.45-1.13a.3.3 0 00.143-.104l4.217-5.792c.258-.366 0-.834 0-.834zm-5.584 7.142s-.243-.565-.688-.465l-.238.322.354-1.923c.35.022.622.108.786.175.23.101.514.258.66.485.34.53.42.81.42.81z"/><path fill="#1b1d21" d="m9.984 2.08.256 3.2 2.88-.32z"/><path fill="#6f7685" d="M10.323 1.595 2.4 1.6v12.8h11.2V4.896zm2.387 3.3h-2.374l-.01-2.39zm.25 8.865H3.04V2.24H9.6v3.424h3.36z"/></svg>