<svg xmlns="http://www.w3.org/2000/svg" width="18" height="18" viewBox="0 0 16 16"><path d="M13.12 4.96v9.12H2.88V1.92h7.296l2.944 3.04z" fill="#fff"/><path fill="#c9473d" d="M11.307 5.096s.064-.2-.563-.657-.9-.414-.9-.414c-.339-.026-.478-.01-.66.204l-4.292 5.893a.274.274 0 00-.044.089h-.012s-.427 2.684-.338 2.746c.08.057 2.037-.938 2.45-1.131a.284.284 0 00.068-.033h.001a.324.324 0 00.073-.07l4.217-5.792c.257-.367 0-.835 0-.835zm-5.584 7.142s-.243-.565-.688-.465l-.238.322.354-1.925c.35.021.621.106.785.177.231.1.514.258.66.483.34.53.421.812.421.812l-1.294.596z"/><path d="M9.984 2.08l.256 3.2 2.88-.32-3.136-2.88z" fill="#fff"/><path d="M10.323 1.595L2.4 1.6v12.8h11.2V4.896l-3.271-3.3-.006-.001zm2.387 3.3h-2.374l-.01-2.39 2.384 2.39zm.25 8.865H3.04V2.24H9.6v3.424h3.36v8.096z" fill="#b3b3b3"/><path fill="gray" d="M11.027 11.745v-1.318c0-.34.287-.625.625-.625h1.63c.339 0 .626.285.626.625v1.318h.959v-1.318a1.59 1.59 0 00-1.585-1.584h-1.63a1.59 1.59 0 00-1.584 1.584v1.318h.959z"/><path fill="#ffad00" d="M15.436 15.614a.32.32 0 01-.318.321H9.822a.322.322 0 01-.323-.321v-3.707c0-.179.146-.322.323-.322h5.291c.179 0 .322.146.322.322v3.707h.001z"/><path fill="gray" d="M6.309 10.305l.365-.525a.455.455 0 00-.113-.63l-.418-.289a.45.45 0 00-.629.113l-.639.92A6.207 6.207 0 004 9.828c-2.209 0-4 1.146-4 2.563 0 .863.671 1.623 1.691 2.088l-.363.522a.45.45 0 00.113.628l.417.291c.078.055.167.08.257.08a.448.448 0 00.371-.193l.639-.918c.283.039.574.064.875.064 2.209 0 4-1.146 4-2.563 0-.863-.671-1.62-1.691-2.085zM.85 12.391c0-.623.771-1.298 1.971-1.576a1.987 1.987 0 00-.479 2.726l-.161.23c-.827-.333-1.331-.875-1.331-1.38zm4.427 1.558c.439-.367.723-.911.723-1.527 0-.428-.137-.82-.365-1.146l.185-.266c.829.336 1.331.876 1.331 1.381-.001.606-.728 1.265-1.874 1.558z"/></svg>