<svg xmlns="http://www.w3.org/2000/svg" width="18" height="18" viewBox="0 0 16 16"><path fill="#fff" d="M13.12 4.96v9.12H2.88V1.92h7.296z"/><path fill="#fff" d="m4.697 12.68-.043-1.014.388-1.615s1.164-.561 1.681.15.345 1.486.345 1.486z"/><path fill="#c9473d" d="M11.306 5.096s.065-.2-.563-.657-.9-.414-.9-.414c-.339-.026-.478-.01-.661.204l-4.291 5.893a.3.3 0 00-.044.089h-.011s-.427 2.683-.338 2.746c.08.057 2.037-.938 2.45-1.131a.3.3 0 00.068-.033h.001a.3.3 0 00.073-.071l4.217-5.792c.258-.366-.001-.834-.001-.834m-5.583 7.142s-.243-.565-.688-.465l-.238.322.354-1.922c.35.023.621.108.785.175.231.099.514.257.66.485.34.531.421.809.421.809z"/><path fill="#fff" d="m9.984 2.08.256 3.2 2.88-.32z"/><path fill="#b3b3b3" d="M10.323 1.595 2.4 1.6v12.8h11.2V4.896zm2.387 3.301h-2.374l-.01-2.391zm.25 8.864H3.04V2.24H9.6v3.424h3.36z"/></svg>