<svg xmlns="http://www.w3.org/2000/svg" width="18" height="18" viewBox="0 0 16 16"><path d="M13.12 4.96v9.12H2.88V1.92h7.296l2.944 3.04z" fill="#fff"/><path fill="#FFF" d="M4.697 12.68l-.043-1.014.388-1.615s1.164-.561 1.681.15.345 1.486.345 1.486l-2.371.993z"/><path fill="#c9473d" d="M11.306 5.096s.065-.2-.563-.657c-.628-.457-.9-.414-.9-.414-.339-.026-.478-.01-.661.204l-4.291 5.893a.274.274 0 00-.044.089h-.011s-.427 2.683-.338 2.746c.08.057 2.037-.938 2.45-1.131a.25.25 0 00.068-.033h.001a.308.308 0 00.073-.071l4.217-5.792c.258-.366-.001-.834-.001-.834zm-5.583 7.142s-.243-.565-.688-.465l-.238.322.354-1.922c.35.023.621.108.785.175.231.099.514.257.66.485.34.531.421.809.421.809l-1.294.596z"/><path d="M9.984 2.08l.256 3.2 2.88-.32-3.136-2.88z" fill="#fff"/><path d="M10.323 1.595L2.4 1.6v12.8h11.2V4.896l-3.277-3.301zm2.387 3.301h-2.374l-.01-2.391 2.384 2.391zm.25 8.864H3.04V2.24H9.6v3.424h3.36v8.096z" fill="#b3b3b3"/></svg>