<svg xmlns="http://www.w3.org/2000/svg" width="18" height="18" viewBox="0 0 16 16"><style>.a{fill:#fff}.b{fill:#b3b3b3}@media (prefers-color-scheme:dark){.a{fill:#1b1d21}.b{fill:#6f7685}}</style><path class="a" d="M13.12 4.96v9.12H2.88V1.92h7.296l2.944 3.04z"/><path class="a" d="M4.697 12.68l-.043-1.014.388-1.615s1.164-.56 1.68.15c.516.71.346 1.486.346 1.486l-2.37.994-.001-.001z"/><path class="b" d="M11.307 5.096s.064-.2-.563-.657c-.628-.458-.9-.415-.9-.415-.34-.026-.478-.01-.659.204L4.89 10.12a.277.277 0 00-.043.09h-.01s-.428 2.683-.34 2.745c.08.057 2.038-.938 2.45-1.13a.284.284 0 00.143-.104l4.217-5.792c.258-.366 0-.834 0-.834v.001zm-5.584 7.142s-.243-.565-.688-.465l-.238.322.354-1.923c.35.022.622.108.786.175.23.101.514.258.66.485.34.53.42.81.42.81l-1.294.596z"/><path class="a" d="M9.984 2.08l.256 3.2 2.88-.32-3.136-2.88z"/><path class="b" d="M10.323 1.595L2.4 1.6v12.8h11.2V4.896l-3.277-3.301zm2.387 3.3h-2.374l-.01-2.39 2.384 2.39zm.25 8.865H3.04V2.24H9.6v3.424h3.36v8.096z"/></svg>