<svg xmlns="http://www.w3.org/2000/svg" width="18" height="18" viewBox="0 0 16 16"><path fill="#FFF" d="M9.984 2.08l.256 3.2 2.88-.32-3.136-2.88z"/><path fill="none" d="M-41.125-40.625h131.5V2h-131.5z"/><path fill="#FFF" d="M13.12 4.96v9.12H2.88V1.92h7.296l2.944 3.04z"/><path fill="#FFF" d="M13.12 4.96v9.12H2.88V1.92h7.296l2.944 3.04z"/><linearGradient id="a" x1="36396.863" y1="51963.82" x2="36505.16" y2="52072.117" gradientTransform="matrix(.032 0 0 .032 -1158.449 -1651.775)"><stop offset="0" stop-color="#ccc"/><stop offset="1" stop-color="#b3b3b3"/></linearGradient><ellipse fill="url(#a)" cx="7.984" cy="12.8" rx="3.44" ry=".416"/><path fill="#FFF" d="M4.697 12.68l-.043-1.014.388-1.615s1.164-.561 1.681.15.345 1.486.345 1.486l-2.371.993z"/><linearGradient id="b" x1="36394.629" y1="51843.855" x2="36479.152" y2="51928.375" gradientTransform="matrix(.032 0 0 .032 -1158.449 -1651.775)"><stop offset="0" stop-color="#c9473d"/><stop offset="1" stop-color="#9e3939"/></linearGradient><path fill="url(#b)" d="M11.307 5.096s.064-.2-.563-.657-.9-.414-.9-.414c-.339-.026-.478-.01-.66.204l-4.292 5.893a.274.274 0 00-.044.089h-.012s-.427 2.684-.338 2.746c.08.057 2.037-.938 2.45-1.131a.284.284 0 00.068-.033h.001a.324.324 0 00.073-.07l4.217-5.792c.257-.367 0-.835 0-.835zm-5.584 7.142s-.243-.565-.688-.465l-.238.322.354-1.925c.35.021.621.106.785.177.231.1.514.258.66.483.34.53.421.812.421.812l-1.294.596z"/><path fill="#FFF" d="M9.984 2.08l.256 3.2 2.88-.32-3.136-2.88z"/><linearGradient id="c" x1="36238.461" y1="51706.055" x2="36613.465" y2="52081.059" gradientTransform="matrix(.032 0 0 .032 -1158.449 -1651.775)"><stop offset="0" stop-color="#ccc"/><stop offset="1" stop-color="#b3b3b3"/></linearGradient><path fill="url(#c)" d="M10.323 1.595L2.4 1.6v12.8h11.2V4.896l-3.277-3.301zm2.387 3.301h-2.374l-.01-2.391 2.384 2.391zm.25 8.864H3.04V2.24H9.6v3.424h3.36v8.096z"/><linearGradient id="d" x1="289.286" y1="-404.974" x2="294.037" y2="-409.725" gradientTransform="matrix(1 0 0 -1 -287.66 -394.96)"><stop offset="0" stop-color="#636363"/><stop offset="1" stop-color="#2e2e2e"/></linearGradient><path fill="url(#d)" d="M6.309 10.305l.365-.525a.455.455 0 00-.113-.63l-.418-.289a.45.45 0 00-.629.113l-.639.92A6.207 6.207 0 004 9.828c-2.209 0-4 1.146-4 2.563 0 .863.671 1.623 1.691 2.088l-.363.522a.45.45 0 00.113.628l.417.291c.078.055.167.08.257.08a.448.448 0 00.371-.193l.639-.918c.283.039.574.064.875.064 2.209 0 4-1.146 4-2.563 0-.863-.671-1.62-1.691-2.085zM.85 12.391c0-.623.771-1.298 1.971-1.576a1.987 1.987 0 00-.479 2.726l-.161.23c-.827-.333-1.331-.875-1.331-1.38zm4.427 1.558c.439-.367.723-.911.723-1.527 0-.428-.137-.82-.365-1.146l.185-.266c.829.336 1.331.876 1.331 1.381-.001.606-.728 1.265-1.874 1.558z"/></svg>