<svg xmlns="http://www.w3.org/2000/svg" width="18" height="18" viewBox="0 0 16 16"><path fill="#fff" d="M13.12 4.96v9.12H2.88V1.92h7.296z"/><path fill="#fff" d="m4.697 12.68-.043-1.014.388-1.615s1.164-.56 1.68.15.346 1.486.346 1.486l-2.37.994z"/><path fill="#b3b3b3" d="M11.307 5.096s.064-.2-.563-.657c-.628-.458-.9-.415-.9-.415-.34-.026-.478-.01-.658.204L4.89 10.12a.3.3 0 00-.043.09h-.01s-.428 2.683-.34 2.745c.08.057 2.038-.938 2.45-1.13a.4.4 0 00.07-.034.3.3 0 00.073-.07l4.217-5.792c.257-.366 0-.834 0-.833m-5.584 7.142s-.243-.565-.688-.465l-.238.322.354-1.925c.35.021.622.106.786.177.23.101.514.258.66.483.34.528.42.812.42.812z"/><path fill="#fff" d="m9.984 2.08.256 3.2 2.88-.32z"/><path fill="#b3b3b3" d="M10.323 1.595 2.4 1.6v12.8h11.2V4.896zm2.387 3.3h-2.374l-.01-2.39zm.25 8.865H3.04V2.24H9.6v3.424h3.36z"/><path fill="gray" d="m6.309 10.305.365-.525a.455.455 0 00-.113-.63l-.418-.289a.45.45 0 00-.629.113l-.639.92A6 6 0 004 9.828c-2.209 0-4 1.146-4 2.563 0 .863.671 1.623 1.691 2.088l-.363.522a.45.45 0 00.113.628l.417.291c.078.055.167.08.257.08a.45.45 0 00.371-.193l.639-.918c.283.039.574.064.875.064 2.209 0 4-1.146 4-2.563 0-.863-.671-1.62-1.691-2.085M.85 12.391c0-.623.771-1.298 1.971-1.576a1.987 1.987 0 00-.479 2.726l-.161.23c-.827-.333-1.331-.875-1.331-1.38m4.427 1.558c.439-.367.723-.911.723-1.527 0-.428-.137-.82-.365-1.146l.185-.266c.829.336 1.331.876 1.331 1.381-.001.606-.728 1.265-1.874 1.558"/></svg>