<svg xmlns="http://www.w3.org/2000/svg" xmlns:xlink="http://www.w3.org/1999/xlink" width="28" height="28" viewBox="0 0 24 24"><defs><linearGradient id="a" x1="3.09" y1="21" x2="21" y2="3.09"><stop offset="0" stop-color="#ccc"/><stop offset="1" stop-color="#b3b3b3"/></linearGradient><linearGradient id="b" x1="7.04" y1="9.98" x2="9.92" y2="7.09" xlink:href="#a"/><linearGradient id="c" x1="7.04" y1="13.49" x2="9.92" y2="10.6" xlink:href="#a"/><linearGradient id="d" x1="7.04" y1="8.22" x2="9.92" y2="5.33" xlink:href="#a"/><linearGradient id="e" x1="7.04" y1="11.73" x2="9.92" y2="8.85" xlink:href="#a"/><linearGradient id="f" x1="8.82" y1="20.55" x2="15.27" y2="14.09" xlink:href="#a"/><linearGradient id="g" x1="8.82" y1="17.03" x2="15.27" y2="10.58" xlink:href="#a"/><linearGradient id="h" x1="8.82" y1="11.3" x2="15.27" y2="4.85" gradientTransform="matrix(1 0 0 -1 0 23.64)" xlink:href="#a"/><linearGradient id="i" x1="9809.38" y1="11257.62" x2="9939.52" y2="11387.77" gradientTransform="matrix(.05 0 0 .05 -459.09 -534.09)"><stop offset="0" stop-color="#74b739"/><stop offset="1" stop-color="#56991c"/></linearGradient></defs><path d="M19.45 2.45a2.2 2.2 0 012.2 2.2v14.8a2.2 2.2 0 01-2.2 2.2H4.64a2.2 2.2 0 01-2.2-2.2V4.64a2.2 2.2 0 012.2-2.2z" fill="url(#a)"/><path d="M19.45 3.45H4.64a1.2 1.2 0 00-1.2 1.2v14.8a1.2 1.2 0 001.2 1.2h14.81a1.2 1.2 0 001.2-1.2V4.64a1.2 1.2 0 00-1.2-1.2" fill="#fff"/><path fill="url(#b)" d="M6.03 8.09h4.89v.88H6.03z"/><path fill="url(#c)" d="M6.03 11.61h4.89v.88H6.03z"/><path fill="url(#d)" d="M6.03 6.33h4.89v.88H6.03z"/><path fill="url(#e)" d="M6.03 9.85h4.89v.88H6.03z"/><path fill="url(#f)" d="M18.06 16.88H6.04v.88h12.02v-.88z"/><path fill="url(#g)" d="M18.06 13.37H6.04v.87h12.02v-.87z"/><path fill="url(#h)" d="M18.06 15.12H6.04V16h12.02v-.88z"/><path d="M11.7 6.33h6.36v6.14H11.7z" fill="url(#i)"/></svg>