<svg xmlns="http://www.w3.org/2000/svg" width="28" height="28" viewBox="0 0 24 24"><style>.a{fill:#fff}.b{fill:#b3b3b3}@media (prefers-color-scheme:dark){.a{fill:#1b1d21}.b{fill:#6f7685}}</style><path class="b" d="M19.45 2.45a2.2 2.2 0 012.2 2.2v14.8a2.2 2.2 0 01-2.2 2.2H4.64a2.2 2.2 0 01-2.2-2.2V4.64a2.2 2.2 0 012.2-2.2z"/><path class="a" d="M19.45 3.45H4.64a1.2 1.2 0 00-1.2 1.2v14.8a1.2 1.2 0 001.2 1.2h14.81a1.2 1.2 0 001.2-1.2V4.64a1.2 1.2 0 00-1.2-1.2"/><path class="b" d="M6.03 8.09h4.89v.88H6.03zm0 3.52h4.89v.88H6.03zm0-5.28h4.89v.88H6.03zm0 3.52h4.89v.88H6.03zm12.03 7.03H6.04v.88h12.02v-.88zm0-3.51H6.04v.87h12.02v-.87zm0 1.75H6.04V16h12.02v-.88z"/><path d="M11.7 6.33h6.36v6.14H11.7z" fill="#74b739"/></svg>