<svg xmlns="http://www.w3.org/2000/svg" width="14" height="14"><path fill="#ffad00" d="M14 11.096C14 12.7 12.7 14 11.096 14H2.904A2.904 2.904 0 010 11.096V2.904C0 1.3 1.3 0 2.904 0h8.19C12.7 0 14 1.3 14 2.904z"/><path fill="#fff" d="M2.774 9.817q.59 0 1.003.413t.413.986-.413.987q-.413.412-1.003.414c-.59.002-.725-.14-.996-.414a1.36 1.36 0 01-.404-.987q0-.571.404-.986a1.34 1.34 0 01.996-.413m0-8.434q2.666.001 4.934 1.316a9.77 9.77 0 013.594 3.583 9.6 9.6 0 011.323 4.934q0 .573-.412.987-.414.412-1.004.414-.592-.002-.997-.414a1.37 1.37 0 01-.405-.987q0-2.901-2.057-4.967-2.056-2.067-4.976-2.067-.59 0-.996-.413a1.36 1.36 0 01-.404-.987q0-.573.404-.987.406-.413.996-.413zm0 4.217q2.329 0 3.98 1.645Q8.41 8.888 8.41 11.217q-.001.573-.415.987a1.37 1.37 0 01-1.003.414q-.59-.002-.996-.414a1.36 1.36 0 01-.405-.987q.001-1.162-.826-1.99a2.7 2.7 0 00-1.99-.827 1.34 1.34 0 01-.996-.414A1.36 1.36 0 011.375 7q0-.572.404-.987a1.34 1.34 0 01.994-.413z"/></svg>