<svg xmlns="http://www.w3.org/2000/svg" width="14" height="14"><path fill="#ffad00" d="M14 11.096C14 12.7 12.7 14 11.096 14H2.904A2.904 2.904 0 010 11.096V2.904C0 1.3 1.3 0 2.904 0h8.19C12.7 0 14 1.3 14 2.904v8.192z"/><path fill="#fff" d="M2.774 9.817c.394 0 .728.137 1.003.413.276.275.413.605.413.986 0 .383-.137.71-.413.987-.275.274-.61.414-1.003.414s-.725-.14-.996-.414a1.36 1.36 0 01-.404-.987c0-.38.135-.71.404-.986a1.34 1.34 0 01.996-.413zm0-8.434c1.777 0 3.422.44 4.934 1.316a9.768 9.768 0 013.594 3.583 9.617 9.617 0 011.323 4.934c0 .383-.137.71-.412.987-.276.274-.61.414-1.004.414-.396 0-.726-.14-.997-.414a1.365 1.365 0 01-.405-.987c0-1.934-.685-3.59-2.057-4.967-1.37-1.378-3.03-2.067-4.976-2.067-.394 0-.725-.138-.996-.413a1.362 1.362 0 01-.404-.987c0-.383.135-.71.404-.987.27-.275.603-.413.996-.413zm0 4.217c1.552 0 2.88.548 3.98 1.645C7.858 8.34 8.41 9.665 8.41 11.217c0 .383-.14.71-.415.987a1.37 1.37 0 01-1.003.414c-.394 0-.725-.14-.996-.414a1.36 1.36 0 01-.405-.987c0-.775-.274-1.438-.826-1.99a2.707 2.707 0 00-1.99-.827 1.34 1.34 0 01-.996-.414A1.36 1.36 0 011.375 7c0-.382.135-.71.404-.987a1.34 1.34 0 01.994-.413z"/></svg>