<svg width="16" height="16" xmlns="http://www.w3.org/2000/svg"><path d="M2.88 2.224h10.24v12.16H2.88V2.224z" fill="#b3b3b3"/><path d="M2.4 1.904v12.8h11.2v-12.8H2.4zm10.56 12.16H3.04V2.544h9.92v11.52z" fill="#b3b3b3"/><path fill="#ccc" d="M10.688 1.68h-.319a.384.384 0 00-.384-.384H5.92a.384.384 0 00-.384.384h-.32a.384.384 0 00-.384.384v.288c0 .212.172.384.384.384h.32v1.12c0 .212.172.384.384.384h4.064a.384.384 0 00.384-.384v-1.12h.319a.384.384 0 00.385-.384v-.288a.384.384 0 00-.384-.384z"/><path fill="#b3b3b3" d="M5.536 2.736h4.832v.544H5.536v-.544z"/><path d="M11.136 8.429H9.103a.234.234 0 01-.233-.233l-.006-2.024a.233.233 0 00-.233-.233h-1.29a.232.232 0 00-.232.233l.012 2.024a.232.232 0 01-.232.233H4.847a.235.235 0 00-.234.233v1.281a.234.234 0 00.234.233h2.042a.233.233 0 01.233.234v2.047a.233.233 0 00.234.234h1.281a.234.234 0 00.233-.233V10.41a.233.233 0 01.233-.233h2.033a.233.233 0 00.233-.233V8.662a.234.234 0 00-.233-.233z" fill="#fff"/></svg>