<svg width="16" height="16" viewBox="0 0 500 500" xmlns="http://www.w3.org/2000/svg"><path fill="#f08c00" d="M90 69.5h320v380H90v-380z"/><path fill="#fff" opacity=".2" d="M90 69.5h320v380H90v-380z"/><path fill="#f08c00" d="M75 59.5v400h350v-400H75zm330 380H95v-360h310v360z"/><path opacity=".25" d="M339 58.5h-1.594a12.219 12.219 0 011.594 6v9c0 6.627-5.373 12-12 12h-9.969v35a12 12 0 01-12.031 12H179.625c2.063 3.563 5.938 6 10.375 6h127c6.615-.017 11.969-5.385 11.969-12v-35h10A12 12 0 00351 79.5v-9a11.969 11.969 0 00-12-12z"/><path fill="#ccc" d="M334 52.5h-9.969c0-6.627-5.372-12-12-12H185c-6.627 0-12 5.373-12 12h-10c-6.627 0-12 5.373-12 12v9c0 6.625 5.375 12 12 12h10v35c0 6.625 5.375 12 12 12h127c6.627 0 12-5.373 12-12v-35h9.969A12 12 0 00346 73.5v-9c0-6.627-5.373-12-12-12z"/><path fill="#b3b3b3" d="M173 85.5h151v17H173v-17z"/><path fill="#fff" stroke="#fff" stroke-width="30" d="M357.524 213.125c5.484 5.49 5.484 14.385 0 19.875L221.587 368.938c-5.49 5.483-14.385 5.483-19.875 0L140.774 308c-5.163-5.54-5.01-14.175.345-19.53 5.355-5.356 13.99-5.508 19.53-.345l51 51 126-126c5.49-5.484 14.385-5.484 19.875 0z"/></svg>