<svg xmlns="http://www.w3.org/2000/svg" width="16" height="16" viewBox="0 0 500 500"><path fill="#666" d="M107.143 5.714h385.714v328.572H107.143z"/><circle cx="200" cy="112.857" r="58.571" fill="#b3b3b3"/><path fill="#ddd" d="m278.992 297.88 40.664-14.413 33.134-57.654 39.158 25.223 22.593-5.404 48.195-39.637 30.122 1.5v-26.723L449.18 155.55l-42.17 32.43-52.713-61.258-72.292 122.513-54.22-27.025-86.568 77.037 92.592-17.583z"/><path fill="#b3b3b3" d="M492.857 335.714V207.496l-30.122-1.5-48.194 39.636-22.592 5.404-39.158-25.223-33.134 57.654-40.664 14.413-45.183-16.216-92.593 17.583-36.93 32.863z"/><path fill="#1b1d21" d="M485.714 14.286v314.286H114.286V14.286zM500 0H100v342.857h400z"/><path fill="#666" d="M57.143 84.286h385.714v328.572H57.143z"/><circle cx="150" cy="191.428" r="58.571" fill="#b3b3b3"/><path fill="#ddd" d="m228.992 376.45 40.664-14.412 33.134-57.654 39.158 25.223 22.593-5.404 48.195-39.637 30.122 1.5v-26.722L399.18 234.12l-42.17 32.43-52.713-61.257-72.292 122.514-54.22-27.026-86.568 77.038 92.592-17.583z"/><path fill="#b3b3b3" d="M442.857 414.285v-128.22l-30.122-1.5-48.194 39.638-22.592 5.404-39.158-25.223-33.134 57.654-40.664 14.413-45.183-16.215-92.593 17.583-36.93 32.864z"/><path fill="#1b1d21" d="M435.714 92.857v314.286H64.286V92.857zM450 78.57H50v342.86h400z"/><path fill="#666" d="M7.143 162.857h385.714V491.43H7.143z"/><circle cx="100" cy="270" r="58.571" fill="#b3b3b3"/><path fill="#ddd" d="m178.992 455.022 40.664-14.413 33.134-57.655 39.158 25.224 22.593-5.406 48.195-39.637 30.122 1.502v-26.725L349.18 312.69l-42.17 32.43-52.713-61.255-72.292 122.513-54.22-27.025-86.568 77.037 92.592-17.583z"/><path fill="#b3b3b3" d="M392.857 492.856V364.64l-30.122-1.503-48.194 39.637-22.592 5.405-39.158-25.225-33.134 57.654-40.664 14.412-45.183-16.215-92.593 17.583-36.93 32.863z"/><path fill="#1b1d21" d="M385.714 171.428v314.286H14.286V171.428zM400 157.143H0V500h400z"/></svg>