<svg xmlns="http://www.w3.org/2000/svg" width="16" height="16" viewBox="0 0 18 18"><linearGradient id="a" x1="7806.199" y1="-11123.197" x2="8136.481" y2="-11453.478" gradientTransform="matrix(.036 0 0 -.036 -277.968 -397.38)"><stop offset="0" stop-color="#ccc"/><stop offset="1" stop-color="#b3b3b3"/></linearGradient><path fill="url(#a)" d="M15.768 12.96a2.808 2.808 0 01-2.808 2.808H5.041a2.809 2.809 0 01-2.809-2.808V5.041a2.81 2.81 0 012.809-2.809h7.919a2.809 2.809 0 012.808 2.809v7.919z"/><circle fill="#FFF" cx="9" cy="7.649" r="3.028"/><path fill="#FFF" d="M13.442 10.526c-.305-.228-.922-.096-1.371.293 0 0-1.524 1.321-3.071 1.321s-3.07-1.321-3.07-1.321c-.449-.389-1.066-.521-1.372-.293s-1.052 1.424-1.052 2.018v.852c0 .594.485 1.08 1.08 1.08h8.829c.594 0 1.08-.486 1.08-1.08v-.852c0-.594-.746-1.79-1.053-2.018z"/><linearGradient id="b" x1="8001.407" y1="-11338.185" x2="8153.773" y2="-11490.552" gradientTransform="matrix(.036 0 0 -.036 -277.968 -397.38)"><stop offset="0" stop-color="#eee"/><stop offset="1" stop-color="#d3d3d3"/></linearGradient><path fill="url(#b)" d="M13.598 9.112v2.192c0 .063-.351.113-.779.113H9.78a.785.785 0 00-.78.782v2.677c0 .429.351.78.78.78h3.038c.429 0 .779.044.779.098v2.234c0 .063.254-.13.563-.428l3.607-3.481a.75.75 0 000-1.084L14.16 9.514c-.308-.298-.562-.479-.562-.402z"/></svg>