<svg xmlns="http://www.w3.org/2000/svg" width="16" height="16" viewBox="25 0 500 500"><path fill="#edad3b" d="M284.24 9.243V64.89c112.977 23.116 196.114 101.34 196.114 194.29 0 49.287-23.38 94.43-62.186 129.416-15.02 13.54-25.072 20.448-28.475 16.833-3.403-3.614 4.945-14.277 13.273-33.243 7.87-17.92 12.132-37.09 12.132-57.015 0-70.436-53.235-131.436-130.862-161.17v63.18c0 9.845-6.43 12.204-14.286 5.243l-79.182-70.142-28.573-25.312-1.246-1.1c-7.857-6.962-7.856-18.354 0-25.314l27.658-24.5 28.573-25.31L269.954 4c7.857-6.96 14.286-4.6 14.286 5.243zM230.047 496l52.77-46.746c7.857-6.96 20.715-18.35 28.572-25.312l27.658-24.498c7.857-6.96 7.857-18.353 0-25.313l-1.248-1.102-28.57-25.313-79.182-70.14c-7.858-6.962-14.288-4.603-14.288 5.24v63.181c-77.626-29.734-130.862-90.733-130.862-161.17 0-19.924 4.263-39.092 12.13-57.013 8.33-18.966 16.678-29.63 13.275-33.245C106.9 90.952 96.85 97.86 81.83 111.4c-38.807 34.986-62.187 80.13-62.187 129.417 0 92.954 83.138 171.175 196.116 194.293v55.646c0 9.846 6.43 12.204 14.288 5.244z"/></svg>