<svg xmlns="http://www.w3.org/2000/svg" xmlns:xlink="http://www.w3.org/1999/xlink" width="16" height="16"><defs><linearGradient id="a" x1="3751.75" y1="-5395" x2="3949.75" y2="-5593" gradientTransform="matrix(.03 0 0 -.03 -115.19 -169.84)"><stop offset="0" stop-color="#ccc"/><stop offset="1" stop-color="#b3b3b3"/></linearGradient><linearGradient id="d" x1="3643.5" y1="-5351.25" x2="4056" y2="-5763.75" xlink:href="#a"/><linearGradient id="b" x1="3694.82" y1="-5600.99" x2="3818.15" y2="-5724.32" gradientTransform="matrix(.03 0 0 -.03 -115.19 -169.84)"><stop offset="0" stop-color="#f0f0f0"/><stop offset="1" stop-color="#c8c8c8"/></linearGradient><linearGradient id="e" x1="3707.65" y1="-5628.62" x2="3736.26" y2="-5657.23" xlink:href="#a"/><linearGradient id="f" x1="3742.91" y1="-5666.93" x2="3787.34" y2="-5711.35" xlink:href="#a"/><linearGradient id="g" x1="3732.85" y1="-5673.86" x2="3802.78" y2="-5743.79" xlink:href="#b"/><linearGradient id="h" x1="3883.54" y1="-5600.62" x2="4006.87" y2="-5723.95" xlink:href="#b"/><linearGradient id="i" x1="3896.37" y1="-5628.25" x2="3924.97" y2="-5656.85" xlink:href="#a"/><linearGradient id="j" x1="3931.63" y1="-5666.55" x2="3976.06" y2="-5710.98" xlink:href="#a"/><linearGradient id="k" x1="3921.57" y1="-5673.49" x2="3991.5" y2="-5743.42" xlink:href="#b"/><linearGradient id="l" x1="3975.76" y1="-5404.11" x2="4046.89" y2="-5475.24" xlink:href="#a"/><linearGradient id="m" x1="3865.8" y1="-5574.86" x2="3902.87" y2="-5611.93" gradientTransform="matrix(.03 0 0 -.03 -115.19 -169.84)"><stop offset="0" stop-color="#b3b3b3"/><stop offset="1" stop-color="#999"/></linearGradient><linearGradient id="n" x1="3756.1" y1="-5670.91" x2="3862.47" y2="-5670.91" xlink:href="#a"/><linearGradient id="o" x1="3860.68" y1="-5598.76" x2="4024.61" y2="-5762.69" xlink:href="#a"/><clipPath id="c"><path d="M11.85 8.75S10.68 9.79 9.1 11c-.28 1.74-1.23 2.32-2.1 2.33a2.56 2.56 0 01-2.71-2 7.89 7.89 0 011.17.14c.58.1.37-.14.68-.8a2.21 2.21 0 011.24-.92l1.41-2.61 4.3-5.68-12-.07v13.25h14L15 3.8l-3.16 5z" fill="none"/></clipPath></defs><g clip-path="url(#c)"><path d="M1.6 1.91h12.9v12.14H1.6z" fill="#fff"/><path d="M13.2 5.44H2.86V4.8H13.2zm0 1.06H2.86v.64H13.2z" fill="url(#a)"/><path d="M1.2 1.6v12.8h13.6V1.6zm13 12.16H1.84V3.62h12.32zm-1-4.93H2.86v-.64H13.2z" fill="url(#d)"/><path d="M2.88 9.55h4.27v3.63H2.88z" fill="url(#b)"/><circle cx="3.91" cy="10.73" r=".65" fill="url(#e)"/><path d="M4.8 12.78l.45-.16.36-.62.43.28.25-.06.53-.44h.33v-.3l-.48-.27-.46.35-.58-.67-.8 1.35-.59-.3-1 .85 1-.19z" fill="url(#f)"/><path d="M7.15 13.18v-1.4h-.33l-.53.44-.29.04-.39-.26-.36.64-.45.16-.49-.18-1 .19-.41.39z" fill="url(#g)"/><path d="M8.92 9.54h4.27v3.63H8.92z" fill="url(#h)"/><circle cx="9.95" cy="10.72" r=".65" fill="url(#i)"/><path d="M10.84 12.77l.45-.16.36-.64.43.28.25-.06.53-.44h.33v-.3l-.48-.28-.47.36-.57-.68-.8 1.36-.59-.3-.95.85 1-.19z" fill="url(#j)"/><path d="M13.19 13.17v-1.4h-.33l-.53.44-.25.06-.43-.27-.36.64-.45.16-.5-.18-1 .19-.41.39z" fill="url(#k)"/></g><path d="M11.16 8.52L15.87 1a.61.61 0 00-.11-.86.62.62 0 00-.87.11l-5.41 7 1.68 1.28z" fill="url(#l)"/><path d="M10.82 8.62l-1.35-1-1.56 2.57.66.5z" fill="url(#m)"/><path d="M7.22 10.58a1 1 0 00-.49.82c0 .6-.35.61-.79.71a1.34 1.34 0 01-.94-.28s1.08 1.17 2 .94a1.78 1.78 0 001.37-1.14 1.33 1.33 0 000-.53s-.38-1-1.15-.52z" fill="url(#n)"/><path d="M9.8 15.61a1 1 0 01-1-1v-2.97H7.08a.33.33 0 01-.3-.2c-.08-.18 0-.34.45-.84l3-3.15a1 1 0 011.41 0l3 3.15c.46.48.5.66.43.83a.34.34 0 01-.31.21h-1.6a3.21 3.21 0 000 .36v2.6a1 1 0 01-1 1z" fill="url(#o)"/><path d="M11 7.42a.69.69 0 01.48.2l3 3.16c.26.27.42.49.35.49h-1.91c-.05 0-.1.3-.1.68v2.65a.68.68 0 01-.68.69H9.8a.69.69 0 01-.68-.69V12a1.57 1.57 0 00-.12-.73H7s.12-.22.38-.49l3-3.16a.67.67 0 01.47-.2m0-.64a1.28 1.28 0 00-.93.4L7 10.33c-.13.14-.25.27-.33.37a.79.79 0 00-.18.81.64.64 0 00.59.4h1.4v2.69a1.33 1.33 0 001.32 1.33h2.34a1.33 1.33 0 001.32-1.33v-2.69h1.38a.66.66 0 00.6-.4.81.81 0 00-.16-.8l-.28-.38-3-3.15a1.29 1.29 0 00-.94-.4z" fill="#fff"/></svg>