<svg xmlns="http://www.w3.org/2000/svg" width="16" height="16" viewBox="0 0 500 500"><path d="M49.97 59.645h403.097v379.448H49.97z" fill="#fff"/><path d="M412.5 170h-323v-20h323v20zm0 33h-323v20h323v-20z" fill="#b3b3b3"/><path d="M37.5 50v400h425V50h-425zm405 380h-385V113h385v317zm-30-154h-323v-20h323v20z" fill="#b3b3b3"/><path d="M90.14 298.428h133.198v113.466H90.14z" fill="#b3b3b3"/><path fill="gray" d="M348.742 266.14l147.3-235.06c6.477-8.503 4.833-20.647-3.67-27.123-8.505-6.476-20.647-4.832-27.123 3.67L296.394 226.274l52.347 39.866zm-10.605 3.276l-42.082-32.05-48.854 81.182 20.53 15.634zm-112.664 61.169s-13.705 7.2-15.056 25.816c-1.352 18.616-10.9 18.782-24.925 21.93-14.026 3.147-29.138-8.54-29.138-8.54s33.614 36.74 62.98 29.242c29.368-7.497 41.102-26.98 42.762-35.737 1.66-8.758-.515-16.428-.515-16.428s-11.984-30.58-36.107-16.282z"/><path fill="#74b739" d="M306.348 487.66c-17.264 0-31.31-14.046-31.31-31.31v-82.94c0-4.68-.2-8.488-.448-11.308h-53.224c-4.158 0-7.888-2.454-9.5-6.252-2.4-5.65-.99-10.517 13.974-26.026l95.064-98.526c5.837-6.05 13.648-9.382 21.992-9.382 8.345 0 16.155 3.332 21.992 9.382l95.063 98.526c14.342 14.863 15.77 20.4 13.413 25.946-1.634 3.847-5.422 6.332-9.65 6.332H411.28c-.29 2.784-.526 6.6-.526 11.31v82.938c0 17.264-14.045 31.31-31.31 31.31H306.35z"/><path d="M342.896 231.915c5.363 0 10.727 2.11 14.796 6.326l95.063 98.527c8.138 8.435 13.07 15.335 10.96 15.335h-59.868c-1.704 0-3.096 9.59-3.096 21.31v82.938c0 11.72-9.59 21.31-21.31 21.31h-73.095c-11.72 0-21.31-9.59-21.31-21.31v-82.94c0-11.72-1.205-21.308-2.68-21.308h-60.992c-1.72 0 3.533-6.9 11.67-15.335L328.1 238.24c4.07-4.216 9.433-6.325 14.796-6.325m0-20c-11.084 0-21.45 4.418-29.19 12.44l-95.062 98.526c-4.07 4.22-7.62 8.224-10.26 11.58-3.2 4.066-10.696 13.592-5.723 25.3 3.186 7.498 10.528 12.343 18.706 12.343h43.666c.004.428.006.863.006 1.31v82.938c0 22.778 18.53 41.31 41.308 41.31h73.096c22.777 0 41.31-18.53 41.31-41.31v-82.938c0-.445 0-.882.006-1.31h42.954c8.248 0 15.648-4.875 18.854-12.42 4.927-11.603-2.44-21.384-5.213-25.065-2.595-3.445-6.124-7.503-10.207-11.735l-95.063-98.526c-7.74-8.023-18.107-12.44-29.19-12.44z" fill="#fff"/></svg>