<svg xmlns="http://www.w3.org/2000/svg" width="16" height="16" viewBox="0 0 500 500"><path d="M49.97 59.645h403.097v379.448H49.97z" fill="#1b1d21"/><path d="M412.5 170h-323v-20h323v20zm0 33h-323v20h323v-20z" fill="#6f7685"/><path d="M37.5 50v400h425V50h-425zm405 380h-385V113h385v317zm-30-154h-323v-20h323v20z" fill="#6f7685"/><path d="M90.14 298.428h133.198v113.466H90.14z" fill="#6f7685"/><path fill="gray" d="M348.742 266.14l147.3-235.06c6.477-8.503 4.833-20.647-3.67-27.123-8.505-6.476-20.647-4.832-27.123 3.67L296.394 226.274l52.347 39.866zm-10.605 3.276l-42.082-32.05-48.854 81.182 20.53 15.634zm-112.664 61.169s-13.705 7.2-15.056 25.816c-1.352 18.616-10.9 18.782-24.925 21.93-14.026 3.147-29.138-8.54-29.138-8.54s33.614 36.74 62.98 29.242c29.368-7.497 41.102-26.98 42.762-35.737 1.66-8.758-.515-16.428-.515-16.428s-11.984-30.58-36.107-16.282z"/><path fill="#74b739" d="M342.896 487.66c-8.345 0-16.155-3.333-21.992-9.384L225.84 379.75c-14.963-15.51-16.375-20.375-13.975-26.026 1.613-3.798 5.343-6.252 9.5-6.252h53.225c.25-2.82.45-6.628.45-11.31v-82.938c0-17.264 14.044-31.31 31.308-31.31h73.096c17.264 0 31.31 14.046 31.31 31.31v82.94c0 4.707.235 8.523.525 11.308h52.435c4.228 0 8.016 2.485 9.65 6.332 2.354 5.547.928 11.083-13.413 25.946l-95.063 98.526c-5.838 6.05-13.65 9.383-21.994 9.383z"/><path d="M379.443 231.915c11.72 0 21.31 9.59 21.31 21.31v82.938c0 11.72 1.392 21.31 3.095 21.31h59.866c2.11 0-2.82 6.9-10.96 15.334l-95.062 98.526c-4.07 4.217-9.433 6.326-14.796 6.326s-10.727-2.11-14.796-6.327l-95.063-98.526c-8.138-8.435-13.39-15.335-11.67-15.335h60.989c1.475 0 2.68-9.59 2.68-21.31v-82.938c0-11.72 9.59-21.31 21.31-21.31h73.095m0-20h-73.096c-22.777 0-41.31 18.532-41.31 41.31v82.94c0 .444 0 .88-.005 1.308h-43.667c-8.178 0-15.52 4.845-18.705 12.343-4.973 11.708 2.523 21.233 5.724 25.3 2.64 3.355 6.188 7.36 10.26 11.58l95.063 98.525c7.74 8.02 18.104 12.44 29.188 12.44s21.45-4.42 29.19-12.44l95.06-98.526c4.085-4.232 7.614-8.29 10.21-11.735 2.772-3.683 10.14-13.464 5.21-25.065-3.204-7.546-10.604-12.422-18.853-12.422h-42.953a111.95 111.95 0 01-.007-1.31v-82.938c.002-22.78-18.53-41.31-41.307-41.31z" fill="#1b1d21"/></svg>