<svg xmlns="http://www.w3.org/2000/svg" width="16" height="16"><defs><linearGradient id="a" x1="3674.06" y1="-5381.8" x2="4025.44" y2="-5733.19" gradientTransform="matrix(.03 0 0 -.03 -115.19 -169.84)"><stop offset="0" stop-color="#196b99"/><stop offset="1" stop-color="#0d5c7f"/></linearGradient><linearGradient id="b" x1="57736.75" y1="-82321.9" x2="57842.53" y2="-82427.67" gradientTransform="matrix(.04 0 0 -.04 -2068.4 -2955.39)"><stop offset="0" stop-color="#999"/><stop offset="1" stop-color="#666"/></linearGradient><linearGradient id="c" x1="57712.24" y1="-82391.14" x2="57867.08" y2="-82545.98" gradientTransform="matrix(.04 0 0 -.04 -2068.4 -2955.39)"><stop offset="0" stop-color="#ffad00"/><stop offset="1" stop-color="#d68900"/></linearGradient></defs><path d="M14.4 11.74a2.66 2.66 0 01-2.66 2.66H4.26a2.66 2.66 0 01-2.66-2.66V4.26A2.66 2.66 0 014.26 1.6h7.48a2.66 2.66 0 012.66 2.66z" fill="url(#a)"/><circle cx="8" cy="6.72" r="2.86" fill="#fff"/><path d="M12.2 9.44a1.11 1.11 0 00-1.2.24A5.47 5.47 0 018 11a5.47 5.47 0 01-2.95-1.32 1.11 1.11 0 00-1.25-.24 3.73 3.73 0 00-1 1.85v.93a1 1 0 001 1h8.48a1 1 0 001-1v-.93a3.73 3.73 0 00-1.08-1.85z" fill="#fff"/><path d="M10.41 11.21V9.73a.71.71 0 01.7-.7h1.83a.72.72 0 01.71.7v1.48h1.08V9.73A1.79 1.79 0 0012.94 8h-1.83a1.78 1.78 0 00-1.78 1.73v1.48z" fill="url(#b)"/><path d="M15.37 15.57a.36.36 0 01-.36.36h-6a.36.36 0 01-.36-.36V11.4a.36.36 0 01.4-.4H15a.37.37 0 01.36.37v4.17z" fill="url(#c)"/></svg>