<svg xmlns="http://www.w3.org/2000/svg" width="16" height="16"><path d="M14.4 11.74a2.66 2.66 0 01-2.66 2.66H4.26a2.66 2.66 0 01-2.66-2.66V4.26A2.66 2.66 0 014.26 1.6h7.48a2.66 2.66 0 012.66 2.66z" fill="#959ba7"/><circle cx="8" cy="6.72" r="2.86" fill="#fff"/><path d="M12.2 9.44a1.11 1.11 0 00-1.2.24A5.47 5.47 0 018 11a5.47 5.47 0 01-2.95-1.32 1.11 1.11 0 00-1.25-.24 3.73 3.73 0 00-1 1.85v.93a1 1 0 001 1h8.48a1 1 0 001-1v-.93a3.73 3.73 0 00-1.08-1.85z" fill="#fff"/><circle cx="4.21" cy="11.96" r="1.71" fill="#196b99"/></svg>