<svg xmlns="http://www.w3.org/2000/svg" width="16" height="16"><style>.a{fill:#fff}@media (prefers-color-scheme:dark){.a{fill:#1b1d21}}</style><path fill="#74b739" d="M8 2.906c-4.418 0-8 2.28-8 5.094s3.582 5.094 8 5.094 8-2.28 8-5.094-3.582-5.094-8-5.094zM1.704 8c0-1.168 1.067-2.199 2.695-2.824-.614.781-.995 1.754-.995 2.824s.382 2.043.996 2.824C2.771 10.199 1.704 9.168 1.704 8zm9.859 2.869c.637-.788 1.033-1.777 1.033-2.869s-.396-2.081-1.033-2.869c1.694.619 2.81 1.674 2.81 2.869 0 1.196-1.116 2.25-2.81 2.869z"/><path class="a" d="M8 6.521A1.48 1.48 0 118 9.48a1.48 1.48 0 010-2.96z"/></svg>