<svg xmlns="http://www.w3.org/2000/svg" width="14" height="14" viewBox="0 0 500 500"><linearGradient id="a" x1="54.898" y1="52.664" x2="449.571" y2="447.337"><stop offset="0" stop-color="#CCC"/><stop offset="1" stop-color="#b3b3b3"/></linearGradient><path fill="url(#a)" d="M326.907 440V60h130v380h-130zm-278.45 0c-2.637 0-5.364-5.848-5.364-15.633V75.633C43.093 65.848 45.82 60 48.457 60c.73 0 3.463.287 7.988 3.974l208.09 169.597c5.52 4.5 8.558 10.333 8.557 16.43 0 6.098-3.038 11.932-8.556 16.428L56.444 436.026C51.92 439.714 49.187 440 48.456 440z"/><path fill="#FFF" d="M446.907 70v360h-110V70h110M53.12 74.163l205.098 167.16c3.144 2.56 4.875 5.643 4.874 8.677 0 3.034-1.73 6.115-4.874 8.676l-205.1 167.16a40.257 40.257 0 01-.025-1.47V75.634c0-.514.01-1.004.026-1.47M466.906 50h-150v400h150V50zm-418.45 0c-9.142 0-15.364 9.266-15.364 25.633v348.734c0 16.368 6.22 25.633 15.363 25.633 4.248 0 9.128-2 14.306-6.222L270.854 274.18c16.318-13.298 16.318-35.06 0-48.36L62.762 56.22C57.582 52 52.704 50 48.456 50z"/></svg>