<svg xmlns="http://www.w3.org/2000/svg" width="16" height="16" viewBox="0 0 500 500"><path fill="#fff" d="M15 60h395v380H15z"/><path fill="#b3b3b3" d="M375 128H52v-20h323zm0 33H52v20h323z"/><path fill="#b3b3b3" d="M0 50v400h425V50zm405 380H20V70h385zm-30-196H52v-20h323zm0 53H52v-20h323z"/><path fill="#b3b3b3" d="M313 394.27H51v-82h262zm-232-30h202v-22H81zm330.966-99.698v43.851c0 1.247-7.023 2.268-15.607 2.268h-60.752c-8.584 0-15.607 7.024-15.607 15.607v53.542c0 8.583 7.024 15.606 15.608 15.606h60.75c8.585 0 15.608.883 15.608 1.964v44.674c0 1.258 5.056-2.588 11.233-8.55l72.167-69.63a14.993 14.993 0 000-21.675L423.2 272.595c-6.18-5.957-11.234-9.57-11.234-8.024z"/></svg>