<svg xmlns="http://www.w3.org/2000/svg" width="16" height="16" fill="none" stroke="#ddd" stroke-linecap="round" stroke-linejoin="round" stroke-width="2" viewBox="0 0 24 24"><path d="M11.5 15H7a4 4 0 00-4 4v2"/><circle cx="9.375" cy="7" r="4"/><path stroke-width="1.5" d="M16.836 21.022a1.1 1.1 0 00.323.779l.846.846a.55.55 0 00.779 0l1.168-1.169a.55.55 0 000-.779l-.39-.39a.55.55 0 010-.779l.39-.389a.55.55 0 000-.78l-.39-.389a.55.55 0 010-.779l.068-.067a1.1 1.1 0 00.322-.779v-.634a3.58 3.58 0 10-3.116 0z"/><circle cx="18.362" cy="11.575" r=".275"/></svg>