<svg xmlns="http://www.w3.org/2000/svg" width="14" height="14" viewBox="0 0 500 500"><path fill="#b3b3b3" d="M334.674 118.372S135.08 321.71 126.348 326.698c-8.732 4.99-73.6 7.484-96.055 32.437-22.454 24.948-34.928 53.64-28.69 56.135s47.402-27.444 47.402-27.444l38.672 22.454 9.98 47.404L51.5 488.87s57.384 26.196 93.56-17.465c36.177-43.66 21.207-93.56 21.207-93.56s195.852-202.09 220.8-219.554c24.95-17.464 82.334 1.25 99.797-42.413 17.465-43.66 12.477-52.393 12.477-52.393L450.69 95.918 428.234 84.69l-11.227-43.66 44.91-28.692S433.224-5.126 395.8 8.596s-53.64 43.66-61.126 109.776"/><path fill="#b3b3b3" d="M300.117 274.01 86.467 62.207v-16.66L33.854 7.286 18.312 20.437l37.066 50.218 17.488 1.638L288.332 285.9z"/><path fill="#c9473d" d="M428.165 343.128c-39.667-41.714-82.605-69.93-112.613-76.57l-39.998-42.062.355-.336c4.5-4.28 4.676-11.396.397-15.896-4.278-4.5-11.394-4.68-15.895-.4l-38.258 36.38c-4.5 4.28-4.678 11.396-.4 15.897 4.28 4.5 11.396 4.68 15.896.4l.354-.336L278 302.264c5.126 30.304 31.148 74.606 70.814 116.32 57.487 60.45 121.852 92.564 143.764 71.728s-6.928-86.733-64.413-147.184"/><path fill="#bc2d26" d="M393.366 387.89c-49.014-50.116-86.777-92.67-84.345-95.047 2.433-2.38 44.14 36.318 93.152 86.432 49.015 50.114 86.778 92.668 84.346 95.046-2.43 2.38-44.137-36.32-93.152-86.43zm48.387 87.562c2.433-2.377-26.157-35.554-63.857-74.1-37.698-38.543-70.23-67.86-72.662-65.482s26.157 35.552 63.855 74.097c37.7 38.543 70.23 67.865 72.663 65.485zm28.463-63.345c2.432-2.38-20.928-30.206-52.175-62.155-31.245-31.944-58.548-55.917-60.98-53.537-2.43 2.377 20.93 30.204 52.175 62.15 31.246 31.95 58.55 55.92 60.98 53.542M275.554 224.496 237.65 260.54 278 302.264l37.552-35.707z"/></svg>