<?xml version="1.0" encoding="utf-8"?>
<!-- Generator: Adobe Illustrator 19.1.0, SVG Export Plug-In . SVG Version: 6.00 Build 0)  -->
<svg version="1.1" id="Ebene_1" xmlns="http://www.w3.org/2000/svg" xmlns:xlink="http://www.w3.org/1999/xlink" x="0px" y="0px"
	 viewBox="-272 399 49.9 44.1" style="enable-background:new -272 399 49.9 44.1;" xml:space="preserve" width="23" height="23">
<style type="text/css">
	.st0{fill:#FFFFFF;}
</style>
<g id="g10" transform="matrix(1.25,0,0,-1.25,-28.4725,179.16875)">
	<path id="path232" class="st0" d="M-192.2-176c-1.5,0-2.6-1.2-2.6-2.6v-29.8c0-1.5,1.2-2.6,2.6-2.6h6.2c-3.3,3.6-4.2,8.6-5.3,13.8
		c-1.4,6.4-2.8,12.4,0.7,17.9c0.8,1.3,1.8,2.4,2.9,3.4L-192.2-176L-192.2-176z M-164.5-176c1.7-1.7,3.1-3.9,4.1-6.6l-10.7-2.3
		c-1.2,2.3-3,4.2-6.4,3.4c-1.9-0.4-3.2-1.5-3.8-2.7c-0.7-1.5-1-3.1,0.6-10.9c1.7-7.8,2.6-9.2,3.9-10.3c1-0.9,2.6-1.3,4.5-0.9
		c3.5,0.7,4.4,3.2,4.5,5.7l10.7,2.3c0.3-5.6-1.5-9.9-4.5-12.9h4.1c1.5,0,2.6,1.2,2.6,2.6v29.8c0,1.5-1.2,2.6-2.6,2.6L-164.5-176
		L-164.5-176z"/>
</g>
</svg>
