<svg xmlns="http://www.w3.org/2000/svg" width="16" height="16"><path fill="#c9473d" d="M6.716 3.144a3.58 3.58 0 013.573 3.572c0 1.97-1.604 3.574-3.573 3.574S3.144 8.686 3.144 6.715a3.577 3.577 0 013.572-3.571m0-2.144a5.716 5.716 0 100 11.432A5.716 5.716 0 006.716 1"/><path fill="#e5e5e5" d="m8.006 3.729 1.946-1.946a.427.427 0 01.604 0l1.149 1.146a.43.43 0 010 .606l-1.94 1.939zM3.749 5.4l1.797-1.798-1.94-1.931a.43.43 0 00-.606 0l-1.2 1.2a.43.43 0 00.002.607zm-.12 2.506L1.675 9.859a.43.43 0 000 .604l1.27 1.271c.167.168.44.168.606 0L5.496 9.79zm8.132 1.955L9.805 7.907l-1.882 1.89 1.951 1.952a.43.43 0 00.606 0l1.28-1.278a.437.437 0 00.001-.61"/><path fill="#404040" d="M14.473 12.589c-.472-.528-1.527-1.772-3.1-2.649l-1.314 1.209c.686 1.678 1.998 2.656 2.471 3.181.628.702 1.572.884 2.113.401.535-.484.461-1.441-.17-2.142"/><path fill="#ccc" d="M11.402 5.007a4.242 4.242 0 10-6.279 5.707c1.36 1.5 3.575 1.813 5.234.835.845-.498 1.757-1.511 1.97-2.863.207-1.305-.257-2.945-.925-3.679m-1.136 5.057c-1.216 1.103-3.103 1.014-4.206-.2s-1.012-3.104.202-4.205a2.977 2.977 0 014.203.201 2.98 2.98 0 01-.199 4.204"/></svg>