<svg xmlns="http://www.w3.org/2000/svg" width="16" height="16" viewBox="0 0 16 16"><path d="M1 2.99c0-.257.21-.467.467-.467h12.295c.257 0 .467.21.467.467v7.953c0 .258-.21.467-.467.467H1.467A.469.469 0 0 1 1 10.942V2.99z" opacity=".25"/><linearGradient id="a" x1="290.302" y1="-396.992" x2="301.038" y2="-407.728" gradientTransform="matrix(1 0 0 -1 -287.66 -394.96)"><stop offset="0" stop-color="#f2f2f2"/><stop offset=".393" stop-color="#ebebeb"/><stop offset=".969" stop-color="#d7d7d7"/><stop offset="1" stop-color="#d6d6d6"/></linearGradient><path fill="url(#a)" d="M1.467 3.398c0-.257.21-.467.467-.467h12.149c.257 0 .467.21.467.467V11.4c0 .258-.21.468-.467.468H1.935a.468.468 0 0 1-.467-.468V3.398z"/><linearGradient id="b" x1="295.654" y1="-404.676" x2="295.654" y2="-399.589" gradientTransform="matrix(1 0 0 -1 -287.66 -394.96)"><stop offset="0" stop-color="#e5e5e5"/><stop offset="1" stop-color="#a5a5a5"/></linearGradient><path fill="url(#b)" d="M2.197 4.722l5.958 3.569 5.637-3.662s-1.548 5.086-5.725 5.086c-3.591.001-5.87-4.993-5.87-4.993z"/><linearGradient id="c" x1="27413.398" y1="-38909.156" x2="27533.123" y2="-39028.883" gradientTransform="matrix(.032 0 0 -.032 -866.853 -1236.24)"><stop offset="0" stop-color="#196b99"/><stop offset="1" stop-color="#0d5c7f"/></linearGradient><circle fill="url(#c)" cx="12.291" cy="10.769" r="2.709"/></svg>