<svg xmlns="http://www.w3.org/2000/svg" width="16" height="16" viewBox="0 0 16 16"><linearGradient id="a" x1="864.523" y1="-1224.88" x2="877.439" y2="-1224.88" gradientTransform="matrix(1 0 0 -1 -862.98 -1216.88)"><stop offset="0" stop-color="#f0f0f0"/><stop offset="1" stop-color="#dedede"/></linearGradient><path fill="url(#a)" d="M8 14.459A6.465 6.465 0 0 1 1.542 8 6.464 6.464 0 0 1 8 1.542 6.465 6.465 0 0 1 14.459 8 6.467 6.467 0 0 1 8 14.459z"/><linearGradient id="b" x1="578.371" y1="824.97" x2="588.271" y2="834.869" gradientTransform="translate(-575.32 -821.92)"><stop offset="0" stop-color="#454545"/><stop offset="1" stop-color="#1a1a1a"/></linearGradient><path fill="url(#b)" d="M8 1a7 7 0 1 0 0 14A7 7 0 0 0 8 1zm0 12.916A5.923 5.923 0 0 1 2.083 8 5.925 5.925 0 0 1 8 2.083 5.923 5.923 0 0 1 13.916 8 5.923 5.923 0 0 1 8 13.916zm4.102-7.258c.123.305-1.228 1.119-3.012 1.82-.067.026-.127.045-.19.069-.004.012-.015.02-.02.029a3.995 3.995 0 0 0-.758-.09c.096-.35.173-.722.21-1.136.064.02.127.045.188.082.045-.021.088-.041.135-.06 1.784-.7 3.324-1.019 3.447-.714z"/><linearGradient id="c" x1="580.541" y1="826.516" x2="584.427" y2="830.401" gradientTransform="translate(-575.32 -821.92)"><stop offset="0" stop-color="#c9473d"/><stop offset="1" stop-color="#9e3939"/></linearGradient><path fill="url(#c)" d="M8 7.052c-.011 0-.02.003-.029.003-.803-2.056-1.521-3.603-1.658-3.55-.136.051.349 1.666 1.106 3.724A1.051 1.051 0 0 0 8 9.153a1.051 1.051 0 0 0 0-2.101z"/></svg>