<svg width="16" height="16" xmlns="http://www.w3.org/2000/svg"><style>.a{fill:#fff}.b{fill:#b3b3b3}@media (prefers-color-scheme:dark){.a{fill:#1b1d21}.b{fill:#6f7685}}</style><path class="a" d="M8 14.459A6.465 6.465 0 011.542 8 6.464 6.464 0 018 1.542 6.465 6.465 0 0114.459 8 6.467 6.467 0 018 14.459z"/><path class="b" d="M8 1a7 7 0 100 14A7 7 0 008 1zm0 12.916A5.923 5.923 0 012.083 8 5.925 5.925 0 018 2.083 5.923 5.923 0 0113.916 8 5.923 5.923 0 018 13.916z"/><path fill="#c9473d" d="M8 9.152a1.05 1.05 0 01-.58-1.923C6.663 5.17 6.176 3.557 6.313 3.506c.136-.053.855 1.493 1.658 3.549L8 7.053c.274.008.521.122.703.3 1.763-.686 3.277-.997 3.399-.695.123.305-1.228 1.12-3.012 1.82-.06.024-.113.04-.168.061-.162.352-.51.6-.922.613z"/></svg>