<svg xmlns="http://www.w3.org/2000/svg" width="16" height="16" viewBox="0 0 16 16"><linearGradient id="a" x1="577.995" y1="824.594" x2="586.078" y2="832.677" gradientTransform="translate(-575.32 -821.92)"><stop offset="0" stop-color="#c9473d"/><stop offset="1" stop-color="#9e3939"/></linearGradient><path fill="url(#a)" d="M6.716 3.144a3.578 3.578 0 0 1 3.573 3.572c0 1.97-1.604 3.574-3.573 3.574S3.144 8.686 3.144 6.715a3.577 3.577 0 0 1 3.572-3.571m0-2.144a5.716 5.716 0 1 0 0 11.432A5.716 5.716 0 0 0 6.716 1z"/><linearGradient id="b" x1="577.653" y1="824.259" x2="586.433" y2="833.039" gradientTransform="translate(-575.32 -821.92)"><stop offset="0" stop-color="#e5e5e5"/><stop offset="1" stop-color="#d9d9d9"/></linearGradient><path fill="url(#b)" d="M8.006 3.729l1.946-1.946a.427.427 0 0 1 .604 0l1.149 1.146a.431.431 0 0 1 0 .606l-1.94 1.939-1.759-1.745zM3.749 5.4l1.797-1.798-1.94-1.931a.431.431 0 0 0-.606 0l-1.2 1.2a.432.432 0 0 0 .002.607L3.749 5.4zm-.12 2.506L1.675 9.859a.429.429 0 0 0 0 .604l1.27 1.271c.167.168.44.168.606 0L5.496 9.79 3.629 7.906zm8.132 1.955L9.805 7.907l-1.882 1.89 1.951 1.952a.43.43 0 0 0 .606 0l1.28-1.278a.437.437 0 0 0 .001-.61z"/><path opacity=".25" d="M11.463 6.173a4.21 4.21 0 0 0-2.305-1.301l.605.602.211-.208c.197.443.313.932.313 1.449 0 .214-.027.423-.063.626a2.55 2.55 0 0 1-.19 3.572 2.551 2.551 0 0 1-3.597-.173 2.478 2.478 0 0 1-.351-.512 3.716 3.716 0 0 1-.792-.237l.203-.202-1.372-1.383a4.24 4.24 0 0 0 1.057 3.475c.147.162.309.307.476.439.345.066.695.111 1.059.111a5.65 5.65 0 0 0 2.989-.852l.168.168a.43.43 0 0 0 .606 0l1.28-1.279a.434.434 0 0 0 0-.607l-.171-.17a5.674 5.674 0 0 0 .693-1.744c-.167-.723-.462-1.381-.819-1.774z"/><linearGradient id="c" x1="585.958" y1="832.489" x2="590.042" y2="836.573" gradientTransform="translate(-575.32 -821.92)"><stop offset="0" stop-color="#404040"/><stop offset="1" stop-color="#1a1a1a"/></linearGradient><path fill="url(#c)" d="M14.473 12.589c-.472-.528-1.527-1.772-3.1-2.649l-1.314 1.209c.686 1.678 1.998 2.656 2.471 3.181.628.702 1.572.884 2.113.401.535-.484.461-1.441-.17-2.142z"/><linearGradient id="d" x1="580.583" y1="826.781" x2="586.562" y2="832.761" gradientTransform="translate(-575.32 -821.92)"><stop offset="0" stop-color="#ccc"/><stop offset="1" stop-color="#b3b3b3"/></linearGradient><path fill="url(#d)" d="M11.402 5.007a4.242 4.242 0 1 0-6.279 5.707c1.36 1.5 3.575 1.813 5.234.835.845-.498 1.757-1.511 1.97-2.863.207-1.305-.257-2.945-.925-3.679zm-1.136 5.057c-1.216 1.103-3.103 1.014-4.206-.2s-1.012-3.104.202-4.205a2.977 2.977 0 0 1 4.203.201 2.981 2.981 0 0 1-.199 4.204z"/></svg>