<svg xmlns="http://www.w3.org/2000/svg" width="16" height="16" viewBox="0 0 20 20"><linearGradient id="a" gradientUnits="userSpaceOnUse" x1="2.392" y1="2.392" x2="13.942" y2="13.942"><stop offset="0" stop-color="#c9473d"/><stop offset="1" stop-color="#9e3939"/></linearGradient><path fill="url(#a)" d="M8.167 3.063c2.814 0 5.105 2.29 5.105 5.104s-2.291 5.105-5.105 5.105-5.104-2.292-5.104-5.105 2.29-5.104 5.104-5.104m0-3.063a8.168 8.168 0 1 0 .001 16.333A8.168 8.168 0 0 0 8.167 0z"/><linearGradient id="b" gradientUnits="userSpaceOnUse" x1="1.906" y1="1.913" x2="14.449" y2="14.456"><stop offset="0" stop-color="#e5e5e5"/><stop offset="1" stop-color="#d9d9d9"/></linearGradient><path fill="url(#b)" d="M10.01 3.899l2.781-2.781a.612.612 0 0 1 .865.001l1.641 1.638a.616.616 0 0 1 0 .866l-2.772 2.771-2.515-2.495zM3.927 6.288l2.567-2.569L3.723.961a.613.613 0 0 0-.865 0L1.144 2.674a.614.614 0 0 0 .002.866l2.781 2.748zm-.171 3.579L.965 12.658a.613.613 0 0 0 0 .863l1.814 1.813a.61.61 0 0 0 .866 0l2.779-2.777-2.668-2.69zm11.618 2.795l-2.796-2.794-2.688 2.701 2.788 2.788a.617.617 0 0 0 .868 0l1.828-1.827a.622.622 0 0 0 0-.868z"/><path opacity=".25" d="M14.948 7.392a6.025 6.025 0 0 0-3.292-1.86l.868.861.298-.298c.284.634.449 1.332.449 2.071 0 .306-.039.603-.091.895a3.64 3.64 0 0 1-.272 5.101 3.644 3.644 0 0 1-5.14-.246 3.602 3.602 0 0 1-.502-.731 5.238 5.238 0 0 1-1.13-.34l.289-.289-1.96-1.975a6.052 6.052 0 0 0 1.51 4.964c.211.232.442.437.68.63.492.094.993.159 1.512.159 1.568 0 3.028-.45 4.271-1.217l.24.24a.617.617 0 0 0 .868 0l1.828-1.827a.622.622 0 0 0 0-.868l-.244-.244c.463-.757.791-1.6.991-2.491-.241-1.034-.662-1.973-1.173-2.535z"/><linearGradient id="c" gradientUnits="userSpaceOnUse" x1="13.77" y1="13.671" x2="19.603" y2="19.505"><stop offset="0" stop-color="#404040"/><stop offset="1" stop-color="#1a1a1a"/></linearGradient><path fill="url(#c)" d="M19.248 16.556c-.674-.756-2.183-2.533-4.428-3.784l-1.879 1.727c.98 2.396 2.856 3.795 3.531 4.544.896 1.003 2.246 1.261 3.017.573.766-.689.66-2.057-.241-3.06z"/><linearGradient id="d" gradientUnits="userSpaceOnUse" x1="6.091" y1="5.516" x2="14.634" y2="14.059"><stop offset="0" stop-color="#ccc"/><stop offset="1" stop-color="#b3b3b3"/></linearGradient><path fill="url(#d)" d="M14.864 5.726a6.063 6.063 0 0 0-8.563-.411 6.06 6.06 0 0 0-.41 8.563c1.943 2.143 5.109 2.592 7.478 1.193 1.207-.711 2.51-2.158 2.815-4.091.295-1.862-.368-4.206-1.32-5.254zm-1.626 7.224a4.262 4.262 0 0 1-6.009-.286 4.252 4.252 0 1 1 6.009.286z"/></svg>