<svg xmlns="http://www.w3.org/2000/svg" xmlns:xlink="http://www.w3.org/1999/xlink" width="28" height="28"><defs><linearGradient id="a" x1="8078.36" y1="9448.35" x2="8542.64" y2="9912.64" gradientTransform="matrix(.06 0 0 .06 -451.39 -528.11)"><stop offset="0" stop-color="#b3b3b3"/><stop offset="1" stop-color="#999"/></linearGradient><linearGradient id="b" x1="8033.66" y1="9543.05" x2="8308.55" y2="9817.94" gradientTransform="matrix(.06 0 0 .06 -451.39 -528.11)"><stop offset="0" stop-color="#74b739"/><stop offset="1" stop-color="#56991c"/></linearGradient><linearGradient id="c" x1="8124.75" y1="9571.75" x2="8342.25" y2="9789.25" xlink:href="#a"/></defs><path fill="url(#a)" d="M2 0h24v28H2z"/><path fill="#fff" d="M24.6 1.4v25.2H3.4V1.4h21.2"/><path d="M3.4 1.4H9v25.2H3.4z" style="isolation:isolate" opacity=".25" fill="url(#b)"/><path d="M10.39 25.48H9v-1.4h1.4zm0-3.08H9V21h1.4zm0-3.08H9v-1.4h1.4zm0-3.08H9v-1.4h1.4zm0-3.08H9v-1.4h1.4zm0-3.08H9v-1.4h1.4zm0-3.08H9V5.6h1.4zm0-3.08H9v-1.4h1.4z" fill="url(#c)"/></svg>