<?xml version="1.0" encoding="UTF-8"?>
<svg xmlns="http://www.w3.org/2000/svg" width="28" height="28" viewBox="0 0 28 28"><linearGradient id="a" gradientUnits="userSpaceOnUse" x1="4729.367" y1="-6960.139" x2="5023.36" y2="-7254.132" gradientTransform="matrix(.056 0 0 -.056 -267.308 -384)"><stop offset="0" stop-color="#74b739"/><stop offset="1" stop-color="#56991c"/></linearGradient><path opacity=".25" fill="url(#a)" d="M2.576.728H8.96V27.27H2.576z"/><linearGradient id="b" gradientUnits="userSpaceOnUse" x1="4791.22" y1="-6874.997" x2="5255.506" y2="-7339.283" gradientTransform="matrix(.056 0 0 -.056 -267.308 -384)"><stop offset="0" stop-color="#b3b3b3"/><stop offset="1" stop-color="#999"/></linearGradient><path fill="url(#b)" d="M24.6 1.4v25.2H3.4V1.4h21.2M26 0H2v28h24V0z"/><linearGradient id="c" gradientUnits="userSpaceOnUse" x1="4837.608" y1="-6998.391" x2="5055.116" y2="-7215.898" gradientTransform="matrix(.056 0 0 -.056 -267.308 -384)"><stop offset="0" stop-color="#b3b3b3"/><stop offset="1" stop-color="#999"/></linearGradient><path fill="url(#c)" d="M10.388 25.48h-1.4v-1.4h1.4v1.4zm0-3.08h-1.4V21h1.4v1.4zm0-3.08h-1.4v-1.4h1.4v1.4zm0-3.08h-1.4v-1.4h1.4v1.4zm0-3.08h-1.4v-1.4h1.4v1.4zm0-3.08h-1.4v-1.4h1.4v1.4zm0-3.08h-1.4V5.6h1.4V7zm0-3.08h-1.4v-1.4h1.4v1.4z"/></svg>