<?xml version="1.0" encoding="UTF-8"?>
<svg xmlns="http://www.w3.org/2000/svg" width="28" height="28" viewBox="0 0 28 28"><linearGradient id="a" gradientUnits="userSpaceOnUse" x1="-5108.855" y1="-6959.629" x2="-5403.852" y2="-7254.625" gradientTransform="rotate(180 -136.006 -192) scale(.056)"><stop offset="0" stop-color="#74b739"/><stop offset="1" stop-color="#56991c"/></linearGradient><path opacity=".25" fill="url(#a)" d="M19.096.728h6.496V27.27h-6.496z"/><linearGradient id="b" gradientUnits="userSpaceOnUse" x1="-4875.215" y1="-6874.988" x2="-5339.501" y2="-7339.274" gradientTransform="rotate(180 -136.006 -192) scale(.056)"><stop offset="0" stop-color="#b3b3b3"/><stop offset="1" stop-color="#999"/></linearGradient><path fill="url(#b)" d="M3.4 1.4h21.2v25.2H3.4V1.4M2 0v28h24V0H2z"/><linearGradient id="c" gradientUnits="userSpaceOnUse" x1="-5076.607" y1="-6998.382" x2="-5294.115" y2="-7215.89" gradientTransform="rotate(180 -136.006 -192) scale(.056)"><stop offset="0" stop-color="#b3b3b3"/><stop offset="1" stop-color="#999"/></linearGradient><path fill="url(#c)" d="M17.668 25.48v-1.4h1.4v1.4h-1.4zm0-3.08V21h1.4v1.4h-1.4zm0-3.08v-1.4h1.4v1.4h-1.4zm0-3.08v-1.4h1.4v1.4h-1.4zm0-3.08v-1.4h1.4v1.4h-1.4zm0-3.08v-1.4h1.4v1.4h-1.4zm0-3.08V5.6h1.4V7h-1.4zm0-3.08v-1.4h1.4v1.4h-1.4z"/></svg>