<?xml version="1.0" encoding="UTF-8"?>
<svg xmlns="http://www.w3.org/2000/svg" width="28" height="28" viewBox="0 0 28 28"><linearGradient id="a" gradientUnits="userSpaceOnUse" x1="-4977.865" y1="-7160.635" x2="-5236.859" y2="-7419.629" gradientTransform="rotate(180 -136.006 -192) scale(.056)"><stop offset="0" stop-color="#74b739"/><stop offset="1" stop-color="#56991c"/></linearGradient><path opacity=".25" fill="url(#a)" d="M2.52 21.225h22.96v6.047H2.52z"/><linearGradient id="b" gradientUnits="userSpaceOnUse" x1="-4875.215" y1="-6874.988" x2="-5339.501" y2="-7339.274" gradientTransform="rotate(180 -136.006 -192) scale(.056)"><stop offset="0" stop-color="#b3b3b3"/><stop offset="1" stop-color="#999"/></linearGradient><path fill="url(#b)" d="M3.4 1.4h21.2v25.2H3.4V1.4M2 0v28h24V0H2z"/><linearGradient id="c" gradientUnits="userSpaceOnUse" x1="7194.138" y1="-4758.354" x2="7384.127" y2="-4948.343" gradientTransform="rotate(90 64.954 -322.742) scale(.056)"><stop offset="0" stop-color="#b3b3b3"/><stop offset="1" stop-color="#999"/></linearGradient><path fill="url(#c)" d="M23.94 19.796v1.4h-1.4v-1.4m-1.68 1.4h-1.4v-1.4h1.4v1.4zm-3.08 0h-1.4v-1.4h1.4v1.4zm-3.08 0h-1.4v-1.4h1.4v1.4zm-3.08 0h-1.4v-1.4h1.4v1.4zm-3.08 0h-1.4v-1.4h1.4v1.4zm-3.08 0h-1.4v-1.4h1.4v1.4z"/></svg>