<svg xmlns="http://www.w3.org/2000/svg" xmlns:xlink="http://www.w3.org/1999/xlink" width="28" height="28"><defs><linearGradient id="a" x1="-8552.36" y1="9448.35" x2="-9016.64" y2="9912.64" gradientTransform="matrix(-.06 0 0 .06 -477.93 -528.11)"><stop offset="0" stop-color="#b3b3b3"/><stop offset="1" stop-color="#999"/></linearGradient><linearGradient id="b" x1="-8658.73" y1="9391.98" x2="-8910.27" y2="9643.51" gradientTransform="matrix(-.06 0 0 .06 -477.93 -528.11)"><stop offset="0" stop-color="#74b739"/><stop offset="1" stop-color="#56991c"/></linearGradient><linearGradient id="c" x1="9205.86" y1="8403.14" x2="9395.86" y2="8593.14" gradientTransform="matrix(0 .06 .06 0 -461.9 -511.78)" xlink:href="#a"/></defs><path fill="url(#a)" d="M2 0h24v28H2z"/><path fill="#fff" d="M3.4 1.4h21.2v25.2H3.4V1.4"/><path d="M3.4 1.4h21.2v7H3.4z" style="isolation:isolate" opacity=".25" fill="url(#b)"/><path d="M23.94 8.37v1.4h-1.4v-1.4m-1.68 1.4h-1.4v-1.4h1.4zm-3.08 0h-1.4v-1.4h1.4zm-3.08 0h-1.4v-1.4h1.4zm-3.08 0h-1.4v-1.4h1.4zm-3.08 0h-1.4v-1.4h1.4zm-3.08 0h-1.4v-1.4h1.4z" fill="url(#c)"/></svg>