<svg xmlns="http://www.w3.org/2000/svg" xmlns:xlink="http://www.w3.org/1999/xlink" width="28" height="28" viewBox="0 0 24 24"><defs><linearGradient id="a" x1="3.09" y1="21" x2="21" y2="3.09"><stop offset="0" stop-color="#ccc"/><stop offset="1" stop-color="#b3b3b3"/></linearGradient><linearGradient id="b" x1="9691.41" y1="11256.77" x2="9821.73" y2="11387.09" gradientTransform="matrix(.05 0 0 .05 -459.09 -534.09)"><stop offset="0" stop-color="#74b739"/><stop offset="1" stop-color="#56991c"/></linearGradient><linearGradient id="c" x1="8.77" y1="16.98" x2="15.23" y2="10.53" xlink:href="#a"/><linearGradient id="d" x1="8.77" y1="18.74" x2="15.23" y2="12.29" xlink:href="#a"/><linearGradient id="e" x1="8.77" y1="9.6" x2="15.23" y2="3.14" gradientTransform="matrix(1 0 0 -1 0 23.64)" xlink:href="#a"/></defs><path d="M19.45 2.45H4.64a2.2 2.2 0 00-2.2 2.2v14.8a2.2 2.2 0 002.2 2.2h14.81a2.2 2.2 0 002.2-2.2V4.64a2.2 2.2 0 00-2.2-2.2z" fill="url(#a)"/><path d="M19.45 3.45a1.2 1.2 0 011.2 1.2v14.8a1.2 1.2 0 01-1.2 1.2H4.64a1.2 1.2 0 01-1.2-1.2V4.64a1.2 1.2 0 011.2-1.2h14.81" fill="#fff"/><path d="M6 6.29h6.4v6.15H6z" fill="url(#b)"/><path fill="url(#c)" d="M18.01 13.31H5.99v.88h12.02v-.88z"/><path fill="url(#d)" d="M18.01 15.07H5.99v.88h12.02v-.88z"/><path fill="url(#e)" d="M18.01 16.83H5.99v.88h12.02v-.88z"/></svg>