<?xml version="1.0" encoding="UTF-8"?>
<svg xmlns="http://www.w3.org/2000/svg" width="24" height="24" viewBox="0 0 24 24"><linearGradient id="a" gradientUnits="userSpaceOnUse" x1="5784.255" y1="-8241.965" x2="5914.58" y2="-8372.29" gradientTransform="matrix(.048 0 0 -.048 -271.548 -389.376)"><stop offset="0" stop-color="#74b739"/><stop offset="1" stop-color="#56991c"/></linearGradient><path fill="url(#a)" d="M6.044 6.29h6.359v6.152H6.044V6.29z"/><linearGradient id="b" gradientUnits="userSpaceOnUse" x1="3.093" y1="3.093" x2="21.005" y2="21.005"><stop offset="0" stop-color="#ccc"/><stop offset="1" stop-color="#b3b3b3"/></linearGradient><path fill="url(#b)" d="M19.451 3.448c.66 0 1.197.537 1.197 1.197v14.806c0 .66-.537 1.197-1.197 1.197H4.645c-.66 0-1.197-.537-1.197-1.197V4.645c0-.66.537-1.197 1.197-1.197h14.806m0-1H4.645a2.197 2.197 0 0 0-2.197 2.197v14.806c0 1.213.983 2.197 2.197 2.197h14.806a2.197 2.197 0 0 0 2.197-2.197V4.645a2.197 2.197 0 0 0-2.197-2.197zm-1.438 10.867H5.987v.879h12.025v-.879zm0 1.758H5.987v.879h12.025v-.879zm0 1.758H5.987v.879h12.025v-.879z"/></svg>