<?xml version="1.0" encoding="UTF-8"?>
<svg xmlns="http://www.w3.org/2000/svg" width="16" height="16" viewBox="0 0 500 500"><linearGradient id="a" gradientUnits="userSpaceOnUse" x1="74.307" y1="74.307" x2="425.694" y2="425.694"><stop offset="0" stop-color="#c9473d"/><stop offset="1" stop-color="#9e3939"/></linearGradient><path fill="url(#a)" d="M450 367.013C450 412.845 412.845 450 367.013 450H132.988C87.154 450 50 412.845 50 367.013V132.988C50 87.154 87.154 50 132.988 50h234.025C412.845 50 450 87.154 450 132.988v234.025z"/><circle fill="#FFF" cx="250" cy="210.083" r="89.492"/><path fill="#FFF" d="M381.3 295.107c-9.035-6.73-26.628-3.392-39.096 7.416 0 0-46.482 40.29-92.204 40.29-45.72 0-92.204-40.29-92.204-40.29-12.468-10.808-30.06-14.145-39.096-7.416-9.035 6.73-31.082 41.207-31.082 57.707V381.8c0 16.5 13.5 30 30 30H382.38c16.5 0 30-13.5 30-30v-28.986c0-16.5-22.045-50.977-31.08-57.707z"/></svg>