<?xml version="1.0" encoding="UTF-8"?>
<svg xmlns="http://www.w3.org/2000/svg" width="18" height="18" viewBox="0 0 24 24"><g stroke="#FFF" stroke-miterlimit="10"><path fill="none" stroke-width="1.1" d="M18.47 11.24c-.5-3.15-1.19-6.58-3.99-7.48 0 0 .04-.93-.3-1.28-.36-.39-1.28-.3-2.18-.33-.9.03-1.82-.06-2.18.32-.34.36-.3 1.28-.3 1.28-2.8.9-3.49 4.33-3.99 7.48-.76 4.74-3.21 4.96-3.07 6.96.17 2.47 5.09 2.22 9.41 2.24h.28c4.32-.02 9.24.23 9.41-2.24.12-2-2.33-2.22-3.09-6.95z"/><path fill="#FFF" d="M12 20.45h1.4c0 .77-.63 1.4-1.4 1.4s-1.4-.63-1.4-1.4v-.01l1.4.01z"/></g></svg>