<svg xmlns="http://www.w3.org/2000/svg" viewBox="0 -0.5 16 16" width="16" height="16"><linearGradient id="a" x1="2.54" y1="8.001" x2="13.46" y2="8.001"><stop offset="0" stop-color="#edad3b"/><stop offset="1" stop-color="#dba049"/></linearGradient><path fill="url(#a)" d="M13.277 2.66s.104-.314-.885-1.033c-.99-.72-1.418-.65-1.418-.65-.533-.043-.752-.02-1.041.32l-6.755 9.277a.428.428 0 00-.07.14h-.016s-.672 4.226-.533 4.323c.124.09 3.207-1.477 3.855-1.78a.454.454 0 00.223-.163l6.64-9.12c.411-.577 0-1.313 0-1.314zm-8.79 11.245s-.382-.89-1.083-.73l-.376.507.558-3.023c.55.034.98.17 1.237.274.363.154.81.402 1.04.763.535.838.662 1.271.662 1.271l-2.038.938z"/></svg>