<svg xmlns="http://www.w3.org/2000/svg" width="16" height="21" viewBox="0 -2.5 16 21"><linearGradient id="a" gradientUnits="userSpaceOnUse" x1="17578.785" y1="-25584.975" x2="17920.019" y2="-25584.975" gradientTransform="matrix(.032 0 0 -.032 -559.98 -810.72)"><stop offset=".212" stop-color="#cc8e29"/><stop offset="1" stop-color="#ad7327"/></linearGradient><path fill="url(#a)" d="M13.277 2.66s.104-.314-.885-1.033c-.99-.72-1.418-.65-1.418-.65-.533-.043-.752-.02-1.04.32l-6.756 9.277a.453.453 0 0 0-.07.14h-.016s-.672 4.226-.533 4.323c.124.09 3.207-1.477 3.855-1.78a.45.45 0 0 0 .223-.163l6.64-9.12c.41-.577 0-1.313 0-1.313zm-8.79 11.245s-.382-.89-1.083-.73l-.376.507.558-3.024c.55.034.98.17 1.237.274.363.154.81.402 1.04.764.535.837.662 1.27.662 1.27l-2.037.94z"/></svg>