<svg xmlns="http://www.w3.org/2000/svg" width="18" height="18"><path fill="#FFF" d="M3.24 2.16h11.52v13.68H3.24z"/><linearGradient id="a" x1="15505.18" y1="22949.162" x2="15880.181" y2="23324.164" gradientTransform="matrix(.036 0 0 .036 -555.936 -823.92)"><stop offset="0" stop-color="#CCC"/><stop offset="1" stop-color="#b3b3b3"/></linearGradient><path fill="url(#a)" d="M14.58 2.52v12.96H3.42V2.52h11.16m.72-.72H2.7v14.4h12.6V1.8zm-1.8 2.808v-.72H4.572v.72H13.5zm0 1.908v-.72H4.572v.72H13.5zm0 1.908v-.72H4.572v.72H13.5zm0 1.908v-.72H4.572v.72H13.5zm0 1.908v-.72H4.572v.722l8.928-.002zm0 1.908v-.722H4.572v.722H13.5z"/><path fill="#FFF" d="M6.84 14.4l-.072-1.692.648-2.7s1.944-.936 2.81.252c.862 1.188.574 2.484.574 2.484L6.84 14.4z"/><linearGradient id="b" x1="15699.44" y1="23035.674" x2="15824.948" y2="23161.182" gradientTransform="matrix(.036 0 0 .036 -555.936 -823.92)"><stop offset="0" stop-color="#CCC"/><stop offset="1" stop-color="#b3b3b3"/></linearGradient><path fill="url(#b)" d="M17.807 1.804s.11-.334-.938-1.097c-1.05-.763-1.506-.69-1.506-.69-.565-.045-.8-.02-1.104.34L7.094 10.2a.5.5 0 00-.074.147H7s-.712 4.48-.565 4.586c.133.096 3.404-1.564 4.092-1.89a.364.364 0 00.113-.053h.002a.5.5 0 00.12-.118l7.044-9.675c.435-.61 0-1.393 0-1.393zM8.48 13.734s-.406-.944-1.15-.775l-.398.536.592-3.21c.584.038 1.038.18 1.312.292.386.165.857.43 1.104.81.567.89.703 1.353.703 1.353l-2.162.994z"/></svg>