<svg xmlns="http://www.w3.org/2000/svg" width="16" height="16" viewBox="0 0 16 16"><path fill="#FFF" d="M2.88 1.92h10.24v12.16H2.88V1.92z"/><linearGradient id="a" gradientUnits="userSpaceOnUse" x1="35078" y1="51682.508" x2="35453.004" y2="52057.512" gradientTransform="matrix(.032 0 0 .032 -1120.496 -1651.84)"><stop offset="0" stop-color="#ccc"/><stop offset="1" stop-color="#b3b3b3"/></linearGradient><path fill="url(#a)" d="M12.96 2.24v11.52H3.04V2.24h9.92m.64-.64H2.4v12.8h11.2V1.6zM12 4.096v-.64H4.064v.64H12zm0 1.696v-.64H4.064v.64H12zm0 1.696v-.64H4.064v.64H12zm0 1.696v-.64H4.064v.64H12zm0 1.696v-.64H4.064v.64H12zm0 1.696v-.641H4.064v.641H12z"/><path fill="#FFF" d="M6.08 12.8l-.064-1.504.576-2.399s1.728-.833 2.496.227c.767 1.052.512 2.204.512 2.204L6.08 12.8z"/><linearGradient id="b" gradientUnits="userSpaceOnUse" x1="35272.242" y1="51768.969" x2="35397.727" y2="51894.453" gradientTransform="matrix(.032 0 0 .032 -1120.496 -1651.84)"><stop offset="0" stop-color="#edad3b"/><stop offset="1" stop-color="#dba049"/></linearGradient><path fill="url(#b)" d="M15.828 1.604s.098-.297-.834-.976C14.06-.05 13.656.014 13.656.014c-.504-.04-.711-.017-.982.303l-6.37 8.75a.425.425 0 0 0-.066.133h-.016s-.633 3.98-.502 4.074c.118.084 3.025-1.394 3.637-1.682a.337.337 0 0 0 .102-.047.41.41 0 0 0 .107-.105l6.261-8.6c.387-.54 0-1.236.001-1.236zM7.538 12.21s-.36-.84-1.02-.69l-.355.48.526-2.855c.52.033.92.16 1.165.261.343.146.763.38.98.72.506.79.625 1.202.625 1.202l-1.921.882z"/></svg>