<svg xmlns="http://www.w3.org/2000/svg" width="18" height="18" viewBox="0 0 18 18"><path fill="#FFF" d="M3.24 2.16h11.52v13.68H3.24V2.16z"/><linearGradient id="a" gradientUnits="userSpaceOnUse" x1="23226.496" y1="-33987.492" x2="23601.496" y2="-34362.492" gradientTransform="matrix(.036 0 0 -.036 -833.904 -1221.3)"><stop offset="0" stop-color="#ccc"/><stop offset="1" stop-color="#b3b3b3"/></linearGradient><path fill="url(#a)" d="M14.58 2.52v12.96H3.42V2.52h11.16m.72-.72H2.7v14.4h12.6V1.8zm-1.8 2.808v-.72H4.572v.72H13.5zm0 1.908v-.72H4.572v.72H13.5zm0 1.908v-.72H4.572v.72H13.5zm0 1.908v-.721H4.572v.721H13.5zm0 1.908v-.72H4.572v.723l8.928-.003zm0 1.908v-.723H4.572v.723H13.5z"/><path fill="#FFF" d="M6.84 14.4l-.072-1.692.648-2.7s1.944-.936 2.811.252c.861 1.188.573 2.484.573 2.484L6.84 14.4z"/><linearGradient id="b" gradientUnits="userSpaceOnUse" x1="23420.758" y1="-34073.992" x2="23546.258" y2="-34199.492" gradientTransform="matrix(.036 0 0 -.036 -833.904 -1221.3)"><stop offset="0" stop-color="#edad3b"/><stop offset="1" stop-color="#dba049"/></linearGradient><path fill="url(#b)" d="M17.807 1.804s.11-.334-.938-1.097c-1.051-.763-1.506-.69-1.506-.69-.565-.045-.801-.02-1.104.34L7.094 10.2a.484.484 0 0 0-.074.147H7s-.712 4.479-.565 4.586c.133.096 3.404-1.564 4.092-1.891a.376.376 0 0 0 .113-.053h.002a.513.513 0 0 0 .119-.118l7.045-9.675c.435-.609.001-1.392.001-1.392zM8.48 13.734s-.406-.944-1.15-.775l-.398.536.592-3.21c.584.038 1.038.18 1.312.292.386.165.857.43 1.104.81.567.891.703 1.354.703 1.354l-2.163.993z"/></svg>