<?xml version="1.0" encoding="UTF-8"?>
<svg width="16" height="16" viewBox="0 0 16 16" xmlns="http://www.w3.org/2000/svg"><defs><linearGradient id="a" x1="2.01" y1="1.99" x2="14.01" y2="13.99" gradientUnits="userSpaceOnUse"><stop offset="0" stop-color="#ccc"/><stop offset="1" stop-color="#b3b3b3"/></linearGradient><linearGradient id="b" x1="8.21" y1="4.75" x2="12.27" y2="8.8" gradientUnits="userSpaceOnUse"><stop offset="0" stop-color="#edad3b"/><stop offset="1" stop-color="#dba049"/></linearGradient></defs><title>article-inline-format</title><path d="M2.88 1.92h10.24v12.16H2.88z" fill="#fff"/><path d="M13 2.24v11.52H3V2.24h10m.64-.64H2.4v12.8h11.2zM12 4.1v-.64H4.06v.64zm0 1.7v-.65H4.06v.64zm0 1.7v-.65H4.06v.64zm0 1.7v-.66H4.06v.64zm0 1.7v-.64H4.06v.64zm0 1.7V12H4.06v.64z" fill="url(#a)"/><path d="M15.83 1.6s.1-.3-.83-1-1.34-.6-1.34-.6c-.5 0-.71 0-1 .3L6.3 9.07a.43.43 0 0 0-.07.13 39.71 39.71 0 0 0-.5 4.07c.12.08 3-1.39 3.64-1.68h.1a.41.41 0 0 0 .11-.1l6.26-8.6a1.27 1.27 0 0 0-.01-1.29z" fill="url(#b)"/><path d="M7.54 12.21s-.36-.84-1-.69l-.38.48.53-2.85a3.69 3.69 0 0 1 1.16.26 2.18 2.18 0 0 1 1 .72 5.33 5.33 0 0 1 .63 1.2z" fill="#fff"/></svg>