<?xml version="1.0" encoding="UTF-8"?>
<svg width="18" height="18" viewBox="0 0 18 18" xmlns="http://www.w3.org/2000/svg"><defs><linearGradient id="a" x1="2.25" y1="2.25" x2="15.75" y2="15.75" gradientUnits="userSpaceOnUse"><stop offset="0" stop-color="#ccc"/><stop offset="1" stop-color="#b3b3b3"/></linearGradient><linearGradient id="b" x1="9.24" y1="5.36" x2="13.74" y2="9.86" gradientUnits="userSpaceOnUse"><stop offset="0" stop-color="#edad3b"/><stop offset="1" stop-color="#dba049"/></linearGradient></defs><title>articles-inline-format</title><path d="M3.24 2.16h11.52v13.68H3.24z" fill="#fff"/><path d="M14.58 2.52v13H3.42v-13h11.16m.72-.72H2.7v14.4h12.6zm-1.8 2.81v-.72H4.57v.72zm0 1.91V5.8H4.57v.72zm0 1.91V7.7H4.57v.72zm0 1.91v-.73H4.57v.72zm0 1.91v-.72H4.57v.72zm0 1.91v-.72H4.57v.72z" fill="url(#a)"/><path d="M17.81 1.8s.11-.33-.94-1.1-1.51-.7-1.51-.7c-.56 0-.8 0-1.1.34L7.09 10.2a.48.48 0 0 0-.07.15H7a44.79 44.79 0 0 0-.57 4.59 44.26 44.26 0 0 0 4.1-1.94l.11-.05a.51.51 0 0 0 .12-.12l7-9.68a1.43 1.43 0 0 0 .05-1.35z" fill="url(#b)"/><path d="M8.48 13.73s-.41-.94-1.15-.77l-.4.54.59-3.21a4.23 4.23 0 0 1 1.31.29 2.49 2.49 0 0 1 1.1.81 6.16 6.16 0 0 1 .7 1.35z" fill="#fff"/></svg>