<svg xmlns="http://www.w3.org/2000/svg" width="24" height="24" viewBox="0 0 500 500"><linearGradient id="a" gradientUnits="userSpaceOnUse" x1="127.001" y1="259.296" x2="257.329" y2="128.969" gradientTransform="matrix(1 0 0 -1 0 499)"><stop offset="0" stop-color="#74b739"/><stop offset="1" stop-color="#56991c"/></linearGradient><path fill="url(#a)" d="M125.922 240.783h132.484v128.17H125.922z"/><linearGradient id="b" gradientUnits="userSpaceOnUse" x1="63.407" y1="63.407" x2="436.594" y2="436.594"><stop offset="0" stop-color="#CCC"/><stop offset="1" stop-color="#b3b3b3"/></linearGradient><path fill="url(#b)" d="M404.225 95.775v308.45H95.775V95.775h308.45m0-45.775H95.775C70.495 50 50 70.494 50 95.775v308.45C50 429.505 70.494 450 95.775 450h308.45c25.28 0 45.775-20.494 45.775-45.775V95.775C450 70.495 429.506 50 404.225 50zm-28.96 154.287h-250.53v18.31h250.53v-18.31zm0-36.62h-250.53v18.31h250.53v-18.31zm0-36.62h-250.53v18.31h250.53v-18.31z"/></svg>