<?xml version="1.0" encoding="UTF-8"?>
<svg xmlns="http://www.w3.org/2000/svg" width="24" height="24" viewBox="0 0 24 24"><linearGradient id="a" gradientUnits="userSpaceOnUse" x1="5784.247" y1="8668.703" x2="5914.573" y2="8799.028" gradientTransform="matrix(.048 0 0 .048 -271.548 -404.592)"><stop offset="0" stop-color="#74b739"/><stop offset="1" stop-color="#56991c"/></linearGradient><path fill="url(#a)" d="M6.044 11.558h6.359v6.152H6.044v-6.152z"/><linearGradient id="b" gradientUnits="userSpaceOnUse" x1="3.044" y1="3.044" x2="20.957" y2="20.957"><stop offset="0" stop-color="#ccc"/><stop offset="1" stop-color="#b3b3b3"/></linearGradient><path fill="url(#b)" d="M18.013 8.927H5.987v-.879h12.025v.879zm0-2.637H5.987v.879h12.025V6.29zm0 3.516H5.987v.879h12.025v-.879zM19.402 3.4H4.597c-.66 0-1.197.537-1.197 1.197v14.806c0 .66.537 1.197 1.197 1.197h14.806c.66 0 1.197-.537 1.197-1.197V4.597c0-.66-.537-1.197-1.198-1.197m0-1c1.213 0 2.197.983 2.197 2.197v14.806a2.197 2.197 0 0 1-2.197 2.197H4.597A2.197 2.197 0 0 1 2.4 19.403V4.597c0-1.214.983-2.197 2.197-2.197h14.805z"/></svg>