<svg xmlns="http://www.w3.org/2000/svg" xmlns:xlink="http://www.w3.org/1999/xlink" width="28" height="28" viewBox="0 0 24 24"><defs><linearGradient id="a" x1="3.04" y1="20.6" x2="20.96" y2="2.68" gradientTransform="matrix(1 0 0 -1 0 23.64)"><stop offset="0" stop-color="#ccc"/><stop offset="1" stop-color="#b3b3b3"/></linearGradient><linearGradient id="b" x1="9691.41" y1="-11362.24" x2="9821.73" y2="-11492.56" gradientTransform="matrix(.05 0 0 -.05 -459.09 -533.88)"><stop offset="0" stop-color="#74b739"/><stop offset="1" stop-color="#56991c"/></linearGradient><linearGradient id="c" x1="8.77" y1="11.71" x2="15.23" y2="5.26" xlink:href="#a"/><linearGradient id="d" x1="8.77" y1="9.96" x2="15.23" y2="3.5" xlink:href="#a"/><linearGradient id="e" x1="8.77" y1="13.47" x2="15.23" y2="7.02" xlink:href="#a"/></defs><path d="M19.4 2.4a2.2 2.2 0 012.2 2.2v14.8a2.2 2.2 0 01-2.2 2.2H4.6a2.2 2.2 0 01-2.2-2.2V4.6a2.2 2.2 0 012.2-2.2z" fill="url(#a)"/><path d="M19.4 3.4H4.6a1.2 1.2 0 00-1.2 1.2v14.8a1.2 1.2 0 001.2 1.2h14.8a1.2 1.2 0 001.2-1.2V4.6a1.2 1.2 0 00-1.2-1.2" fill="#fff"/><path d="M6 11.56h6.4v6.15H6z" fill="url(#b)"/><path fill="url(#c)" d="M18.01 8.93H5.99v-.88h12.02v.88z"/><path fill="url(#d)" d="M18.01 6.29H5.99v.88h12.02v-.88z"/><path fill="url(#e)" d="M18.01 9.81H5.99v.88h12.02v-.88z"/></svg>