<svg xmlns="http://www.w3.org/2000/svg" width="16" height="16" viewBox="0 0 500 500"><path fill="#FFF" d="M410 155v285H90V60h228z"/><path fill="#F9FAFA" d="M410 155v285H90V60h228z"/><path fill="#FFF" d="M312 65l8 100 90-10z"/><linearGradient id="a" gradientUnits="userSpaceOnUse" x1="36.937" y1="88.064" x2="411.937" y2="463.064"><stop offset="0" stop-color="#CCC"/><stop offset="1" stop-color="#b3b3b3"/></linearGradient><path fill="url(#a)" d="M322.597 49.85L75 50v400h350V153L322.597 49.85zM397.184 153H323l-.292-74.71L397.184 153zM405 430H95V70h205v107h105v253z"/><linearGradient id="b" gradientUnits="userSpaceOnUse" x1="166.652" y1="196.652" x2="333.349" y2="363.349"><stop offset="0" stop-color="#74b739"/><stop offset="1" stop-color="#56991c"/></linearGradient><path fill="url(#b)" d="M268.58 149.355v30.195C329.886 192.096 375 234.542 375 284.98c0 26.747-12.687 51.243-33.744 70.228-8.15 7.35-13.605 11.097-15.45 9.135-1.848-1.962 2.683-7.748 7.202-18.04 4.27-9.725 6.583-20.126 6.583-30.938 0-38.22-28.887-71.32-71.01-87.457v34.285c0 5.342-3.49 6.622-7.753 2.845l-42.967-38.062-15.505-13.735-.676-.597c-4.266-3.777-4.265-9.958 0-13.735l15.006-13.295c4.265-3.777 11.24-9.958 15.506-13.735l28.635-25.366c4.264-3.778 7.753-2.498 7.753 2.843zm-29.407 264.133l28.636-25.366 15.504-13.734 15.008-13.294c4.264-3.776 4.264-9.958 0-13.736l-.678-.598-15.503-13.735-42.967-38.062c-4.264-3.777-7.753-2.497-7.753 2.845v34.284c-42.123-16.135-71.01-49.235-71.01-87.457 0-10.812 2.312-21.213 6.582-30.938 4.52-10.292 9.05-16.078 7.203-18.04-1.847-1.962-7.3 1.787-15.45 9.134C137.686 223.777 125 248.274 125 275.02c0 50.44 45.114 92.887 106.42 105.432V410.646c0 5.34 3.49 6.62 7.753 2.842z"/></svg>