<svg xmlns="http://www.w3.org/2000/svg" width="16" height="16" viewBox="0 0 500 500"><linearGradient id="a" gradientUnits="userSpaceOnUse" x1="75" y1="84.5" x2="425.001" y2="434.501"><stop offset="0" stop-color="#ffad00"/><stop offset="1" stop-color="#d68900"/></linearGradient><path fill="url(#a)" d="M90 69.5h320v380H90z"/><path opacity=".5" fill="#FFF" d="M90 69.5h320v380H90z"/><linearGradient id="b" gradientUnits="userSpaceOnUse" x1="62.501" y1="72.001" x2="437.5" y2="447"><stop offset="0" stop-color="#ffad00"/><stop offset="1" stop-color="#d68900"/></linearGradient><path fill="url(#b)" d="M75 59.5v400h350v-400H75zm330 380H95v-360h310v360z"/><path d="M339 58.5h-1.618a11.944 11.944 0 0 1 1.618 6v9c0 6.627-5.373 12-12 12h-10v35c0 6.627-5.373 12-12 12H179.62c2.075 3.583 5.94 6 10.38 6h127c6.627 0 12-5.373 12-12v-35h10c6.627 0 12-5.373 12-12v-9c0-6.627-5.373-12-12-12z" opacity=".25"/><linearGradient id="c" gradientUnits="userSpaceOnUse" x1="188.765" y1="21.765" x2="308.235" y2="141.235"><stop offset="0" stop-color="#CCC"/><stop offset="1" stop-color="#b3b3b3"/></linearGradient><path fill="url(#c)" d="M334 52.5h-10c0-6.627-5.373-12-12-12H185c-6.627 0-12 5.373-12 12h-10c-6.627 0-12 5.373-12 12v9c0 6.627 5.373 12 12 12h10v35c0 6.627 5.373 12 12 12h127c6.627 0 12-5.373 12-12v-35h10c6.627 0 12-5.373 12-12v-9c0-6.627-5.373-12-12-12z"/><linearGradient id="d" gradientUnits="userSpaceOnUse" x1="206.5" y1="52.001" x2="290.5" y2="136"><stop offset="0" stop-color="#b3b3b3"/><stop offset="1" stop-color="#999"/></linearGradient><path fill="url(#d)" d="M173 85.5h151v17H173z"/><path fill="#FFF" d="M318.466 168.856l-61.648 61.648c-3.886 3.886-10.245 3.886-14.13 0l-61.52-61.194c-3.886-3.886-10.246-3.886-14.132 0l-39.122 39.123c-3.886 3.886-3.872 10.23.033 14.1l61.712 61c3.903 3.868 3.918 10.213.032 14.1l-61.94 61.938c-3.885 3.888-3.885 10.246 0 14.133l38.864 38.863c3.886 3.887 10.246 3.887 14.132 0l61.938-61.94c3.887-3.885 10.246-3.885 14.132 0l62.11 62.11c3.885 3.887 10.244 3.887 14.13 0l38.864-38.862c3.886-3.887 3.886-10.245 0-14.132l-62.11-62.11c-3.886-3.886-3.886-10.245 0-14.13l61.648-61.65c3.887-3.886 3.887-10.245 0-14.13l-38.863-38.864c-3.885-3.888-10.245-3.888-14.13-.002z"/></svg>