<?xml version="1.0" encoding="UTF-8"?>
<svg xmlns="http://www.w3.org/2000/svg" width="16" height="16" viewBox="0 0 16 16"><linearGradient id="a" gradientUnits="userSpaceOnUse" x1="8828.881" y1="-12585.506" x2="9178.879" y2="-12935.504" gradientTransform="matrix(.032 0 0 -.032 -280.124 -400.032)"><stop offset="0" stop-color="#f08c00"/><stop offset="1" stop-color="#be6e00"/></linearGradient><path fill="url(#a)" d="M2.88 2.224h10.24v12.16H2.88V2.224z"/><path opacity=".2" fill="#FFF" d="M2.88 2.224h10.24v12.16H2.88V2.224z"/><linearGradient id="b" gradientUnits="userSpaceOnUse" x1="8816.373" y1="-12573.005" x2="9191.373" y2="-12948.005" gradientTransform="matrix(.032 0 0 -.032 -280.124 -400.032)"><stop offset="0" stop-color="#f08c00"/><stop offset="1" stop-color="#be6e00"/></linearGradient><path fill="url(#b)" d="M2.4 1.904v12.8h11.2v-12.8H2.4zm10.56 12.16H3.04V2.544h9.92v11.52z"/><path opacity=".25" d="M10.848 1.872h-.051a.391.391 0 0 1 .051.192v.288a.384.384 0 0 1-.384.384h-.319v1.12a.384.384 0 0 1-.385.384H5.748c.066.114.19.192.332.192h4.064a.384.384 0 0 0 .383-.384v-1.12h.32a.384.384 0 0 0 .385-.384v-.288a.383.383 0 0 0-.384-.384z"/><linearGradient id="c" gradientUnits="userSpaceOnUse" x1="8942.637" y1="-12522.762" x2="9062.109" y2="-12642.234" gradientTransform="matrix(.032 0 0 -.032 -280.124 -400.032)"><stop offset="0" stop-color="#ccc"/><stop offset="1" stop-color="#b3b3b3"/></linearGradient><path fill="url(#c)" d="M10.688 1.68h-.319a.384.384 0 0 0-.384-.384H5.92a.384.384 0 0 0-.384.384h-.32a.384.384 0 0 0-.384.384v.288c0 .212.172.384.384.384h.32v1.12c0 .212.172.384.384.384h4.064a.384.384 0 0 0 .384-.384v-1.12h.319a.384.384 0 0 0 .385-.384v-.288a.384.384 0 0 0-.384-.384z"/><linearGradient id="d" gradientUnits="userSpaceOnUse" x1="8960.387" y1="-12553.012" x2="9044.395" y2="-12637.019" gradientTransform="matrix(.032 0 0 -.032 -280.124 -400.032)"><stop offset="0" stop-color="#b3b3b3"/><stop offset="1" stop-color="#999"/></linearGradient><path fill="url(#d)" d="M5.536 2.736h4.832v.544H5.536v-.544z"/><path fill="#FFF" d="M10.191 5.403L8.218 7.376a.321.321 0 0 1-.452 0L5.797 5.418a.32.32 0 0 0-.452 0L4.093 6.67a.319.319 0 0 0 .001.451l1.975 1.952a.319.319 0 0 1 .001.451l-1.982 1.981a.322.322 0 0 0 0 .453l1.244 1.243a.321.321 0 0 0 .452 0l1.982-1.981a.32.32 0 0 1 .452 0l1.987 1.986a.32.32 0 0 0 .453 0l1.243-1.243a.321.321 0 0 0 0-.452L9.914 9.524a.32.32 0 0 1 0-.452l1.973-1.973a.32.32 0 0 0 0-.452l-1.244-1.244a.321.321 0 0 0-.452 0z"/></svg>