<svg xmlns="http://www.w3.org/2000/svg" width="100" height="87.09" viewBox="0 0 179.02 155.91"><path d="M11.82-.05A11.81 11.81 0 00.01 11.74v132.42a11.81 11.81 0 0011.81 11.79h154.95a11.81 11.81 0 0011.82-11.74V11.74A11.81 11.81 0 00166.77-.05z" fill="#fff"/><path d="M15.88 94.55c5 23.26 9.16 45.41 23.73 61.35H11.82A11.81 11.81 0 01.01 144.16V11.74A11.81 11.81 0 0111.82-.05H31.9a76.8 76.8 0 00-12.78 15.1c-15.89 24.35-9.36 50.9-3.24 79.5zM166.77-.05h-31.51c7.46 7.46 13.75 17.12 18.5 29.13l-47.9 10.11c-5.25-10.06-13.23-18.43-28.84-15.14-8.61 1.82-14.32 6.65-16.85 11.94-3.11 6.52-4.64 13.83 2.8 48.57s11.82 40.8 17.32 45.5c4.47 3.8 11.68 5.91 20.29 4.09 15.62-3.29 19.47-14.16 20.15-25.47l47.9-10.12c1.13 24.78-6.54 44-20.08 57.29h18.22a11.81 11.81 0 0011.82-11.74V11.74A11.81 11.81 0 00166.77-.05z" fill="#f47c00"/></svg>