<svg xmlns="http://www.w3.org/2000/svg" width="16" height="16" viewBox="0 0 500 500"><linearGradient id="a" x1="122.591" y1="122.591" x2="377.108" y2="377.108"><stop offset="0" stop-color="#74b739"/><stop offset="1" stop-color="#56991c"/></linearGradient><path fill="url(#a)" d="M432.857 185.715H331.43c-9.43 0-17.144-7.715-17.144-17.143V67.144c0-9.43-7.715-17.144-17.144-17.144h-94.914c-9.43 0-17.107 7.715-17.063 17.144l.47 101.43c.043 9.427-7.636 17.142-17.064 17.142H67.144c-9.43 0-17.143 7.714-17.143 17.143v94.285c0 9.43 7.714 17.143 17.143 17.143h101.43c9.427 0 17.142 7.715 17.142 17.144V432.86c0 9.43 7.714 17.143 17.143 17.143h94.285c9.43 0 17.144-7.714 17.144-17.143V331.43c0-9.43 7.714-17.144 17.143-17.144h101.43c9.428 0 17.142-7.714 17.142-17.143v-94.286c-.002-9.428-7.716-17.142-17.145-17.142z"/></svg>