<svg xmlns="http://www.w3.org/2000/svg" width="16" height="16" viewBox="0 0 500 500"><g opacity=".5"><linearGradient id="a" gradientUnits="userSpaceOnUse" x1="110.998" y1="50.099" x2="510.346" y2="449.446"><stop offset="0" stop-color="#CCC"/><stop offset="1" stop-color="#b3b3b3"/></linearGradient><path fill="url(#a)" d="M431.342 73.304v353.393H190.02V73.304H431.34m7.946-68.658H182.073c-33.53 0-60.712 27.182-60.712 57.07V431c0 37.173 27.183 64.354 60.713 64.354h257.215c33.53 0 60.712-27.182 60.712-60.712V65.357c0-33.53-27.182-60.71-60.712-60.71z"/></g><linearGradient id="b" gradientUnits="userSpaceOnUse" x1="65.941" y1="178.72" x2="316.866" y2="429.645"><stop offset="0" stop-color="#ffad00"/><stop offset="1" stop-color="#d68900"/></linearGradient><path fill="url(#b)" d="M382.805 340.006c0 31.6-25.614 57.215-57.215 57.215H57.215C25.615 397.22 0 371.605 0 340.007V268.36c0-31.6 25.616-57.216 57.215-57.216H325.59c31.6 0 57.215 25.616 57.215 57.216v71.646z"/><g fill="#FFF"><path d="M116.974 279.447a23.654 23.654 0 0 0-5.216-5.888c-2.086-1.69-4.446-3.003-7.078-3.948a24.344 24.344 0 0 0-8.27-1.416c-5.267 0-9.738 1.02-13.412 3.055-3.675 2.038-6.656 4.77-8.94 8.197-2.286 3.426-3.95 7.326-4.992 11.696-1.043 4.373-1.565 8.893-1.565 13.56 0 4.472.523 8.82 1.566 13.04 1.043 4.224 2.706 8.023 4.992 11.4 2.284 3.376 5.265 6.086 8.94 8.12 3.674 2.038 8.146 3.055 13.412 3.055 7.152 0 12.74-2.184 16.764-6.558 4.023-4.37 6.48-10.132 7.376-17.285h22.65c-.597 6.658-2.14 12.667-4.62 18.03-2.485 5.365-5.763 9.936-9.835 13.71-4.074 3.777-8.844 6.655-14.305 8.643-5.466 1.985-11.475 2.98-18.03 2.98-8.148 0-15.476-1.416-21.98-4.247-6.508-2.83-11.995-6.728-16.465-11.696-4.47-4.968-7.898-10.804-10.283-17.51-2.384-6.705-3.576-13.932-3.576-21.68 0-7.946 1.192-15.324 3.576-22.13 2.384-6.803 5.812-12.74 10.283-17.808 4.47-5.065 9.957-9.037 16.465-11.92 6.505-2.88 13.832-4.32 21.98-4.32 5.86 0 11.397.845 16.614 2.532 5.215 1.69 9.883 4.15 14.007 7.376 4.122 3.23 7.526 7.23 10.208 11.995 2.683 4.768 4.37 10.232 5.066 16.392h-22.65c-.396-2.68-1.29-5.14-2.68-7.375zM177.024 331.23c1.29 2.483 3.004 4.494 5.142 6.033 2.134 1.543 4.642 2.684 7.524 3.428 2.88.745 5.86 1.12 8.94 1.12 2.086 0 4.32-.173 6.707-.522a23.32 23.32 0 0 0 6.705-2.013c2.086-.992 3.823-2.357 5.215-4.097 1.39-1.737 2.086-3.95 2.086-6.63 0-2.882-.92-5.218-2.757-7.006-1.84-1.786-4.246-3.278-7.228-4.47-2.98-1.193-6.357-2.236-10.132-3.13a276.045 276.045 0 0 1-11.473-2.98c-3.975-.99-7.85-2.208-11.623-3.65-3.776-1.438-7.152-3.302-10.133-5.588-2.98-2.283-5.39-5.14-7.226-8.566-1.838-3.43-2.757-7.574-2.757-12.443 0-5.463 1.167-10.207 3.502-14.23a31.702 31.702 0 0 1 9.165-10.06c3.773-2.683 8.047-4.667 12.815-5.96 4.768-1.29 9.537-1.938 14.304-1.938 5.562 0 10.9.622 16.02 1.862 5.113 1.243 9.66 3.255 13.632 6.035 3.973 2.782 7.127 6.333 9.463 10.655 2.333 4.32 3.502 9.56 3.502 15.72h-22.65c-.2-3.18-.87-5.812-2.013-7.9-1.142-2.084-2.657-3.723-4.545-4.914-1.888-1.193-4.048-2.035-6.482-2.535-2.435-.494-5.092-.743-7.972-.743-1.887 0-3.776.2-5.66.597-1.89.398-3.604 1.095-5.144 2.086a12.878 12.878 0 0 0-3.798 3.726c-.995 1.488-1.49 3.378-1.49 5.663 0 2.084.395 3.775 1.19 5.064.794 1.292 2.36 2.484 4.694 3.576 2.333 1.094 5.563 2.187 9.686 3.278 4.12 1.095 9.512 2.483 16.167 4.172 1.988.397 4.744 1.117 8.272 2.16 3.526 1.044 7.028 2.71 10.505 4.992 3.477 2.287 6.483 5.34 9.016 9.165 2.533 3.825 3.8 8.717 3.8 14.68 0 4.866-.946 9.386-2.833 13.56-1.89 4.17-4.693 7.77-8.42 10.802-3.723 3.03-8.344 5.39-13.855 7.077-5.515 1.688-11.9 2.533-19.15 2.533-5.86 0-11.548-.723-17.06-2.16-5.515-1.44-10.382-3.7-14.603-6.78-4.224-3.078-7.578-7.004-10.06-11.772-2.484-4.77-3.677-10.43-3.576-16.987h22.65c0 3.574.646 6.606 1.938 9.09zM273.73 331.23c1.29 2.483 3.003 4.494 5.142 6.033 2.135 1.543 4.643 2.684 7.523 3.428s5.862 1.12 8.942 1.12c2.085 0 4.32-.173 6.704-.522a23.302 23.302 0 0 0 6.706-2.013c2.088-.992 3.824-2.357 5.217-4.097 1.39-1.737 2.085-3.95 2.085-6.63 0-2.882-.92-5.218-2.756-7.006-1.84-1.786-4.246-3.278-7.228-4.47-2.98-1.193-6.358-2.236-10.134-3.13a276.825 276.825 0 0 1-11.472-2.98 101.04 101.04 0 0 1-11.624-3.65c-3.775-1.438-7.152-3.302-10.134-5.588-2.98-2.283-5.39-5.14-7.226-8.566-1.84-3.43-2.758-7.574-2.758-12.443 0-5.463 1.167-10.207 3.502-14.23a31.705 31.705 0 0 1 9.166-10.06c3.772-2.683 8.046-4.667 12.815-5.96 4.766-1.29 9.535-1.938 14.303-1.938 5.563 0 10.902.622 16.02 1.862 5.114 1.243 9.66 3.255 13.634 6.035 3.972 2.782 7.127 6.333 9.463 10.655 2.333 4.32 3.502 9.56 3.502 15.72h-22.65c-.2-3.18-.87-5.812-2.013-7.9-1.143-2.084-2.658-3.723-4.547-4.914-1.886-1.193-4.047-2.035-6.48-2.535-2.435-.494-5.092-.743-7.973-.743-1.886 0-3.774.2-5.66.597-1.89.398-3.604 1.095-5.144 2.086a12.863 12.863 0 0 0-3.797 3.726c-.996 1.488-1.492 3.378-1.492 5.663 0 2.084.396 3.775 1.19 5.064.794 1.292 2.358 2.484 4.694 3.576 2.333 1.094 5.563 2.187 9.687 3.278 4.12 1.095 9.51 2.483 16.167 4.172 1.986.397 4.742 1.117 8.27 2.16 3.526 1.044 7.028 2.71 10.506 4.992 3.476 2.287 6.48 5.34 9.016 9.165 2.53 3.825 3.8 8.717 3.8 14.68 0 4.866-.946 9.386-2.833 13.56-1.888 4.17-4.693 7.77-8.42 10.802-3.725 3.03-8.344 5.39-13.855 7.077-5.516 1.688-11.9 2.533-19.15 2.533-5.86 0-11.55-.723-17.06-2.16-5.515-1.44-10.383-3.7-14.605-6.78-4.224-3.078-7.576-7.004-10.06-11.772s-3.676-10.43-3.576-16.987h22.652c.002 3.574.646 6.606 1.937 9.09z"/></g></svg>