<?xml version="1.0" encoding="UTF-8"?>
<svg xmlns="http://www.w3.org/2000/svg" width="16" height="16" viewBox="0 0 16 16"><linearGradient id="a" gradientUnits="userSpaceOnUse" x1="1.884" y1="8" x2="16" y2="8"><stop offset="0" stop-color="#ccc"/><stop offset="1" stop-color="#b3b3b3"/></linearGradient><path fill="url(#a)" d="M14.057 1.148c.52 0 .943.423.943.943v11.817a.943.943 0 0 1-.943.943H3.826c-.546 0-.942-.445-.942-1.06V1.975c0-.39.403-.827.942-.827h10.231m0-1H3.826c-1.073 0-1.942.87-1.942 1.827v11.817c0 1.189.87 2.06 1.942 2.06h10.23c1.074 0 1.943-.87 1.943-1.943V2.091A1.942 1.942 0 0 0 14.057.148z"/><linearGradient id="b" gradientUnits="userSpaceOnUse" x1="8819.822" y1="-12679.729" x2="9070.746" y2="-12930.653" gradientTransform="matrix(.032 0 0 -.032 -280.124 -400.032)"><stop offset="0" stop-color="#ffad00"/><stop offset="1" stop-color="#d68900"/></linearGradient><path fill="url(#b)" d="M12.25 10.881a1.83 1.83 0 0 1-1.831 1.83H1.831A1.83 1.83 0 0 1 0 10.881V8.588a1.83 1.83 0 0 1 1.831-1.831h8.588a1.83 1.83 0 0 1 1.831 1.831v2.293z"/><g><path fill="#FFF" d="M3.743 8.942a.767.767 0 0 0-.658-.36.875.875 0 0 0-.429.098.809.809 0 0 0-.286.262c-.073.11-.126.235-.16.374a1.9 1.9 0 0 0-.05.434c0 .144.017.283.05.418.034.135.087.256.16.365a.833.833 0 0 0 .286.26.889.889 0 0 0 .429.098c.229 0 .408-.07.537-.211a.961.961 0 0 0 .236-.553h.725a1.713 1.713 0 0 1-.148.577 1.339 1.339 0 0 1-.773.715 1.691 1.691 0 0 1-.577.095c-.261 0-.495-.045-.703-.136-.208-.091-.384-.215-.527-.374s-.253-.346-.329-.561-.114-.445-.114-.693c0-.254.038-.49.114-.707.076-.219.186-.408.329-.57s.318-.289.527-.381c.208-.093.442-.139.703-.139.188 0 .365.027.532.081.167.054.316.133.448.236.132.103.241.232.327.384s.14.327.162.523h-.725a.617.617 0 0 0-.086-.235zM5.665 10.6a.544.544 0 0 0 .165.193.7.7 0 0 0 .241.109c.092.023.188.035.286.035.067 0 .139-.005.215-.016a.839.839 0 0 0 .214-.064c.067-.032.123-.076.167-.132s.067-.126.067-.212a.301.301 0 0 0-.088-.225.722.722 0 0 0-.231-.143 2.223 2.223 0 0 0-.324-.1 6.425 6.425 0 0 1-.369-.094 3.15 3.15 0 0 1-.372-.117 1.238 1.238 0 0 1-.324-.179.841.841 0 0 1-.231-.274.831.831 0 0 1-.088-.399.89.89 0 0 1 .112-.455 1.01 1.01 0 0 1 .293-.321c.121-.086.257-.149.41-.191.152-.041.305-.062.458-.062.178 0 .349.02.513.06.164.04.309.104.436.193a.985.985 0 0 1 .303.341c.074.138.111.306.111.503h-.724a.613.613 0 0 0-.065-.253.415.415 0 0 0-.145-.157.627.627 0 0 0-.208-.081 1.27 1.27 0 0 0-.255-.024.856.856 0 0 0-.181.019.478.478 0 0 0-.165.067.392.392 0 0 0-.121.119.317.317 0 0 0-.048.181c0 .067.013.121.038.162a.336.336 0 0 0 .15.114c.075.035.178.07.31.105s.305.08.518.134c.063.014.152.036.265.069.112.034.224.087.335.159.111.074.208.172.289.294s.122.278.122.47c0 .156-.03.301-.09.434a.94.94 0 0 1-.27.346 1.277 1.277 0 0 1-.443.227 2.07 2.07 0 0 1-.613.081c-.188 0-.37-.022-.546-.069a1.347 1.347 0 0 1-.467-.217 1.061 1.061 0 0 1-.322-.377 1.116 1.116 0 0 1-.114-.543h.725c-.001.113.02.21.061.29zm3.095 0a.542.542 0 0 0 .164.193.695.695 0 0 0 .24.109c.093.023.188.035.287.035.066 0 .138-.005.215-.016a.839.839 0 0 0 .214-.064c.067-.032.122-.076.167-.132s.066-.126.066-.212a.301.301 0 0 0-.088-.225.722.722 0 0 0-.231-.143 2.223 2.223 0 0 0-.324-.1 9.424 9.424 0 0 1-.367-.096 2.767 2.767 0 0 1-.373-.115 1.254 1.254 0 0 1-.324-.179.853.853 0 0 1-.231-.274.831.831 0 0 1-.088-.399.9.9 0 0 1 .112-.455c.073-.127.174-.236.293-.321.121-.086.258-.15.41-.191.152-.041.305-.062.457-.062.179 0 .35.02.514.06.164.04.309.104.436.193s.229.203.303.341c.075.138.113.306.113.503h-.726c-.007-.103-.028-.187-.064-.253s-.085-.119-.146-.157-.129-.066-.207-.081-.163-.024-.256-.024c-.061 0-.12.006-.181.019s-.115.035-.165.067a.382.382 0 0 0-.121.119.324.324 0 0 0-.047.181c0 .067.013.121.038.162.025.042.076.079.15.114s.178.07.311.105c.131.035.304.079.517.133.063.014.151.036.265.069.113.034.225.087.336.159.111.074.208.172.289.294s.121.278.121.47c0 .156-.029.301-.09.434a.94.94 0 0 1-.27.346 1.286 1.286 0 0 1-.443.227 2.07 2.07 0 0 1-.613.081c-.188 0-.369-.022-.546-.069a1.356 1.356 0 0 1-.467-.217 1.071 1.071 0 0 1-.322-.377 1.116 1.116 0 0 1-.115-.543h.725a.608.608 0 0 0 .062.291z"/></g></svg>