<svg xmlns="http://www.w3.org/2000/svg" width="16" height="16"><defs><linearGradient id="a" x1="1.88" y1="7.64" x2="16" y2="7.64" gradientTransform="matrix(1 0 0 -1 0 15.64)"><stop offset="0" stop-color="#ccc"/><stop offset="1" stop-color="#b3b3b3"/></linearGradient><linearGradient id="b" x1="26589.5" y1="-38050.08" x2="26856.06" y2="-38316.64" gradientTransform="matrix(.03 0 0 -.03 -848.5 -1212.13)"><stop offset="0" stop-color="#ffad00"/><stop offset="1" stop-color="#d68900"/></linearGradient></defs><path d="M14.06.15H3.83A1.92 1.92 0 001.88 2v11.79a2 2 0 001.94 2.06h10.24A1.94 1.94 0 0016 13.91V2.09A1.94 1.94 0 0014.06.15z" fill="url(#a)"/><path d="M14.06 1.15a.94.94 0 01.94.94v11.82a.94.94 0 01-.94.94H3.83a1 1 0 01-.94-1.06V2a.92.92 0 01.94-.83h10.23" fill="#fff"/><path d="M13.25 10.88a1.83 1.83 0 01-1.83 1.83H1.83A1.83 1.83 0 010 10.88V8.59a1.83 1.83 0 011.83-1.83h9.59a1.83 1.83 0 011.83 1.83z" fill="url(#b)"/><path d="M3.88 11.46a1.24 1.24 0 01-.88-.37 1 1 0 01-.28-.51 4.59 4.59 0 01-.06-.84 4.59 4.59 0 01.06-.84A1 1 0 013 8.39 1.24 1.24 0 013.88 8a1.19 1.19 0 011.24 1.09h-.67a.56.56 0 00-.57-.48.52.52 0 00-.42.18c-.14.15-.17.3-.17 1s0 .81.17 1a.52.52 0 00.42.17.56.56 0 00.57-.48h.67a1.19 1.19 0 01-1.24.98zm2.75 0A1.59 1.59 0 015.39 11l.43-.43a1.11 1.11 0 00.82.28c.39 0 .6-.15.6-.42a.38.38 0 00-.1-.29.5.5 0 00-.3-.12L6.42 10a1.15 1.15 0 01-.66-.28.9.9 0 01-.24-.72A1 1 0 016.7 8a1.45 1.45 0 011.09.39l-.42.41a.94.94 0 00-.69-.23c-.35 0-.52.19-.52.43a.33.33 0 00.1.24.58.58 0 00.31.13l.4.06a1.11 1.11 0 01.65.26.94.94 0 01.26.72c0 .68-.55 1.05-1.25 1.05zm2.78 0A1.59 1.59 0 018.17 11l.43-.43a1.11 1.11 0 00.82.28c.39 0 .6-.15.6-.42a.38.38 0 00-.1-.29.5.5 0 00-.3-.12L9.2 10a1.15 1.15 0 01-.66-.28A.9.9 0 018.3 9a1 1 0 011.18-1 1.45 1.45 0 011.09.39l-.42.41a.94.94 0 00-.69-.23c-.35 0-.52.19-.52.43a.33.33 0 00.1.24.58.58 0 00.31.13l.4.06a1.11 1.11 0 01.65.26.94.94 0 01.26.72c0 .68-.55 1.05-1.25 1.05z" fill="#fff"/></svg>