<svg xmlns="http://www.w3.org/2000/svg" width="16" height="16" viewBox="0 0 500 500"><linearGradient id="a" x1="155.761" y1="167.326" x2="358.955" y2="370.52"><stop offset="0" stop-color="#196b99"/><stop offset="1" stop-color="#0d5c7f"/></linearGradient><path fill="url(#a)" d="M495.23 185.42l-55.765-62.95c-8.304-9.374-21.892-24.712-30.194-34.086l-29.226-32.992c-8.303-9.374-21.892-9.374-30.196 0l-1.314 1.485a436769.01 436769.01 0 00-30.195 34.086l-83.675 94.458c-8.304 9.374-5.49 17.043 6.253 17.043h59.002C264.718 289.487 197.635 343.35 124.025 343.35c-21.14 0-41.964-4.437-61.892-13.188-7.428-3.262-13.687-6.508-19.208-9.37-10.08-5.227-16.738-8.68-23.91-8.68-4.972 0-9.623 1.8-13.095 5.067-4.972 4.678-6.944 11.51-5.412 18.74.792 3.738 2.46 7.59 5.25 12.117 3.858 6.26 10.013 14.008 19.37 24.387 22.475 24.93 47.843 44.42 75.4 57.927 28.813 14.126 59.19 21.287 90.29 21.287 29.23 0 57.89-6.347 85.186-18.862 26.142-11.988 50.486-29.376 72.356-51.68 21.43-21.855 39.95-47.88 55.042-77.35 15.233-29.743 26.598-62.273 33.776-96.688l.96-4.594h50.837c11.743 0 14.556-7.67 6.254-17.042z"/></svg>