<svg xmlns="http://www.w3.org/2000/svg" width="16" height="16"><linearGradient id="a" x1="3.051" y1="1.301" x2="14.741" y2="12.991"><stop offset="0" stop-color="#d7a02d"/><stop offset="1" stop-color="#b48228"/></linearGradient><path fill="url(#a)" d="M15 12.375l-1.313 1.668-10.062-.793a.875.875 0 01-.875-.875L2.23 2.121 3.625 1h10.5c.483 0 .875.392.875.875v10.5z"/><linearGradient id="b" x1="2.131" y1="2.158" x2="13.869" y2="13.896"><stop offset="0" stop-color="#edad3b"/><stop offset="1" stop-color="#dba049"/></linearGradient><path fill="url(#b)" d="M14.125 13.277a.875.875 0 01-.875.875H2.75a.875.875 0 01-.875-.875v-10.5c0-.483.392-.875.875-.875h10.5c.483 0 .875.392.875.875v10.5z"/><linearGradient id="c" x1="1.219" y1="9.623" x2="12.703" y2="9.623"><stop offset="0" stop-color="#be872d"/><stop offset="1" stop-color="#9b6a0a"/></linearGradient><path fill="url(#c)" d="M12.703 7.727a.875.875 0 00-.875-.875h-8.75c-.483 0-1.859 1.504-1.859 1.504l6.3 4.039 5.184-4.638v-.03z"/><linearGradient id="d" x1="8.755" y1="3.216" x2="7.825" y2="9.177"><stop offset="0" stop-color="#fff"/><stop offset="1" stop-color="#ccc"/></linearGradient><path fill="url(#d)" d="M10.845 11.795l-6.605-.947 1.189-8.284 6.604.948z"/><linearGradient id="e" x1="6.576" y1="4.146" x2="6.484" y2="11.118"><stop offset="0" stop-color="#fff"/><stop offset="1" stop-color="#e0e0e0"/></linearGradient><path fill="url(#e)" d="M9.716 12.404l-6.669-.226.284-8.363L10 4.041z"/><path d="M9.114 5.238l-5.25-.082.003-.218 5.25.082-.003.218zm0 .711l-5.25-.082.003-.219 5.25.082-.003.219zm0 .684l-5.25-.082.003-.219 5.25.082-.003.219zm0 .656l-5.25-.082.003-.219 5.25.082-.003.219zm0 .656l-5.25-.082.003-.218 5.25.082-.003.218z" opacity=".2"/><linearGradient id="f" x1="9.976" y1="9.94" x2="13.04" y2="13.004"><stop offset="0" stop-color="#ccc"/><stop offset="1" stop-color="#b3b3b3"/></linearGradient><path fill="url(#f)" d="M7.519 12.395l3.68 2.359c.52-.41 1.504-1.294 1.504-1.777v-5.22l-5.184 4.638z"/><linearGradient id="g" x1="2.131" y1="7.381" x2="10.369" y2="15.619"><stop offset="0" stop-color="#edad3b"/><stop offset="1" stop-color="#dba049"/></linearGradient><path fill="url(#g)" d="M11.5 14.125a.875.875 0 01-.875.875h-8.75A.875.875 0 011 14.125v-5.25C1 8.392 1.392 8 1.875 8h8.75c.483 0 .875.392.875.875v5.25z"/></svg>