<?xml version="1.0" encoding="UTF-8"?>
<svg xmlns="http://www.w3.org/2000/svg" width="16" height="16" viewBox="0 0 16 16"><linearGradient id="a" gradientUnits="userSpaceOnUse" x1="17898.004" y1="25518.473" x2="18209.992" y2="25830.463" gradientTransform="matrix(.032 0 0 .032 -569.72 -813.568)"><stop offset="0" stop-color="#ccc"/><stop offset="1" stop-color="#b3b3b3"/></linearGradient><path fill="url(#a)" d="M11.346 2.055L8.34 5.061a.49.49 0 0 1-.689 0l-3-2.985a.488.488 0 0 0-.688 0L2.056 3.983a.487.487 0 0 0 .001.688l3.009 2.974a.486.486 0 0 1 .002.688l-3.02 3.02a.488.488 0 0 0 0 .688l1.895 1.895c.19.19.5.19.689 0l3.02-3.019a.49.49 0 0 1 .689 0l3.028 3.028a.491.491 0 0 0 .689 0l1.896-1.895a.493.493 0 0 0 0-.69l-3.029-3.028a.491.491 0 0 1 0-.689l3.006-3.006a.486.486 0 0 0 0-.688l-1.895-1.895a.49.49 0 0 0-.69.001z"/></svg>