<svg xmlns="http://www.w3.org/2000/svg" width="14" height="14" viewBox="0 0 16 16"><linearGradient id="a" gradientUnits="userSpaceOnUse" x1="8824.967" y1="-12572.353" x2="9183.288" y2="-12930.676" gradientTransform="matrix(.032 0 0 -.032 -280.124 -400.032)"><stop offset="0" stop-color="#c9473d"/><stop offset="1" stop-color="#9e3939"/></linearGradient><path fill="url(#a)" d="M11.843 1.171L8.391 4.624a.561.561 0 0 1-.792 0L4.154 1.196a.56.56 0 0 0-.791 0l-2.191 2.19a.56.56 0 0 0 .002.791L4.63 7.593a.559.559 0 0 1 .002.79l-3.469 3.469a.562.562 0 0 0 0 .791l2.177 2.176a.56.56 0 0 0 .792 0L7.6 11.351a.563.563 0 0 1 .792 0l3.478 3.479a.563.563 0 0 0 .792 0l2.177-2.176a.566.566 0 0 0 0-.793L11.36 8.383a.56.56 0 0 1 0-.791l3.452-3.453a.558.558 0 0 0 0-.791l-2.176-2.176a.562.562 0 0 0-.793-.001z"/></svg>