<svg xmlns="http://www.w3.org/2000/svg" width="16" height="16" viewBox="0 0 500 500"><linearGradient id="a" gradientUnits="userSpaceOnUse" x1="88.413" y1="84.501" x2="398.434" y2="394.523"><stop offset="0" stop-color="#c9473d"/><stop offset="1" stop-color="#9e3939"/></linearGradient><path fill="url(#a)" d="M347.128 54.414l-93.355 93.354c-5.884 5.886-15.515 5.886-21.4 0L139.213 55.1c-5.885-5.884-15.515-5.884-21.4 0L58.57 114.346c-5.886 5.886-5.864 15.492.048 21.35l93.453 92.376c5.914 5.86 5.936 15.467.05 21.352L58.326 343.22c-5.885 5.884-5.885 15.514 0 21.4l58.852 58.85c5.885 5.887 15.516 5.887 21.4 0l93.796-93.796c5.885-5.885 15.516-5.885 21.4 0l94.055 94.055c5.885 5.885 15.515 5.885 21.4 0l58.85-58.853c5.887-5.886 5.887-15.515 0-21.4l-94.053-94.054c-5.886-5.886-5.886-15.516 0-21.4l93.354-93.355c5.885-5.886 5.885-15.517 0-21.402l-58.853-58.85c-5.883-5.887-15.514-5.887-21.4-.002z"/><linearGradient id="b" gradientUnits="userSpaceOnUse" x1="253.324" y1="238.302" x2="409.232" y2="394.21"><stop offset="0" stop-color="#edad3b"/><stop offset="1" stop-color="#dba049"/></linearGradient><path fill="url(#b)" d="M331.278 460c-8.045 0-15.573-3.212-21.2-9.045l-89.973-93.25c-13.106-13.584-15.972-19.004-13.334-25.214 1.612-3.792 5.335-6.242 9.486-6.242h49.88c.216-2.598.383-6.02.383-10.167v-78.498c0-16.634 13.532-30.167 30.167-30.167h69.182c16.634 0 30.167 13.533 30.167 30.167v78.5c0 4.168.198 7.598.447 10.166h49.144c4.217 0 7.995 2.48 9.625 6.318 2.322 5.467.98 10.855-12.8 25.14l-89.974 93.25c-5.628 5.832-13.157 9.044-21.202 9.044z"/><path fill="#FFF" d="M365.868 217.415c11.093 0 20.168 9.075 20.168 20.167v78.5c0 11.09 1.318 20.166 2.93 20.166h56.661c1.998 0-2.67 6.53-10.372 14.515l-89.973 93.25c-3.85 3.992-8.928 5.987-14.004 5.987s-10.153-1.995-14.004-5.987l-89.974-93.25c-7.702-7.983-12.673-14.515-11.046-14.515h57.724c1.397 0 2.538-9.075 2.538-20.167v-78.498c0-11.092 9.076-20.167 20.168-20.167h69.182m0-20h-69.182c-22.148 0-40.168 18.02-40.168 40.167v78.666h-40.262c-8.17 0-15.507 4.842-18.69 12.334-4.954 11.664 2.415 21.028 5.562 25.026 2.52 3.204 5.903 7.02 9.78 11.04l89.975 93.25C310.41 465.703 320.493 470 331.28 470s20.868-4.298 28.396-12.1l89.972-93.25c3.896-4.038 7.266-7.913 9.747-11.21 2.726-3.618 9.967-13.234 5.062-24.783-3.202-7.538-10.593-12.41-18.83-12.41h-39.591v-78.664c0-22.148-18.02-40.167-40.17-40.167z"/></svg>