<svg xmlns="http://www.w3.org/2000/svg" width="16" height="16" viewBox="0 0 500 500"><linearGradient id="a" gradientUnits="userSpaceOnUse" x1="86.453" y1="86.686" x2="414.013" y2="414.247"><stop offset="0" stop-color="#CCC"/><stop offset="1" stop-color="#b3b3b3"/></linearGradient><path fill="url(#a)" d="M359.806 54.896l-98.637 98.636c-6.22 6.218-16.394 6.218-22.612 0l-98.43-97.91c-6.218-6.22-16.393-6.22-22.61 0L54.92 118.216c-6.218 6.218-6.195 16.37.052 22.56l98.74 97.6c6.247 6.19 6.27 16.342.053 22.56L54.664 360.04c-6.218 6.218-6.218 16.393 0 22.61l62.18 62.182c6.22 6.22 16.394 6.22 22.612 0l99.102-99.103c6.218-6.22 16.394-6.22 22.612 0l99.375 99.374c6.218 6.22 16.393 6.22 22.61 0l62.182-62.18c6.218-6.22 6.218-16.394 0-22.612l-99.375-99.375c-6.22-6.218-6.22-16.394 0-22.612l98.636-98.636c6.22-6.22 6.22-16.395 0-22.613l-62.18-62.18c-6.22-6.22-16.395-6.22-22.612 0z"/></svg>