<svg xmlns="http://www.w3.org/2000/svg" width="16" height="16"><linearGradient id="a" x1="17898.035" y1="25518.496" x2="18209.955" y2="25830.416" gradientTransform="matrix(.032 0 0 .032 -569.72 -813.568)"><stop offset="0" stop-color="#c9473d"/><stop offset="1" stop-color="#9e3939"/></linearGradient><path fill="url(#a)" d="M11.347 2.056L8.341 5.061a.49.49 0 01-.689 0l-3-2.984a.49.49 0 00-.689 0L2.056 3.985a.486.486 0 00.002.687l3.009 2.974c.19.189.191.499.001.688l-3.02 3.019a.49.49 0 000 .689l1.895 1.895a.49.49 0 00.689 0l3.02-3.02a.49.49 0 01.689 0l3.028 3.027c.188.189.5.189.688 0l1.896-1.895a.491.491 0 000-.689l-3.028-3.027a.488.488 0 010-.689l3.005-3.006a.49.49 0 000-.689l-1.895-1.895a.488.488 0 00-.688.002z"/></svg>