<?xml version="1.0" encoding="UTF-8"?>
<svg xmlns="http://www.w3.org/2000/svg" width="16" height="16" viewBox="0 0 16 16"><linearGradient id="a" gradientUnits="userSpaceOnUse" x1="8924.631" y1="-12565.258" x2="9085.13" y2="-12725.757" gradientTransform="matrix(.032 0 0 -.032 -280.124 -400.032)"><stop offset="0" stop-color="#ccc"/><stop offset="1" stop-color="#b3b3b3"/></linearGradient><path fill="url(#a)" d="M12 4.096H4.064v-.64H12v.64zm0 1.056H4.064v.64H12v-.64z"/><linearGradient id="b" gradientUnits="userSpaceOnUse" x1="8816.373" y1="-12563.514" x2="9191.373" y2="-12938.514" gradientTransform="matrix(.032 0 0 -.032 -280.124 -400.032)"><stop offset="0" stop-color="#ccc"/><stop offset="1" stop-color="#b3b3b3"/></linearGradient><path fill="url(#b)" d="M2.4 1.6v12.8h11.2V1.6H2.4zm10.56 12.16H3.04V2.24h9.92v11.52zM12 7.488H4.064v-.64H12v.64zm0 1.696H4.064v-.64H12v.64z"/><linearGradient id="c" gradientUnits="userSpaceOnUse" x1="8887.971" y1="-12730.168" x2="9135.975" y2="-12978.172" gradientTransform="matrix(.032 0 0 -.032 -280.124 -400.032)"><stop offset="0" stop-color="#ccc"/><stop offset="1" stop-color="#b3b3b3"/></linearGradient><path fill="url(#c)" d="M10.016 12.617H1.632V9.992h8.384v2.625zm-7.424-.961h6.465v-.703H2.592v.703zm10.592-3.19v1.403c0 .04-.226.073-.5.073H10.74a.501.501 0 0 0-.499.499v1.713c0 .275.225.5.499.5h1.944c.274 0 .5.028.5.063v1.43c0 .041.161-.082.359-.273l2.309-2.229a.48.48 0 0 0 .016-.678l-.016-.016-2.309-2.229c-.198-.19-.359-.305-.359-.256z"/></svg>