<svg xmlns="http://www.w3.org/2000/svg" xmlns:xlink="http://www.w3.org/1999/xlink" width="16" height="16"><defs><linearGradient id="a" x1="2" y1="14" x2="14" y2="2"><stop offset="0" stop-color="#ccc"/><stop offset="1" stop-color="#b3b3b3"/></linearGradient><linearGradient id="b" x1="6251" y1="-4313.86" x2="6411.5" y2="-4474.36" gradientTransform="matrix(.03 0 0 -.03 -194.57 -135.99)"><stop offset="0" stop-color="#74b739"/><stop offset="1" stop-color="#56991c"/></linearGradient><linearGradient id="c" x1="5.89" y1="9.31" x2="10.18" y2="5.02" xlink:href="#a"/><linearGradient id="d" x1="6264.25" y1="-4459.61" x2="6398.25" y2="-4593.61" gradientTransform="matrix(.03 0 0 -.03 -194.57 -135.99)" xlink:href="#a"/><linearGradient id="e" x1="6214.35" y1="-4478.78" x2="6462.36" y2="-4726.78" gradientTransform="matrix(.03 0 0 -.03 -194.57 -135.99)"><stop offset="0" stop-color="#c9473d"/><stop offset="1" stop-color="#9e3939"/></linearGradient></defs><path fill="url(#a)" d="M2.4 1.6h11.2v12.8H2.4z"/><path fill="#fff" d="M3.04 2.24h9.92v11.52H3.04z"/><path d="M12 4.1H4.06v-.64H12zm0 1.06H4.06v.64H12z" fill="url(#b)"/><path fill="url(#c)" d="M4.06 6.85H12v.64H4.06z"/><path fill="url(#d)" d="M4.06 8.54H12v.64H4.06z"/><path d="M10 12.62H1.63V10H10zm-7.42-1h6.48V11H2.59zm10.6-3.15v1.4s-.22.07-.5.07h-1.94a.5.5 0 00-.5.5v1.71a.5.5 0 00.5.5h1.94a1.05 1.05 0 01.5.06v1.43s.16-.08.36-.27l2.31-2.23a.48.48 0 000-.68l-2.31-2.24c-.2-.19-.36-.31-.36-.26z" fill="url(#e)"/></svg>