<svg xmlns="http://www.w3.org/2000/svg" xmlns:xlink="http://www.w3.org/1999/xlink" width="16" height="16"><defs><linearGradient id="a" x1="2" y1="2" x2="14" y2="14"><stop offset="0" stop-color="#ccc"/><stop offset="1" stop-color="#b3b3b3"/></linearGradient><linearGradient id="b" x1="15004.87" y1="17128.14" x2="15165.37" y2="17288.64" gradientTransform="matrix(.03 0 0 .03 -474.69 -546.04)" xlink:href="#a"/><linearGradient id="c" x1="5.89" y1="5.02" x2="10.18" y2="9.31" xlink:href="#a"/><linearGradient id="d" x1="15018.12" y1="17273.89" x2="15152.12" y2="17407.89" gradientTransform="matrix(.03 0 0 .03 -474.69 -546.04)" xlink:href="#a"/><linearGradient id="e" x1="14968.22" y1="17293.05" x2="15216.24" y2="17541.06" gradientTransform="matrix(.03 0 0 .03 -474.69 -546.04)" xlink:href="#a"/></defs><path fill="url(#a)" d="M2.4 1.6h11.2v12.8H2.4z"/><path fill="#fff" d="M3.04 2.24h9.92v11.52H3.04z"/><path d="M12 4.1H4.06v-.64H12zm0 1.06H4.06v.64H12z" fill="url(#b)"/><path fill="url(#c)" d="M4.06 6.85H12v.64H4.06z"/><path fill="url(#d)" d="M4.06 8.54H12v.64H4.06z"/><path d="M10 12.62H1.63V10H10zm-7.42-1h6.48V11H2.59zm10.6-3.15v1.4s-.23.07-.5.07h-1.94a.5.5 0 00-.5.5v1.71a.5.5 0 00.5.5h1.94a1.05 1.05 0 01.5.06v1.43s.16-.08.36-.27l2.31-2.23a.48.48 0 000-.68l-2.31-2.24c-.19-.19-.36-.3-.36-.25z" fill="url(#e)"/></svg>