<?xml version="1.0" encoding="UTF-8"?>
<svg xmlns="http://www.w3.org/2000/svg" width="16" height="16" viewBox="0 0 500 500"><path fill="#FFF" d="M90 60h320v380H90z"/><linearGradient id="a" gradientUnits="userSpaceOnUse" x1="170.75" y1="64.25" x2="331.25" y2="224.75"><stop offset="0" stop-color="#74b739"/><stop offset="1" stop-color="#56991c"/></linearGradient><path fill="url(#a)" d="M375 128H127v-20h248v20zm0 33H127v20h248v-20z"/><linearGradient id="b" gradientUnits="userSpaceOnUse" x1="62.501" y1="62.501" x2="437.5" y2="437.5"><stop offset="0" stop-color="#CCC"/><stop offset="1" stop-color="#b3b3b3"/></linearGradient><path fill="url(#b)" d="M75 50v400h350V50H75zm330 380H95V70h310v360zm-30-196H127v-20h248v20zm0 53H127v-20h248v20z"/><linearGradient id="c" gradientUnits="userSpaceOnUse" x1="134.103" y1="229.167" x2="382.107" y2="477.171"><stop offset="0" stop-color="#c9473d"/><stop offset="1" stop-color="#9e3939"/></linearGradient><path fill="url(#c)" d="M313 394.27H51v-82h262v82zm-232-30h202v-22H81v22zm330.966-99.698v43.851c0 1.247-7.023 2.268-15.607 2.268h-60.752c-8.584 0-15.607 7.024-15.607 15.607v53.542c0 8.583 7.024 15.606 15.608 15.606h60.75c8.585 0 15.608.883 15.608 1.964v44.674c0 1.258 5.056-2.588 11.233-8.55l72.167-69.63a14.993 14.993 0 0 0 0-21.675L423.2 272.595c-6.18-5.957-11.234-9.57-11.234-8.024z"/></svg>