<?xml version="1.0" encoding="UTF-8"?>
<svg xmlns="http://www.w3.org/2000/svg" width="16" height="16" viewBox="0 0 16 16"><linearGradient id="a" gradientUnits="userSpaceOnUse" x1="17578.785" y1="-25584.996" x2="17920.019" y2="-25584.996" gradientTransform="matrix(.032 0 0 -.032 -559.981 -810.72)"><stop offset="0" stop-color="#edad3b"/><stop offset="1" stop-color="#dba049"/></linearGradient><path fill="url(#a)" d="M13.277 2.66s.104-.314-.885-1.033c-.99-.719-1.418-.65-1.418-.65-.533-.043-.752-.02-1.041.32l-6.755 9.277a.438.438 0 0 0-.07.14h-.016s-.672 4.226-.533 4.323c.124.09 3.207-1.477 3.855-1.78a.337.337 0 0 0 .107-.05.461.461 0 0 0 .116-.113l6.64-9.12c.411-.577 0-1.313 0-1.314zM4.488 13.905s-.383-.89-1.084-.73l-.376.507.558-3.023c.55.035.98.17 1.237.273.363.156.81.404 1.04.766.535.837.662 1.271.662 1.271l-2.037.938v-.002z"/></svg>