<?xml version="1.0" encoding="UTF-8"?>
<svg xmlns="http://www.w3.org/2000/svg" width="16" height="16" viewBox="0 0 500 500"><linearGradient id="a" gradientUnits="userSpaceOnUse" x1="71.036" y1="225.04" x2="412.284" y2="225.04" gradientTransform="matrix(1 0 0 -1 8.34 475.04)"><stop offset="0" stop-color="#CCC"/><stop offset="1" stop-color="#b3b3b3"/></linearGradient><path fill="url(#a)" d="M414.94 83.144s3.21-9.835-27.667-32.317C356.393 28.345 342.97 30.49 342.97 30.49c-16.678-1.332-23.52-.55-32.553 10.02L99.342 330.42a14.695 14.695 0 0 0-2.195 4.39h-.534S75.63 466.788 79.967 469.885c3.917 2.797 100.244-46.114 120.526-55.635 1.13-.313 2.27-.844 3.356-1.577.01-.007.04-.02.04-.02l-.002-.008c1.31-.89 2.543-2.06 3.59-3.497l207.467-284.956c12.78-18.023-.004-41.048-.004-41.048zM140.26 434.532s-11.974-27.813-33.874-22.835l-11.746 15.816 17.43-94.506c17.21 1.097 30.568 5.294 38.638 8.568 11.354 4.856 25.266 12.612 32.47 23.868 16.748 26.17 20.713 39.777 20.713 39.777l-63.632 29.312z"/></svg>