<svg xmlns="http://www.w3.org/2000/svg" width="16" height="16" viewBox="0 0 16 16"><linearGradient id="a" gradientUnits="userSpaceOnUse" x1="8824.91" y1="13083.949" x2="9166.162" y2="13083.949" gradientTransform="matrix(.032 0 0 .032 -279.857 -410.687)"><stop offset=".212" stop-color="#cc8e29"/><stop offset="1" stop-color="#ad7327"/></linearGradient><path fill="url(#a)" d="M13.278 2.66s.103-.314-.886-1.033-1.418-.65-1.418-.65c-.533-.043-.752-.02-1.04.32l-6.756 9.277a.453.453 0 0 0-.07.14h-.016s-.672 4.225-.533 4.323c.124.09 3.207-1.476 3.855-1.78a.34.34 0 0 0 .107-.05.47.47 0 0 0 .116-.113l6.64-9.12c.41-.577 0-1.313 0-1.313zm-8.79 11.245s-.383-.89-1.084-.73l-.376.506.558-3.023c.55.035.98.17 1.237.274.363.156.81.404 1.04.765.535.837.662 1.272.662 1.272l-2.037.938z"/></svg>