<?xml version="1.0" encoding="UTF-8"?>
<svg xmlns="http://www.w3.org/2000/svg" width="16" height="16" viewBox="0 0 500 500"><path fill="#FFF" d="M410 155v285H90V60h228z"/><path fill="#F9FAFA" d="M410 155v285H90V60h228z"/><linearGradient id="a" gradientUnits="userSpaceOnUse" x1="195.353" y1="345.853" x2="303.648" y2="454.148"><stop offset="0" stop-color="#CCC"/><stop offset="1" stop-color="#b3b3b3"/></linearGradient><ellipse fill="url(#a)" cx="249.5" cy="400" rx="107.5" ry="13"/><path fill="#FFF" d="M146.79 396.232l-1.346-31.653 12.123-50.51s36.367-17.51 52.53 4.713c16.163 22.225 10.776 46.47 10.776 46.47l-74.082 30.98z"/><linearGradient id="b" gradientUnits="userSpaceOnUse" x1="193.083" y1="225.861" x2="277.617" y2="310.395"><stop offset="0" stop-color="#CCC"/><stop offset="1" stop-color="#b3b3b3"/></linearGradient><path fill="url(#b)" d="M353.303 159.253s2.04-6.247-17.573-20.526c-19.612-14.28-28.14-12.917-28.14-12.917-10.592-.846-14.938-.35-20.675 6.365L152.853 316.308a9.326 9.326 0 0 0-1.396 2.788h-.338s-13.33 83.824-10.574 85.793c2.488 1.775 63.67-29.29 76.55-35.337.72-.2 1.442-.536 2.133-1.003l.025-.01-.002-.007a9.242 9.242 0 0 0 2.28-2.222l131.772-180.986c8.118-11.448-.002-26.07-.002-26.07zM178.84 382.435s-7.606-17.666-21.515-14.504l-7.46 10.046 11.07-60.023c10.932.696 19.415 3.362 24.54 5.442 7.213 3.085 16.048 8.01 20.624 15.16 10.636 16.62 13.155 25.264 13.155 25.264l-40.415 18.615z"/><linearGradient id="c" gradientUnits="userSpaceOnUse" x1="36.937" y1="88.064" x2="411.937" y2="463.064"><stop offset="0" stop-color="#CCC"/><stop offset="1" stop-color="#b3b3b3"/></linearGradient><path fill="url(#c)" d="M322.597 49.85L75 50v400h350V153L322.597 49.85zM405 430H95V70h205v107h105v253z"/></svg>