<?xml version="1.0" encoding="UTF-8"?>
<svg xmlns="http://www.w3.org/2000/svg" width="18" height="18" viewBox="0 0 500 500"><linearGradient id="a" gradientUnits="userSpaceOnUse" x1="95.232" y1="192.873" x2="404.768" y2="502.409"><stop offset="0" stop-color="#CCC"/><stop offset="1" stop-color="#b3b3b3"/></linearGradient><path fill="url(#a)" d="M250 132.403l150.418 260.535H99.58L250 132.403M250 50c-11.3 0-22.6 7.424-31.172 22.272L31.92 396.008C14.778 425.704 28.805 450 63.095 450h373.812c34.29 0 48.318-24.296 31.173-53.992L281.172 72.272C272.6 57.424 261.3 50 250 50z"/><g><path d="M282.7 366.98v64.153h-65.4V366.98h65.4zm-18.328-24.982h-29.578L218.97 213.685v-79.972h61.653v79.972l-16.25 128.313z"/></g></svg>