<?xml version="1.0" encoding="UTF-8"?>
<svg xmlns="http://www.w3.org/2000/svg" width="17" height="17" viewBox="0 1 24 24"><circle fill="none" stroke="#FFF" stroke-miterlimit="10" cx="12" cy="12" r="10"/><g fill="#FFF"><path d="M14.61 6.95l-.29-.15v2.32l.07.06a3.82 3.82 0 0 1 1.41 2.95c0 2.1-1.71 3.8-3.8 3.8s-3.8-1.7-3.8-3.8c0-1.13.52-2.23 1.41-2.95l.07-.06V6.8l-.29.15a5.847 5.847 0 0 0-3.19 5.18c0 3.2 2.6 5.8 5.8 5.8 3.2 0 5.8-2.6 5.8-5.8 0-2.17-1.25-4.2-3.19-5.18z"/><path d="M11 5h2v6.2h-2V5z"/></g></svg>