<svg xmlns="http://www.w3.org/2000/svg" width="24" height="24" viewBox="0 0 24 24"><linearGradient id="a" gradientUnits="userSpaceOnUse" x1="-5633.91" y1="8866.707" x2="-5938.652" y2="8561.964" gradientTransform="matrix(.048 0 0 -.048 289.768 428.488)"><stop offset="0" stop-color="#74b739"/><stop offset="1" stop-color="#56991c"/></linearGradient><path fill="url(#a)" d="M23.826 12.262H17.98c-.167 0-.303-.936-.303-2.08v-8.1C17.677.936 16.74 0 15.597 0h-7.14c-1.145 0-2.08.937-2.08 2.08v8.102c0 1.145-.118 2.08-.262 2.08H.16c-.168 0 .345.674 1.14 1.5l9.284 9.62a1.998 1.998 0 0 0 2.89 0l9.284-9.62c.795-.826 1.276-1.5 1.07-1.5z"/></svg>