<?xml version="1.0" encoding="UTF-8"?>
<svg xmlns="http://www.w3.org/2000/svg" width="24" height="24" viewBox="0 0 24 24"><linearGradient id="a" gradientUnits="userSpaceOnUse" x1="5375.866" y1="-8173.276" x2="5680.638" y2="-8478.049" gradientTransform="matrix(.048 0 0 -.048 -253.328 -389.432)"><stop offset="0" stop-color="#ccc"/><stop offset="1" stop-color="#b3b3b3"/></linearGradient><path fill="url(#a)" d="M23.826 12.262H17.98c-.168 0-.305-.936-.305-2.08v-8.1A2.084 2.084 0 0 0 15.598 0H8.457c-1.145 0-2.08.937-2.08 2.08v8.102c0 1.145-.118 2.08-.262 2.08H.16c-.168 0 .345.673 1.14 1.5l9.284 9.62a1.997 1.997 0 0 0 2.89 0l9.282-9.62c.796-.826 1.277-1.5 1.07-1.5z"/></svg>