<svg xmlns="http://www.w3.org/2000/svg" width="16" height="16" viewBox="0 0 500 500"><linearGradient id="a" x1="103.431" y1="395.935" x2="396.569" y2="102.797" gradientTransform="matrix(1 0 0 -1 0 533.73)"><stop offset="0" stop-color="#CCC"/><stop offset="1" stop-color="#b3b3b3"/></linearGradient><path fill="url(#a)" d="M216.4 405.795l30.422-15.993c1.746-.918 5.645-.37 8.663 1.217 3.02 1.585 17.75 9.33 32.735 17.207l73.386 38.58c14.986 7.878 24.906.672 22.044-16.016l-13.63-79.464c-2.86-16.687-5.76-33.595-6.443-37.574-.684-3.98.093-8.535 1.724-10.125l25.01-24.377 62.32-60.75c12.124-11.817 8.335-23.478-8.42-25.912l-84.778-12.318-35.233-5.12c-2.625-.38-5.503-2.175-6.398-3.988l-15.25-30.9-38.93-78.876c-7.493-15.182-19.754-15.182-27.248 0L196.92 141.33l-14.987 30.366c-.75 1.52-3.295 3.042-5.656 3.384l-34.757 5.05-85.73 12.457c-16.755 2.434-20.544 14.095-8.42 25.913l61.683 60.126c12.124 11.818 23.52 22.928 25.327 24.688s3 4.853 2.654 6.87c-.346 2.02-2.97 17.323-5.833 34.01L116.35 430.79c-2.862 16.687 7.058 23.893 22.043 16.015l78.01-41.01z"/><path fill="#FFF" d="M234.906 319.99l13.667-7.186c.784-.413 2.535-.167 3.892.546l14.706 7.73 32.97 17.332c6.73 3.54 11.187.302 9.902-7.195l-6.122-35.698-2.896-16.88c-.306-1.787.042-3.836.774-4.55l11.234-10.95 27.997-27.29c5.446-5.31 3.744-10.548-3.783-11.642l-38.087-5.534-15.827-2.3c-1.18-.17-2.472-.978-2.874-1.792l-6.852-13.88-17.49-35.435c-3.365-6.82-8.873-6.82-12.24 0l-17.725 35.914-6.732 13.642c-.336.683-1.48 1.367-2.54 1.52-1.06.156-8.087 1.177-15.614 2.27l-38.513 5.596c-7.527 1.094-9.23 6.332-3.783 11.64l27.71 27.013 11.377 11.092c.81.79 1.348 2.18 1.193 3.086l-2.62 15.278-6.673 38.9c-1.286 7.498 3.17 10.735 9.903 7.196l35.046-18.423z"/></svg>