<svg width="18" height="18" viewBox="0 0 19 18" xmlns="http://www.w3.org/2000/svg" xml:space="preserve" style="fill-rule:evenodd;clip-rule:evenodd;stroke-linejoin:round;stroke-miterlimit:2"><path style="fill:none" d="M.787 0h18v18h-18z"/><path d="M5.281 12.942c.42 0 .776.146 1.07.44.294.294.44.645.44 1.052 0 .408-.146.757-.44 1.053a1.465 1.465 0 0 1-1.07.441 1.44 1.44 0 0 1-1.062-.441 1.45 1.45 0 0 1-.431-1.053c0-.405.144-.757.431-1.052a1.425 1.425 0 0 1 1.062-.44Zm0-8.995c1.895 0 3.649.469 5.262 1.403a10.41 10.41 0 0 1 3.833 3.822 10.252 10.252 0 0 1 1.411 5.262c0 .408-.146.757-.439 1.053a1.468 1.468 0 0 1-1.071.441c-.422 0-.774-.149-1.063-.441a1.455 1.455 0 0 1-.432-1.053c0-2.063-.731-3.829-2.194-5.298-1.461-1.469-3.232-2.204-5.307-2.204a1.43 1.43 0 0 1-1.062-.441 1.448 1.448 0 0 1-.431-1.052c0-.409.144-.758.431-1.053.287-.293.643-.44 1.062-.44v.001Zm0 4.497c1.655 0 3.071.585 4.245 1.755 1.177 1.167 1.766 2.581 1.766 4.236 0 .408-.15.757-.443 1.053-.28.288-.668.447-1.07.441-.42 0-.773-.149-1.062-.441a1.455 1.455 0 0 1-.432-1.053c0-.827-.292-1.534-.881-2.123a2.89 2.89 0 0 0-2.122-.882c-.4.009-.786-.152-1.062-.441a1.447 1.447 0 0 1-.431-1.052c0-.407.144-.757.431-1.052.276-.289.66-.449 1.06-.441h.001Z" style="fill:#ccc;fill-rule:nonzero"/></svg>