<svg xmlns="http://www.w3.org/2000/svg" width="18" height="18" viewBox="0 0 16 16"><linearGradient id="a" gradientUnits="userSpaceOnUse" x1="295.664" y1="-404.125" x2="295.664" y2="-406.876" gradientTransform="matrix(1 0 0 -1 -287.66 -394.96)"><stop offset="0" stop-color="#ccc"/><stop offset="1" stop-color="#b3b3b3"/></linearGradient><path fill="url(#a)" d="M13.462 11.232a.685.685 0 0 1-.683.683h-9.55a.684.684 0 0 1-.682-.683V9.868c0-.376.306-.682.682-.682h9.55c.376 0 .683.306.683.682v1.364z"/><linearGradient id="b" gradientUnits="userSpaceOnUse" x1="299.613" y1="-405.446" x2="300.119" y2="-405.951" gradientTransform="matrix(1 0 0 -1 -287.66 -394.96)"><stop offset="0" stop-color="#74b739"/><stop offset="1" stop-color="#56991c"/></linearGradient><circle fill="url(#b)" cx="12.134" cy="10.667" r=".39"/><linearGradient id="c" gradientUnits="userSpaceOnUse" x1="298.377" y1="-405.446" x2="298.882" y2="-405.952" gradientTransform="matrix(1 0 0 -1 -287.66 -394.96)"><stop offset="0" stop-color="#c9473d"/><stop offset="1" stop-color="#9e3939"/></linearGradient><circle fill="url(#c)" cx="10.898" cy="10.667" r=".39"/><linearGradient id="d" gradientUnits="userSpaceOnUse" x1="291.421" y1="-399.425" x2="301.096" y2="-400.47" gradientTransform="matrix(1 0 0 -1 -287.66 -394.96)"><stop offset="0" stop-color="#ccc"/><stop offset="1" stop-color="#b3b3b3"/></linearGradient><path fill="url(#d)" d="M13.259 8.653l-.354-2.132-.807-4.839A.684.684 0 0 0 11.415 1H4.593a.683.683 0 0 0-.682.682l-.806 4.839-.355 2.132h10.509z"/><path fill="#FFF" d="M5.827 3.285c-.233-.262-.428-.538-.44-.753-.004-.064.004-.165.112-.3.114-.143.228-.212.346-.212.209 0 .463.208.779.634.04.054.068.104.105.158.12-.038.239-.076.367-.099-.104-.161-.191-.28-.22-.32-.244-.33-.616-.77-1.031-.77-.212 0-.411.113-.59.337a.86.86 0 0 0-.202.599c.016.282.177.584.51.97.082-.087.168-.17.264-.244zM8.119 5.394c-.223 0-.404-.162-.404-.362 0-.2.181-.361.404-.361.224 0 .405.162.405.361s-.182.362-.405.362zm0-.64c-.18 0-.326.125-.326.276 0 .152.146.277.326.277.18 0 .326-.125.326-.277-.001-.152-.146-.276-.326-.276z"/><path fill="#FFF" d="M10.574 6.382a.875.875 0 0 0 .035-.051l-.004-.001c.217-.328.352-.696.352-1.098 0-1.309-1.279-2.37-2.857-2.37a3.36 3.36 0 0 0-.841.116c.276.47.552 1.086.301 1.35-.112.121-.261.281-.51.281-.267 0-.591-.184-.992-.566-.089-.085-.153-.155-.229-.232-.362.397-.584.886-.584 1.421 0 1.309 1.278 2.371 2.855 2.371.435 0 .84-.088 1.208-.235l-.009-.016c.385-.103.717-.358.951-.595l.004.004c.025-.024.045-.053.069-.078.052-.056.098-.107.135-.155.04-.048.08-.095.116-.146zM7.337 5.045c0-.384.342-.694.763-.694s.765.311.765.694c0 .385-.343.696-.765.696s-.763-.31-.763-.696zm1.508.608l.505.398c-.122.117-.35.293-.592.286l-.23-.428.317-.256zm.262 1.341l-.248-.467c.279-.039.528-.229.652-.35l.434.339c-.214.213-.508.428-.838.478z"/><linearGradient id="e" gradientUnits="userSpaceOnUse" x1="295.719" y1="-407.438" x2="295.719" y2="-410.19" gradientTransform="matrix(1 0 0 -1 -287.66 -394.96)"><stop offset="0" stop-color="#ccc"/><stop offset="1" stop-color="#b3b3b3"/></linearGradient><path fill="url(#e)" d="M13.516 14.546a.685.685 0 0 1-.683.683h-9.55a.683.683 0 0 1-.682-.683v-1.364c0-.376.305-.682.682-.682h9.55c.376 0 .683.306.683.682v1.364z"/><linearGradient id="f" gradientUnits="userSpaceOnUse" x1="299.667" y1="-408.76" x2="300.173" y2="-409.266" gradientTransform="matrix(1 0 0 -1 -287.66 -394.96)"><stop offset="0" stop-color="#74b739"/><stop offset="1" stop-color="#56991c"/></linearGradient><circle fill="url(#f)" cx="12.188" cy="13.981" r=".39"/><linearGradient id="g" gradientUnits="userSpaceOnUse" x1="298.432" y1="-408.76" x2="298.937" y2="-409.265" gradientTransform="matrix(1 0 0 -1 -287.66 -394.96)"><stop offset="0" stop-color="#c9473d"/><stop offset="1" stop-color="#9e3939"/></linearGradient><circle fill="url(#g)" cx="10.952" cy="13.981" r=".39"/></svg>