<svg xmlns="http://www.w3.org/2000/svg" width="18" height="18" viewBox="0 0 16 16"><linearGradient id="a" x1="8" y1="11.473" x2="8" y2="15.002"><stop offset="0" stop-color="#ccc"/><stop offset="1" stop-color="#b3b3b3"/></linearGradient><path fill="url(#a)" d="M15 14.125a.875.875 0 01-.875.875H1.875A.875.875 0 011 14.125v-1.75c0-.483.392-.875.875-.875h12.25c.483 0 .875.392.875.875v1.75z"/><linearGradient id="b" x1="13.065" y1="13.168" x2="13.713" y2="13.816"><stop offset="0" stop-color="#74b739"/><stop offset="1" stop-color="#56991c"/></linearGradient><circle fill="url(#b)" cx="13.297" cy="13.4" r=".5"/><linearGradient id="c" x1="11.479" y1="13.168" x2="12.127" y2="13.816"><stop offset="0" stop-color="#c9473d"/><stop offset="1" stop-color="#9e3939"/></linearGradient><circle fill="url(#c)" cx="11.712" cy="13.4" r=".5"/><linearGradient id="d" x1="2.556" y1="5.445" x2="14.967" y2="6.786"><stop offset="0" stop-color="#ccc"/><stop offset="1" stop-color="#b3b3b3"/></linearGradient><path fill="url(#d)" d="M14.74 10.816l-.455-2.734-1.035-6.207A.875.875 0 0012.375 1h-8.75a.875.875 0 00-.875.875L1.716 8.082l-.456 2.734h13.48z"/><path fill="#FFF" d="M5.207 3.931c-.299-.336-.548-.69-.564-.966-.005-.082.005-.212.143-.384.146-.184.292-.273.445-.273.268 0 .594.266.999.813.051.069.088.134.135.202.154-.048.307-.098.47-.127a8.418 8.418 0 00-.282-.41c-.313-.424-.791-.987-1.322-.987-.273 0-.528.145-.757.432a1.106 1.106 0 00-.26.769c.021.362.227.75.654 1.244.106-.112.216-.217.339-.313zm2.94 2.705c-.286 0-.519-.208-.519-.465s.232-.464.519-.464.518.208.518.464-.232.465-.518.465zm0-.821c-.231 0-.419.16-.419.355s.188.355.419.355.418-.16.418-.355-.187-.355-.418-.355z"/><path fill="#FFF" d="M11.296 7.904l.046-.065-.005-.003c.278-.42.45-.893.45-1.408 0-1.679-1.641-3.04-3.664-3.04-.377 0-.734.061-1.078.149.354.603.708 1.393.386 1.732-.145.155-.335.36-.655.36-.342 0-.758-.236-1.272-.726-.115-.108-.197-.199-.295-.298-.463.509-.749 1.137-.749 1.823 0 1.679 1.64 3.041 3.663 3.041.558 0 1.078-.114 1.548-.302l-.011-.021c.495-.13.92-.459 1.22-.762l.006.005c.032-.031.057-.068.088-.1.067-.072.125-.138.175-.198.05-.062.101-.122.147-.187zM7.144 6.189c0-.492.439-.891.979-.891s.98.399.98.891c0 .493-.439.892-.98.892s-.979-.398-.979-.892zm1.934.78l.648.51c-.157.151-.449.376-.76.367l-.294-.549.406-.328zm.337 1.719l-.318-.598c.358-.05.676-.293.837-.449l.555.436c-.274.272-.651.548-1.074.611z"/></svg>