<?xml version="1.0" encoding="UTF-8"?>
<svg xmlns="http://www.w3.org/2000/svg" width="16" height="16" viewBox="0 0 16 16"><linearGradient id="a" gradientUnits="userSpaceOnUse" x1="3.345" y1="1.24" x2="12.656" y2="10.551"><stop offset="0" stop-color="#b6b6b6"/><stop offset="1" stop-color="#999"/></linearGradient><path fill="url(#a)" d="M13.416 2H2.584l4.208 5.687V14h2.415V7.688z"/><linearGradient id="b" gradientUnits="userSpaceOnUse" x1="9347.246" y1="-13184.369" x2="9506.321" y2="-13343.444" gradientTransform="matrix(.032 0 0 -.032 -289.66 -412.448)"><stop offset="0" stop-color="#74b739"/><stop offset="1" stop-color="#56991c"/></linearGradient><path fill="url(#b)" d="M15.657 10.714h-2.029a.342.342 0 0 1-.342-.342V8.344A.344.344 0 0 0 12.943 8h-1.898a.341.341 0 0 0-.341.344l.009 2.028a.342.342 0 0 1-.341.342H8.343a.344.344 0 0 0-.343.344v1.886c0 .188.154.343.343.343h2.029c.188 0 .342.153.342.342v2.029c0 .188.154.343.344.343h1.886a.344.344 0 0 0 .343-.343v-2.029c0-.188.154-.342.342-.342h2.029a.344.344 0 0 0 .343-.343v-1.887a.345.345 0 0 0-.344-.343z"/></svg>