<?xml version="1.0" encoding="UTF-8"?>
<svg xmlns="http://www.w3.org/2000/svg" width="16" height="16" viewBox="0 0 16 16"><linearGradient id="a" gradientUnits="userSpaceOnUse" x1="3.345" y1="1.24" x2="12.656" y2="10.551"><stop offset="0" stop-color="#b6b6b6"/><stop offset="1" stop-color="#999"/></linearGradient><path fill="url(#a)" d="M13.416 2H2.584l4.208 5.687V14h2.415V7.688z"/><linearGradient id="b" gradientUnits="userSpaceOnUse" x1="8.861" y1="8.861" x2="15.148" y2="15.148"><stop offset="0" stop-color="#db3423"/><stop offset="1" stop-color="#bc2d26"/></linearGradient><path fill="url(#b)" d="M13.868 8.121l-1.595 1.594a.381.381 0 0 1-.538 0L10.14 8.121a.381.381 0 0 0-.538 0L8.11 9.612a.38.38 0 0 0 .002.538l1.601 1.587c.148.147.15.388.002.538l-1.594 1.593a.38.38 0 0 0 0 .538l1.481 1.482a.381.381 0 0 0 .538 0l1.595-1.594a.383.383 0 0 1 .538 0l1.595 1.594a.383.383 0 0 0 .539 0l1.481-1.482a.381.381 0 0 0 0-.538l-1.594-1.593a.385.385 0 0 1 0-.541l1.594-1.593a.381.381 0 0 0 0-.538l-1.481-1.482a.383.383 0 0 0-.539 0z"/></svg>