<?xml version="1.0" encoding="UTF-8"?>
<svg xmlns="http://www.w3.org/2000/svg" width="16" height="16" viewBox="0 0 500 500"><linearGradient id="a" gradientUnits="userSpaceOnUse" x1="108.579" y1="108.579" x2="391.422" y2="391.422"><stop offset=".351" stop-color="#e6e6e6"/><stop offset=".527" stop-color="#e2e2e2"/><stop offset=".717" stop-color="#d5d5d5"/><stop offset=".912" stop-color="#bfbfbf"/><stop offset="1" stop-color="#b3b3b3"/></linearGradient><circle fill="url(#a)" cx="250" cy="250" r="200"/><linearGradient id="b" gradientUnits="userSpaceOnUse" x1="211.325" y1="211.325" x2="306.142" y2="306.142"><stop offset=".291" stop-color="#196b99"/><stop offset=".782" stop-color="#0d5c7f"/></linearGradient><path fill-rule="evenodd" clip-rule="evenodd" fill="url(#b)" d="M366.78 110.492v52.653c-42.772 1.33-60.608 29.99-73.803 59.403 13.354 1.347 29.848-.446 43.202.9-.3 17.553.596 36.298-.45 53.103h-64.804c-26.087 57.47-54.228 112.88-137.708 112.957v-53.103c35.387.124 54.964-21.27 68.404-44.553 13.842-23.978 22.79-52.572 33.752-78.753C258.497 157.87 290.23 112.43 366.78 110.492z"/></svg>