<svg xmlns="http://www.w3.org/2000/svg" width="18" height="18" viewBox="0 0 500 500"><path fill="#FFF" d="M325.97 259.5L81.487 329.928l-71.02-246.55 244.482-70.425z"/><linearGradient id="a" x1="40.498" y1="43.723" x2="295.927" y2="299.152"><stop offset="0" stop-color="#e6e6e6"/><stop offset=".709" stop-color="#CCC"/></linearGradient><path fill="url(#a)" d="M251.524 19.133L319.78 256.08 84.9 323.74 16.645 86.794l234.88-67.66m6.84-12.378L4.268 79.953 78.06 336.118l254.1-73.196L258.364 6.756z"/><path fill="#FFF" d="M406.43 312.813L152.636 330.7 134.598 74.76l253.794-17.89z"/><linearGradient id="b" x1="138.05" y1="61.309" x2="402.976" y2="326.235"><stop offset="0" stop-color="#e6e6e6"/><stop offset=".709" stop-color="#CCC"/></linearGradient><path fill="url(#b)" d="M383.763 62.198L401.09 308.17l-243.83 17.175-17.324-245.972 243.827-17.175m9.272-10.678L129.258 70.1l18.73 265.923 263.778-18.58-18.73-265.923z"/><linearGradient id="c" x1="53.602" y1="118.287" x2="414.072" y2="478.757"><stop offset="0" stop-color="#e6e6e6"/><stop offset=".709" stop-color="#CCC"/></linearGradient><path fill="url(#c)" d="M446.617 423.137v22.277c0 1.253-1.277 2.277-2.838 2.277H6.4c-2.338 0-4.25-1.536-4.25-3.415V177.988c0-11 9-20 20-20h221.778c11 0 20-8.34 20-18.537s9-18.536 20-18.536h142.69c11 0 20 9 20 20v282.223z"/><linearGradient id="d" x1="90.281" y1="246.144" x2="356.861" y2="512.725"><stop offset="0" stop-color="#507ea5"/><stop offset="1" stop-color="#335f7f"/></linearGradient><path fill="url(#d)" d="M13.423 323h420.294v112.867H13.423z"/></svg>