<?xml version="1.0" encoding="UTF-8"?>
<svg xmlns="http://www.w3.org/2000/svg" width="18" height="18" viewBox="0 0 500 500"><linearGradient id="a" gradientUnits="userSpaceOnUse" x1="35.065" y1="99.75" x2="414.072" y2="478.757"><stop offset="0" stop-color="#b3b3b3"/><stop offset="1" stop-color="#999"/></linearGradient><path fill="url(#a)" d="M446.617 423.137v22.277c0 1.253-1.277 2.277-2.838 2.277H6.4c-2.338 0-4.25-1.536-4.25-3.415v-303.36c0-11 9-20 20-20h404.467c11 0 20 9 20 20v282.222z"/><path fill="#FFF" d="M325.97 259.5L81.487 329.928l-71.02-246.55 244.482-70.425z"/><linearGradient id="b" gradientUnits="userSpaceOnUse" x1="40.498" y1="43.723" x2="295.927" y2="299.152"><stop offset="0" stop-color="#e6e6e6"/><stop offset=".709" stop-color="#CCC"/></linearGradient><path fill="url(#b)" d="M251.524 19.133L319.78 256.08 84.9 323.74 16.645 86.794l234.88-67.66m6.84-12.378L4.268 79.953 78.06 336.118l254.1-73.196L258.364 6.756z"/><g><path fill="#FFF" d="M406.43 312.813L152.636 330.7 134.598 74.76 388.392 56.87z"/><linearGradient id="c" gradientUnits="userSpaceOnUse" x1="138.05" y1="61.309" x2="402.976" y2="326.235"><stop offset="0" stop-color="#e6e6e6"/><stop offset=".709" stop-color="#CCC"/></linearGradient><path fill="url(#c)" d="M383.763 62.198L401.09 308.17l-243.83 17.175-17.324-245.972 243.827-17.175m9.272-10.678L129.258 70.1l18.73 265.923 263.778-18.58-18.73-265.923z"/></g><g><linearGradient id="d" gradientUnits="userSpaceOnUse" x1="92.548" y1="131.4" x2="427.301" y2="466.153"><stop offset="0" stop-color="#e6e6e6"/><stop offset=".709" stop-color="#CCC"/></linearGradient><path fill="url(#d)" d="M449.82 424.16c-1.83 10.846-3.328 20.747-3.328 22.002s-1.28 2.282-2.846 2.282H5.26c-2.343 0-4.26-1.54-4.26-3.423s1.7-12.26 3.776-23.063l46.957-244.243c2.077-10.802 12.776-19.64 23.776-19.64h222.38c11 0 20-8.36 20-18.58 0-10.218 9-18.58 20-18.58H481c11 0 18.502 8.876 16.672 19.722L449.82 424.16z"/></g><linearGradient id="e" gradientUnits="userSpaceOnUse" x1="106.031" y1="251.394" x2="362.111" y2="507.475"><stop offset="0" stop-color="#507ea5"/><stop offset="1" stop-color="#335f7f"/></linearGradient><path fill="url(#e)" d="M433.718 435.867H13.423l21-112.866h420.295z"/></svg>