<?xml version="1.0" encoding="UTF-8"?>
<svg xmlns="http://www.w3.org/2000/svg" width="18" height="18" viewBox="0 0 500 500"><linearGradient id="a" gradientUnits="userSpaceOnUse" x1="118.23" y1="118.23" x2="381.771" y2="381.771"><stop offset="0" stop-color="#CCC"/><stop offset="1" stop-color="#b3b3b3"/></linearGradient><path fill="url(#a)" d="M337.76 113.424c26.917 0 48.816 21.9 48.816 48.817v175.52c0 26.917-21.9 48.816-48.817 48.816H162.24c-26.917 0-48.816-21.9-48.816-48.817V162.24c0-26.917 21.9-48.816 48.817-48.816h175.52m0-13.424H162.24c-34.374 0-62.24 27.866-62.24 62.24v175.52c0 34.374 27.866 62.24 62.24 62.24h175.52c34.374 0 62.24-27.866 62.24-62.24V162.24c0-34.374-27.866-62.24-62.24-62.24z"/><linearGradient id="b" gradientUnits="userSpaceOnUse" x1="182.98" y1="182.981" x2="316.861" y2="316.862"><stop offset="0" stop-color="#507ea5"/><stop offset="1" stop-color="#335f7f"/></linearGradient><path fill="url(#b)" d="M346.188 216.183h-53.356c-4.958 0-9.017-4.057-9.017-9.016v-53.354c0-4.96-4.058-9.018-9.017-9.018H224.87c-4.96 0-8.998 4.058-8.976 9.018l.248 53.354c.02 4.96-4.017 9.016-8.975 9.016h-53.355c-4.96 0-9.017 4.06-9.017 9.02V274.8c0 4.96 4.057 9.016 9.017 9.016h53.355c4.958 0 9.016 4.06 9.016 9.02v53.355c0 4.96 4.057 9.016 9.02 9.016h49.595c4.96 0 9.017-4.056 9.017-9.015v-53.355c0-4.96 4.06-9.02 9.017-9.02h53.356c4.96 0 9.018-4.056 9.018-9.015v-49.597c0-4.96-4.06-9.02-9.018-9.02z"/></svg>