<svg xmlns="http://www.w3.org/2000/svg" width="18" height="18"><defs><linearGradient id="a" x1="5473.79" y1="-3849.48" x2="5737.33" y2="-4113.02" gradientTransform="matrix(.04 0 0 -.04 -192.8 -134.32)"><stop offset="0" stop-color="#ccc"/><stop offset="1" stop-color="#b3b3b3"/></linearGradient><linearGradient id="b" x1="5538.53" y1="-3914.23" x2="5672.42" y2="-4048.11" gradientTransform="matrix(.04 0 0 -.04 -192.8 -134.32)"><stop offset="0" stop-color="#507ea5"/><stop offset="1" stop-color="#335f7f"/></linearGradient></defs><path d="M12.16 3.6H5.84A2.24 2.24 0 003.6 5.84v6.32a2.24 2.24 0 002.24 2.24h6.32a2.24 2.24 0 002.24-2.24V5.84a2.24 2.24 0 00-2.24-2.24z" fill="url(#a)"/><path d="M12.16 4.08a1.76 1.76 0 011.76 1.76v6.32a1.76 1.76 0 01-1.76 1.76H5.84a1.76 1.76 0 01-1.76-1.76V5.84a1.76 1.76 0 011.76-1.76h6.32" fill="#fff"/><path d="M12.46 7.78h-1.92a.33.33 0 01-.32-.32V5.54a.33.33 0 00-.32-.32H8.1a.32.32 0 00-.32.32v1.92a.32.32 0 01-.32.32H5.54a.33.33 0 00-.32.32v1.79a.33.33 0 00.32.32h1.92a.33.33 0 01.32.32v1.92a.33.33 0 00.32.32h1.79a.33.33 0 00.32-.32v-1.91a.33.33 0 01.32-.32h1.92a.33.33 0 00.32-.32V8.11a.33.33 0 00-.32-.32z" fill="url(#b)"/></svg>