<svg xmlns="http://www.w3.org/2000/svg" width="16" height="16" viewBox="0 0 500 500"><path fill="#FFF" d="M410 155v285H90V60h228z"/><path fill="#F9FAFA" d="M410 155v285H90V60h228z"/><path fill="#FFF" d="M312 65l8 100 90-10z"/><linearGradient id="a" gradientUnits="userSpaceOnUse" x1="36.937" y1="88.064" x2="411.937" y2="463.064"><stop offset="0" stop-color="#CCC"/><stop offset="1" stop-color="#b3b3b3"/></linearGradient><path fill="url(#a)" d="M322.597 49.85L75 50v400h350V153L322.597 49.85zM397.184 153H323l-.292-74.71L397.184 153zM405 430H95V70h205v107h105v253z"/><linearGradient id="b" gradientUnits="userSpaceOnUse" x1="78.228" y1="146.404" x2="360.314" y2="428.49"><stop offset="0" stop-color="#74b739"/><stop offset="1" stop-color="#56991c"/></linearGradient><path fill="url(#b)" d="M252.056 221.958H124.14V100.492h127.916v121.466zm125.766 29.023H123.065v20h254.757v-20zm0 35H123.065v20h254.757v-20zm0 35H123.065v20h254.757v-20zm0 35H123.065v20h254.757v-20zm0 35H123.065v20h254.757v-20z"/></svg>