<?xml version="1.0" encoding="UTF-8"?>
<svg xmlns="http://www.w3.org/2000/svg" width="18" height="18" viewBox="0 0 16 16"><path fill="#FFF" d="M13.12 4.96v9.12H2.88V1.92h7.296l2.944 3.04z"/><path fill="#FFF" d="M13.12 4.96v9.12H2.88V1.92h7.296l2.944 3.04z"/><linearGradient id="a" gradientUnits="userSpaceOnUse" x1="36236.453" y1="51708.059" x2="36611.457" y2="52083.063" gradientTransform="matrix(.032 0 0 .032 -1158.385 -1651.84)"><stop offset="0" stop-color="#ccc"/><stop offset="1" stop-color="#b3b3b3"/></linearGradient><path fill="url(#a)" d="M10.323 1.595L2.4 1.6v12.8h11.2V4.896l-3.277-3.301zm2.387 3.301h-2.374l-.01-2.391 2.384 2.391zm.25 8.864H3.04V2.24H9.6v3.424h3.36v8.096z"/><linearGradient id="b" gradientUnits="userSpaceOnUse" x1="24253.981" y1="-34557.086" x2="24372.494" y2="-34675.602" gradientTransform="matrix(.036 0 0 -.036 -867.8 -1237.196)"><stop offset="0" stop-color="#ccc"/><stop offset="1" stop-color="#b3b3b3"/></linearGradient><path fill="url(#b)" d="M8.077 5.551v1.705c0 .049-.273.088-.607.088H5.107a.609.609 0 0 0-.607.608v2.081c0 .335.273.605.607.605H7.47c.333 0 .607.034.607.077v1.737c0 .05.197-.102.437-.333l2.807-2.707a.587.587 0 0 0 .02-.824l-.02-.019-2.807-2.705c-.24-.233-.437-.373-.437-.313z"/><linearGradient id="c" gradientUnits="userSpaceOnUse" x1="54605.762" y1="77681.086" x2="54711.547" y2="77786.867" gradientTransform="matrix(.032 0 0 .032 -1736.609 -2476.727)"><stop offset="0" stop-color="#999"/><stop offset="1" stop-color="#666"/></linearGradient><path fill="url(#c)" d="M11.027 11.745v-1.318c0-.34.287-.625.625-.625h1.63c.339 0 .626.285.626.625v1.318h.959v-1.318a1.59 1.59 0 0 0-1.585-1.584h-1.63a1.59 1.59 0 0 0-1.584 1.584v1.318h.959z"/><linearGradient id="d" gradientUnits="userSpaceOnUse" x1="54581.23" y1="77750.313" x2="54736.078" y2="77905.156" gradientTransform="matrix(.032 0 0 .032 -1736.609 -2476.727)"><stop offset="0" stop-color="#ffad00"/><stop offset="1" stop-color="#d68900"/></linearGradient><path fill="url(#d)" d="M15.436 15.614a.32.32 0 0 1-.317.321H9.823a.323.323 0 0 1-.323-.321v-3.707c0-.179.145-.322.323-.322h5.291c.179 0 .321.146.321.322v3.707h.001z"/></svg>