<svg xmlns="http://www.w3.org/2000/svg" width="18" height="18" viewBox="0 0 16 16"><path fill="#FFF" d="M14.76 5.58v10.26H3.24V2.16h8.208l3.312 3.42z"/><path fill="#F9FAFA" d="M14.76 5.58v10.26H3.24V2.16h8.208l3.312 3.42z"/><path fill="#FFF" d="M11.232 2.34l.287 3.6 3.24-.36-3.527-3.24z"/><linearGradient id="a" gradientUnits="userSpaceOnUse" x1="15775.603" y1="22588.715" x2="16150.604" y2="22963.717" gradientTransform="matrix(.036 0 0 .036 -566.592 -810.024)"><stop offset="0" stop-color="#ccc"/><stop offset="1" stop-color="#b3b3b3"/></linearGradient><path fill="url(#a)" d="M11.613 1.794L2.7 1.8v14.4h12.6V5.508l-3.687-3.714zM14.3 5.508h-2.672l-.01-2.69 2.68 2.69h.002zm.28 9.972H3.42V2.52h7.38v3.852h3.78v9.108z"/><linearGradient id="b" gradientUnits="userSpaceOnUse" x1="15893.695" y1="22713.15" x2="16046.096" y2="22865.551" gradientTransform="matrix(.036 0 0 .036 -566.592 -810.024)"><stop offset="0" stop-color="#ccc"/><stop offset="1" stop-color="#b3b3b3"/></linearGradient><path fill="url(#b)" d="M9.098 5.97v2.19c0 .064-.35.113-.78.113H5.28c-.43 0-.78.35-.78.78v2.677c0 .431.35.78.78.78h3.038c.43 0 .78.044.78.101v2.234c0 .063.253-.131.562-.428l3.607-3.482a.749.749 0 0 0 .025-1.059l-.025-.025L9.66 6.37c-.31-.298-.562-.478-.562-.4z"/><linearGradient id="c" gradientUnits="userSpaceOnUse" x1="290.122" y1="-404.091" x2="295.205" y2="-408.612" gradientTransform="matrix(1 0 0 -1 -287.66 -392.96)"><stop offset="0" stop-color="#636363"/><stop offset="1" stop-color="#2e2e2e"/></linearGradient><path fill="url(#c)" d="M9 13.391c0 1.406-1.791 2.547-4 2.547-.1 0-.197-.006-.295-.01l2.393-3.443c.123.279.2.582.2.906 0 .545-.198 1.041-.517 1.435.848-.31 1.405-.836 1.405-1.435 0-.465-.34-.885-.888-1.195l.452-.65c.769.462 1.25 1.116 1.25 1.845zm-7.148 0c0-.584.534-1.1 1.348-1.412a2.279 2.279 0 0 0-.497 1.412c0 .324.077.627.2.905l2.393-3.442a4.85 4.85 0 0 0-.296-.01c-2.209 0-4 1.139-4 2.547 0 .728.481 1.383 1.25 1.846l.463-.668c-.531-.309-.861-.721-.861-1.178zM7.56 10.15l-.417-.289a.45.45 0 0 0-.629.113l-.646.93-1.416 2.039-1.663 2.395-.093.133-.368.53a.45.45 0 0 0 .113.628l.417.291c.078.055.167.08.257.08a.448.448 0 0 0 .371-.193l4.188-6.027a.454.454 0 0 0-.114-.63z"/></svg>