<?xml version="1.0" encoding="UTF-8"?>
<svg xmlns="http://www.w3.org/2000/svg" width="18" height="18" viewBox="0 0 16 16"><path fill="#FFF" d="M13.12 4.96v9.12H2.88V1.92h7.296l2.944 3.04z"/><path fill="#FFF" d="M13.12 4.96v9.12H2.88V1.92h7.296l2.944 3.04z"/><linearGradient id="a" gradientUnits="userSpaceOnUse" x1="45288.328" y1="-64597.055" x2="45663.332" y2="-64972.059" gradientTransform="matrix(.032 0 0 -.032 -1448.045 -2064.288)"><stop offset="0" stop-color="#ccc"/><stop offset="1" stop-color="#b3b3b3"/></linearGradient><path fill="url(#a)" d="M10.323 1.595L2.4 1.6v12.8h11.2V4.896l-3.277-3.301zm2.387 3.301h-2.374l-.01-2.391 2.384 2.391zm.25 8.864H3.04V2.24H9.6v3.424h3.36v8.096z"/><linearGradient id="b" gradientUnits="userSpaceOnUse" x1="40344.203" y1="-57501.293" x2="40462.688" y2="-57619.777" gradientTransform="matrix(.036 0 0 -.036 -1447.05 -2063.188)"><stop offset="0" stop-color="#ccc"/><stop offset="1" stop-color="#b3b3b3"/></linearGradient><path fill="url(#b)" d="M8.076 5.551v1.705c0 .049-.273.088-.607.088H5.106a.609.609 0 0 0-.606.608v2.083c0 .334.273.605.606.605h2.363c.334 0 .607.033.607.076v1.735c0 .05.198-.103.438-.333l2.805-2.706a.586.586 0 0 0 0-.845L8.514 5.865c-.24-.234-.438-.373-.438-.314z"/><linearGradient id="c" gradientUnits="userSpaceOnUse" x1="45588.125" y1="-64792.336" x2="45693.91" y2="-64898.121" gradientTransform="matrix(.032 0 0 -.032 -1448.045 -2064.288)"><stop offset="0" stop-color="#999"/><stop offset="1" stop-color="#666"/></linearGradient><path fill="url(#c)" d="M11.027 11.745v-1.318c0-.34.287-.625.625-.625h1.63c.339 0 .626.285.626.625v1.318h.959v-1.318a1.59 1.59 0 0 0-1.585-1.584h-1.63a1.59 1.59 0 0 0-1.584 1.584v1.318h.959z"/><linearGradient id="d" gradientUnits="userSpaceOnUse" x1="45563.586" y1="-64861.586" x2="45718.441" y2="-65016.441" gradientTransform="matrix(.032 0 0 -.032 -1448.045 -2064.288)"><stop offset="0" stop-color="#ffad00"/><stop offset="1" stop-color="#d68900"/></linearGradient><path fill="url(#d)" d="M15.436 15.614a.32.32 0 0 1-.318.321H9.822a.322.322 0 0 1-.323-.321v-3.707c0-.179.146-.322.323-.322h5.291c.179 0 .322.146.322.322v3.707h.001z"/><linearGradient id="e" gradientUnits="userSpaceOnUse" x1="289.286" y1="-404.974" x2="294.037" y2="-409.725" gradientTransform="matrix(1 0 0 -1 -287.66 -394.96)"><stop offset="0" stop-color="#636363"/><stop offset="1" stop-color="#2e2e2e"/></linearGradient><path fill="url(#e)" d="M6.309 10.305l.365-.525a.455.455 0 0 0-.113-.63l-.418-.289a.45.45 0 0 0-.629.113l-.639.92A6.207 6.207 0 0 0 4 9.828c-2.209 0-4 1.146-4 2.563 0 .863.671 1.623 1.691 2.088l-.363.522a.45.45 0 0 0 .113.628l.417.291c.078.055.167.08.257.08a.448.448 0 0 0 .371-.193l.639-.918c.283.039.574.064.875.064 2.209 0 4-1.146 4-2.563 0-.863-.671-1.62-1.691-2.085zM.85 12.391c0-.623.771-1.298 1.971-1.576a1.987 1.987 0 0 0-.479 2.726l-.161.23c-.827-.333-1.331-.875-1.331-1.38zm4.427 1.558c.439-.367.723-.911.723-1.527 0-.428-.137-.82-.365-1.146l.185-.266c.829.336 1.331.876 1.331 1.381-.001.606-.728 1.265-1.874 1.558z"/></svg>