<svg xmlns="http://www.w3.org/2000/svg" width="18" height="18" viewBox="0 0 16 16"><path fill="#FFF" d="M14.76 5.58v10.26H3.24V2.16h8.208l3.312 3.42z"/><path fill="#F9FAFA" d="M14.76 5.58v10.26H3.24V2.16h8.208l3.312 3.42z"/><path fill="#FFF" d="M11.232 2.34l.287 3.6 3.24-.36-3.527-3.24z"/><linearGradient id="a" gradientUnits="userSpaceOnUse" x1="8054.275" y1="-11512.394" x2="8429.275" y2="-11887.394" gradientTransform="matrix(.036 0 0 -.036 -288.624 -411.276)"><stop offset="0" stop-color="#ccc"/><stop offset="1" stop-color="#b3b3b3"/></linearGradient><path fill="url(#a)" d="M11.613 1.794L2.7 1.8v14.4h12.6V5.508l-3.687-3.714zm2.686 3.714h-2.671l-.011-2.689 2.682 2.689zm.281 9.972H3.42V2.52h7.38v3.852h3.78v9.108z"/><linearGradient id="b" gradientUnits="userSpaceOnUse" x1="8172.416" y1="-11636.865" x2="8324.791" y2="-11789.242" gradientTransform="matrix(.036 0 0 -.036 -288.624 -411.276)"><stop offset="0" stop-color="#ccc"/><stop offset="1" stop-color="#b3b3b3"/></linearGradient><path fill="url(#b)" d="M9.098 5.969v2.192c0 .063-.351.113-.78.113H5.28a.782.782 0 0 0-.78.78v2.677c0 .43.351.78.78.78h3.038c.429 0 .78.044.78.099v2.233c0 .063.253-.13.562-.428l3.608-3.481a.75.75 0 0 0 .024-1.06l-.024-.024L9.66 6.371c-.309-.299-.562-.479-.562-.402z"/><path opacity=".5" d="M14.568 12.456h-1.996v-1.159c0-.339.286-.625.625-.625h1.371v-.96h-1.371a1.59 1.59 0 0 0-1.586 1.585v1.159h-.246a.322.322 0 0 0-.322.322v2.59h3.525v-2.912z"/><linearGradient id="c" gradientUnits="userSpaceOnUse" x1="9387.605" y1="-13151.267" x2="9493.414" y2="-13257.075" gradientTransform="matrix(.032 0 0 -.032 -288.628 -411.352)"><stop offset="0" stop-color="#999"/><stop offset="1" stop-color="#666"/></linearGradient><path fill="url(#c)" d="M12.027 12.168V10.85c0-.34.287-.626.626-.626h1.629c.339 0 .626.286.626.626v1.318h.959V10.85a1.59 1.59 0 0 0-1.585-1.586h-1.629a1.59 1.59 0 0 0-1.585 1.586v1.318h.959z"/><linearGradient id="d" gradientUnits="userSpaceOnUse" x1="9363.063" y1="-13220.554" x2="9517.918" y2="-13375.409" gradientTransform="matrix(.032 0 0 -.032 -288.628 -411.352)"><stop offset="0" stop-color="#ffad00"/><stop offset="1" stop-color="#d68900"/></linearGradient><path fill="url(#d)" d="M16.436 16.037a.321.321 0 0 1-.322.322h-5.291a.322.322 0 0 1-.323-.322V12.33c0-.178.145-.322.323-.322h5.291c.179 0 .322.145.322.322v3.707z"/></svg>