<svg xmlns="http://www.w3.org/2000/svg" width="18" height="18" viewBox="0 0 16 16"><path fill="#FFF" d="M14.76 5.58v10.26H3.24V2.16h8.208l3.312 3.42z"/><path fill="#F9FAFA" d="M14.76 5.58v10.26H3.24V2.16h8.208l3.312 3.42z"/><path fill="#FFF" d="M11.232 2.34l.287 3.6 3.24-.36-3.527-3.24z"/><linearGradient id="a" gradientUnits="userSpaceOnUse" x1="15775.603" y1="22588.715" x2="16150.604" y2="22963.717" gradientTransform="matrix(.036 0 0 .036 -566.592 -810.024)"><stop offset="0" stop-color="#ccc"/><stop offset="1" stop-color="#b3b3b3"/></linearGradient><path fill="url(#a)" d="M11.613 1.794L2.7 1.8v14.4h12.6V5.508l-3.687-3.714zM14.3 5.508h-2.672l-.01-2.69 2.68 2.69h.002zm.28 9.972H3.42V2.52h7.38v3.852h3.78v9.108z"/><linearGradient id="b" gradientUnits="userSpaceOnUse" x1="15893.695" y1="22713.15" x2="16046.096" y2="22865.551" gradientTransform="matrix(.036 0 0 .036 -566.592 -810.024)"><stop offset="0" stop-color="#ccc"/><stop offset="1" stop-color="#b3b3b3"/></linearGradient><path fill="url(#b)" d="M9.098 5.97v2.19c0 .064-.35.113-.78.113H5.28c-.43 0-.78.35-.78.78v2.677c0 .431.35.78.78.78h3.038c.43 0 .78.044.78.101v2.234c0 .063.253-.131.562-.428l3.607-3.482a.749.749 0 0 0 .025-1.059l-.025-.025L9.66 6.37c-.31-.298-.562-.478-.562-.4z"/></svg>