<?xml version="1.0" encoding="UTF-8"?>
<svg xmlns="http://www.w3.org/2000/svg" width="18" height="18" viewBox="0 0 16 16"><path fill="#FFF" d="M13.12 4.96v9.12H2.88V1.92h7.296l2.944 3.04z"/><path fill="#FFF" d="M13.12 4.96v9.12H2.88V1.92h7.296l2.944 3.04z"/><linearGradient id="a" gradientUnits="userSpaceOnUse" x1="36238.461" y1="51706.055" x2="36613.465" y2="52081.059" gradientTransform="matrix(.032 0 0 .032 -1158.449 -1651.775)"><stop offset="0" stop-color="#ccc"/><stop offset="1" stop-color="#b3b3b3"/></linearGradient><path fill="url(#a)" d="M10.323 1.595L2.4 1.6v12.8h11.2V4.896l-3.277-3.301zm2.387 3.301h-2.374l-.01-2.391 2.384 2.391zm.25 8.864H3.04V2.24H9.6v3.424h3.36v8.096z"/><linearGradient id="b" gradientUnits="userSpaceOnUse" x1="24255.969" y1="-34559.078" x2="24374.482" y2="-34677.594" gradientTransform="matrix(.036 0 0 -.036 -867.873 -1237.268)"><stop offset="0" stop-color="#507ea5"/><stop offset="1" stop-color="#335f7f"/></linearGradient><path fill="url(#b)" d="M8.077 5.551v1.705c0 .049-.273.088-.607.088H5.107a.609.609 0 0 0-.607.608v2.081c0 .335.273.605.607.605H7.47c.333 0 .607.034.607.077v1.737c0 .05.197-.102.437-.333l2.807-2.707a.587.587 0 0 0 .02-.824l-.02-.019-2.807-2.705c-.24-.233-.437-.373-.437-.313z"/><linearGradient id="c" gradientUnits="userSpaceOnUse" x1="289.286" y1="-404.974" x2="294.037" y2="-409.725" gradientTransform="matrix(1 0 0 -1 -287.66 -394.96)"><stop offset="0" stop-color="#636363"/><stop offset="1" stop-color="#2e2e2e"/></linearGradient><path fill="url(#c)" d="M6.309 10.305l.365-.525a.455.455 0 0 0-.113-.63l-.418-.289a.45.45 0 0 0-.629.113l-.639.92A6.207 6.207 0 0 0 4 9.828c-2.209 0-4 1.146-4 2.563 0 .863.671 1.623 1.691 2.088l-.363.522a.45.45 0 0 0 .113.628l.417.291c.078.055.167.08.257.08a.448.448 0 0 0 .371-.193l.639-.918c.283.039.574.064.875.064 2.209 0 4-1.146 4-2.563 0-.863-.671-1.62-1.691-2.085zM.85 12.391c0-.623.771-1.298 1.971-1.576a1.987 1.987 0 0 0-.479 2.726l-.161.23c-.827-.333-1.331-.875-1.331-1.38zm4.427 1.558c.439-.367.723-.911.723-1.527 0-.428-.137-.82-.365-1.146l.185-.266c.829.336 1.331.876 1.331 1.381-.001.606-.728 1.265-1.874 1.558z"/></svg>