<svg xmlns="http://www.w3.org/2000/svg" width="18" height="18" viewBox="0 0 16 16"><path fill="#FFF" d="M13.76 4.58v10.26H2.24V1.16h8.208l3.312 3.42z"/><path fill="#F9FAFA" d="M13.76 4.58v10.26H2.24V1.16h8.208l3.312 3.42z"/><path fill="#FFF" d="M10.232 1.339l.287 3.6 3.239-.36-3.526-3.24z"/><linearGradient id="a" gradientUnits="userSpaceOnUse" x1="16070.629" y1="22973.727" x2="16445.621" y2="23348.719" gradientTransform="matrix(.036 0 0 .036 -578.212 -824.884)"><stop offset="0" stop-color="#ccc"/><stop offset="1" stop-color="#b3b3b3"/></linearGradient><path fill="url(#a)" d="M10.613.793L1.7.799v14.4h12.6V4.507L10.613.793zm2.686 3.714h-2.671l-.011-2.689 2.682 2.689zm.281 9.973H2.42V1.52H9.8v3.852h3.78v9.108z"/><linearGradient id="b" gradientUnits="userSpaceOnUse" x1="16188.748" y1="23098.15" x2="16341.101" y2="23250.506" gradientTransform="matrix(.036 0 0 .036 -578.212 -824.884)"><stop offset="0" stop-color="#ccc"/><stop offset="1" stop-color="#b3b3b3"/></linearGradient><path fill="url(#b)" d="M8.098 4.968V7.16c0 .063-.351.113-.78.113H4.28a.783.783 0 0 0-.78.781v2.676c0 .43.351.779.78.779h3.038c.429 0 .78.045.78.1v2.232c0 .064.254-.129.563-.428l3.607-3.48a.75.75 0 0 0 .024-1.061l-.024-.023L8.66 5.371c-.308-.3-.562-.479-.562-.403z"/><path opacity=".5" d="M13.568 11.455h-1.996v-1.158c0-.34.285-.625.625-.625h1.371v-.961h-1.371c-.872 0-1.586.715-1.586 1.586v1.158h-.246a.322.322 0 0 0-.322.322v2.59h3.525v-2.912z"/><linearGradient id="c" gradientUnits="userSpaceOnUse" x1="18406.225" y1="26043.019" x2="18512.033" y2="26148.828" gradientTransform="matrix(.032 0 0 .032 -578.224 -824.888)"><stop offset="0" stop-color="#999"/><stop offset="1" stop-color="#666"/></linearGradient><path fill="url(#c)" d="M11.027 11.168V9.85c0-.34.287-.625.625-.625h1.63c.339 0 .626.285.626.625v1.318h.959V9.85a1.59 1.59 0 0 0-1.585-1.586h-1.63a1.59 1.59 0 0 0-1.584 1.586v1.318h.959z"/><linearGradient id="d" gradientUnits="userSpaceOnUse" x1="18381.725" y1="26112.316" x2="18536.563" y2="26267.154" gradientTransform="matrix(.032 0 0 .032 -578.224 -824.888)"><stop offset="0" stop-color="#ffad00"/><stop offset="1" stop-color="#d68900"/></linearGradient><path fill="url(#d)" d="M15.436 15.037a.322.322 0 0 1-.321.322H9.823a.323.323 0 0 1-.323-.322V11.33c0-.178.145-.322.323-.322h5.291a.32.32 0 0 1 .321.322v3.707z"/><linearGradient id="e" gradientUnits="userSpaceOnUse" x1="576.781" y1="834.052" x2="581.864" y2="838.573" gradientTransform="translate(-575.32 -823.92)"><stop offset="0" stop-color="#636363"/><stop offset="1" stop-color="#2e2e2e"/></linearGradient><path fill="url(#e)" d="M8 12.391c0 1.406-1.791 2.547-4 2.547-.1 0-.197-.006-.295-.01l2.393-3.443c.123.279.2.582.2.906 0 .545-.198 1.041-.517 1.436.848-.311 1.405-.836 1.405-1.436 0-.465-.34-.885-.888-1.195l.452-.65c.77.462 1.25 1.116 1.25 1.845zm-7.148 0c0-.584.534-1.1 1.348-1.412a2.28 2.28 0 0 0-.497 1.412c0 .324.077.627.2.904l2.393-3.441A4.85 4.85 0 0 0 4 9.844c-2.209 0-4 1.139-4 2.547 0 .729.481 1.383 1.25 1.846l.463-.668c-.531-.309-.861-.721-.861-1.178zM6.56 9.15l-.417-.289a.45.45 0 0 0-.629.113l-.646.93-1.416 2.039-1.663 2.395-.093.133-.368.529a.451.451 0 0 0 .113.629l.417.291c.078.055.167.08.257.08a.448.448 0 0 0 .371-.193L6.674 9.78a.454.454 0 0 0-.114-.63z"/></svg>