<?xml version="1.0" encoding="UTF-8"?>
<svg xmlns="http://www.w3.org/2000/svg" width="18" height="18" viewBox="0 0 16 16"><path fill="#FFF" d="M13.12 4.96v9.12H2.88V1.92h7.296l2.944 3.04z"/><path fill="#FFF" d="M13.12 4.96v9.12H2.88V1.92h7.296l2.944 3.04z"/><linearGradient id="a" gradientUnits="userSpaceOnUse" x1="27186.578" y1="-38785.055" x2="27561.576" y2="-39160.055" gradientTransform="matrix(.032 0 0 -.032 -868.789 -1238.304)"><stop offset="0" stop-color="#ccc"/><stop offset="1" stop-color="#b3b3b3"/></linearGradient><path fill="url(#a)" d="M10.323 1.595L2.4 1.6v12.8h11.2V4.896l-3.277-3.301zm2.387 3.301h-2.374l-.01-2.391 2.384 2.391zm.25 8.864H3.04V2.24H9.6v3.424h3.36v8.096z"/><linearGradient id="b" gradientUnits="userSpaceOnUse" x1="23931.158" y1="-34144.258" x2="24049.709" y2="-34262.809" gradientTransform="matrix(.036 0 0 -.036 -856.18 -1222.336)"><stop offset="0" stop-color="#ccc"/><stop offset="1" stop-color="#b3b3b3"/></linearGradient><path fill="url(#b)" d="M8.077 5.551v1.703c0 .05-.272.087-.607.087H5.106a.61.61 0 0 0-.606.608v2.083c0 .335.272.606.606.606H7.47c.335 0 .607.035.607.079v1.737c0 .049.197-.102.437-.333l2.806-2.707a.584.584 0 0 0 .019-.825l-.019-.019-2.806-2.708c-.242-.232-.437-.372-.437-.311z"/></svg>