<svg xmlns="http://www.w3.org/2000/svg" width="18" height="18" viewBox="0 0 18 18"><path fill="#FFF" d="M14.76 5.58v10.26H3.24V2.16h8.208z"/><path fill="#F9FAFA" d="M14.76 5.58v10.26H3.24V2.16h8.208z"/><path fill="#FFF" d="M11.232 2.34l.288 3.6 3.24-.36z"/><linearGradient id="a" gradientUnits="userSpaceOnUse" x1="7758.27" y1="-11126.395" x2="8133.27" y2="-11501.395" gradientTransform="matrix(.036 0 0 -.036 -277.968 -397.38)"><stop offset="0" stop-color="#CCC"/><stop offset="1" stop-color="#b3b3b3"/></linearGradient><path fill="url(#a)" d="M11.613 1.794L2.7 1.8v14.4h12.6V5.508l-3.687-3.714zM14.3 5.508h-2.672l-.01-2.69 2.68 2.69zm.28 9.972H3.42V2.52h7.38v3.852h3.78v9.108z"/><linearGradient id="b" gradientUnits="userSpaceOnUse" x1="7876.392" y1="-11250.865" x2="8028.753" y2="-11403.227" gradientTransform="matrix(.036 0 0 -.036 -277.968 -397.38)"><stop offset="0" stop-color="#CCC"/><stop offset="1" stop-color="#b3b3b3"/></linearGradient><path fill="url(#b)" d="M9.098 5.97V8.16c0 .064-.35.113-.78.113H5.28c-.43 0-.78.35-.78.78v2.678c0 .43.35.78.78.78h3.038c.43 0 .78.044.78.1v2.234c0 .064.253-.13.562-.427l3.607-3.483a.748.748 0 0 0 0-1.084L9.66 6.37c-.31-.298-.562-.478-.562-.4z"/></svg>