<?xml version="1.0" encoding="UTF-8"?>
<svg xmlns="http://www.w3.org/2000/svg" width="18" height="18" viewBox="0 0 16 16"><path fill="#FFF" d="M13.12 4.96v9.12H2.88V1.92h7.296l2.944 3.04z"/><path fill="#FFF" d="M13.12 4.96v9.12H2.88V1.92h7.296l2.944 3.04z"/><linearGradient id="a" gradientUnits="userSpaceOnUse" x1="27186.578" y1="-38785.055" x2="27561.576" y2="-39160.055" gradientTransform="matrix(.032 0 0 -.032 -868.789 -1238.304)"><stop offset="0" stop-color="#ccc"/><stop offset="1" stop-color="#b3b3b3"/></linearGradient><path fill="url(#a)" d="M10.323 1.595L2.4 1.6v12.8h11.2V4.896l-3.277-3.301zm2.387 3.301h-2.374l-.01-2.391 2.384 2.391zm.25 8.864H3.04V2.24H9.6v3.424h3.36v8.096z"/><linearGradient id="b" gradientUnits="userSpaceOnUse" x1="16209.84" y1="23103.961" x2="16328.343" y2="23222.465" gradientTransform="matrix(.036 0 0 .036 -578.212 -824.884)"><stop offset="0" stop-color="#507ea5"/><stop offset="1" stop-color="#335f7f"/></linearGradient><path fill="url(#b)" d="M8.077 5.551v1.706c0 .049-.273.087-.607.087H5.107a.609.609 0 0 0-.607.607v2.081c0 .335.273.606.607.606H7.47c.334 0 .607.034.607.077v1.737c0 .05.197-.101.437-.333l2.806-2.707a.584.584 0 0 0 .02-.824l-.02-.02-2.806-2.704c-.24-.233-.437-.373-.437-.313z"/></svg>