<svg xmlns="http://www.w3.org/2000/svg" width="18" height="18" viewBox="0 0 500 500"><path fill="#FFF" d="M410 155v285H90V60h228z"/><path fill="#F9FAFA" d="M410 155v285H90V60h228z"/><path fill="#FFF" d="M312 65l8 100 90-10z"/><linearGradient id="a" gradientUnits="userSpaceOnUse" x1="36.937" y1="88.064" x2="411.937" y2="463.064"><stop offset="0" stop-color="#CCC"/><stop offset="1" stop-color="#b3b3b3"/></linearGradient><path fill="url(#a)" d="M322.597 49.85L75 50v400h350V153L322.597 49.85zM397.184 153H323l-.292-74.71L397.184 153zM405 430H95V70h205v107h105v253z"/><linearGradient id="b" gradientUnits="userSpaceOnUse" x1="155.065" y1="212.535" x2="307.436" y2="364.907"><stop offset="0" stop-color="#507ea5"/><stop offset="1" stop-color="#335f7f"/></linearGradient><path fill="url(#b)" d="M252.73 165.81V226.713c0 1.733-9.754 3.15-21.677 3.15h-84.375c-11.922 0-21.678 9.754-21.678 21.676V325.9c0 11.922 9.755 21.677 21.678 21.677h84.375c11.923 0 21.677 1.226 21.677 2.728v62.045c0 1.75 7.02-3.594 15.602-11.873l100.232-96.708a20.82 20.82 0 0 0 0-30.104l-100.232-96.71c-8.58-8.278-15.602-13.295-15.602-11.148z"/></svg>