<svg xmlns="http://www.w3.org/2000/svg" width="16" height="16" viewBox="0 0 500 500"><linearGradient id="a" x1="74.307" y1="74.307" x2="425.695" y2="425.695"><stop offset="0" stop-color="#196b99"/><stop offset="1" stop-color="#0d5c7f"/></linearGradient><path fill="url(#a)" d="M450 367.013C450 412.845 412.845 450 367.013 450H132.988C87.154 450 50 412.845 50 367.013V132.988C50 87.154 87.154 50 132.988 50h234.025C412.845 50 450 87.154 450 132.988v234.025z"/><path fill="#FFF" d="M285.7 337.868a171.864 171.864 0 0131.093 19.503v43.452h-212.56v-43.45a171.9 171.9 0 0131.093-19.504c18.365 20.877 45.262 34.075 75.187 34.075s56.82-13.198 75.186-34.075zm-75.187 9.986c27.766 0 51.85-15.704 63.898-38.705.19-.358.37-.717.552-1.076.363-.728.717-1.46 1.058-2.2.215-.468.432-.936.638-1.41a76.604 76.604 0 002.483-6.586c.135-.416.268-.835.397-1.257a77.26 77.26 0 00.733-2.586c.084-.317.157-.638.235-.956a62.9 62.9 0 00.502-2.174c.07-.324.14-.647.206-.973.19-.96.363-1.925.518-2.897.045-.273.08-.55.12-.823.13-.883.242-1.77.34-2.665.02-.193.046-.385.065-.578.104-1.046.182-2.1.24-3.16.015-.25.025-.504.036-.758.052-1.095.085-2.193.085-3.3a71.733 71.733 0 00-11.374-38.846c-.136-.212-.27-.425-.406-.636a73.69 73.69 0 00-1.005-1.497c-.286-.41-.578-.814-.87-1.22a73.276 73.276 0 00-4.982-6.173c-13.193-14.574-32.26-23.732-53.466-23.732-16.98 0-32.576 5.884-44.896 15.703l-.004.003a72.407 72.407 0 00-18.79 22.593 71.78 71.78 0 00-8.415 33.807c.003 39.82 32.284 72.104 72.106 72.104zm-63.262-156.81c18.168-13.628 40.147-21 63.263-21 5.66 0 11.25.448 16.733 1.315a97.294 97.294 0 015.96-15.71 53.21 53.21 0 00.187-4.264c0-28.834-23.375-52.208-52.208-52.208s-52.207 23.374-52.207 52.208c0 15.873 7.095 30.082 18.273 39.657zm-13.62 12.164a73.26 73.26 0 01-6.883-6.845 124.55 124.55 0 00-22.515 14.12v31.462h6.073c4.813-14.308 12.7-27.49 23.325-38.737zm181.805 59.56c2.106.205 4.238.316 6.398.316 35.75 0 64.732-28.98 64.732-64.73s-28.982-64.73-64.732-64.73c-30.057 0-55.324 20.49-62.61 48.262 9.483 4.935 18.26 11.343 26.036 19.12 16.87 16.87 27.336 38.44 30.175 61.76zm73.897-8.65c-16.488 18.743-40.634 30.592-67.5 30.592-2.007 0-3.998-.074-5.973-.205a105.288 105.288 0 01-5.51 26.13h106.896V271.63a154.406 154.406 0 00-27.914-17.51z"/></svg>