<?xml version="1.0" encoding="UTF-8"?>
<svg xmlns="http://www.w3.org/2000/svg" width="16" height="16" viewBox="0 0 16 16"><linearGradient id="a" gradientUnits="userSpaceOnUse" x1="8958.135" y1="-12699.944" x2="9057.702" y2="-12799.513" gradientTransform="matrix(.032 0 0 -.032 -280.124 -400.032)"><stop offset="0" stop-color="#ccc"/><stop offset="1" stop-color="#b3b3b3"/></linearGradient><path fill="url(#a)" d="M10.37 4.314s-5.588 5.693-5.833 5.833-2.061.209-2.689.908c-.628.699-.978 1.502-.803 1.572s1.327-.769 1.327-.769l1.083.629.279 1.327-1.292.874s1.607.732 2.62-.49c1.013-1.223.594-2.62.594-2.62S11.14 5.92 11.84 5.431c.697-.489 2.305.035 2.794-1.188.488-1.223.349-1.467.349-1.467l-1.362.908-.631-.313-.314-1.222 1.258-.803s-.803-.489-1.851-.105-1.503 1.222-1.713 3.073z"/><g opacity=".5"><linearGradient id="b" gradientUnits="userSpaceOnUse" x1="-4234.429" y1="-20186.207" x2="-4234.365" y2="-20206.019" gradientTransform="matrix(.0151 -.0151 -.0173 -.0174 -277.943 -407.236)"><stop offset="0" stop-color="#b3b3b3"/><stop offset="1" stop-color="#999"/></linearGradient><path fill="url(#b)" d="M10.729 5.004c.09.09-.016.342-.233.56L6.078 9.969c-.218.217-.47.321-.56.23-.09-.09.015-.342.233-.559l4.417-4.405c.22-.216.472-.32.561-.231z"/></g><path opacity=".25" d="M9.764 7.403l-.36-.376.011-.01a.315.315 0 1 0-.435-.455l-.385.367-.405-.402-.33.333.395.392-.345.328a.315.315 0 1 0 .434.456l.39.402c.341-.345.684-.69 1.03-1.035z"/><linearGradient id="c" gradientUnits="userSpaceOnUse" x1="8807.69" y1="-12543.603" x2="9041.957" y2="-12777.872" gradientTransform="matrix(.032 0 0 -.032 -280.124 -400.032)"><stop offset="0" stop-color="#ccc"/><stop offset="1" stop-color="#b3b3b3"/></linearGradient><path fill="url(#c)" d="M9.403 8.673L3.421 2.742v-.467L1.948 1.204l-.435.368L2.55 2.978l.49.046 6.033 5.98.33-.331z"/><linearGradient id="d" gradientUnits="userSpaceOnUse" x1="8976.443" y1="-12839.127" x2="9222.555" y2="-12839.127" gradientTransform="matrix(.032 0 0 -.032 -280.124 -400.032)"><stop offset="0" stop-color="#b3b3b3"/><stop offset="1" stop-color="#999"/></linearGradient><path fill="url(#d)" d="M12.988 10.608c-1.11-1.169-2.313-1.959-3.152-2.145l-1.12-1.177.01-.01a.315.315 0 1 0-.434-.456L7.22 7.839a.315.315 0 1 0 .434.456l.01-.01 1.12 1.177c.144.85.872 2.09 1.982 3.258 1.61 1.692 3.412 2.592 4.025 2.008.615-.582-.192-2.428-1.803-4.12z"/><linearGradient id="e" gradientUnits="userSpaceOnUse" x1="9052.088" y1="-12868.413" x2="9210.912" y2="-12868.413" gradientTransform="matrix(.032 0 0 -.032 -280.124 -400.032)"><stop offset="0" stop-color="#999"/><stop offset="1" stop-color="#666"/></linearGradient><path opacity=".4" fill="url(#e)" d="M12.015 11.86c-1.372-1.402-2.431-2.594-2.362-2.66.068-.067 1.236 1.017 2.608 2.42 1.372 1.402 2.43 2.594 2.361 2.66-.068.068-1.235-1.016-2.607-2.42zm1.355 2.453c.067-.067-.733-.997-1.789-2.075-1.056-1.08-1.966-1.9-2.034-1.834-.068.067.732.996 1.787 2.075 1.057 1.08 1.968 1.901 2.036 1.834zm.796-1.774c.068-.066-.586-.846-1.461-1.74S11.066 9.233 10.998 9.3s.586.845 1.461 1.74c.875.895 1.639 1.565 1.707 1.499z"/><linearGradient id="f" gradientUnits="userSpaceOnUse" x1="8993.072" y1="-12762.703" x2="9061.248" y2="-12762.703" gradientTransform="matrix(.032 0 0 -.032 -280.124 -400.032)"><stop offset="0" stop-color="#999"/><stop offset="1" stop-color="#666"/></linearGradient><path opacity=".25" fill="url(#f)" d="M8.716 7.286L7.654 8.295l1.13 1.167 1.052-1-1.12-1.176z"/></svg>