<svg xmlns="http://www.w3.org/2000/svg" width="12" height="280" viewBox="134 0 12 280"><linearGradient id="a" gradientUnits="userSpaceOnUse" x1="346.525" y1="568.691" x2="364.501" y2="568.691" gradientTransform="matrix(.56 0 0 .56 -60.03 -315.098)"><stop offset="0" stop-color="#b3b3b3"/><stop offset="1" stop-color="#999"/></linearGradient><path fill="url(#a)" d="M137.542 5.7l-1.91-1.91h6.85l-1.91 1.91.594.594 2.925-2.924-2.924-2.924-.594.594 1.91 1.91h-6.85l1.91-1.91-.594-.594-2.924 2.924 2.924 2.924z"/><linearGradient id="b" gradientUnits="userSpaceOnUse" x1="354.61" y1="607.274" x2="365.054" y2="607.274" gradientTransform="matrix(.56 0 0 .56 -60.03 -315.098)"><stop offset="0" stop-color="#b3b3b3"/><stop offset="1" stop-color="#999"/></linearGradient><path fill="url(#b)" d="M143.807 23.46l.593-.593-2.924-2.924-2.924 2.924.594.594 1.91-1.91v6.85l-1.91-1.908-.594.593 2.924 2.924 2.924-2.925-.593-.593-1.91 1.91V21.55z"/><linearGradient id="c" gradientUnits="userSpaceOnUse" x1="354.61" y1="641.717" x2="365.054" y2="641.717" gradientTransform="matrix(.56 0 0 .56 -60.03 -315.098)"><stop offset="0" stop-color="#b3b3b3"/><stop offset="1" stop-color="#999"/></linearGradient><path fill="url(#c)" d="M141.896 47.517V42.62l1.91 1.91.594-.595-2.924-2.924-2.924 2.925.594.594 1.91-1.91v4.897z"/><linearGradient id="d" gradientUnits="userSpaceOnUse" x1="350.4" y1="926.115" x2="359.146" y2="926.115" gradientTransform="matrix(.56 0 0 .56 -60.03 -315.098)"><stop offset="0" stop-color="#b3b3b3"/><stop offset="1" stop-color="#999"/></linearGradient><path fill="url(#d)" d="M136.194 205.215h.84v-2.7l3.464 3.46.594-.592-3.464-3.464 2.702-.002v-.84h-4.135z"/><linearGradient id="e" gradientUnits="userSpaceOnUse" x1="350.4" y1="1056.234" x2="359.146" y2="1056.234" gradientTransform="matrix(.56 0 0 .56 -60.03 -315.098)"><stop offset="0" stop-color="#b3b3b3"/><stop offset="1" stop-color="#999"/></linearGradient><path fill="url(#e)" d="M140.498 273.945l-3.463 3.463v-2.7h-.84v4.134h4.135v-.84h-2.702l3.464-3.463z"/><linearGradient id="f" gradientUnits="userSpaceOnUse" x1="355.883" y1="961.615" x2="364.628" y2="961.615" gradientTransform="matrix(.56 0 0 .56 -60.03 -315.098)"><stop offset="0" stop-color="#b3b3b3"/><stop offset="1" stop-color="#999"/></linearGradient><path fill="url(#f)" d="M140.026 220.958v.84h2.7l-3.46 3.464.592.593 3.464-3.462v2.7h.84v-4.135z"/><linearGradient id="g" gradientUnits="userSpaceOnUse" x1="355.883" y1="1020.732" x2="364.628" y2="1020.732" gradientTransform="matrix(.56 0 0 .56 -60.03 -315.098)"><stop offset="0" stop-color="#b3b3b3"/><stop offset="1" stop-color="#999"/></linearGradient><path fill="url(#g)" d="M143.322 257.527l-3.464-3.463-.593.594 3.462 3.463h-2.7v.84h4.135v-4.134h-.84z"/><linearGradient id="h" gradientUnits="userSpaceOnUse" x1="354.61" y1="712.632" x2="365.054" y2="712.632" gradientTransform="matrix(.56 0 0 .56 -60.03 -315.098)"><stop offset="0" stop-color="#b3b3b3"/><stop offset="1" stop-color="#999"/></linearGradient><path fill="url(#h)" d="M143.807 83.71l-1.91 1.91v-4.896h-.84v4.897l-1.91-1.91-.595.595 2.924 2.924 2.924-2.925z"/><linearGradient id="i" gradientUnits="userSpaceOnUse" x1="352.845" y1="676.174" x2="364.461" y2="676.174" gradientTransform="matrix(.56 0 0 .56 -60.03 -315.098)"><stop offset="0" stop-color="#b3b3b3"/><stop offset="1" stop-color="#999"/></linearGradient><path fill="url(#i)" d="M137.563 63.98h4.898l-1.91 1.91.595.594 2.923-2.924-2.923-2.924-.594.593 1.91 1.91h-4.897z"/><linearGradient id="j" gradientUnits="userSpaceOnUse" x1="353.43" y1="747.174" x2="365.047" y2="747.174" gradientTransform="matrix(.56 0 0 .56 -60.03 -315.098)"><stop offset="0" stop-color="#b3b3b3"/><stop offset="1" stop-color="#999"/></linearGradient><path fill="url(#j)" d="M144.396 102.9H139.5l1.91-1.91-.596-.594-2.923 2.923 2.924 2.924.595-.594-1.91-1.91h4.896z"/><linearGradient id="k" gradientUnits="userSpaceOnUse" x1="355.573" y1="784.571" x2="365.353" y2="784.571" gradientTransform="matrix(.56 0 0 .56 -60.03 -315.098)"><stop offset="0" stop-color="#b3b3b3"/><stop offset="1" stop-color="#999"/></linearGradient><path fill="url(#k)" d="M143.365 120.96l-1.52 2.486-1.51-2.485h-1.067l2.02 3.23-2.197 3.374h1.123l1.612-2.667 1.607 2.667h1.136l-2.193-3.415 2.025-3.19z"/><linearGradient id="l" gradientUnits="userSpaceOnUse" x1="355.384" y1="820.773" x2="365.544" y2="820.773" gradientTransform="matrix(.56 0 0 .56 -60.03 -315.098)"><stop offset="0" stop-color="#b3b3b3"/><stop offset="1" stop-color="#999"/></linearGradient><path fill="url(#l)" d="M143.645 141.234l-1.33 2.506-.444.88-.483-.97-1.316-2.416h-1.085l2.39 4.225v2.378h.91v-2.36l2.39-4.244z"/><linearGradient id="m" gradientUnits="userSpaceOnUse" x1="356.593" y1="856.394" x2="364.332" y2="856.394" gradientTransform="matrix(.56 0 0 .56 -60.03 -315.098)"><stop offset="0" stop-color="#b3b3b3"/><stop offset="1" stop-color="#999"/></linearGradient><path fill="url(#m)" d="M143.505 163.708c.17-.256.255-.563.255-.92 0-1.07-.735-1.606-2.207-1.606h-1.89v6.604h1.728c.394 0 .753-.045 1.074-.132s.595-.216.823-.384c.227-.17.402-.375.525-.62s.184-.523.184-.84c0-.22-.035-.416-.105-.59a1.4 1.4 0 0 0-.287-.456 1.543 1.543 0 0 0-.423-.314 1.85 1.85 0 0 0-.507-.172c.385-.124.662-.314.832-.57zm-.57 1.677a.95.95 0 0 1 .106.455c0 .408-.125.71-.378.898-.252.193-.637.29-1.152.29h-.95v-2.274h.92c.244 0 .462.025.655.075.194.05.358.122.493.215a.925.925 0 0 1 .308.34zm-.208-1.988a.925.925 0 0 1-.277.34c-.12.09-.264.157-.43.202a2.234 2.234 0 0 1-.56.063h-.898v-2.065h.93c.263 0 .48.026.65.076s.31.12.41.204c.1.086.172.19.212.31s.06.245.06.382c0 .188-.032.35-.097.487z"/><linearGradient id="n" gradientUnits="userSpaceOnUse" x1="356.485" y1="892.027" x2="364.435" y2="892.027" gradientTransform="matrix(.56 0 0 .56 -60.03 -315.098)"><stop offset="0" stop-color="#b3b3b3"/><stop offset="1" stop-color="#999"/></linearGradient><path fill="url(#n)" d="M141.577 184.975c.09.063.173.147.25.254.077.103.15.238.227.4l.985 2.11h1.014l-1.046-2.172a3.69 3.69 0 0 0-.396-.64 1.036 1.036 0 0 0-.473-.336c.228-.054.43-.135.608-.245.176-.11.324-.24.444-.39s.21-.315.27-.5c.06-.184.09-.378.09-.584 0-.26-.04-.495-.123-.71a1.364 1.364 0 0 0-.39-.55 1.897 1.897 0 0 0-.68-.352 3.38 3.38 0 0 0-.99-.127h-1.768v6.604h.898V184.8h.426c.13 0 .25.013.355.04.11.027.208.072.297.135zm-1.074-.897v-2.183h.85c.4 0 .712.087.932.263.22.176.33.44.33.794 0 .18-.032.342-.098.48a.954.954 0 0 1-.278.355c-.12.097-.265.17-.435.22s-.36.07-.572.07h-.73z"/></svg>