<svg xmlns="http://www.w3.org/2000/svg" width="16" height="16" viewBox="0 0 500 500"><linearGradient id="a" gradientUnits="userSpaceOnUse" y1="163.895" x2="500" y2="163.895"><stop offset="0" stop-color="#edad3b"/><stop offset="1" stop-color="#dba049"/></linearGradient><path fill="url(#a)" d="M490.144 229.972l-46.39-35.492V77.867h-61.52v69.543l-116.97-89.493a25.12 25.12 0 0 0-30.527 0L9.857 229.972c-11.018 8.43-13.116 24.195-4.686 35.213 8.43 11.02 24.197 13.115 35.213 4.687L250 109.494 459.616 269.87a25.004 25.004 0 0 0 15.245 5.17c7.556 0 15.025-3.393 19.97-9.855 8.43-11.018 6.33-26.784-4.686-35.213z"/><linearGradient id="b" gradientUnits="userSpaceOnUse" x1="58.255" y1="298.384" x2="441.745" y2="298.384"><stop offset="0" stop-color="#b3b3b3"/><stop offset="1" stop-color="#999"/></linearGradient><path fill="url(#b)" d="M250 149.516L58.255 293.194v103.82c0 27.744 22.492 50.237 50.237 50.237h46.15V298.385h115.046v148.868h121.82c27.744 0 50.236-22.493 50.236-50.237v-103.82L250 149.515z"/></svg>