<?xml version="1.0" encoding="UTF-8"?>
<svg xmlns="http://www.w3.org/2000/svg" width="16" height="16" viewBox="0 0 500 500"><linearGradient id="a" gradientUnits="userSpaceOnUse" x1="78.338" y1="186.637" x2="421.663" y2="529.962"><stop offset="0" stop-color="#c9473d"/><stop offset="1" stop-color="#9e3939"/></linearGradient><path fill="url(#a)" d="M250 119.566L416.838 408.54H83.162L250 119.567m0-91.398c-12.533 0-25.066 8.235-34.575 24.703L8.115 411.947c-19.015 32.938-3.457 59.886 34.576 59.886H457.31c38.033 0 53.594-26.948 34.576-59.886L284.574 52.87C275.067 36.404 262.535 28.17 250 28.17z"/><g><path d="M286.27 379.75v71.156h-72.54V379.75h72.54zm-20.33-27.71h-32.807L215.58 209.72v-88.7h68.385v88.7L265.94 352.04z"/></g></svg>