<svg xmlns="http://www.w3.org/2000/svg" width="32" height="32" viewBox="0 0 16 16"><path fill="#FFF" d="M2.24 1.16h11.52v13.68H2.24V1.16z"/><linearGradient id="a" gradientUnits="userSpaceOnUse" x1="23521.502" y1="-34374.492" x2="23896.502" y2="-34749.492" gradientTransform="matrix(.036 0 0 -.036 -845.524 -1236.232)"><stop offset="0" stop-color="#ccc"/><stop offset="1" stop-color="#b3b3b3"/></linearGradient><path fill="url(#a)" d="M13.58 1.52v12.96H2.42V1.52h11.16M14.3.8H1.7v14.4h12.6V.8zm-1.8 2.808v-.72H3.572v.72H12.5zm0 1.908v-.72H3.572v.72H12.5zm0 1.908v-.72H3.572v.72H12.5zm0 1.908v-.721H3.572v.721H12.5zm0 1.908v-.72H3.572v.723l8.928-.003zm0 1.908v-.723H3.572v.723H12.5z"/><path opacity=".5" fill="#FFF" d="M6.094 11c-2.292 0-4.156-1.864-4.156-4.156s1.864-4.156 4.156-4.156 4.156 1.864 4.156 4.156S8.386 11 6.094 11z"/><linearGradient id="b" gradientUnits="userSpaceOnUse" x1="17.702" y1="-4.543" x2="24.09" y2="1.845" gradientTransform="matrix(.5512 .4827 -.6588 .7523 -.42 3.217)"><stop offset="0" stop-color="#323232"/><stop offset="1" stop-color="#141414"/></linearGradient><path fill="url(#b)" d="M15.176 15.248a1.004 1.004 0 0 1-1.411.093l-5.041-4.413a1.002 1.002 0 0 1-.093-1.411l.164-.188a1.005 1.005 0 0 1 1.411-.094l5.042 4.414c.413.361.455.997.093 1.41l-.165.189z"/><linearGradient id="c" gradientUnits="userSpaceOnUse" x1="2.801" y1="3.551" x2="9.386" y2="10.136"><stop offset="0" stop-color="#5e5e5e"/><stop offset="1" stop-color="#515151"/></linearGradient><path fill="url(#c)" d="M6.094 3.188A3.66 3.66 0 0 1 9.75 6.844c0 2.016-1.64 3.656-3.656 3.656S2.438 8.859 2.438 6.844a3.66 3.66 0 0 1 3.656-3.656m0-1a4.655 4.655 0 1 0 0 9.312 4.657 4.657 0 0 0 0-9.312z"/></svg>