<?xml version="1.0" encoding="UTF-8"?>
<svg xmlns="http://www.w3.org/2000/svg" width="14" height="16" viewBox="0 0 14 16"><linearGradient id="a" gradientUnits="userSpaceOnUse" x1="17520.352" y1="25988.156" x2="17693.043" y2="26160.848" gradientTransform="matrix(.032 0 0 .032 -561.216 -825.92)"><stop offset="0" stop-color="#74b739"/><stop offset="1" stop-color="#56991c"/></linearGradient><path opacity=".15" fill="url(#a)" d="M.336 4.8H4.06v7.328H.336V4.8z"/><linearGradient id="b" gradientUnits="userSpaceOnUse" x1="-18312.121" y1="25754.363" x2="-18589.404" y2="26031.646" gradientTransform="matrix(-.032 0 0 .032 -583.424 -825.92)"><stop offset="0" stop-color="#74b739"/><stop offset="1" stop-color="#56991c"/></linearGradient><path opacity=".35" fill="url(#b)" d="M.303.48h13.394v4.352H.303V.48z"/><linearGradient id="c" gradientUnits="userSpaceOnUse" x1="25226.141" y1="18204.863" x2="25419.852" y2="18398.574" gradientTransform="matrix(0 .032 .032 0 -578.656 -805.152)"><stop offset="0" stop-color="#b3b3b3"/><stop offset="1" stop-color="#999"/></linearGradient><path fill="url(#c)" d="M12.798 4.784v.8h-.815v-.8m-.981.8h-.816v-.8h.816v.8zm-1.797 0h-.816v-.8h.816v.8zm-1.797 0h-.816v-.8h.816v.8zm-1.796 0h-.817v-.8h.817v.8zm-1.797 0H3v-.8h.815v.8zm-1.796 0H1.2v-.8h.817v.8h.002z"/><linearGradient id="d" gradientUnits="userSpaceOnUse" x1="-18319.121" y1="26111.363" x2="-18582.404" y2="26374.646" gradientTransform="matrix(-.032 0 0 .032 -583.424 -825.92)"><stop offset="0" stop-color="#74b739"/><stop offset="1" stop-color="#56991c"/></linearGradient><path opacity=".35" fill="url(#d)" d="M.303 12.128h13.394v3.456H.303v-3.456z"/><linearGradient id="e" gradientUnits="userSpaceOnUse" x1="25430.141" y1="18204.867" x2="25623.865" y2="18398.592" gradientTransform="matrix(0 .032 .032 0 -578.656 -805.152)"><stop offset="0" stop-color="#b3b3b3"/><stop offset="1" stop-color="#999"/></linearGradient><path fill="url(#e)" d="M12.798 11.313v.801h-.815v-.801m-.981.798h-.816v-.799h.816v.801-.002zm-1.797 0h-.816v-.799h.816v.801-.002zm-1.797 0h-.816v-.799h.816v.801-.002zm-1.796 0h-.817v-.799h.817v.801-.002zm-1.797 0H3v-.799h.815v.801-.002zm-1.796 0H1.2v-.799h.817v.801l.002-.002z"/><linearGradient id="f" gradientUnits="userSpaceOnUse" x1="17638.049" y1="26033.383" x2="17718.295" y2="26113.629" gradientTransform="matrix(.032 0 0 .032 -561.216 -825.92)"><stop offset="0" stop-color="#b3b3b3"/><stop offset="1" stop-color="#999"/></linearGradient><path fill="url(#f)" d="M4.077 9.792h.816v.8h-.816v-.8zm0-.96h.816v-.8h-.816v.8zm0-1.76h.816v-.8h-.816v.8z"/><linearGradient id="g" gradientUnits="userSpaceOnUse" x1="-18216.379" y1="25825.629" x2="-18685.129" y2="26294.379" gradientTransform="matrix(-.032 0 0 .032 -583.424 -825.92)"><stop offset="0" stop-color="#b3b3b3"/><stop offset="1" stop-color="#999"/></linearGradient><path fill="url(#g)" d="M.817.8h12.367v14.4H.817V.8M0 0v16h14V0H0z"/></svg>