<svg xmlns="http://www.w3.org/2000/svg" xmlns:xlink="http://www.w3.org/1999/xlink" width="14" height="16"><defs><linearGradient id="b" x1="-24730.87" y1="-30075.23" x2="-25199.62" y2="-30543.98" gradientTransform="matrix(-.03 0 0 -.03 -791.89 -961.91)"><stop offset="0" stop-color="#b3b3b3"/><stop offset="1" stop-color="#999"/></linearGradient><linearGradient id="a" x1="23642.23" y1="-30240.9" x2="23807.7" y2="-30406.37" gradientTransform="matrix(.03 0 0 -.03 -756.75 -961.91)"><stop offset="0" stop-color="#74b739"/><stop offset="1" stop-color="#56991c"/></linearGradient><linearGradient id="c" x1="-24837.52" y1="-30019.12" x2="-25093.01" y2="-30274.6" gradientTransform="matrix(-.03 0 0 -.03 -791.89 -961.91)" xlink:href="#a"/><linearGradient id="d" x1="47732.11" y1="6566" x2="47925.83" y2="6372.28" gradientTransform="matrix(0 .03 .03 0 -785.67 -939.69)" xlink:href="#b"/><linearGradient id="e" x1="-24844.54" y1="-30365.66" x2="-25085.99" y2="-30607.12" gradientTransform="matrix(-.03 0 0 -.03 -791.89 -961.91)" xlink:href="#a"/><linearGradient id="f" x1="47936.13" y1="6566.01" x2="48129.82" y2="6372.32" gradientTransform="matrix(0 .03 .03 0 -785.67 -939.69)" xlink:href="#b"/><linearGradient id="g" x1="23748.53" y1="-30282.98" x2="23828.78" y2="-30363.23" gradientTransform="matrix(.03 0 0 -.03 -756.75 -961.91)" xlink:href="#b"/></defs><path fill="url(#b)" d="M0 0h14v16H0z"/><path fill="#fff" d="M.82.8h12.36v14.4H.82V.8"/><path d="M.82 4.78h3.26v7.33H.82z" style="isolation:isolate" opacity=".15" fill="url(#a)"/><path d="M.82.8h12.36v4H.82z" style="isolation:isolate" opacity=".35" fill="url(#c)"/><path d="M12.8 4.78v.8H12v-.8m-1 .8h-.82v-.8H11zm-1.8 0h-.81v-.8h.82zm-1.8 0h-.81v-.8h.82zm-1.8 0h-.8v-.8h.82zm-1.8 0H3v-.8h.82zm-1.8 0h-.8v-.8H2v.8z" fill="url(#d)"/><path d="M.82 12.11h12.36v3.09H.82z" style="isolation:isolate" opacity=".35" fill="url(#e)"/><path d="M12.8 11.31v.8H12v-.8m-1 .8h-.82v-.8H11v.8zm-1.8 0h-.81v-.8h.82v.8zm-1.8 0h-.81v-.8h.82v.8zm-1.8 0h-.8v-.8h.82v.8zm-1.8 0H3v-.8h.82v.8zm-1.8 0h-.8v-.8H2v.8z" fill="url(#f)"/><path d="M4.08 9.79h.82v.8h-.82zm0-1h.82V8h-.82zm0-1.76h.82v-.8h-.82z" fill="url(#g)"/></svg>