<svg xmlns="http://www.w3.org/2000/svg" width="14" height="16" viewBox="1 0 14 16"><linearGradient id="a" gradientUnits="userSpaceOnUse" x1="8767.484" y1="-12679.16" x2="8940.168" y2="-12851.844" gradientTransform="matrix(.032 0 0 -.032 -280.124 -400.032)"><stop offset="0" stop-color="#74b739"/><stop offset="1" stop-color="#56991c"/></linearGradient><path opacity=".15" fill="url(#a)" d="M1.336 4.8H5.06v7.328H1.336z"/><linearGradient id="b" gradientUnits="userSpaceOnUse" x1="-8961.241" y1="-12445.357" x2="-9238.523" y2="-12722.64" gradientTransform="rotate(180 -141.598 -200.016) scale(.032)"><stop offset="0" stop-color="#74b739"/><stop offset="1" stop-color="#56991c"/></linearGradient><path opacity=".35" fill="url(#b)" d="M1.303.48h13.394v4.352H1.303z"/><linearGradient id="c" gradientUnits="userSpaceOnUse" x1="12620.164" y1="-8749.041" x2="12813.852" y2="-8942.728" gradientTransform="rotate(90 63.346 -338.414) scale(.032)"><stop offset="0" stop-color="#b3b3b3"/><stop offset="1" stop-color="#999"/></linearGradient><path fill="url(#c)" d="M13.798 4.784v.8h-.816v-.8m-.98.8h-.816v-.8h.816v.8zm-1.797 0h-.817v-.8h.817v.8zm-1.797 0h-.816v-.8h.816v.8zm-1.796 0h-.817v-.8h.817v.8zm-1.797 0H4v-.8h.815v.8zm-1.796 0H2.2v-.8h.817v.8z"/><linearGradient id="d" gradientUnits="userSpaceOnUse" x1="-8968.241" y1="-12802.355" x2="-9231.524" y2="-13065.639" gradientTransform="rotate(180 -141.598 -200.016) scale(.032)"><stop offset="0" stop-color="#74b739"/><stop offset="1" stop-color="#56991c"/></linearGradient><path opacity=".35" fill="url(#d)" d="M1.303 12.128h13.394v3.456H1.303z"/><linearGradient id="e" gradientUnits="userSpaceOnUse" x1="12824.166" y1="-8749.049" x2="13017.839" y2="-8942.722" gradientTransform="rotate(90 63.346 -338.414) scale(.032)"><stop offset="0" stop-color="#b3b3b3"/><stop offset="1" stop-color="#999"/></linearGradient><path fill="url(#e)" d="M13.798 11.313v.8h-.816v-.8m-.98.798h-.816v-.798h.816v.8zm-1.797 0h-.817v-.798h.817v.8zm-1.797 0h-.816v-.798h.816v.8zm-1.796 0h-.817v-.798h.817v.8zm-1.797 0H4v-.798h.815v.8zm-1.796 0H2.2v-.798h.817v.8z"/><linearGradient id="f" gradientUnits="userSpaceOnUse" x1="8885.145" y1="-12724.365" x2="8965.398" y2="-12804.619" gradientTransform="matrix(.032 0 0 -.032 -280.124 -400.032)"><stop offset="0" stop-color="#b3b3b3"/><stop offset="1" stop-color="#999"/></linearGradient><path fill="url(#f)" d="M5.077 9.792h.816v.8h-.816v-.8zm0-.96h.816v-.8h-.816v.8zm0-1.76h.816v-.8h-.816v.8z"/><linearGradient id="g" gradientUnits="userSpaceOnUse" x1="-8865.5" y1="-12516.623" x2="-9334.25" y2="-12985.373" gradientTransform="rotate(180 -141.598 -200.016) scale(.032)"><stop offset="0" stop-color="#b3b3b3"/><stop offset="1" stop-color="#999"/></linearGradient><path fill="url(#g)" d="M1.817.8h12.366v14.4H1.817V.8M1 0v16h14V0H1z"/></svg>