<?xml version="1.0" encoding="UTF-8"?>
<svg xmlns="http://www.w3.org/2000/svg" width="24" height="24" viewBox="0 0 24 24"><linearGradient id="a" gradientUnits="userSpaceOnUse" x1="5783.151" y1="-8241.809" x2="5913.304" y2="-8371.961" gradientTransform="matrix(.048 0 0 -.048 -271.548 -389.376)"><stop offset="0" stop-color="#74b739"/><stop offset="1" stop-color="#56991c"/></linearGradient><path fill="url(#a)" d="M5.987 6.287h6.359v6.135H5.987V6.287z"/><linearGradient id="b" gradientUnits="userSpaceOnUse" x1="3.044" y1="3.044" x2="20.957" y2="20.957"><stop offset="0" stop-color="#ccc"/><stop offset="1" stop-color="#b3b3b3"/></linearGradient><path fill="url(#b)" d="M18.013 8.924h-4.892v-.879h4.892v.879zm0 .879h-4.892v.879h4.892v-.879zm0 1.758h-4.892v.879h4.892v-.879zm0-5.274h-4.892v.879h4.892v-.879zm0 7.031H5.987v.879h12.025v-.879zm0 3.516H5.987v.879h12.025v-.879zm0-1.758H5.987v.879h12.025v-.879zM19.402 3.4H4.597c-.66 0-1.197.537-1.197 1.197v14.806c0 .66.537 1.197 1.197 1.197h14.806c.66 0 1.197-.537 1.197-1.197V4.597c0-.66-.537-1.197-1.198-1.197m0-1c1.213 0 2.197.983 2.197 2.197v14.806a2.197 2.197 0 0 1-2.197 2.197H4.597A2.197 2.197 0 0 1 2.4 19.403V4.597c0-1.214.983-2.197 2.197-2.197h14.805z"/></svg>