<svg xmlns="http://www.w3.org/2000/svg" xmlns:xlink="http://www.w3.org/1999/xlink" width="28" height="28" viewBox="0 0 24 24"><defs><linearGradient id="a" x1="3.04" y1="20.6" x2="20.96" y2="2.68" gradientTransform="matrix(1 0 0 -1 0 23.64)"><stop offset="0" stop-color="#ccc"/><stop offset="1" stop-color="#b3b3b3"/></linearGradient><linearGradient id="b" x1="14.12" y1="9.93" x2="17.01" y2="7.04" xlink:href="#a"/><linearGradient id="c" x1="14.12" y1="11.69" x2="17.01" y2="8.8" xlink:href="#a"/><linearGradient id="d" x1="14.12" y1="13.44" x2="17.01" y2="10.56" xlink:href="#a"/><linearGradient id="e" x1="14.12" y1="8.17" x2="17.01" y2="5.28" xlink:href="#a"/><linearGradient id="f" x1="8.77" y1="16.98" x2="15.23" y2="10.53" xlink:href="#a"/><linearGradient id="g" x1="8.77" y1="20.5" x2="15.23" y2="14.05" xlink:href="#a"/><linearGradient id="h" x1="8.77" y1="18.74" x2="15.23" y2="12.29" xlink:href="#a"/><linearGradient id="i" x1="9690.31" y1="11256.62" x2="9820.46" y2="11386.76" gradientTransform="matrix(.05 0 0 .05 -459.09 -534.09)"><stop offset="0" stop-color="#74b739"/><stop offset="1" stop-color="#56991c"/></linearGradient></defs><path d="M19.4 2.4a2.2 2.2 0 012.2 2.2v14.8a2.2 2.2 0 01-2.2 2.2H4.6a2.2 2.2 0 01-2.2-2.2V4.6a2.2 2.2 0 012.2-2.2z" fill="url(#a)"/><path d="M19.4 3.4H4.6a1.2 1.2 0 00-1.2 1.2v14.8a1.2 1.2 0 001.2 1.2h14.8a1.2 1.2 0 001.2-1.2V4.6a1.2 1.2 0 00-1.2-1.2" fill="#fff"/><path fill="url(#b)" d="M13.12 8.04h4.89v.88h-4.89z"/><path fill="url(#c)" d="M13.12 9.8h4.89v.88h-4.89z"/><path fill="url(#d)" d="M13.12 11.56h4.89v.88h-4.89z"/><path fill="url(#e)" d="M13.12 6.29h4.89v.88h-4.89z"/><path fill="url(#f)" d="M18.01 13.32H5.99v.88h12.02v-.88z"/><path fill="url(#g)" d="M18.01 16.83H5.99v.88h12.02v-.88z"/><path fill="url(#h)" d="M18.01 15.08H5.99v.88h12.02v-.88z"/><path d="M6 6.29h6.36v6.14H6z" fill="url(#i)"/></svg>