<svg xmlns="http://www.w3.org/2000/svg" width="16" height="16" viewBox="0 0 500 500"><linearGradient id="a" gradientUnits="userSpaceOnUse" x1="49.364" y1="49.364" x2="379.637" y2="379.637"><stop offset="0" stop-color="#507ea5"/><stop offset="1" stop-color="#335f7f"/></linearGradient><path fill="url(#a)" d="M402.482 324.48c0 43.08-34.923 78.002-78 78.002H104.518c-43.08 0-78.002-34.923-78.002-78V104.518c0-43.08 34.922-78.002 78-78.002h219.964c43.078 0 78 34.922 78 78v219.963z"/><circle fill="#FFF" cx="214.5" cy="176.981" r="84.115"/><path fill="#FFF" d="M337.91 256.897c-8.492-6.324-25.64-2.657-38.108 8.15 0 0-42.327 36.688-85.302 36.688-42.974 0-85.3-36.688-85.3-36.688-12.47-10.808-29.618-14.475-38.11-8.15S61.876 296.44 61.876 312.94v23.638c0 16.5 13.5 30 30 30h245.248c16.5 0 30-13.5 30-30v-23.64c0-16.5-20.722-49.716-29.214-56.04z"/><g><path opacity=".5" d="M424 358h-62.383v-36.205c0-10.6 8.954-19.554 19.554-19.554H403v-30h-21.83c-27.254 0-49.553 22.3-49.553 49.555V358h-7.69c-5.564 0-10.075 4.51-10.075 10.074V449H424v-91z"/><linearGradient id="b" gradientUnits="userSpaceOnUse" x1="336.706" y1="265.266" x2="442.529" y2="371.089"><stop offset="0" stop-color="#999"/><stop offset="1" stop-color="#666"/></linearGradient><path fill="url(#b)" d="M344.617 349v-41.205c0-10.6 8.954-19.554 19.554-19.554h50.894c10.6 0 19.554 8.955 19.554 19.555V349h30v-41.205c0-27.255-22.3-49.554-49.554-49.554H364.17c-27.254 0-49.553 22.3-49.553 49.555V349h30z"/><linearGradient id="c" gradientUnits="userSpaceOnUse" x1="312.185" y1="334.568" x2="467.05" y2="489.433"><stop offset="0" stop-color="#ffad00"/><stop offset="1" stop-color="#d68900"/></linearGradient><path fill="url(#c)" d="M482.383 469.926c0 5.563-4.51 10.074-10.074 10.074H306.925c-5.563 0-10.074-4.51-10.074-10.074V354.074c0-5.563 4.51-10.074 10.074-10.074H472.31c5.562 0 10.073 4.51 10.073 10.074v115.852z"/></g></svg>