<svg xmlns="http://www.w3.org/2000/svg" width="18" height="18" viewBox="0 0 16 16"><path fill="#FFF" d="M13.12 4.96v9.12H2.88V1.92h7.296l2.944 3.04z"/><path fill="#FFF" d="M13.12 4.96v9.12H2.88V1.92h7.296l2.944 3.04z"/><linearGradient id="a" x1="18272.42" y1="26013.906" x2="18427.094" y2="26168.58" gradientTransform="matrix(.032 0 0 .032 -579.192 -825.92)"><stop offset="0" stop-color="#c9473d"/><stop offset="1" stop-color="#9e3939"/></linearGradient><circle fill="url(#a)" cx="8" cy="9" r="3.5"/><g fill="#FFF"><path d="M8.914 7.357l-.101-.052v.811l.024.021a1.33 1.33 0 11-2.168 1.032c0-.395.184-.781.493-1.032l.026-.021v-.811l-.102.052a2.049 2.049 0 00-1.117 1.812c0 1.12.911 2.03 2.031 2.03 1.119 0 2.03-.91 2.03-2.03a2.05 2.05 0 00-1.116-1.812z"/><path d="M7.65 6.674h.7v2.169h-.7V6.674z"/></g><path fill="#FFF" d="M9.984 2.08l.256 3.2 2.88-.32-3.136-2.88z"/><linearGradient id="b" x1="9086.826" y1="-12975.065" x2="9461.826" y2="-13350.065" gradientTransform="matrix(.032 0 0 -.032 -289.596 -412.384)"><stop offset="0" stop-color="#ccc"/><stop offset="1" stop-color="#b3b3b3"/></linearGradient><path fill="url(#b)" d="M10.323 1.595L2.4 1.6v12.8h11.2V4.896l-3.277-3.301zm2.387 3.301h-2.374l-.01-2.391 2.384 2.391zm.25 8.864H3.04V2.24H9.6v3.424h3.36v8.096z"/></svg>