<svg xmlns="http://www.w3.org/2000/svg" width="18" height="18" viewBox="0 0 16 16"><path fill="#FFF" d="M13.12 4.96v9.12H2.88V1.92h7.296l2.944 3.04z"/><path fill="#FFF" d="M13.12 4.96v9.12H2.88V1.92h7.296l2.944 3.04z"/><path fill="#FFF" d="M9.984 2.08l.256 3.2 2.88-.32-3.136-2.88z"/><linearGradient id="a" x1="18136.691" y1="25898.059" x2="18511.69" y2="26273.057" gradientTransform="matrix(.032 0 0 .032 -579.192 -825.92)"><stop offset="0" stop-color="#ccc"/><stop offset="1" stop-color="#b3b3b3"/></linearGradient><path fill="url(#a)" d="M10.323 1.595L2.4 1.6v12.8h11.2V4.896l-3.277-3.301zm2.387 3.301h-2.374l-.01-2.391 2.384 2.391zm.25 8.864H3.04V2.24H9.6v3.424h3.36v8.096z"/><linearGradient id="b" x1="45422.078" y1="-64710.906" x2="45576.77" y2="-64865.598" gradientTransform="matrix(.032 0 0 -.032 -1447.981 -2064.224)"><stop offset="0" stop-color="#c9473d"/><stop offset="1" stop-color="#9e3939"/></linearGradient><circle fill="url(#b)" cx="8" cy="9" r="3.5"/><g fill="#FFF"><path d="M8.914 7.357l-.101-.052v.811l.024.021c.309.251.493.636.493 1.032 0 .735-.6 1.331-1.331 1.331s-1.33-.598-1.33-1.331c0-.396.184-.782.493-1.032l.026-.021v-.811l-.102.052a2.049 2.049 0 00-1.117 1.812 2.031 2.031 0 004.06 0c0-.758-.438-1.469-1.115-1.812z"/><path d="M7.65 6.674h.7v2.169h-.7V6.674z"/></g><linearGradient id="c" x1="54605.762" y1="77681.086" x2="54711.547" y2="77786.867" gradientTransform="matrix(.032 0 0 .032 -1736.609 -2476.727)"><stop offset="0" stop-color="#999"/><stop offset="1" stop-color="#666"/></linearGradient><path fill="url(#c)" d="M11.027 11.745v-1.318c0-.34.287-.625.625-.625h1.63c.339 0 .626.285.626.625v1.318h.959v-1.318a1.59 1.59 0 00-1.585-1.584h-1.63a1.59 1.59 0 00-1.584 1.584v1.318h.959z"/><linearGradient id="d" x1="54581.23" y1="77750.313" x2="54736.078" y2="77905.156" gradientTransform="matrix(.032 0 0 .032 -1736.609 -2476.727)"><stop offset="0" stop-color="#ffad00"/><stop offset="1" stop-color="#d68900"/></linearGradient><path fill="url(#d)" d="M15.436 15.614a.32.32 0 01-.317.321H9.823a.323.323 0 01-.323-.321v-3.707c0-.179.145-.322.323-.322h5.291c.179 0 .321.146.321.322v3.707h.001z"/></svg>