<svg xmlns="http://www.w3.org/2000/svg" width="16" height="16" viewBox="0 0 500 500"><linearGradient id="a" gradientUnits="userSpaceOnUse" x1="73.224" y1="73.224" x2="426.777" y2="426.777"><stop offset="0" stop-color="#c9473d"/><stop offset="1" stop-color="#9e3939"/></linearGradient><circle fill="url(#a)" cx="250" cy="250" r="250"/><g fill="#FFF"><path d="M315.283 132.587l-7.26-3.673v57.972l1.843 1.502c22.022 17.925 35.17 45.497 35.17 73.75 0 52.4-42.633 95.035-95.035 95.035-52.402 0-95.034-42.634-95.034-95.035 0-28.253 13.147-55.825 35.17-73.75l1.843-1.502v-57.972l-7.26 3.673c-48.46 24.518-79.773 75.37-79.773 129.55 0 79.983 65.07 145.054 145.054 145.054 79.982 0 145.053-65.07 145.053-145.052 0-54.18-31.31-105.033-79.77-129.55z"/><path d="M224.992 83.89h50.02V238.8h-50.02z"/></g></svg>