<svg xmlns="http://www.w3.org/2000/svg" width="18" height="18" viewBox="0 0 16 16"><path fill="#FFF" d="M13.76 4.58v10.26H2.24V1.16h8.208l3.312 3.42z"/><path fill="#F9FAFA" d="M13.76 4.58v10.26H2.24V1.16h8.208l3.312 3.42z"/><linearGradient id="a" gradientUnits="userSpaceOnUse" x1="18261.371" y1="26002.856" x2="18438.143" y2="26179.627" gradientTransform="matrix(.032 0 0 .032 -579.192 -825.92)"><stop offset="0" stop-color="#c9473d"/><stop offset="1" stop-color="#9e3939"/></linearGradient><circle fill="url(#a)" cx="8" cy="9" r="4"/><g fill="#FFF"><path d="M9.045 7.122l-.115-.059v.927l.028.024c.353.287.563.728.563 1.179 0 .84-.684 1.521-1.521 1.521s-1.521-.682-1.521-1.521c0-.451.21-.893.563-1.179l.03-.024v-.927l-.116.059a2.34 2.34 0 0 0-1.277 2.071A2.323 2.323 0 0 0 8 11.513a2.323 2.323 0 0 0 2.32-2.32c0-.866-.502-1.679-1.275-2.071z"/><path d="M7.6 6.342h.8V8.82h-.8V6.342z"/></g><path fill="#FFF" d="M10.232 1.339l.287 3.6 3.238-.36-3.525-3.24z"/><linearGradient id="b" gradientUnits="userSpaceOnUse" x1="24114.746" y1="-34426.828" x2="24489.744" y2="-34801.828" gradientTransform="matrix(.036 0 0 -.036 -867.8 -1237.196)"><stop offset="0" stop-color="#ccc"/><stop offset="1" stop-color="#b3b3b3"/></linearGradient><path fill="url(#b)" d="M10.613.793L1.7.799v14.4h12.6V4.507L10.613.793zm2.686 3.714h-2.671l-.011-2.689 2.682 2.689zm.281 9.973H2.42V1.52H9.8v3.852h3.78v9.108z"/><linearGradient id="c" gradientUnits="userSpaceOnUse" x1="576.781" y1="834.052" x2="581.864" y2="838.573" gradientTransform="translate(-575.32 -823.92)"><stop offset="0" stop-color="#636363"/><stop offset="1" stop-color="#2e2e2e"/></linearGradient><path fill="url(#c)" d="M8 12.391c0 1.406-1.791 2.547-4 2.547-.1 0-.197-.006-.295-.01l2.393-3.443c.123.279.2.582.2.906 0 .545-.198 1.041-.517 1.436.848-.311 1.405-.836 1.405-1.436 0-.465-.34-.885-.888-1.195l.452-.65c.77.462 1.25 1.116 1.25 1.845zm-7.148 0c0-.584.534-1.1 1.348-1.412a2.28 2.28 0 0 0-.497 1.412c0 .324.077.627.2.904l2.393-3.441A4.85 4.85 0 0 0 4 9.844c-2.209 0-4 1.139-4 2.547 0 .729.481 1.383 1.25 1.846l.463-.668c-.531-.309-.861-.721-.861-1.178zM6.56 9.15l-.417-.289a.45.45 0 0 0-.629.113l-.646.93-1.416 2.039-1.663 2.395-.093.133-.368.529a.451.451 0 0 0 .113.629l.417.291c.078.055.167.08.257.08a.448.448 0 0 0 .371-.193L6.674 9.78a.454.454 0 0 0-.114-.63z"/></svg>