<svg xmlns="http://www.w3.org/2000/svg" xmlns:xlink="http://www.w3.org/1999/xlink" width="33" height="30" viewBox="0 1.5 33 30"><path fill="#85C65D" d="M32.33 4.905c0-1.23-.998-2.23-2.228-2.23H2.898c-1.23 0-2.23 1-2.23 2.23v23.19c0 1.23 1 2.228 2.23 2.228H30.1a2.23 2.23 0 0 0 2.23-2.23V4.906z"/><path fill="#FFF" d="M30.102 2.007H2.898A2.9 2.9 0 0 0 0 4.905v23.19a2.9 2.9 0 0 0 2.898 2.897H30.1a2.9 2.9 0 0 0 2.9-2.898V4.904A2.9 2.9 0 0 0 30.1 2.008zM1.338 28.095V4.905c0-.86.7-1.56 1.56-1.56h2.766a14.48 14.48 0 0 0-.976 1.313c-2.813 4.334-1.658 9.064-.573 14.166.872 4.1 1.615 7.996 4.125 10.83H2.898c-.86 0-1.56-.7-1.56-1.56zm30.324 0c0 .86-.7 1.56-1.56 1.56h-2.396c2.332-2.37 3.65-5.753 3.454-10.107l-8.48 1.805c-.12 2.017-.804 3.956-3.567 4.54-1.525.326-2.8-.05-3.59-.728-.976-.838-1.754-1.92-3.07-8.114-1.317-6.193-1.045-7.495-.495-8.658.446-.942 1.458-1.805 2.983-2.128 2.764-.588 4.177.906 5.107 2.7l8.48-1.803a16.058 16.058 0 0 0-2.105-3.814h3.68c.86 0 1.56.7 1.56 1.56v23.19z"/><g opacity=".3"><defs><path id="a" d="M1.338 2.007H33v13.5H1.338z"/></defs><clipPath id="b"><use xlink:href="#a" overflow="visible"/></clipPath><path clip-path="url(#b)" fill="#FFF" d="M30.77 2.007H3.567c-1.23 0-2.23 1-2.23 2.23v9.414c4.095 1.177 8.93 1.858 14.116 1.858 8.01 0 13.62-.544 17.547-1.5V4.236a2.23 2.23 0 0 0-2.23-2.23"/></g></svg>