<svg width="32" height="32" viewBox="0 0 91 91" xmlns="http://www.w3.org/2000/svg"><g><path d="M85 75.764C85 80.294 81.364 84 76.92 84H16.08C11.637 84 8 80.294 8 75.764V16.237C8 11.707 11.637 8 16.082 8H76.92C81.363 8 85 11.707 85 16.237v59.527" fill="#FFF"/><path d="M59.07 8H29.91c-5.31 2.52-9.296 6.302-12.483 11.31-4.24 6.66-4.622 13.72-3.68 21.154l-.025-.252c.482 3.925 1.338 7.954 2.2 12.086.055.26.11.52.163.782 2.533 12.15 4.564 23.58 14.69 30.292.326.216.656.42.985.622h-.012a.023.023 0 0 0 .01.006h32.828a.023.023 0 0 0 .01-.006h-.026c9.15-5.154 14.92-14.516 14.723-27.85l.03-.006c-.006-.44-.02-.884-.04-1.333l-19.82 4.3c-.277 4.805-1.873 9.43-8.333 10.825-.888.194-1.74.283-2.548.283-2.43 0-4.456-.81-5.844-2.022-2.278-1.995-4.095-4.572-7.168-19.336-3.068-14.717-2.448-17.852-1.173-20.616l.003-.004c0-.003 0-.006.003-.007v-.002c0-.003.003-.004.004-.007 0-.003.003-.006.004-.01 1.047-2.244 3.41-4.302 6.973-5.073.974-.21 1.875-.31 2.712-.31 4.713 0 7.372 3.115 9.215 6.745l19.437-4.214.38-.082C69.91 16.902 65.035 11.26 59.072 8" fill="#F58426"/></g></svg>