<?xml version="1.0" encoding="UTF-8"?>
<svg xmlns="http://www.w3.org/2000/svg" width="18" height="18" viewBox="0 0 16 16"><path fill="#FFF" d="M13.12 4.96v9.12H2.88V1.92h7.296l2.944 3.04z"/><path fill="#FFF" d="M13.12 4.96v9.12H2.88V1.92h7.296l2.944 3.04z"/><linearGradient id="a" gradientUnits="userSpaceOnUse" x1="27324.305" y1="-38902.914" x2="27478.99" y2="-39057.598" gradientTransform="matrix(.032 0 0 -.032 -868.853 -1238.368)"><stop offset="0" stop-color="#ccc"/><stop offset="1" stop-color="#b3b3b3"/></linearGradient><circle fill="url(#a)" cx="8" cy="9" r="3.5"/><g fill="#FFF"><path d="M8.914 7.357l-.101-.052v.811l.024.021a1.332 1.332 0 1 1-2.168 1.032c0-.396.184-.781.493-1.032l.026-.021v-.811l-.102.052a2.049 2.049 0 0 0-1.117 1.812 2.031 2.031 0 0 0 4.06 0c0-.758-.438-1.469-1.115-1.812z"/><path d="M7.65 6.674h.7v2.169h-.7V6.674z"/></g><path fill="#FFF" d="M9.984 2.08l.256 3.2 2.88-.32-3.136-2.88z"/><linearGradient id="b" gradientUnits="userSpaceOnUse" x1="18138.697" y1="25896.055" x2="18513.695" y2="26271.053" gradientTransform="matrix(.032 0 0 .032 -579.256 -825.856)"><stop offset="0" stop-color="#ccc"/><stop offset="1" stop-color="#b3b3b3"/></linearGradient><path fill="url(#b)" d="M10.323 1.595L2.4 1.6v12.8h11.2V4.896l-3.277-3.301zm2.387 3.301h-2.374l-.01-2.391 2.384 2.391zm.25 8.864H3.04V2.24H9.6v3.424h3.36v8.096z"/><linearGradient id="c" gradientUnits="userSpaceOnUse" x1="289.286" y1="-404.974" x2="294.037" y2="-409.725" gradientTransform="matrix(1 0 0 -1 -287.66 -394.96)"><stop offset="0" stop-color="#636363"/><stop offset="1" stop-color="#2e2e2e"/></linearGradient><path fill="url(#c)" d="M6.309 10.305l.365-.525a.455.455 0 0 0-.113-.63l-.418-.289a.45.45 0 0 0-.629.113l-.639.92A6.207 6.207 0 0 0 4 9.828c-2.209 0-4 1.146-4 2.563 0 .863.671 1.623 1.691 2.088l-.363.522a.45.45 0 0 0 .113.628l.417.291c.078.055.167.08.257.08a.448.448 0 0 0 .371-.193l.639-.918c.283.039.574.064.875.064 2.209 0 4-1.146 4-2.563 0-.863-.671-1.62-1.691-2.085zM.85 12.391c0-.623.771-1.298 1.971-1.576a1.987 1.987 0 0 0-.479 2.726l-.161.23c-.827-.333-1.331-.875-1.331-1.38zm4.427 1.558c.439-.367.723-.911.723-1.527 0-.428-.137-.82-.365-1.146l.185-.266c.829.336 1.331.876 1.331 1.381-.001.606-.728 1.265-1.874 1.558z"/></svg>