<?xml version="1.0" encoding="UTF-8"?>
<svg xmlns="http://www.w3.org/2000/svg" width="18" height="18" viewBox="0 0 16 16"><path fill="#FFF" d="M13.12 4.96v9.12H2.88V1.92h7.296l2.944 3.04z"/><path fill="#FFF" d="M13.12 4.96v9.12H2.88V1.92h7.296l2.944 3.04z"/><path fill="#FFF" d="M9.984 2.08l.256 3.2 2.88-.32-3.136-2.88z"/><linearGradient id="a" gradientUnits="userSpaceOnUse" x1="27188.582" y1="-38787.07" x2="27563.58" y2="-39162.07" gradientTransform="matrix(.032 0 0 -.032 -868.853 -1238.368)"><stop offset="0" stop-color="#ccc"/><stop offset="1" stop-color="#b3b3b3"/></linearGradient><path fill="url(#a)" d="M10.323 1.595L2.4 1.6v12.8h11.2V4.896l-3.277-3.301zm2.387 3.301h-2.374l-.01-2.391 2.384 2.391zm.25 8.864H3.04V2.24H9.6v3.424h3.36v8.096z"/><linearGradient id="b" gradientUnits="userSpaceOnUse" x1="54473.949" y1="77631.891" x2="54628.641" y2="77786.578" gradientTransform="matrix(.032 0 0 .032 -1737.641 -2477.695)"><stop offset="0" stop-color="#c9473d"/><stop offset="1" stop-color="#9e3939"/></linearGradient><circle fill="url(#b)" cx="8" cy="9" r="3.5"/><g fill="#FFF"><path d="M8.914 7.357l-.101-.052v.811l.024.021c.309.251.493.636.493 1.032 0 .735-.6 1.331-1.331 1.331s-1.33-.598-1.33-1.331c0-.396.184-.782.493-1.032l.026-.021v-.811l-.102.052a2.049 2.049 0 0 0-1.117 1.812 2.031 2.031 0 0 0 4.06 0c0-.758-.438-1.469-1.115-1.812z"/><path d="M7.65 6.674h.7v2.169h-.7V6.674z"/></g><linearGradient id="c" gradientUnits="userSpaceOnUse" x1="54607.758" y1="77679.07" x2="54713.543" y2="77784.852" gradientTransform="matrix(.032 0 0 .032 -1736.673 -2476.663)"><stop offset="0" stop-color="#999"/><stop offset="1" stop-color="#666"/></linearGradient><path fill="url(#c)" d="M11.027 11.745v-1.318c0-.34.287-.625.625-.625h1.63c.339 0 .626.285.626.625v1.318h.959v-1.318a1.59 1.59 0 0 0-1.585-1.584h-1.63a1.59 1.59 0 0 0-1.584 1.584v1.318h.959z"/><linearGradient id="d" gradientUnits="userSpaceOnUse" x1="54583.238" y1="77748.305" x2="54738.086" y2="77903.148" gradientTransform="matrix(.032 0 0 .032 -1736.673 -2476.663)"><stop offset="0" stop-color="#ffad00"/><stop offset="1" stop-color="#d68900"/></linearGradient><path fill="url(#d)" d="M15.436 15.614a.32.32 0 0 1-.317.321H9.823a.323.323 0 0 1-.323-.321v-3.707c0-.179.145-.322.323-.322h5.291c.179 0 .321.146.321.322v3.707h.001z"/><linearGradient id="e" gradientUnits="userSpaceOnUse" x1="289.286" y1="-404.974" x2="294.037" y2="-409.725" gradientTransform="matrix(1 0 0 -1 -287.66 -394.96)"><stop offset="0" stop-color="#636363"/><stop offset="1" stop-color="#2e2e2e"/></linearGradient><path fill="url(#e)" d="M6.309 10.305l.365-.525a.455.455 0 0 0-.113-.63l-.418-.289a.45.45 0 0 0-.629.113l-.639.92A6.207 6.207 0 0 0 4 9.828c-2.209 0-4 1.146-4 2.563 0 .863.671 1.623 1.691 2.088l-.363.522a.45.45 0 0 0 .113.628l.417.291c.078.055.167.08.257.08a.448.448 0 0 0 .371-.193l.639-.918c.283.039.574.064.875.064 2.209 0 4-1.146 4-2.563 0-.863-.671-1.62-1.691-2.085zM.85 12.391c0-.623.771-1.298 1.971-1.576a1.987 1.987 0 0 0-.479 2.726l-.161.23c-.827-.333-1.331-.875-1.331-1.38zm4.427 1.558c.439-.367.723-.911.723-1.527 0-.428-.137-.82-.365-1.146l.185-.266c.829.336 1.331.876 1.331 1.381-.001.606-.728 1.265-1.874 1.558z"/></svg>