<svg xmlns="http://www.w3.org/2000/svg" width="18" height="18" viewBox="0 0 16 16"><path fill="#FFF" d="M13.76 4.58v10.26H2.24V1.16h8.208l3.312 3.42z"/><path fill="#F9FAFA" d="M13.76 4.58v10.26H2.24V1.16h8.208l3.312 3.42z"/><linearGradient id="a" gradientUnits="userSpaceOnUse" x1="9211.5" y1="-13079.856" x2="9388.278" y2="-13256.635" gradientTransform="matrix(.032 0 0 -.032 -289.596 -412.384)"><stop offset="0" stop-color="#ccc"/><stop offset="1" stop-color="#b3b3b3"/></linearGradient><circle fill="url(#a)" cx="8" cy="9" r="4"/><g fill="#FFF"><path d="M9.045 7.122l-.116-.059v.927l.029.024c.353.287.563.728.563 1.18 0 .839-.683 1.521-1.521 1.521a1.523 1.523 0 0 1-1.521-1.521c0-.452.21-.893.563-1.18l.03-.024v-.927l-.116.059a2.34 2.34 0 0 0-1.277 2.072A2.323 2.323 0 0 0 8 11.514a2.324 2.324 0 0 0 2.321-2.32c0-.867-.502-1.68-1.276-2.072z"/><path d="M7.6 6.342h.8V8.82h-.8V6.342z"/></g><path fill="#FFF" d="M10.232 1.339l.287 3.6 3.239-.36-3.526-3.24z"/><linearGradient id="b" gradientUnits="userSpaceOnUse" x1="16070.629" y1="22973.727" x2="16445.621" y2="23348.719" gradientTransform="matrix(.036 0 0 .036 -578.212 -824.884)"><stop offset="0" stop-color="#ccc"/><stop offset="1" stop-color="#b3b3b3"/></linearGradient><path fill="url(#b)" d="M10.613.793L1.7.799v14.4h12.6V4.507L10.613.793zm2.686 3.714h-2.671l-.011-2.689 2.682 2.689zm.281 9.973H2.42V1.52H9.8v3.852h3.78v9.108z"/></svg>