<svg xmlns="http://www.w3.org/2000/svg" width="18" height="18" viewBox="0 0 16 16"><path fill="#FFF" d="M13.76 4.58v10.26H2.24V1.16h8.208l3.312 3.42z"/><path fill="#F9FAFA" d="M13.76 4.58v10.26H2.24V1.16h8.208l3.312 3.42z"/><linearGradient id="a" gradientUnits="userSpaceOnUse" x1="18261.371" y1="26002.856" x2="18438.143" y2="26179.627" gradientTransform="matrix(.032 0 0 .032 -579.192 -825.92)"><stop offset="0" stop-color="#c9473d"/><stop offset="1" stop-color="#9e3939"/></linearGradient><circle fill="url(#a)" cx="8" cy="9" r="4"/><g fill="#FFF"><path d="M9.045 7.122l-.115-.059v.927l.028.024c.353.287.563.728.563 1.179 0 .84-.684 1.521-1.521 1.521s-1.521-.682-1.521-1.521c0-.451.21-.893.563-1.179l.03-.024v-.927l-.116.059a2.34 2.34 0 0 0-1.277 2.071A2.323 2.323 0 0 0 8 11.513a2.323 2.323 0 0 0 2.32-2.32c0-.866-.502-1.679-1.275-2.071z"/><path d="M7.6 6.342h.8V8.82h-.8V6.342z"/></g><path fill="#FFF" d="M10.232 1.339l.287 3.6 3.238-.36-3.525-3.24z"/><linearGradient id="b" gradientUnits="userSpaceOnUse" x1="24114.746" y1="-34426.828" x2="24489.744" y2="-34801.828" gradientTransform="matrix(.036 0 0 -.036 -867.8 -1237.196)"><stop offset="0" stop-color="#ccc"/><stop offset="1" stop-color="#b3b3b3"/></linearGradient><path fill="url(#b)" d="M10.613.793L1.7.799v14.4h12.6V4.507L10.613.793zm2.686 3.714h-2.671l-.011-2.689 2.682 2.689zm.281 9.973H2.42V1.52H9.8v3.852h3.78v9.108z"/><g><path opacity=".5" d="M13.568 11.455h-1.996v-1.158c0-.34.285-.625.625-.625h1.371v-.961h-1.371c-.872 0-1.586.715-1.586 1.586v1.158h-.246a.322.322 0 0 0-.322.322v2.59h3.525v-2.912z"/><linearGradient id="c" gradientUnits="userSpaceOnUse" x1="18406.225" y1="26043.019" x2="18512.033" y2="26148.828" gradientTransform="matrix(.032 0 0 .032 -578.224 -824.888)"><stop offset="0" stop-color="#999"/><stop offset="1" stop-color="#666"/></linearGradient><path fill="url(#c)" d="M11.027 11.168V9.85c0-.34.287-.625.625-.625h1.63c.339 0 .626.285.626.625v1.318h.959V9.85a1.59 1.59 0 0 0-1.585-1.586h-1.63a1.59 1.59 0 0 0-1.584 1.586v1.318h.959z"/><linearGradient id="d" gradientUnits="userSpaceOnUse" x1="18381.725" y1="26112.316" x2="18536.563" y2="26267.154" gradientTransform="matrix(.032 0 0 .032 -578.224 -824.888)"><stop offset="0" stop-color="#ffad00"/><stop offset="1" stop-color="#d68900"/></linearGradient><path fill="url(#d)" d="M15.436 15.037a.322.322 0 0 1-.321.322H9.823a.323.323 0 0 1-.323-.322V11.33c0-.178.145-.322.323-.322h5.291a.32.32 0 0 1 .321.322v3.707z"/></g></svg>