<svg xmlns="http://www.w3.org/2000/svg" width="14" height="14" viewBox="0 0 24 24"><path fill="#fff" d="M11.2 3.3c-.9 0-1.8.1-2.6.4 0 0-.6.2-.8 0-.2-.2-.4-.5-.3-.8 0-.3.2-.5.5-.6.3-.2.6-.3 1-.3.8-.2 1.6-.3 2.5-.3.8 0 1.7.1 2.5.4.6.2 1.1.6 1.6 1.1.4.4.7.9.8 1.4.2.5.2.9.2 1.4 0 .6-.1 1.2-.4 1.8-.2.5-.6 1-.9 1.4-.4.5-.8.9-1.2 1.3-.4.4-.8.8-1.2 1.3-.4.4-.7.9-.9 1.4-.2.5-.4 1.1-.4 1.7v.3c0 .1-.1.3-.2.4-.1.1-.2.1-.4.1h-.3c-.2 0-.3-.1-.4-.2-.1-.1-.2-.2-.2-.4v-.8c0-.6.1-1.2.3-1.7.2-.5.5-1 .8-1.4.3-.4.7-.8 1.1-1.2.4-.4.7-.8 1.1-1.2.3-.4.6-.8.8-1.3.2-.5.3-1 .3-1.5 0-.4-.1-.9-.3-1.3-.2-.3-.4-.6-.7-.8-.3-.2-.7-.4-1.1-.4-.3-.2-.7-.2-1.2-.2zm1.3 16.8c0 .4-.1.8-.4 1.1-.3.3-.7.5-1.1.4-.4 0-.8-.1-1.1-.4-.3-.3-.4-.7-.4-1.1 0-.4.1-.8.4-1.1.3-.3.7-.5 1.1-.4.4 0 .8.1 1.1.4.3.3.4.7.4 1.1z"/></svg>