<svg xmlns="http://www.w3.org/2000/svg" width="20" height="20" fill="#fff" viewBox="0 0 24 24" xml:space="preserve"><path fill="none" d="M6.5 4.3H26V21H6.5z"/><path d="M14.1 8.9c0-1.5-1-2.3-3-2.3-1.1 0-2 .2-2.7.7-.1.1-.3.2-.5.2s-.4-.1-.5-.2c-.2-.2-.3-.4-.3-.6 0-.3.2-.6.5-.8 1.1-.7 2.3-1 3.7-1 1.4 0 2.6.4 3.4 1.1.9.7 1.3 1.6 1.3 2.8 0 1.3-.7 2.4-2 3.3-.8.6-1.3 1.1-1.7 1.7-.2.3-.3.7-.3 1 0 .3-.1.6-.3.7-.2.2-.4.2-.7.2s-.5-.1-.6-.2c-.2-.2-.3-.4-.3-.6 0-1.4.7-2.6 2-3.6.8-.7 1.4-1.2 1.6-1.5.3-.2.4-.5.4-.9zm-4.2 9.7c0-.3.1-.6.4-.9.2-.2.5-.4.9-.4.3 0 .6.1.9.4.2.2.4.5.4.9 0 .3-.1.6-.4.9-.2.2-.5.4-.9.4-.3 0-.6-.1-.9-.4-.3-.3-.4-.6-.4-.9z"/></svg>