<?xml version="1.0" encoding="UTF-8"?>
<svg xmlns="http://www.w3.org/2000/svg" width="16" height="16" viewBox="0 0 500 500"><linearGradient id="a" gradientUnits="userSpaceOnUse" x1="75.307" y1="75.307" x2="426.694" y2="426.694"><stop offset="0" stop-color="#CCC"/><stop offset="1" stop-color="#b3b3b3"/></linearGradient><path fill="url(#a)" d="M451 368.013C451 413.845 413.845 451 368.013 451H133.988C88.154 451 51 413.845 51 368.013V133.988C51 88.154 88.154 51 133.988 51h234.025C413.845 51 451 88.154 451 133.988v234.025z"/><circle fill="#FFF" cx="251" cy="211.083" r="89.492"/><path fill="#FFF" d="M382.3 296.107c-9.035-6.73-26.628-3.392-39.096 7.416 0 0-46.482 40.29-92.204 40.29-45.72 0-92.204-40.29-92.204-40.29-12.468-10.808-30.06-14.145-39.096-7.416-9.035 6.73-31.082 41.207-31.082 57.707V382.8c0 16.5 13.5 30 30 30H383.38c16.5 0 30-13.5 30-30v-28.986c0-16.5-22.045-50.977-31.08-57.707z"/><linearGradient id="b" gradientUnits="userSpaceOnUse" x1="329.954" y1="332.341" x2="405.579" y2="407.966"><stop offset="0" stop-color="#74b739"/><stop offset="1" stop-color="#56991c"/></linearGradient><circle fill="url(#b)" cx="367.766" cy="370.152" r="53.475"/></svg>