<?xml version="1.0" encoding="UTF-8"?>
<svg xmlns="http://www.w3.org/2000/svg" width="16" height="16" viewBox="0 0 500 500"><linearGradient id="a" gradientUnits="userSpaceOnUse" x1="75.307" y1="75.307" x2="426.694" y2="426.694"><stop offset="0" stop-color="#74b739"/><stop offset="1" stop-color="#56991c"/></linearGradient><path fill="url(#a)" d="M451 368.013C451 413.845 413.845 451 368.013 451H133.988C88.154 451 51 413.845 51 368.013V133.988C51 88.154 88.154 51 133.988 51h234.025C413.845 51 451 88.154 451 133.988v234.025z"/><path fill="#FFF" d="M286.7 338.868a171.864 171.864 0 0 1 31.093 19.503v43.452h-212.56v-43.45a171.9 171.9 0 0 1 31.093-19.504c18.365 20.877 45.262 34.075 75.187 34.075s56.82-13.198 75.186-34.075zm-75.187 9.986c27.766 0 51.85-15.704 63.898-38.706.19-.356.37-.715.552-1.074.363-.728.717-1.46 1.058-2.2.215-.468.432-.936.638-1.41a76.604 76.604 0 0 0 2.483-6.586c.135-.416.268-.835.397-1.257a77.26 77.26 0 0 0 .733-2.586c.084-.317.157-.638.235-.956.18-.72.347-1.445.502-2.174.07-.324.14-.647.206-.973.19-.96.363-1.925.518-2.897.045-.273.08-.55.12-.823.13-.883.242-1.772.34-2.665.02-.193.046-.385.065-.578.104-1.046.182-2.1.24-3.16.015-.25.025-.504.036-.758.052-1.095.085-2.193.085-3.3a71.727 71.727 0 0 0-11.374-38.846c-.136-.21-.27-.425-.406-.636a76.52 76.52 0 0 0-1.005-1.496c-.286-.41-.578-.816-.87-1.22a73.276 73.276 0 0 0-4.982-6.174c-13.193-14.574-32.26-23.732-53.466-23.732-16.98 0-32.576 5.884-44.896 15.703l-.004.002a72.414 72.414 0 0 0-18.79 22.59v.003a71.773 71.773 0 0 0-8.415 33.805c.003 39.82 32.284 72.104 72.106 72.104zm-63.262-156.81c18.168-13.628 40.147-21 63.263-21 5.66 0 11.25.448 16.733 1.315a97.294 97.294 0 0 1 5.96-15.71c.113-1.408.187-2.827.187-4.264 0-28.834-23.375-52.208-52.208-52.208s-52.207 23.374-52.207 52.208c0 15.873 7.095 30.082 18.273 39.657zm-13.62 12.164a73.26 73.26 0 0 1-6.883-6.845 124.55 124.55 0 0 0-22.515 14.12v31.462h6.073c4.813-14.308 12.7-27.49 23.325-38.737zm181.805 59.56c2.106.205 4.238.316 6.398.316 35.75 0 64.732-28.98 64.732-64.73s-28.982-64.73-64.732-64.73c-30.057 0-55.324 20.49-62.61 48.262 9.483 4.935 18.26 11.343 26.036 19.12 16.87 16.87 27.336 38.44 30.175 61.76zm73.897-8.65c-16.488 18.743-40.634 30.592-67.5 30.592-2.007 0-3.998-.074-5.973-.205a105.288 105.288 0 0 1-5.51 26.13h106.896V272.63a154.406 154.406 0 0 0-27.914-17.51z"/></svg>