<?xml version="1.0" encoding="UTF-8"?>
<svg xmlns="http://www.w3.org/2000/svg" width="16" height="16" viewBox="0 0 500 500"><linearGradient id="a" gradientUnits="userSpaceOnUse" x1="154.013" y1="137.252" x2="362.635" y2="345.875"><stop offset="0" stop-color="#507ea5"/><stop offset="1" stop-color="#335f7f"/></linearGradient><path fill="url(#a)" d="M315.33 326.027a120.844 120.844 0 0 0 2.337-23.684c0-8.11-.808-16.03-2.34-23.69l29.746-18.243a152.343 152.343 0 0 0-13.58-32.73l-33.925 8.128a120.802 120.802 0 0 0-33.482-33.486l8.128-33.926a152.344 152.344 0 0 0-32.752-13.59l-18.244 29.748a120.724 120.724 0 0 0-23.68-2.34c-8.108 0-16.027.81-23.685 2.34l-18.248-29.746a152.353 152.353 0 0 0-32.73 13.58l8.128 33.925a120.766 120.766 0 0 0-33.494 33.494l-33.927-8.127a152.315 152.315 0 0 0-13.58 32.73l29.746 18.248c-1.532 7.657-2.34 15.577-2.34 23.685s.808 16.023 2.338 23.68L50 344.268c3.27 11.53 7.862 22.5 13.59 32.752l33.926-8.128a120.766 120.766 0 0 0 33.486 33.483l-8.13 33.923a152.334 152.334 0 0 0 32.73 13.58l18.246-29.745c7.66 1.532 15.58 2.34 23.69 2.34 8.107 0 16.026-.807 23.683-2.338l18.242 29.748c11.53-3.27 22.5-7.863 32.753-13.59l-8.13-33.926a120.81 120.81 0 0 0 33.475-33.476l33.926 8.13a152.352 152.352 0 0 0 13.59-32.752l-29.746-18.24zm-117.792 29.246c-29.232 0-52.93-23.697-52.93-52.93s23.698-52.93 52.93-52.93 52.93 23.697 52.93 52.93-23.697 52.93-52.93 52.93zm217.96-171.29a70.973 70.973 0 0 0 7.466-11.873 71.107 71.107 0 0 0 5-13.106l20.487-1.794a89.756 89.756 0 0 0 1.45-20.833l-20.025-4.64a71.168 71.168 0 0 0-8.846-26.47l13.214-15.75a89.774 89.774 0 0 0-13.694-15.784l-17.448 10.885a71.203 71.203 0 0 0-11.87-7.464 71.12 71.12 0 0 0-13.106-5l-1.794-20.486a89.873 89.873 0 0 0-20.834-1.453l-4.64 20.028a71.198 71.198 0 0 0-26.478 8.848L308.63 65.88a89.807 89.807 0 0 0-15.773 13.685l10.884 17.45c-2.822 3.636-5.333 7.6-7.466 11.874s-3.79 8.662-4.997 13.103l-20.49 1.792a89.922 89.922 0 0 0-1.45 20.846l20.028 4.642a71.195 71.195 0 0 0 8.847 26.468L285 191.488a89.7 89.7 0 0 0 13.686 15.773l17.446-10.883a71.16 71.16 0 0 0 11.88 7.47 71.08 71.08 0 0 0 13.1 4.997l1.793 20.488a89.877 89.877 0 0 0 20.847 1.452l4.64-20.028a71.194 71.194 0 0 0 26.462-8.843l15.748 13.214a89.74 89.74 0 0 0 15.786-13.694l-10.89-17.45zM345.69 168.41c-15.414-7.693-21.675-26.425-13.982-41.84 7.692-15.413 26.425-21.673 41.84-13.98 15.413 7.69 21.674 26.423 13.98 41.837-7.69 15.415-26.424 21.675-41.838 13.982z"/></svg>