<svg xmlns="http://www.w3.org/2000/svg" width="16" height="16"><path d="M10.26 9.71a3.6 3.6 0 00-.13-.93l.9-.54a4.79 4.79 0 00-.45-1l-1 .26a3.78 3.78 0 00-1-1l.28-1A4.68 4.68 0 007.71 5l-.55.91a3.57 3.57 0 00-.8-.09 4.43 4.43 0 00-.9.11L5 5a5.22 5.22 0 00-1 .4l.29 1a4 4 0 00-1.15 1.11l-1.07-.2a4.56 4.56 0 00-.42 1l.91.54a3.86 3.86 0 00-.1.84 3.75 3.75 0 00.09.82l-.9.54a4.49 4.49 0 00.42 1l1-.28A3.81 3.81 0 004.19 13l-.28 1a4.86 4.86 0 001 .43l.55-.89a3.84 3.84 0 00.91.12 4.27 4.27 0 00.81-.09l.53.89a5.13 5.13 0 001-.41l-.27-1a4 4 0 001.19-1.17l1 .28a5.45 5.45 0 00.42-1l-.86-.66a3.67 3.67 0 00.07-.79zM6.35 11.4a1.7 1.7 0 111.7-1.7 1.7 1.7 0 01-1.7 1.7zm8.07-7.09l-.64-.12a2.44 2.44 0 00-.27-.8l.42-.53a3.07 3.07 0 00-.41-.47l-.62.31a2.11 2.11 0 00-.8-.38l-.1-.67a3.13 3.13 0 00-.44 0h-.24l-.11.65a2.13 2.13 0 00-.82.3l-.47-.47a3.42 3.42 0 00-.49.44l.32.62a2 2 0 00-.35.72L8.71 4a2.73 2.73 0 00-.05.5 1.36 1.36 0 000 .2l.64.1a2.28 2.28 0 00.27.81l-.46.46a3 3 0 00.41.51l.62-.31a2.18 2.18 0 00.82.41v.66a3.31 3.31 0 00.55 0h.14l.1-.65a2.22 2.22 0 00.88-.28l.53.43a3.39 3.39 0 00.45-.4l-.35-.57a2.24 2.24 0 00.42-.81l.71-.06a2.76 2.76 0 000-.51 1.11 1.11 0 00.03-.18zm-2.87 1.15a1 1 0 111-1 1 1 0 01-1 1z" fill="#507ea5"/></svg>