<svg xmlns="http://www.w3.org/2000/svg" width="16" height="16" viewBox="0 0 500 500"><circle fill="#FFF" cx="250" cy="250" r="200"/><linearGradient id="a" x1="94.437" y1="94.437" x2="405.564" y2="405.564"><stop offset="0" stop-color="#CCC"/><stop offset="1" stop-color="#b3b3b3"/></linearGradient><path fill="url(#a)" d="M405.563 94.437C364.01 52.884 308.763 30 250 30c-58.764 0-114.01 22.884-155.563 64.437C52.884 135.99 30 191.237 30 250c0 58.764 22.884 114.01 64.437 155.563C135.99 447.116 191.237 470 250 470c58.764 0 114.01-22.884 155.563-64.437S470 308.763 470 250c0-58.764-22.884-114.01-64.437-155.563zM250 450c-110.457 0-200-89.543-200-200S139.543 50 250 50s200 89.543 200 200-89.543 200-200 200z"/><linearGradient id="b" x1="200.833" y1="114.238" x2="297.12" y2="210.525"><stop offset="0" stop-color="#999"/><stop offset="1" stop-color="#666"/></linearGradient><path fill="url(#b)" d="M261.477 161.97c0 52.95-5.597 95.875-12.5 95.875-6.904 0-12.5-42.925-12.5-95.875s12.5-95.875 12.5-95.875 12.5 42.925 12.5 95.875z"/><linearGradient id="c" x1="198.829" y1="86.315" x2="302.625" y2="190.112" gradientTransform="matrix(-.647 .7625 -.4247 -.3604 511.94 155.776)"><stop offset="0" stop-color="#999"/><stop offset="1" stop-color="#666"/></linearGradient><path fill="url(#c)" d="M280.235 314.32c-23.548-23.875-37.73-50.658-31.68-59.82 6.052-9.16 30.045 2.77 53.595 26.643 23.546 23.878 31.68 59.82 31.68 59.82s-30.048-2.767-53.595-26.642z"/><linearGradient id="d" x1="232.323" y1="232.323" x2="267.678" y2="267.678"><stop offset="0" stop-color="#999"/><stop offset="1" stop-color="#666"/></linearGradient><circle fill="url(#d)" cx="250" cy="250" r="25"/><linearGradient id="e" x1="35.583" y1="186.368" x2="255.488" y2="406.273"><stop offset="0" stop-color="#c9473d"/><stop offset="1" stop-color="#9e3939"/></linearGradient><path fill="url(#e)" d="M191.76 394.504V470H99.598v-75.496h92.164zm-25.828-29.4H124.25l-22.3-150.995V120h86.884v94.11l-22.902 150.995z"/></svg>