<svg xmlns="http://www.w3.org/2000/svg" width="16" height="16" viewBox="0 0 500 500"><path fill="#FFF" d="M263.995 384.99c-.247-.623-.606-1.926-.606-4.215v-261.55c0-2.29.36-3.592.605-4.216.82.054 2.903.416 6.24 2.455l208.09 127.198c3.69 2.254 5.064 4.47 5.064 5.337-.002.867-1.376 3.082-5.063 5.336l-208.093 127.2c-3.336 2.038-5.42 2.402-6.24 2.455z"/><linearGradient id="a" gradientUnits="userSpaceOnUse" x1="198.743" y1="324.563" x2="397.79" y2="125.516" gradientTransform="matrix(1 0 0 -1 8.34 475.04)"><stop offset="0" stop-color="#b3b3b3"/><stop offset="1" stop-color="#999"/></linearGradient><path fill="url(#a)" d="M278.39 140.03L458.295 250 278.39 359.97V140.03M263.75 100c-9.14 0-15.363 6.95-15.363 19.225v261.55c0 12.276 6.22 19.226 15.362 19.226 4.248 0 9.128-1.5 14.307-4.665l208.09-127.2c16.317-9.973 16.317-26.294 0-36.27l-208.092-127.2C272.878 101.502 268 100 263.752 100z"/><linearGradient id="b" gradientUnits="userSpaceOnUse" x1="17.41" y1="290.79" x2="148.91" y2="159.29" gradientTransform="matrix(1 0 0 -1 8.34 475.04)"><stop offset="0" stop-color="#b3b3b3"/><stop offset="1" stop-color="#999"/></linearGradient><path fill="url(#b)" d="M0 210h183v80H0z"/></svg>