<svg xmlns="http://www.w3.org/2000/svg" width="16" height="16" viewBox="0 0 500 500"><path fill="#FFF" d="M350 428c-.867 0-3.082-1.375-5.336-5.062l-127.2-208.094c-1.887-3.086-2.393-5.236-2.46-6.236.62-.247 1.924-.61 4.22-.61h261.55c2.298 0 3.6.363 4.222.61-.067 1-.574 3.15-2.46 6.236l-127.2 208.093c-2.254 3.688-4.47 5.063-5.336 5.063z"/><linearGradient id="a" gradientUnits="userSpaceOnUse" x1="250.477" y1="151.694" x2="449.524" y2="350.741"><stop offset="0" stop-color="#b3b3b3"/><stop offset="1" stop-color="#999"/></linearGradient><path fill="url(#a)" d="M459.97 223L350 402.907 240.03 223h219.94m20.805-30h-261.55c-17.98 0-24.533 13.35-14.56 29.668l127.2 208.093C336.852 438.92 343.425 443 350 443c6.573 0 13.147-4.08 18.135-12.24l127.2-208.092c9.974-16.317 3.422-29.668-14.56-29.668z"/><linearGradient id="b" gradientUnits="userSpaceOnUse" x1="25.75" y1="184.25" x2="157.25" y2="315.75"><stop offset="0" stop-color="#b3b3b3"/><stop offset="1" stop-color="#999"/></linearGradient><path fill="url(#b)" d="M0 210h183v80H0z"/></svg>