<svg xmlns="http://www.w3.org/2000/svg" width="16" height="16"><defs><linearGradient id="a" x1="1.08" y1="1.5" x2="14.5" y2="14.92" gradientUnits="userSpaceOnUse"><stop offset="0" stop-color="#ccc"/><stop offset="1" stop-color="#b3b3b3"/></linearGradient></defs><path d="M9 10h5a1 1 0 001-1V7a1 1 0 00-1-1H9a1 1 0 00-1 1v.63H4.88V5H7a1 1 0 001-1V2a1 1 0 00-1-1H2a1 1 0 00-1 1v2a1 1 0 001 1h2.12v8.38H8V14a1 1 0 001 1h5a1 1 0 001-1v-2a1 1 0 00-1-1H9a1 1 0 00-1 1v.63H4.88V8.38H8V9a1 1 0 001 1z" fill="url(#a)"/></svg>