<svg xmlns="http://www.w3.org/2000/svg" width="16" height="16"><defs><linearGradient id="a" x1="2.04" y1=".54" x2="6.96" y2="5.46" gradientUnits="userSpaceOnUse"><stop offset="0" stop-color="#507ea5"/><stop offset="1" stop-color="#335f7f"/></linearGradient><linearGradient id="b" x1="4.35" y1="4.77" x2="14.5" y2="14.92" gradientUnits="userSpaceOnUse"><stop offset="0" stop-color="#999"/><stop offset="1" stop-color="#666"/></linearGradient></defs><rect x="1" y="1" width="7" height="4" rx="1" fill="url(#a)"/><path d="M9 10h5a1 1 0 001-1V7a1 1 0 00-1-1H9a1 1 0 00-1 1v.63H4.88V5h-.76v8.38H8V14a1 1 0 001 1h5a1 1 0 001-1v-2a1 1 0 00-1-1H9a1 1 0 00-1 1v.63H4.88V8.38H8V9a1 1 0 001 1z" fill="url(#b)"/></svg>