<svg xmlns="http://www.w3.org/2000/svg" width="16" height="16" viewBox="0 0 500 500"><linearGradient id="a" gradientUnits="userSpaceOnUse" x1="75" y1="84.5" x2="425.001" y2="434.501"><stop offset="0" stop-color="#ffad00"/><stop offset="1" stop-color="#d68900"/></linearGradient><path fill="url(#a)" d="M90 69.5h320v380H90z"/><path opacity=".5" fill="#FFF" d="M90 69.5h320v380H90z"/><linearGradient id="b" gradientUnits="userSpaceOnUse" x1="62.501" y1="72.001" x2="437.5" y2="447"><stop offset="0" stop-color="#ffad00"/><stop offset="1" stop-color="#d68900"/></linearGradient><path fill="url(#b)" d="M75 59.5v400h350v-400H75zm330 380H95v-360h310v360z"/><path d="M339 58.5h-1.618a11.944 11.944 0 0 1 1.618 6v9c0 6.627-5.373 12-12 12h-10v35c0 6.627-5.373 12-12 12H179.62c2.075 3.583 5.94 6 10.38 6h127c6.627 0 12-5.373 12-12v-35h10c6.627 0 12-5.373 12-12v-9c0-6.627-5.373-12-12-12z" opacity=".25"/><linearGradient id="c" gradientUnits="userSpaceOnUse" x1="188.765" y1="21.765" x2="308.235" y2="141.235"><stop offset="0" stop-color="#CCC"/><stop offset="1" stop-color="#b3b3b3"/></linearGradient><path fill="url(#c)" d="M334 52.5h-10c0-6.627-5.373-12-12-12H185c-6.627 0-12 5.373-12 12h-10c-6.627 0-12 5.373-12 12v9c0 6.627 5.373 12 12 12h10v35c0 6.627 5.373 12 12 12h127c6.627 0 12-5.373 12-12v-35h10c6.627 0 12-5.373 12-12v-9c0-6.627-5.373-12-12-12z"/><linearGradient id="d" gradientUnits="userSpaceOnUse" x1="206.5" y1="52.001" x2="290.5" y2="136"><stop offset="0" stop-color="#b3b3b3"/><stop offset="1" stop-color="#999"/></linearGradient><path fill="url(#d)" d="M173 85.5h151v17H173z"/><path fill="#FFF" d="M373.19 291.73H312.286c-1.732 0-3.15-9.754-3.15-21.678v-84.375c0-11.922-9.754-21.678-21.676-21.678H213.1c-11.922 0-21.677 9.754-21.677 21.677v84.375c0 11.924-1.226 21.678-2.728 21.678h-62.045c-1.75 0 3.594 7.02 11.873 15.602l96.708 100.232a20.82 20.82 0 0 0 30.104 0l96.71-100.232c8.278-8.58 13.295-15.602 11.147-15.602z"/></svg>