<svg xmlns="http://www.w3.org/2000/svg" width="16" height="16"><linearGradient id="a" x1="8828.881" y1="-12585.506" x2="9178.879" y2="-12935.504" gradientTransform="matrix(.032 0 0 -.032 -280.124 -400.032)"><stop offset="0" stop-color="#f08c00"/><stop offset="1" stop-color="#be6e00"/></linearGradient><path fill="url(#a)" d="M2.88 2.224h10.24v12.16H2.88V2.224z"/><path opacity=".2" fill="#FFF" d="M2.88 2.224h10.24v12.16H2.88V2.224z"/><linearGradient id="b" x1="8816.373" y1="-12573.005" x2="9191.373" y2="-12948.005" gradientTransform="matrix(.032 0 0 -.032 -280.124 -400.032)"><stop offset="0" stop-color="#f08c00"/><stop offset="1" stop-color="#be6e00"/></linearGradient><path fill="url(#b)" d="M2.4 1.904v12.8h11.2v-12.8H2.4zm10.56 12.16H3.04V2.544h9.92v11.52z"/><path opacity=".25" d="M10.848 1.872h-.051a.391.391 0 01.051.192v.288a.384.384 0 01-.384.384h-.319v1.12a.384.384 0 01-.385.384H5.748c.066.114.19.192.332.192h4.064a.384.384 0 00.383-.384v-1.12h.32a.384.384 0 00.385-.384v-.288a.383.383 0 00-.384-.384z"/><linearGradient id="c" x1="8942.637" y1="-12522.762" x2="9062.109" y2="-12642.234" gradientTransform="matrix(.032 0 0 -.032 -280.124 -400.032)"><stop offset="0" stop-color="#ccc"/><stop offset="1" stop-color="#b3b3b3"/></linearGradient><path fill="url(#c)" d="M10.688 1.68h-.319a.384.384 0 00-.384-.384H5.92a.384.384 0 00-.384.384h-.32a.384.384 0 00-.384.384v.288c0 .212.172.384.384.384h.32v1.12c0 .212.172.384.384.384h4.064a.384.384 0 00.384-.384v-1.12h.319a.384.384 0 00.385-.384v-.288a.384.384 0 00-.384-.384z"/><linearGradient id="d" x1="8960.387" y1="-12553.012" x2="9044.395" y2="-12637.019" gradientTransform="matrix(.032 0 0 -.032 -280.124 -400.032)"><stop offset="0" stop-color="#b3b3b3"/><stop offset="1" stop-color="#999"/></linearGradient><path fill="url(#d)" d="M5.536 2.736h4.832v.544H5.536v-.544z"/><path fill="#FFF" d="M8.087 5.306v1.949c0 .056-.312.101-.694.101h-2.7A.695.695 0 004 8.049v2.379c0 .382.312.694.694.694h2.7c.382 0 .694.039.694.087v1.985c0 .056.225-.115.499-.38l3.208-3.095a.663.663 0 000-.962L8.586 5.663c-.274-.266-.499-.426-.499-.357z"/></svg>