<svg xmlns="http://www.w3.org/2000/svg" width="16" height="16"><linearGradient id="a" x1="8828.881" y1="-12585.506" x2="9178.879" y2="-12935.504" gradientTransform="matrix(.032 0 0 -.032 -280.124 -400.032)"><stop offset="0" stop-color="#CCC"/><stop offset="1" stop-color="#b3b3b3"/></linearGradient><path fill="url(#a)" d="M2.88 2.224h10.24v12.16H2.88z"/><path opacity=".5" fill="#FFF" d="M2.88 2.224h10.24v12.16H2.88z"/><linearGradient id="b" x1="8816.373" y1="-12573.005" x2="9191.373" y2="-12948.005" gradientTransform="matrix(.032 0 0 -.032 -280.124 -400.032)"><stop offset="0" stop-color="#CCC"/><stop offset="1" stop-color="#b3b3b3"/></linearGradient><path fill="url(#b)" d="M2.4 1.904v12.8h11.2v-12.8H2.4zm10.56 12.16H3.04V2.544h9.92v11.52z"/><path d="M10.848 1.872h-.05a.39.39 0 01.05.192v.288a.384.384 0 01-.384.384h-.32v1.12a.384.384 0 01-.384.384H5.748c.066.114.19.192.332.192h4.064c.21 0 .383-.172.383-.384v-1.12h.32a.384.384 0 00.385-.384v-.288a.383.383 0 00-.384-.384z" opacity=".25"/><linearGradient id="c" x1="8942.647" y1="-12522.772" x2="9062.119" y2="-12642.244" gradientTransform="matrix(.032 0 0 -.032 -280.124 -400.032)"><stop offset="0" stop-color="#CCC"/><stop offset="1" stop-color="#b3b3b3"/></linearGradient><path fill="url(#c)" d="M10.688 1.68h-.32a.384.384 0 00-.383-.384H5.92a.384.384 0 00-.384.384h-.32a.384.384 0 00-.384.384v.288c0 .212.172.384.384.384h.32v1.12c0 .212.172.384.384.384h4.064a.384.384 0 00.384-.384v-1.12h.32a.384.384 0 00.384-.384v-.288a.384.384 0 00-.384-.384z"/><linearGradient id="d" x1="8960.369" y1="-12552.994" x2="9044.377" y2="-12637.002" gradientTransform="matrix(.032 0 0 -.032 -280.124 -400.032)"><stop offset="0" stop-color="#b3b3b3"/><stop offset="1" stop-color="#999"/></linearGradient><path fill="url(#d)" d="M5.536 2.736h4.832v.544H5.536z"/><path fill="#FFF" d="M11.94 9.336H9.994c-.056 0-.1-.313-.1-.694v-2.7A.696.696 0 009.2 5.25H6.82a.695.695 0 00-.694.692v2.7c0 .382-.04.694-.087.694H4.052c-.056 0 .115.225.38.498l3.095 3.208a.667.667 0 00.963 0l3.096-3.208c.264-.273.425-.498.355-.498z"/></svg>