<?xml version="1.0" encoding="UTF-8"?>
<svg xmlns="http://www.w3.org/2000/svg" width="16" height="16" viewBox="0 0 500 500"><linearGradient id="a" gradientUnits="userSpaceOnUse" x1="342.566" y1="120.97" x2="417.907" y2="196.311"><stop offset=".073" stop-color="#edad3b"/><stop offset="1" stop-color="#dba049"/></linearGradient><path fill-rule="evenodd" clip-rule="evenodd" fill="url(#a)" d="M295.14 319.078l199.5-276.375c8.77-11.516 6.545-27.962-4.973-36.733-11.517-8.77-27.963-6.544-36.732 4.97L224.24 265.086l70.9 53.993z"/><linearGradient id="b" gradientUnits="userSpaceOnUse" x1="183.148" y1="320.74" x2="233.35" y2="370.942"><stop offset=".073" stop-color="#edad3b"/><stop offset="1" stop-color="#dba049"/></linearGradient><path fill-rule="evenodd" clip-rule="evenodd" fill="url(#b)" d="M280.776 323.516l-56.995-43.41-66.166 109.954 27.803 21.173z"/><path fill-rule="evenodd" clip-rule="evenodd" d="M128.187 406.36s-18.562 9.755-20.392 34.967c-1.83 25.213-14.764 38.98-33.757 43.245-18.997 4.262-39.464 3.33-39.464 3.33s33.337 18.61 73.11 8.455c39.774-10.154 67.857-33.83 70.105-45.694 2.248-11.86-.698-22.248-.698-22.248s-16.234-41.42-48.905-22.054z"/><linearGradient id="c" gradientUnits="userSpaceOnUse" x1="84.531" y1="269.574" x2="372.853" y2="557.896"><stop offset="0" stop-color="#74b739"/><stop offset="1" stop-color="#56991c"/></linearGradient><path fill-rule="evenodd" clip-rule="evenodd" fill="url(#c)" d="M91.24 402.07c-71.778-3.618-75.717-9.594-84.245-20.293-8.784-11.02-21.96-39.487 50.508-60.247 25.23-7.23 73.952-9.212 108.564-8.8L133.4 367.485s-6.587 0-26.35 10.98c-7.888 4.383-12.27 13.098-15.81 23.605zM35.74 466.5c10.983-6.437 22.947-2.147 30.683-13.372 5.297-7.688 8.793-16.518 11.64-25.405-2.908.025-5.875-.004-8.895-.097-44.276-1.37-94.67 22.007-33.428 38.873zm402.764-66.017c-109.8-4.392-122.734-22.58-101.993-26.66 20.742-4.083 44.076-48.432 0-46.757-4.4.167-9.77.09-15.91-.156L215.75 430.07s22.765 41.92-33.856 62.885c2.225-.073 4.468-.15 6.753-.24 0 0 63.2 10.98 177.39 0 114.192-10.98 182.268-87.84 72.47-92.232z"/></svg>