<svg xmlns="http://www.w3.org/2000/svg" width="16" height="16" viewBox="4 4.5 16 16"><linearGradient id="a" x1="587.379" y1="842.398" x2="587.379" y2="845.149" gradientTransform="translate(-575.32 -825.92)"><stop offset="0" stop-color="#ccc"/><stop offset="1" stop-color="#b3b3b3"/></linearGradient><path fill="url(#a)" d="M17.516 18.546a.685.685 0 01-.683.683h-9.55a.683.683 0 01-.682-.683v-1.364c0-.375.305-.682.682-.682h9.55c.376 0 .683.307.683.682v1.364z"/><linearGradient id="b" x1="591.327" y1="843.72" x2="591.833" y2="844.226" gradientTransform="translate(-575.32 -825.92)"><stop offset="0" stop-color="#74b739"/><stop offset="1" stop-color="#56991c"/></linearGradient><circle fill="url(#b)" cx="16.188" cy="17.981" r=".39"/><linearGradient id="c" x1="590.092" y1="843.72" x2="590.597" y2="844.225" gradientTransform="translate(-575.32 -825.92)"><stop offset="0" stop-color="#c9473d"/><stop offset="1" stop-color="#9e3939"/></linearGradient><circle fill="url(#c)" cx="14.952" cy="17.981" r=".39"/><linearGradient id="d" x1="296.155" y1="-395.081" x2="303.191" y2="-402.117" gradientTransform="matrix(1 0 0 -1 -287.66 -386.96)"><stop offset="0" stop-color="#507ea5"/><stop offset="1" stop-color="#335f7f"/></linearGradient><path fill="url(#d)" d="M17 11.688c0 2.761-3.262 5.625-5 5.625-1.602 0-5-2.864-5-5.625a5 5 0 0110 0z"/></svg>