<?xml version="1.0" encoding="UTF-8"?>
<svg xmlns="http://www.w3.org/2000/svg" width="80" height="60" viewBox="0 0 80 60"><path fill="#F4F4F4" d="M0 0h80v60H0z"/><linearGradient id="a" gradientUnits="userSpaceOnUse" x1="18.001" y1="8.001" x2="62.001" y2="52.001"><stop offset="0" stop-color="#7aa8d9"/><stop offset="1" stop-color="#335f7f"/></linearGradient><path fill="url(#a)" d="M13 13h54v34H13z"/><linearGradient id="b" gradientUnits="userSpaceOnUse" x1="22.105" y1="20.305" x2="31.296" y2="29.496"><stop offset=".236" stop-color="#f2da00"/><stop offset="1" stop-color="#ffbd00"/></linearGradient><circle fill="url(#b)" cx="26.7" cy="24.9" r="6.5"/><linearGradient id="c" gradientUnits="userSpaceOnUse" x1="34.667" y1="26.99" x2="52.922" y2="45.245"><stop offset="0" stop-color="#CCC"/><stop offset="1" stop-color="#b3b3b3"/></linearGradient><path fill="url(#c)" d="M38 41.8l5.4-1.6 4.4-6.4 5.2 2.8 3-.6 6.4-4.4 4 .167V28.8L60.6 26 55 29.6l-7-6.8-9.6 13.6-7.2-3-11.496 8.552L32 40z"/><linearGradient id="d" gradientUnits="userSpaceOnUse" x1="31.159" y1="29.242" x2="57.159" y2="55.242"><stop offset="0" stop-color="#CCC"/><stop offset="1" stop-color="#b3b3b3"/></linearGradient><path fill="url(#d)" d="M66.4 46V31.767l-4-.167L56 36l-3 .6-5.2-2.8-4.4 6.4-5.4 1.6-6-1.8-12.296 1.952L14.8 45.6z"/><linearGradient id="e" gradientUnits="userSpaceOnUse" x1="30.659" y1="28.742" x2="57.959" y2="56.042"><stop offset="0" stop-color="#74b739"/><stop offset="1" stop-color="#56991c"/></linearGradient><path fill="url(#e)" d="M66.4 46V31.767l-4-.167L56 36l-3 .6-5.2-2.8-4.4 6.4-5.4 1.6-6-1.8-12.296 1.952L14.8 45.6z"/><path fill="#FFF" d="M65 15v30H15V15h50m4-4H11v38h58V11z"/></svg>