<svg xmlns="http://www.w3.org/2000/svg" width="16" height="16" viewBox="0 0 16 16"><linearGradient id="a" gradientUnits="userSpaceOnUse" x1="8808.576" y1="-12554.13" x2="9199.185" y2="-12944.739" gradientTransform="matrix(.032 0 0 -.032 -280.124 -400.032)"><stop offset="0" stop-color="#7aa8d9"/><stop offset="1" stop-color="#335f7f"/></linearGradient><path fill="url(#a)" d="M1.25 2.2h13.5v11.5H1.25z"/><linearGradient id="b" gradientUnits="userSpaceOnUse" x1="8849.193" y1="-12641.643" x2="8939.787" y2="-12732.236" gradientTransform="matrix(.032 0 0 -.032 -280.124 -400.032)"><stop offset=".236" stop-color="#f2da00"/><stop offset="1" stop-color="#ffbd00"/></linearGradient><circle fill="url(#b)" cx="4.5" cy="5.95" r="2.05"/><linearGradient id="c" gradientUnits="userSpaceOnUse" x1="8958.76" y1="-12762.236" x2="9100.902" y2="-12904.379" gradientTransform="matrix(.032 0 0 -.032 -280.124 -400.032)"><stop offset="0" stop-color="#CCC"/><stop offset="1" stop-color="#b3b3b3"/></linearGradient><path fill="url(#c)" d="M7.265 12.426l1.423-.505 1.16-2.017 1.37.882.792-.187 1.685-1.39 1.055.055v-.936l-1.53-.883-1.475 1.135L9.9 6.434l-2.53 4.29-1.898-.948-3.03 2.696 3.24-.616z"/><linearGradient id="d" gradientUnits="userSpaceOnUse" x1="8930.129" y1="-12786.403" x2="9144.621" y2="-13000.896" gradientTransform="matrix(.032 0 0 -.032 -280.124 -400.032)"><stop offset="0" stop-color="#CCC"/><stop offset="1" stop-color="#b3b3b3"/></linearGradient><path fill="url(#d)" d="M14.75 13.75V9.264l-1.055-.054-1.685 1.388-.792.187-1.37-.882-1.16 2.018-1.423.506-1.582-.57-3.24.617-1.293 1.15z"/><linearGradient id="e" gradientUnits="userSpaceOnUse" x1="8926.016" y1="-12782.289" x2="9151.229" y2="-13007.503" gradientTransform="matrix(.032 0 0 -.032 -280.124 -400.032)"><stop offset="0" stop-color="#74b739"/><stop offset="1" stop-color="#56991c"/></linearGradient><path fill="url(#e)" d="M14.75 13.75V9.264l-1.055-.054-1.685 1.388-.792.187-1.37-.882-1.16 2.018-1.423.506-1.582-.57-3.24.617-1.293 1.15z"/><linearGradient id="f" gradientUnits="userSpaceOnUse" x1="8800.756" y1="-12547.881" x2="9207.006" y2="-12954.131" gradientTransform="matrix(.032 0 0 -.032 -280.124 -400.032)"><stop offset="0" stop-color="#CCC"/><stop offset="1" stop-color="#b3b3b3"/></linearGradient><path fill="url(#f)" d="M14.5 2.5v11h-13v-11h13M15 2H1v12h14V2z"/></svg>