<?xml version="1.0" encoding="UTF-8"?>
<svg xmlns="http://www.w3.org/2000/svg" width="18" height="18" viewBox="0 0 24 24"><path fill="#FFF" d="M12 3c2.84 0 5.15 2.31 5.15 5.15S14.84 13.3 12 13.3s-5.15-2.31-5.15-5.15S9.16 3 12 3m0-1C8.61 2 5.85 4.75 5.85 8.15S8.6 14.3 12 14.3s6.15-2.75 6.15-6.15S15.39 2 12 2z"/><path fill="#FFF" d="M20.19 14.75c.14 0 .22.03.23.04.44.34 1.73 2.41 1.73 3.16v1.99c0 .58-.48 1.06-1.06 1.06H2.91c-.58 0-1.06-.48-1.06-1.06v-1.99c0-.75 1.29-2.82 1.73-3.16.01-.01.09-.04.23-.04.38 0 .85.2 1.2.5.14.12 3.51 3.01 6.99 3.01 3.47 0 6.85-2.89 6.99-3.01.35-.31.82-.5 1.2-.5m0-1c-.6 0-1.3.27-1.86.75 0 0-3.19 2.77-6.33 2.77S5.67 14.5 5.67 14.5c-.56-.48-1.26-.75-1.86-.75-.32 0-.61.08-.83.24-.62.46-2.13 2.83-2.13 3.96v1.99c0 1.13.93 2.06 2.06 2.06h18.18c1.13 0 2.06-.93 2.06-2.06v-1.99c0-1.13-1.51-3.5-2.13-3.96-.22-.17-.51-.24-.83-.24z"/></svg>