<svg xmlns="http://www.w3.org/2000/svg" width="16" height="16" viewBox="0 0 16 16"><linearGradient id="a" gradientUnits="userSpaceOnUse" x1="2428.867" y1="14013.398" x2="8774.651" y2="20359.182" gradientTransform="matrix(0 0 0 0 -580.177 -831.556)"><stop offset="0" stop-color="#74b739"/><stop offset="1" stop-color="#56991c"/></linearGradient><path fill="url(#a)" d="M8 3.405a4.596 4.596 0 1 1 0 9.192 4.596 4.596 0 0 1 0-9.192z"/><path fill="#FFF" d="M8 6.52a1.48 1.48 0 1 1 0 2.96 1.48 1.48 0 0 1 0-2.96z"/><linearGradient id="b" gradientUnits="userSpaceOnUse" x1="969.59" y1="12554.125" x2="10232.574" y2="21817.111" gradientTransform="matrix(0 0 0 0 -580.177 -831.556)"><stop offset="0" stop-color="#74b739"/><stop offset="1" stop-color="#56991c"/></linearGradient><path fill="url(#b)" d="M8 2.906c-4.418 0-8 2.28-8 5.094 0 2.814 3.582 5.094 8 5.094s8-2.28 8-5.094c0-2.814-3.582-5.094-8-5.094zm.04 8.547c-3.5 0-6.336-1.546-6.336-3.453S4.54 4.547 8.04 4.547c3.497 0 6.333 1.546 6.333 3.453s-2.836 3.453-6.334 3.453z"/></svg>