<svg xmlns="http://www.w3.org/2000/svg" width="18" height="18" viewBox="0 0 16 16"><path fill="#FFF" d="M14.76 5.58v10.26H3.24V2.16h8.208l3.312 3.42z"/><path fill="#F9FAFA" d="M14.76 5.58v10.26H3.24V2.16h8.208l3.312 3.42z"/><path fill="#FFF" d="M11.232 2.34l.287 3.6 3.24-.36-3.527-3.24z"/><linearGradient id="a" gradientUnits="userSpaceOnUse" x1="8054.275" y1="-11512.394" x2="8429.275" y2="-11887.394" gradientTransform="matrix(.036 0 0 -.036 -288.624 -411.276)"><stop offset="0" stop-color="#ccc"/><stop offset="1" stop-color="#b3b3b3"/></linearGradient><path fill="url(#a)" d="M11.613 1.794L2.7 1.8v14.4h12.6V5.508l-3.687-3.714zm2.686 3.714h-2.671l-.011-2.689 2.682 2.689zm.281 9.972H3.42V2.52h7.38v3.852h3.78v9.108z"/><linearGradient id="b" gradientUnits="userSpaceOnUse" x1="27317.301" y1="-38892.633" x2="27483.998" y2="-39059.332" gradientTransform="matrix(.032 0 0 -.032 -867.82 -1237.272)"><stop offset="0" stop-color="#ccc"/><stop offset="1" stop-color="#b3b3b3"/></linearGradient><path fill="url(#b)" d="M9.596 5.779v.966C11.557 7.147 13 8.505 13 10.119c0 .855-.406 1.641-1.08 2.248-.261.234-.436.354-.494.292-.059-.063.086-.248.23-.577.137-.313.211-.645.211-.99 0-1.223-.926-2.282-2.271-2.799V9.39c0 .17-.113.211-.249.091L7.972 8.263l-.496-.439-.022-.019a.287.287 0 0 1 0-.439l.48-.426.496-.44.917-.812c.136-.121.249-.08.249.091zm-.943 8.451l.917-.81.496-.439.479-.426a.285.285 0 0 0 0-.438l-.021-.021-.496-.438-1.375-1.219c-.136-.121-.248-.08-.248.09v1.098c-1.348-.516-2.272-1.576-2.272-2.799 0-.346.074-.679.21-.99.145-.33.29-.515.23-.577-.058-.063-.232.057-.493.292C5.406 8.161 5 8.945 5 9.801c0 1.613 1.444 2.973 3.405 3.373v.967c0 .172.112.213.248.089z"/><path opacity=".5" d="M14.568 12.455h-1.996v-1.158c0-.34.285-.625.625-.625h1.371v-.961h-1.371c-.872 0-1.586.715-1.586 1.586v1.158h-.246a.322.322 0 0 0-.322.322v2.59h3.525v-2.912z"/><linearGradient id="c" gradientUnits="userSpaceOnUse" x1="18407.225" y1="26044.019" x2="18513.033" y2="26149.828" gradientTransform="matrix(.032 0 0 .032 -577.256 -823.92)"><stop offset="0" stop-color="#999"/><stop offset="1" stop-color="#666"/></linearGradient><path fill="url(#c)" d="M12.027 12.168V10.85c0-.34.287-.625.625-.625h1.63c.339 0 .626.285.626.625v1.318h.959V10.85a1.59 1.59 0 0 0-1.585-1.586h-1.63a1.59 1.59 0 0 0-1.584 1.586v1.318h.959z"/><linearGradient id="d" gradientUnits="userSpaceOnUse" x1="18382.725" y1="26113.316" x2="18537.563" y2="26268.154" gradientTransform="matrix(.032 0 0 .032 -577.256 -823.92)"><stop offset="0" stop-color="#ffad00"/><stop offset="1" stop-color="#d68900"/></linearGradient><path fill="url(#d)" d="M16.436 16.037a.322.322 0 0 1-.321.322h-5.291a.323.323 0 0 1-.323-.322V12.33c0-.178.145-.322.323-.322h5.291a.32.32 0 0 1 .321.322v3.707z"/><linearGradient id="e" gradientUnits="userSpaceOnUse" x1="577.781" y1="835.052" x2="582.864" y2="839.573" gradientTransform="translate(-575.32 -823.92)"><stop offset="0" stop-color="#636363"/><stop offset="1" stop-color="#2e2e2e"/></linearGradient><path fill="url(#e)" d="M9 13.391c0 1.406-1.791 2.547-4 2.547-.1 0-.197-.006-.295-.01l2.393-3.443c.123.279.2.582.2.906 0 .545-.198 1.041-.517 1.436.848-.311 1.405-.836 1.405-1.436 0-.465-.34-.885-.888-1.195l.452-.65c.77.462 1.25 1.116 1.25 1.845zm-7.148 0c0-.584.534-1.1 1.348-1.412a2.28 2.28 0 0 0-.497 1.412c0 .324.077.627.2.904l2.393-3.441a4.85 4.85 0 0 0-.296-.01c-2.209 0-4 1.139-4 2.547 0 .729.481 1.383 1.25 1.846l.463-.668c-.531-.309-.861-.721-.861-1.178zM7.56 10.15l-.417-.289a.45.45 0 0 0-.629.113l-.646.93-1.416 2.039-1.663 2.395-.093.133-.368.529a.451.451 0 0 0 .113.629l.417.291c.078.055.167.08.257.08a.448.448 0 0 0 .371-.193l4.188-6.027a.454.454 0 0 0-.114-.63z"/></svg>