<?xml version="1.0" encoding="UTF-8"?>
<svg xmlns="http://www.w3.org/2000/svg" width="18" height="18" viewBox="0 0 16 16"><path fill="#FFF" d="M13.12 4.96v9.12H2.88V1.92h7.296l2.944 3.04z"/><path fill="#FFF" d="M13.12 4.96v9.12H2.88V1.92h7.296l2.944 3.04z"/><linearGradient id="a" gradientUnits="userSpaceOnUse" x1="27186.578" y1="-38785.055" x2="27561.576" y2="-39160.055" gradientTransform="matrix(.032 0 0 -.032 -868.789 -1238.304)"><stop offset="0" stop-color="#ccc"/><stop offset="1" stop-color="#b3b3b3"/></linearGradient><path fill="url(#a)" d="M10.323 1.595L2.4 1.6v12.8h11.2V4.896l-3.277-3.301zm2.387 3.301h-2.374l-.01-2.391 2.384 2.391zm.25 8.864H3.04V2.24H9.6v3.424h3.36v8.096z"/><linearGradient id="b" gradientUnits="userSpaceOnUse" x1="294.052" y1="-401.817" x2="298.32" y2="-406.085" gradientTransform="matrix(1 0 0 -1 -287.66 -394.96)"><stop offset="0" stop-color="#ccc"/><stop offset="1" stop-color="#b3b3b3"/></linearGradient><path fill="url(#b)" d="M7.924 5.551c0-.06-.197.08-.437.313L4.681 8.568l-.02.02a.583.583 0 0 0 .02.824l2.807 2.707c.24.232.437.383.437.333v-1.737c0-.043.273-.076.606-.076h2.363a.606.606 0 0 0 .606-.605V7.951a.608.608 0 0 0-.606-.607H8.529c-.333 0-.605-.038-.605-.087V5.551z"/><linearGradient id="c" gradientUnits="userSpaceOnUse" x1="54605.762" y1="77681.086" x2="54711.547" y2="77786.867" gradientTransform="matrix(.032 0 0 .032 -1736.609 -2476.727)"><stop offset="0" stop-color="#999"/><stop offset="1" stop-color="#666"/></linearGradient><path fill="url(#c)" d="M11.027 11.745v-1.318c0-.34.287-.625.625-.625h1.63c.339 0 .626.285.626.625v1.318h.959v-1.318a1.59 1.59 0 0 0-1.585-1.584h-1.63a1.59 1.59 0 0 0-1.584 1.584v1.318h.959z"/><linearGradient id="d" gradientUnits="userSpaceOnUse" x1="54581.23" y1="77750.313" x2="54736.078" y2="77905.156" gradientTransform="matrix(.032 0 0 .032 -1736.609 -2476.727)"><stop offset="0" stop-color="#ffad00"/><stop offset="1" stop-color="#d68900"/></linearGradient><path fill="url(#d)" d="M15.436 15.614a.32.32 0 0 1-.317.321H9.823a.323.323 0 0 1-.323-.321v-3.707c0-.179.145-.322.323-.322h5.291c.179 0 .321.146.321.322v3.707h.001z"/></svg>