<svg xmlns="http://www.w3.org/2000/svg" width="18" height="18" viewBox="0 0 500 500"><path fill="#FFF" d="M410 155v285H90V60h228z"/><path fill="#F9FAFA" d="M410 155v285H90V60h228z"/><path fill="#FFF" d="M312 65l8 100 90-10z"/><linearGradient id="a" gradientUnits="userSpaceOnUse" x1="36.937" y1="88.064" x2="411.937" y2="463.064"><stop offset="0" stop-color="#CCC"/><stop offset="1" stop-color="#b3b3b3"/></linearGradient><path fill="url(#a)" d="M322.597 49.85L75 50v400h350V153L322.597 49.85zM397.184 153H323l-.292-74.71L397.184 153zM405 430H95V70h205v107h105v253z"/><linearGradient id="b" gradientUnits="userSpaceOnUse" x1="155.065" y1="212.535" x2="307.436" y2="364.907"><stop offset="0" stop-color="#74b739"/><stop offset="1" stop-color="#56991c"/></linearGradient><path fill="url(#b)" d="M252.73 165.81V226.713c0 1.733-9.754 3.15-21.677 3.15h-84.375c-11.922 0-21.678 9.754-21.678 21.676V325.9c0 11.922 9.755 21.677 21.678 21.677h84.375c11.923 0 21.677 1.226 21.677 2.728v62.045c0 1.75 7.02-3.594 15.602-11.873l100.232-96.708a20.82 20.82 0 0 0 0-30.104l-100.232-96.71c-8.58-8.278-15.602-13.295-15.602-11.148z"/><path opacity=".5" d="M424 358h-62.383v-36.205c0-10.6 8.954-19.554 19.554-19.554H424v-30h-42.83c-27.254 0-49.553 22.3-49.553 49.555V358h-7.69c-5.564 0-10.075 4.51-10.075 10.074V449H424v-91z"/><linearGradient id="c" gradientUnits="userSpaceOnUse" x1="336.706" y1="265.266" x2="442.529" y2="371.089"><stop offset="0" stop-color="#999"/><stop offset="1" stop-color="#666"/></linearGradient><path fill="url(#c)" d="M344.617 349v-41.205c0-10.6 8.954-19.554 19.554-19.554h50.894c10.6 0 19.554 8.955 19.554 19.555V349h30v-41.205c0-27.255-22.3-49.554-49.554-49.554H364.17c-27.254 0-49.553 22.3-49.553 49.555V349h30z"/><linearGradient id="d" gradientUnits="userSpaceOnUse" x1="312.185" y1="334.568" x2="467.05" y2="489.433"><stop offset="0" stop-color="#ffad00"/><stop offset="1" stop-color="#d68900"/></linearGradient><path fill="url(#d)" d="M482.383 469.926c0 5.563-4.51 10.074-10.074 10.074H306.925c-5.563 0-10.074-4.51-10.074-10.074V354.074c0-5.563 4.51-10.074 10.074-10.074H472.31c5.562 0 10.073 4.51 10.073 10.074v115.852z"/></svg>