<svg xmlns="http://www.w3.org/2000/svg" width="18" height="18" viewBox="0 0 16 16"><path fill="#FFF" d="M13.12 4.96v9.12H2.88V1.92h7.296l2.944 3.04z"/><path fill="#FFF" d="M13.12 4.96v9.12H2.88V1.92h7.296l2.944 3.04z"/><linearGradient id="a" x1="18136.691" y1="25898.059" x2="18511.69" y2="26273.057" gradientTransform="matrix(.032 0 0 .032 -579.192 -825.92)"><stop offset="0" stop-color="#ccc"/><stop offset="1" stop-color="#b3b3b3"/></linearGradient><path fill="url(#a)" d="M10.323 1.595L2.4 1.6v12.8h11.2V4.896l-3.277-3.301zm2.387 3.301h-2.374l-.01-2.391 2.384 2.391zm.25 8.864H3.04V2.24H9.6v3.424h3.36v8.096z"/><linearGradient id="b" x1="6.392" y1="6.858" x2="10.66" y2="11.125"><stop offset="0" stop-color="#74b739"/><stop offset="1" stop-color="#56991c"/></linearGradient><path fill="url(#b)" d="M7.924 5.551c0-.06-.197.08-.437.313L4.681 8.568l-.02.02a.583.583 0 00.02.824l2.807 2.707c.24.232.437.383.437.333v-1.737c0-.043.273-.076.606-.076h2.363a.607.607 0 00.607-.606V7.951a.609.609 0 00-.607-.607H8.53c-.333 0-.606-.038-.606-.087V5.551z"/></svg>