<svg xmlns="http://www.w3.org/2000/svg" width="18" height="18" viewBox="0 0 18 18"><path fill="#FFF" d="M14.76 5.58v10.26H3.24V2.16h8.208l3.312 3.42z"/><path fill="#F9FAFA" d="M14.76 5.58v10.26H3.24V2.16h8.208l3.312 3.42z"/><path fill="#FFF" d="M11.232 2.34l.287 3.6 3.24-.36-3.527-3.24z"/><linearGradient id="a" gradientUnits="userSpaceOnUse" x1="8054.275" y1="-11512.394" x2="8429.275" y2="-11887.394" gradientTransform="matrix(.036 0 0 -.036 -288.624 -411.276)"><stop offset="0" stop-color="#ccc"/><stop offset="1" stop-color="#b3b3b3"/></linearGradient><path fill="url(#a)" d="M11.613 1.794L2.7 1.8v14.4h12.6V5.508l-3.687-3.714zm2.686 3.714h-2.671l-.011-2.689 2.682 2.689zm.281 9.972H3.42V2.52h7.38v3.852h3.78v9.108z"/><linearGradient id="b" gradientUnits="userSpaceOnUse" x1="27317.301" y1="-38892.633" x2="27483.998" y2="-39059.332" gradientTransform="matrix(.032 0 0 -.032 -867.82 -1237.272)"><stop offset="0" stop-color="#ccc"/><stop offset="1" stop-color="#b3b3b3"/></linearGradient><path fill="url(#b)" d="M9.596 5.779v.966C11.557 7.147 13 8.505 13 10.119c0 .855-.406 1.641-1.08 2.248-.261.234-.436.354-.494.292-.059-.063.086-.248.23-.577.137-.313.211-.645.211-.99 0-1.223-.926-2.282-2.271-2.799V9.39c0 .17-.113.211-.249.091L7.972 8.263l-.496-.439-.022-.019a.287.287 0 0 1 0-.439l.48-.426.496-.44.917-.812c.136-.121.249-.08.249.091zm-.943 8.451l.917-.81.496-.439.479-.426a.285.285 0 0 0 0-.438l-.021-.021-.496-.438-1.375-1.219c-.136-.121-.248-.08-.248.09v1.098c-1.348-.516-2.272-1.576-2.272-2.799 0-.346.074-.679.21-.99.145-.33.29-.515.23-.577-.058-.063-.232.057-.493.292C5.406 8.161 5 8.945 5 9.801c0 1.613 1.444 2.973 3.405 3.373v.967c0 .172.112.213.248.089z"/></svg>