<?xml version="1.0" encoding="UTF-8"?>
<svg xmlns="http://www.w3.org/2000/svg" width="18" height="18" viewBox="0 0 16 16"><path fill="#FFF" d="M13.12 4.96v9.12H2.88V1.92h7.296l2.944 3.04z"/><path fill="#FFF" d="M13.12 4.96v9.12H2.88V1.92h7.296l2.944 3.04z"/><linearGradient id="a" gradientUnits="userSpaceOnUse" x1="9245.242" y1="-13232.848" x2="9353.533" y2="-13341.139" gradientTransform="matrix(.032 0 0 -.032 -289.596 -412.384)"><stop offset="0" stop-color="#ccc"/><stop offset="1" stop-color="#b3b3b3"/></linearGradient><ellipse fill="url(#a)" cx="7.984" cy="12.8" rx="3.44" ry=".416"/><path fill="#FFF" d="M4.697 12.68l-.043-1.014.388-1.615s1.164-.561 1.681.15.345 1.486.345 1.486l-2.371.993z"/><linearGradient id="b" gradientUnits="userSpaceOnUse" x1="9242.963" y1="-13112.857" x2="9327.49" y2="-13197.385" gradientTransform="matrix(.032 0 0 -.032 -289.596 -412.384)"><stop offset="0" stop-color="#c9473d"/><stop offset="1" stop-color="#9e3939"/></linearGradient><path fill="url(#b)" d="M11.306 5.096s.065-.2-.563-.657c-.628-.457-.9-.414-.9-.414-.339-.026-.478-.01-.661.204l-4.291 5.893a.274.274 0 0 0-.044.089h-.011s-.427 2.683-.338 2.746c.08.057 2.037-.938 2.45-1.131a.25.25 0 0 0 .068-.033h.001a.308.308 0 0 0 .073-.071l4.217-5.792c.258-.366-.001-.834-.001-.834zm-5.583 7.142s-.243-.565-.688-.465l-.238.322.354-1.922c.35.023.621.108.785.175.231.099.514.257.66.485.34.531.421.809.421.809l-1.294.596z"/><path fill="#FFF" d="M9.984 2.08l.256 3.2 2.88-.32-3.136-2.88z"/><linearGradient id="c" gradientUnits="userSpaceOnUse" x1="9086.826" y1="-12975.065" x2="9461.826" y2="-13350.065" gradientTransform="matrix(.032 0 0 -.032 -289.596 -412.384)"><stop offset="0" stop-color="#ccc"/><stop offset="1" stop-color="#b3b3b3"/></linearGradient><path fill="url(#c)" d="M10.323 1.595L2.4 1.6v12.8h11.2V4.896l-3.277-3.301zm2.387 3.301h-2.374l-.01-2.391 2.384 2.391zm.25 8.864H3.04V2.24H9.6v3.424h3.36v8.096z"/></svg>