<svg xmlns="http://www.w3.org/2000/svg" width="18" height="18" viewBox="0 0 16 16"><path fill="#FFF" d="M9.984 2.08l.256 3.2 2.88-.32-3.136-2.88z"/><path fill="#FFF" d="M13.12 4.96v9.12H2.88V1.92h7.296l2.944 3.04z"/><path fill="#F9FAFA" d="M13.12 4.96v9.12H2.88V1.92h7.296l2.944 3.04z"/><linearGradient id="a" gradientUnits="userSpaceOnUse" x1="17999.119" y1="25769.871" x2="18107.408" y2="25878.16" gradientTransform="matrix(.032 0 0 .032 -569.72 -813.568)"><stop offset="0" stop-color="#ccc"/><stop offset="1" stop-color="#b3b3b3"/></linearGradient><ellipse fill="url(#a)" cx="7.984" cy="12.8" rx="3.44" ry=".416"/><path fill="#FFF" d="M4.697 12.68l-.043-1.014.388-1.615s1.164-.56 1.68.15c.516.71.346 1.486.346 1.486l-2.37.994-.001-.001z"/><linearGradient id="b" gradientUnits="userSpaceOnUse" x1="17996.867" y1="25649.879" x2="18081.377" y2="25734.389" gradientTransform="matrix(.032 0 0 .032 -569.72 -813.568)"><stop offset="0" stop-color="#ccc"/><stop offset="1" stop-color="#b3b3b3"/></linearGradient><path fill="url(#b)" d="M11.307 5.096s.064-.2-.563-.657c-.628-.458-.9-.415-.9-.415-.34-.026-.478-.01-.659.204L4.89 10.12a.277.277 0 0 0-.043.09h-.01s-.428 2.683-.34 2.745c.08.057 2.038-.938 2.45-1.13a.284.284 0 0 0 .143-.104l4.217-5.792c.258-.366 0-.834 0-.834v.001zm-5.584 7.142s-.243-.565-.688-.465l-.238.322.354-1.923c.35.022.622.108.786.175.23.101.514.258.66.485.34.53.42.81.42.81l-1.294.596z"/><path fill="#FFF" d="M9.984 2.08l.256 3.2 2.88-.32-3.136-2.88z"/><linearGradient id="c" gradientUnits="userSpaceOnUse" x1="17840.701" y1="25512.09" x2="18215.699" y2="25887.088" gradientTransform="matrix(.032 0 0 .032 -569.72 -813.568)"><stop offset="0" stop-color="#ccc"/><stop offset="1" stop-color="#b3b3b3"/></linearGradient><path fill="url(#c)" d="M10.323 1.595L2.4 1.6v12.8h11.2V4.896l-3.277-3.301zm2.387 3.3h-2.374l-.01-2.39 2.384 2.39zm.25 8.865H3.04V2.24H9.6v3.424h3.36v8.096z"/><linearGradient id="d" gradientUnits="userSpaceOnUse" x1="1.461" y1="10.132" x2="6.545" y2="14.652"><stop offset="0" stop-color="#636363"/><stop offset="1" stop-color="#2e2e2e"/></linearGradient><path fill="url(#d)" d="M8 12.391c0 1.406-1.791 2.547-4 2.547-.1 0-.197-.006-.295-.01l2.393-3.443c.123.278.2.581.2.906a2.27 2.27 0 0 1-.517 1.434c.848-.309 1.405-.836 1.405-1.434 0-.465-.34-.885-.888-1.195l.452-.651c.769.463 1.25 1.117 1.25 1.846zm-7.148 0c0-.584.534-1.1 1.348-1.412a2.276 2.276 0 0 0-.497 1.412c0 .324.077.627.2.905l2.393-3.443A5.815 5.815 0 0 0 4 9.844c-2.209 0-4 1.139-4 2.547 0 .727.481 1.382 1.25 1.846l.463-.668c-.531-.309-.861-.722-.861-1.178zM6.56 9.15l-.417-.289a.455.455 0 0 0-.629.113l-.646.93-1.416 2.039-1.663 2.395-.093.133-.368.53a.45.45 0 0 0 .113.628l.417.291a.45.45 0 0 0 .628-.113L6.674 9.78a.454.454 0 0 0-.114-.63z"/></svg>