<svg xmlns="http://www.w3.org/2000/svg" width="18" height="18" viewBox="0 0 16 16"><path fill="#FFF" d="M13.12 4.96v9.12H2.88V1.92h7.296l2.944 3.04z"/><path fill="#F9FAFA" d="M13.12 4.96v9.12H2.88V1.92h7.296l2.944 3.04z"/><linearGradient id="a" gradientUnits="userSpaceOnUse" x1="9245.242" y1="-13232.848" x2="9353.533" y2="-13341.139" gradientTransform="matrix(.032 0 0 -.032 -289.596 -412.384)"><stop offset="0" stop-color="#ccc"/><stop offset="1" stop-color="#b3b3b3"/></linearGradient><ellipse fill="url(#a)" cx="7.984" cy="12.8" rx="3.44" ry=".416"/><linearGradient id="b" gradientUnits="userSpaceOnUse" x1="9242.963" y1="-13112.857" x2="9327.49" y2="-13197.385" gradientTransform="matrix(.032 0 0 -.032 -289.596 -412.384)"><stop offset="0" stop-color="#c9473d"/><stop offset="1" stop-color="#9e3939"/></linearGradient><path fill="url(#b)" d="M11.306 5.096s.065-.2-.563-.657c-.628-.457-.9-.414-.9-.414-.339-.026-.478-.01-.661.204l-4.291 5.893a.274.274 0 0 0-.044.089h-.011s-.427 2.683-.338 2.746c.08.057 2.037-.938 2.45-1.131a.25.25 0 0 0 .068-.033h.001a.308.308 0 0 0 .073-.071l4.217-5.792c.258-.366-.001-.834-.001-.834zm-5.583 7.142s-.243-.565-.688-.465l-.238.322.354-1.922c.35.023.621.108.785.175.231.099.514.257.66.485.34.531.421.809.421.809l-1.294.596z"/><path fill="#FFF" d="M9.984 2.08l.256 3.2 2.88-.32-3.136-2.88z"/><linearGradient id="c" gradientUnits="userSpaceOnUse" x1="35348.453" y1="51322.074" x2="35723.457" y2="51697.078" gradientTransform="matrix(.032 0 0 .032 -1129.968 -1639.488)"><stop offset="0" stop-color="#ccc"/><stop offset="1" stop-color="#b3b3b3"/></linearGradient><path fill="url(#c)" d="M10.323 1.595L2.4 1.6v12.8h11.2V4.896l-3.274-3.3-.003-.001zm2.387 3.3h-2.374l-.01-2.39 2.384 2.39zm.25 8.865H3.04V2.24H9.6v3.424h3.36v8.096z"/><path opacity=".5" d="M13.568 11.456h-1.996v-1.159c0-.339.285-.625.625-.625h1.371v-.96h-1.371a1.59 1.59 0 0 0-1.586 1.585v1.159h-.246a.323.323 0 0 0-.322.321v2.591h3.525v-2.912z"/><linearGradient id="d" gradientUnits="userSpaceOnUse" x1="18140.484" y1="25689.305" x2="18246.285" y2="25795.106" gradientTransform="matrix(.032 0 0 .032 -569.72 -813.568)"><stop offset="0" stop-color="#999"/><stop offset="1" stop-color="#666"/></linearGradient><path fill="url(#d)" d="M11.027 11.168V9.85c0-.34.287-.625.625-.625h1.63c.339 0 .626.285.626.625v1.318h.959V9.85a1.59 1.59 0 0 0-1.585-1.585h-1.63a1.59 1.59 0 0 0-1.584 1.585v1.318h.959z"/><linearGradient id="e" gradientUnits="userSpaceOnUse" x1="18115.955" y1="25758.594" x2="18270.809" y2="25913.447" gradientTransform="matrix(.032 0 0 .032 -569.72 -813.568)"><stop offset="0" stop-color="#ffad00"/><stop offset="1" stop-color="#d68900"/></linearGradient><path fill="url(#e)" d="M15.436 15.037a.32.32 0 0 1-.321.322H9.822a.322.322 0 0 1-.323-.322V11.33c0-.178.146-.322.323-.322h5.291c.179 0 .322.145.322.322v3.707h.001z"/><linearGradient id="f" gradientUnits="userSpaceOnUse" x1="1.461" y1="10.132" x2="6.545" y2="14.652"><stop offset="0" stop-color="#636363"/><stop offset="1" stop-color="#2e2e2e"/></linearGradient><path fill="url(#f)" d="M8 12.391c0 1.406-1.791 2.547-4 2.547-.1 0-.197-.006-.295-.01l2.393-3.443c.123.278.2.581.2.906a2.27 2.27 0 0 1-.517 1.434c.848-.309 1.405-.836 1.405-1.434 0-.465-.34-.885-.888-1.195l.452-.651c.769.463 1.25 1.117 1.25 1.846zm-7.148 0c0-.584.534-1.1 1.348-1.412a2.276 2.276 0 0 0-.497 1.412c0 .324.077.627.2.905l2.393-3.443A5.815 5.815 0 0 0 4 9.844c-2.209 0-4 1.139-4 2.547 0 .727.481 1.382 1.25 1.846l.463-.668c-.531-.309-.861-.722-.861-1.178zM6.56 9.15l-.417-.289a.455.455 0 0 0-.629.113l-.646.93-1.416 2.039-1.663 2.395-.093.133-.368.53a.45.45 0 0 0 .113.628l.417.291a.45.45 0 0 0 .628-.113L6.674 9.78a.454.454 0 0 0-.114-.63z"/></svg>