<svg xmlns="http://www.w3.org/2000/svg" width="16" height="16" viewBox="0 0 16 16"><path fill="#FFF" d="M13.12 4.96v9.12H2.88V1.92h7.296l2.944 3.04z"/><path fill="#F9FAFA" d="M13.12 4.96v9.12H2.88V1.92h7.296l2.944 3.04z"/><path fill="#FFF" d="M9.984 2.08l.256 3.2 2.88-.32-3.136-2.88z"/><linearGradient id="a" gradientUnits="userSpaceOnUse" x1="17544.699" y1="25898.07" x2="17919.697" y2="26273.068" gradientTransform="matrix(.032 0 0 .032 -560.248 -825.92)"><stop offset="0" stop-color="#ccc"/><stop offset="1" stop-color="#b3b3b3"/></linearGradient><path fill="url(#a)" d="M10.323 1.595L2.4 1.6v12.8h11.2V4.896l-3.276-3.3v-.001zm2.387 3.3h-2.374l-.01-2.39 2.384 2.39zm.25 8.865H3.04V2.24H9.6v3.424h3.36v8.096z"/><linearGradient id="b" gradientUnits="userSpaceOnUse" x1="6.317" y1="8.169" x2="10.272" y2="12.124"><stop offset="0" stop-color="#ccc"/><stop offset="1" stop-color="#b3b3b3"/></linearGradient><path fill="url(#b)" d="M11.737 9.324c-.153-.885-1.913-1.317-3.931-.967S4.277 9.708 4.43 10.592c.082.476.812.808 1.612.971v.604H7.5v-.51c.279-.018.566-.048.862-.099.328-.057.635-.135.929-.224v.332h1.438V10.6c.574-.395 1.083-.848 1.008-1.276z"/><path opacity=".5" d="M13.568 11.456h-1.996v-1.159c0-.339.286-.625.625-.625h1.371v-.96h-1.371a1.59 1.59 0 0 0-1.586 1.585v1.159h-.246a.322.322 0 0 0-.322.322v2.59h3.525v-2.912z"/><linearGradient id="c" gradientUnits="userSpaceOnUse" x1="9090.594" y1="-12766.273" x2="9196.402" y2="-12872.082" gradientTransform="matrix(.032 0 0 -.032 -280.124 -400.032)"><stop offset="0" stop-color="#999"/><stop offset="1" stop-color="#666"/></linearGradient><path fill="url(#c)" d="M11.027 11.168V9.85c0-.34.287-.626.626-.626h1.629c.339 0 .626.286.626.626v1.318h.959V9.85a1.59 1.59 0 0 0-1.585-1.586h-1.629a1.59 1.59 0 0 0-1.585 1.586v1.318h.959z"/><linearGradient id="d" gradientUnits="userSpaceOnUse" x1="9066.051" y1="-12835.561" x2="9220.906" y2="-12990.417" gradientTransform="matrix(.032 0 0 -.032 -280.124 -400.032)"><stop offset="0" stop-color="#ffad00"/><stop offset="1" stop-color="#d68900"/></linearGradient><path fill="url(#d)" d="M15.436 15.037a.321.321 0 0 1-.322.322H9.822a.322.322 0 0 1-.323-.322V11.33c0-.178.145-.322.323-.322h5.291c.179 0 .322.145.322.322v3.707z"/></svg>