<svg xmlns="http://www.w3.org/2000/svg" width="16" height="16" viewBox="0 0 16 16"><path fill="#FFF" d="M13.12 4.96v9.12H2.88V1.92h7.296l2.944 3.04z"/><path fill="#F9FAFA" d="M13.12 4.96v9.12H2.88V1.92h7.296l2.944 3.04z"/><path fill="#FFF" d="M9.984 2.08l.256 3.2 2.88-.32-3.136-2.88z"/><linearGradient id="a" gradientUnits="userSpaceOnUse" x1="17544.699" y1="25898.07" x2="17919.697" y2="26273.068" gradientTransform="matrix(.032 0 0 .032 -560.248 -825.92)"><stop offset="0" stop-color="#ccc"/><stop offset="1" stop-color="#b3b3b3"/></linearGradient><path fill="url(#a)" d="M10.323 1.595L2.4 1.6v12.8h11.2V4.896l-3.276-3.3v-.001zm2.387 3.3h-2.374l-.01-2.39 2.384 2.39zm.25 8.865H3.04V2.24H9.6v3.424h3.36v8.096z"/><linearGradient id="b" gradientUnits="userSpaceOnUse" x1="6.317" y1="8.169" x2="10.272" y2="12.124"><stop offset="0" stop-color="#636363"/><stop offset="1" stop-color="#2e2e2e"/></linearGradient><path fill="url(#b)" d="M11.737 9.324c-.153-.885-1.913-1.317-3.931-.967S4.277 9.708 4.43 10.592c.082.476.812.808 1.612.971v.604H7.5v-.51c.279-.018.566-.048.862-.099.328-.057.635-.135.929-.224v.332h1.438V10.6c.574-.395 1.083-.848 1.008-1.276z"/></svg>