<svg xmlns="http://www.w3.org/2000/svg" width="18" height="18" viewBox="0 0 16 16"><path fill="#FFF" d="M13.12 4.96v9.12H2.88V1.92h7.296z"/><path fill="#F9FAFA" d="M13.12 4.96v9.12H2.88V1.92h7.296z"/><linearGradient id="a" gradientUnits="userSpaceOnUse" x1="8949.219" y1="-12846.846" x2="9057.51" y2="-12955.137" gradientTransform="matrix(.032 0 0 -.032 -280.124 -400.032)"><stop offset="0" stop-color="#CCC"/><stop offset="1" stop-color="#b3b3b3"/></linearGradient><ellipse fill="url(#a)" cx="7.984" cy="12.8" rx="3.44" ry=".416"/><path fill="#FFF" d="M4.697 12.68l-.043-1.014.388-1.615s1.164-.56 1.68.15.346 1.487.346 1.487l-2.37.993z"/><linearGradient id="b" gradientUnits="userSpaceOnUse" x1="8946.965" y1="-12726.875" x2="9031.492" y2="-12811.402" gradientTransform="matrix(.032 0 0 -.032 -280.124 -400.032)"><stop offset="0" stop-color="#CCC"/><stop offset="1" stop-color="#b3b3b3"/></linearGradient><path fill="url(#b)" d="M11.306 5.096s.065-.2-.563-.657c-.628-.458-.9-.415-.9-.415-.34-.026-.478-.01-.66.204L4.89 10.12a.284.284 0 0 0-.043.09h-.01s-.428 2.682-.34 2.745c.08.057 2.038-.938 2.45-1.13a.25.25 0 0 0 .07-.034.306.306 0 0 0 .073-.07l4.217-5.793c.258-.366 0-.834 0-.834zm-5.583 7.142s-.243-.565-.688-.465l-.238.322.354-1.922c.35.023.622.108.786.175.23.1.514.257.66.485.34.53.42.81.42.81l-1.293.595z"/><path fill="#FFF" d="M9.984 2.08l.256 3.2 2.88-.32z"/><linearGradient id="c" gradientUnits="userSpaceOnUse" x1="8790.815" y1="-12589.072" x2="9165.815" y2="-12964.072" gradientTransform="matrix(.032 0 0 -.032 -280.124 -400.032)"><stop offset="0" stop-color="#CCC"/><stop offset="1" stop-color="#b3b3b3"/></linearGradient><path fill="url(#c)" d="M10.323 1.595L2.4 1.6v12.8h11.2V4.896l-3.277-3.3zm2.387 3.3h-2.374l-.01-2.39 2.384 2.39zm.25 8.865H3.04V2.24H9.6v3.424h3.36v8.096z"/></svg>