<svg xmlns="http://www.w3.org/2000/svg" width="18" height="18" viewBox="0 0 16 16"><path fill="#FFF" d="M9.984 2.08l.256 3.2 2.88-.32-3.136-2.88z"/><path fill="none" d="M-41.125-40.625h131.5V2h-131.5z"/><path fill="#FFF" d="M13.12 4.96v9.12H2.88V1.92h7.296l2.944 3.04z"/><path fill="#F9FAFA" d="M13.12 4.96v9.12H2.88V1.92h7.296l2.944 3.04z"/><linearGradient id="a" gradientUnits="userSpaceOnUse" x1="18295.107" y1="26155.84" x2="18403.396" y2="26264.129" gradientTransform="matrix(.032 0 0 .032 -579.192 -825.92)"><stop offset="0" stop-color="#ccc"/><stop offset="1" stop-color="#b3b3b3"/></linearGradient><ellipse fill="url(#a)" cx="7.984" cy="12.8" rx="3.44" ry=".416"/><path fill="#FFF" d="M4.697 12.68l-.043-1.014.388-1.615s1.164-.561 1.681.15.345 1.486.345 1.486l-2.371.993z"/><linearGradient id="b" gradientUnits="userSpaceOnUse" x1="18292.844" y1="26035.852" x2="18377.391" y2="26120.398" gradientTransform="matrix(.032 0 0 .032 -579.192 -825.92)"><stop offset="0" stop-color="#c9473d"/><stop offset="1" stop-color="#9e3939"/></linearGradient><path fill="url(#b)" d="M11.307 5.096s.064-.2-.563-.657-.9-.414-.9-.414c-.339-.026-.478-.01-.661.204l-4.291 5.893a.274.274 0 0 0-.044.089h-.012s-.427 2.684-.338 2.746c.08.057 2.037-.938 2.45-1.131a.284.284 0 0 0 .068-.033h.001a.324.324 0 0 0 .073-.07l4.217-5.792c.257-.367 0-.835 0-.835zm-5.584 7.142s-.243-.565-.688-.465l-.238.322.354-1.923c.35.022.621.108.785.175.231.1.514.258.66.485.34.531.421.81.421.81l-1.294.596z"/><path fill="#FFF" d="M9.984 2.08l.256 3.2 2.88-.32-3.136-2.88z"/><linearGradient id="c" gradientUnits="userSpaceOnUse" x1="18136.691" y1="25898.059" x2="18511.69" y2="26273.057" gradientTransform="matrix(.032 0 0 .032 -579.192 -825.92)"><stop offset="0" stop-color="#ccc"/><stop offset="1" stop-color="#b3b3b3"/></linearGradient><path fill="url(#c)" d="M10.323 1.595L2.4 1.6v12.8h11.2V4.896l-3.277-3.301zm2.387 3.301h-2.374l-.01-2.391 2.384 2.391zm.25 8.864H3.04V2.24H9.6v3.424h3.36v8.096z"/><linearGradient id="d" gradientUnits="userSpaceOnUse" x1="289.122" y1="-405.091" x2="294.205" y2="-409.612" gradientTransform="matrix(1 0 0 -1 -287.66 -394.96)"><stop offset="0" stop-color="#636363"/><stop offset="1" stop-color="#2e2e2e"/></linearGradient><path fill="url(#d)" d="M8 12.391c0 1.406-1.791 2.547-4 2.547-.1 0-.197-.006-.295-.01l2.393-3.443c.123.279.2.582.2.906 0 .545-.198 1.041-.517 1.435.848-.31 1.405-.836 1.405-1.435 0-.465-.34-.885-.888-1.195l.452-.65c.769.462 1.25 1.116 1.25 1.845zm-7.148 0c0-.584.534-1.1 1.348-1.412a2.279 2.279 0 0 0-.497 1.412c0 .324.077.627.2.905l2.393-3.442A4.85 4.85 0 0 0 4 9.844c-2.209 0-4 1.139-4 2.547 0 .728.481 1.383 1.25 1.846l.463-.668c-.531-.309-.861-.721-.861-1.178zM6.56 9.15l-.417-.289a.45.45 0 0 0-.629.113l-.646.93-1.416 2.039-1.663 2.395-.093.133-.368.53a.45.45 0 0 0 .113.628l.417.291c.078.055.167.08.257.08a.448.448 0 0 0 .371-.193L6.674 9.78a.454.454 0 0 0-.114-.63z"/></svg>