<svg xmlns="http://www.w3.org/2000/svg" width="16" height="16" viewBox="0 0 500 500"><linearGradient id="a" gradientUnits="userSpaceOnUse" x1="96.403" y1="96.404" x2="403.598" y2="403.598"><stop offset="0" stop-color="#74b739"/><stop offset="1" stop-color="#56991c"/></linearGradient><path fill="url(#a)" d="M284.24 9.242v55.646c112.978 23.118 196.115 101.34 196.115 194.292 0 49.288-23.38 94.432-62.185 129.417-15.02 13.54-25.072 20.448-28.475 16.833-3.403-3.615 4.944-14.278 13.273-33.245 7.87-17.92 12.133-37.09 12.133-57.014 0-70.435-53.236-131.435-130.862-161.17v63.183c0 9.844-6.43 12.203-14.285 5.242l-79.183-70.142-28.573-25.312-1.245-1.102c-7.858-6.96-7.857-18.352 0-25.313l27.657-24.5c7.856-6.96 20.715-18.35 28.57-25.312L269.955 4c7.856-6.96 14.285-4.6 14.285 5.242zM230.05 496l52.77-46.746 28.57-25.31 27.66-24.5c7.857-6.96 7.857-18.353 0-25.314l-1.248-1.102-28.572-25.313-79.18-70.14c-7.86-6.962-14.29-4.603-14.29 5.24v63.181C138.136 316.263 84.9 255.263 84.9 184.826c0-19.924 4.262-39.092 12.13-57.013 8.33-18.966 16.678-29.63 13.274-33.245-3.402-3.616-13.454 3.292-28.474 16.833-38.806 34.986-62.186 80.13-62.186 129.417 0 92.954 83.138 171.176 196.116 194.293v55.646c0 9.846 6.43 12.204 14.29 5.244z"/></svg>