<svg xmlns="http://www.w3.org/2000/svg" width="16" height="16"><path d="M1 3.515C1 3.232 1.224 3 1.498 3h13.104c.274 0 .498.232.498.515v8.77a.507.507 0 0 1-.498.515H1.498A.51.51 0 0 1 1 12.284V3.515z" opacity=".6"/><path d="M1.467 3.875c0-.257.21-.467.467-.467h12.149c.257 0 .467.21.467.467v8.002c0 .258-.21.468-.467.468H1.935a.468.468 0 0 1-.467-.468V3.875h-.001z" fill="#F2F2F2"/><path d="M2.197 4.893l5.958 3.569L13.792 4.8 8.155 9.886 2.197 4.893z" fill="#666"/><circle cx="12" cy="12" r="3.5" fill="#edad3b"/><path d="M12.411 9.352v.612c1.242.254 2.157 1.115 2.157 2.137 0 .542-.257 1.039-.684 1.424-.165.148-.276.224-.313.185-.038-.04.054-.157.146-.366a1.56 1.56 0 0 0 .133-.627c0-.775-.586-1.446-1.439-1.773v.695c0 .108-.071.134-.158.058l-.871-.772-.314-.278-.014-.012a.183.183 0 0 1 0-.279l.305-.269.314-.279.58-.514c.087-.077.158-.051.158.058zm-.597 5.354l.581-.514.314-.279.304-.269a.182.182 0 0 0 0-.279L13 13.353l-.315-.278-.871-.772c-.086-.076-.157-.05-.157.058v.695c-.854-.327-1.439-.998-1.439-1.773 0-.219.047-.43.133-.627.092-.209.184-.326.146-.366-.037-.04-.148.036-.313.185-.427.385-.684.882-.684 1.424 0 1.022.915 1.883 2.157 2.137v.612c0 .109.071.135.157.058z" fill="#fff"/></svg>