<?xml version="1.0" encoding="UTF-8"?>
<svg xmlns="http://www.w3.org/2000/svg" width="24" height="24" viewBox="0 0 24 24"><linearGradient id="a" gradientUnits="userSpaceOnUse" x1="3.093" y1="3.093" x2="21.005" y2="21.005"><stop offset="0" stop-color="#ccc"/><stop offset="1" stop-color="#b3b3b3"/></linearGradient><path fill="url(#a)" d="M10.927 8.972H6.035v-.879h4.892v.879zm0 2.636H6.035v.879h4.892v-.879zm0-5.273H6.035v.879h4.892v-.879zm0 3.516H6.035v.879h4.892v-.879zm8.524-6.403H4.645c-.66 0-1.197.537-1.197 1.197v14.806c0 .66.537 1.197 1.197 1.197h14.806c.66 0 1.197-.537 1.197-1.197V4.645c0-.66-.537-1.197-1.197-1.197m0-1c1.213 0 2.197.983 2.197 2.197v14.806a2.197 2.197 0 0 1-2.197 2.197H4.645a2.197 2.197 0 0 1-2.197-2.197V4.645c0-1.213.983-2.197 2.197-2.197h14.806zm-1.39 14.434H6.035v.879H18.06v-.879zm0-3.516H6.035v.879H18.06v-.879zm0 1.758H6.035v.879H18.06v-.879z"/><linearGradient id="b" gradientUnits="userSpaceOnUse" x1="5902.198" y1="-8242.808" x2="6032.345" y2="-8372.955" gradientTransform="matrix(.048 0 0 -.048 -271.548 -389.376)"><stop offset="0" stop-color="#74b739"/><stop offset="1" stop-color="#56991c"/></linearGradient><path fill="url(#b)" d="M11.702 6.335h6.359v6.135h-6.359V6.335z"/></svg>