<svg xmlns="http://www.w3.org/2000/svg" width="24" height="24" viewBox="0 0 500 500"><linearGradient id="a" gradientUnits="userSpaceOnUse" x1="64.407" y1="64.407" x2="437.594" y2="437.594"><stop offset="0" stop-color="#CCC"/><stop offset="1" stop-color="#b3b3b3"/></linearGradient><path fill="url(#a)" d="M227.646 223.536H125.734v-18.31h101.91v18.31zm0-91.55H125.734v18.31h101.91v-18.31zm0 36.62H125.734v18.31h101.91v-18.31zm148.62 183.1H125.734v18.31h250.53v-18.31zm-148.62-109.86H125.734v18.31h101.91v-18.31zm148.62 73.24H125.734v18.31h250.53v-18.31zM451 96.775v308.45c0 25.28-20.494 45.774-45.775 45.774H96.775C71.495 451 51 430.506 51 405.225V96.775C51 71.495 71.494 51 96.775 51h308.45C430.505 51 451 71.494 451 96.775zm-45.775 0H96.775v308.45h308.45V96.775zm-28.96 181.69h-250.53v18.31h250.53v-18.31z"/><linearGradient id="b" gradientUnits="userSpaceOnUse" x1="244.949" y1="130.817" x2="375.098" y2="260.966"><stop offset="0" stop-color="#74b739"/><stop offset="1" stop-color="#56991c"/></linearGradient><path fill="url(#b)" d="M243.78 131.984h132.485v127.814H243.78z"/></svg>