<?xml version="1.0" encoding="UTF-8"?>
<svg xmlns="http://www.w3.org/2000/svg" width="15" height="15" viewBox="0 0 500 500"><linearGradient id="a" gradientUnits="userSpaceOnUse" x1="131.523" y1="42.63" x2="368.478" y2="279.584"><stop offset="0" stop-color="#b3b3b3"/><stop offset="1" stop-color="#999"/></linearGradient><path fill="url(#a)" d="M250 396.666c-1.155 0-4.11-1.832-7.113-6.75l-169.6-277.455c-2.517-4.114-3.19-6.98-3.28-8.314.827-.33 2.565-.812 5.627-.812h348.733c3.063 0 4.798.482 5.627.812-.09 1.334-.766 4.2-3.28 8.315l-169.6 277.457c-3.005 4.917-5.96 6.75-7.114 6.75z"/><path fill="#FFF" d="M396.627 123.334L250 363.21 103.374 123.335h293.253m27.74-40H75.633c-23.975 0-32.71 17.8-19.41 39.558L225.82 400.35c6.648 10.877 15.414 16.316 24.18 16.316 8.765 0 17.53-5.44 24.18-16.316l169.6-277.458c13.297-21.757 4.563-39.558-19.413-39.558z"/></svg>