<svg xmlns="http://www.w3.org/2000/svg" xmlns:xlink="http://www.w3.org/1999/xlink" width="16" height="16"><defs><linearGradient id="b" x1="3721.18" y1="-5298.92" x2="4078.32" y2="-5656.07" gradientTransform="matrix(.03 0 0 -.03 -115.19 -169.84)"><stop offset="0" stop-color="#f0f0f0"/><stop offset="1" stop-color="#c8c8c8"/></linearGradient><linearGradient id="a" x1="3758.33" y1="-5378.94" x2="3841.17" y2="-5461.77" gradientTransform="matrix(.03 0 0 -.03 -115.19 -169.84)"><stop offset="0" stop-color="#ccc"/><stop offset="1" stop-color="#b3b3b3"/></linearGradient><linearGradient id="c" x1="3858.5" y1="-5489.21" x2="3988.44" y2="-5619.16" xlink:href="#a"/><linearGradient id="d" x1="3832.33" y1="-5511.31" x2="4028.42" y2="-5707.4" xlink:href="#a"/><linearGradient id="e" x1="3828.56" y1="-5507.54" x2="4034.45" y2="-5713.43" xlink:href="#b"/><linearGradient id="f" x1="3671.18" y1="-5377.5" x2="4028.32" y2="-5734.64" xlink:href="#b"/><linearGradient id="g" x1="3708.33" y1="-5457.51" x2="3791.17" y2="-5540.34" xlink:href="#a"/><linearGradient id="h" x1="3808.5" y1="-5567.79" x2="3938.44" y2="-5697.73" xlink:href="#a"/><linearGradient id="i" x1="3782.33" y1="-5589.88" x2="3978.42" y2="-5785.97" xlink:href="#a"/><linearGradient id="j" x1="3778.56" y1="-5586.11" x2="3984.45" y2="-5792" xlink:href="#b"/><linearGradient id="k" x1="3621.18" y1="-5456.07" x2="3978.32" y2="-5813.21" xlink:href="#b"/><linearGradient id="l" x1="3658.33" y1="-5536.08" x2="3741.17" y2="-5618.91" xlink:href="#a"/><linearGradient id="m" x1="3758.5" y1="-5646.36" x2="3888.44" y2="-5776.3" xlink:href="#a"/><linearGradient id="n" x1="3732.33" y1="-5668.45" x2="3928.42" y2="-5864.54" xlink:href="#a"/><linearGradient id="o" x1="3728.56" y1="-5664.68" x2="3934.46" y2="-5870.57" xlink:href="#b"/></defs><path d="M3.43.18h12.34V10.7H3.43z" fill="url(#b)"/><circle cx="6.4" cy="3.61" r="1.87" fill="url(#a)"/><path d="M8.93 9.53l1.3-.46 1.06-1.84 1.25.8.73-.17 1.54-1.27h1v-.81L14.37 5 13 6l-1.68-2L9 8l-1.71-.89-2.77 2.47 3-.57z" fill="url(#c)"/><path d="M15.77 10.74v-4.1h-1l-1.5 1.22-.73.14-1.25-.8-1.06 1.87-1.3.46L7.48 9l-3 .57-1.14 1.06z" fill="url(#d)"/><path d="M15.77 10.74v-4.1h-1l-1.5 1.22-.73.14-1.25-.8-1.06 1.87-1.3.46L7.48 9l-3 .57-1.14 1.06z" fill="url(#e)"/><path d="M15.54.46v10H3.66v-10h11.88M16 0H3.2v11H16z" fill="#fff"/><path d="M1.83 2.7h12.34v10.51H1.83z" fill="url(#f)"/><circle cx="4.8" cy="6.13" r="1.87" fill="url(#g)"/><path d="M7.33 12.05l1.3-.46 1.06-1.85 1.25.81.73-.18 1.54-1.26h1V8.3l-1.4-.81-1.35 1-1.68-2-2.36 4-1.73-.87-2.77 2.47 3-.56z" fill="url(#h)"/><path d="M14.17 13.26V9.15h-1l-1.54 1.26-.73.18-1.21-.85-1.06 1.85-1.3.46-1.45-.52-3 .56-1.14 1.05z" fill="url(#i)"/><path d="M14.17 13.26V9.15h-1l-1.54 1.26-.73.18-1.21-.85-1.06 1.85-1.3.46-1.45-.52-3 .56-1.14 1.05z" fill="url(#j)"/><path d="M13.94 3v10H2.06V3h11.88m.46-.46H1.6v11h12.8z" fill="#fff"/><path d="M.23 5.21h12.34v10.52H.23z" fill="url(#k)"/><circle cx="3.2" cy="8.64" r="1.87" fill="url(#l)"/><path d="M5.73 14.56L7 14.1l1.06-1.85 1.25.81.73-.17 1.54-1.27 1 .05v-.86l-1.4-.8-1.36.99-1.68-2-2.32 4-1.73-.86-2.77 2.46 3-.56z" fill="url(#m)"/><path d="M12.57 15.77v-4.1l-1-.05-1.54 1.27-.73.17-1.25-.81L7 14.1l-1.3.46L4.28 14l-3 .56-1.14 1.1z" fill="url(#n)"/><path d="M12.57 15.77v-4.1l-1-.05-1.54 1.27-.73.17-1.25-.81L7 14.1l-1.3.46L4.28 14l-3 .56-1.14 1.1z" fill="url(#o)"/><path d="M12.34 5.49v10H.46v-10h11.88M12.8 5H0v11h12.8z" fill="#fff"/></svg>