<?xml version="1.0" encoding="UTF-8"?>
<svg xmlns="http://www.w3.org/2000/svg" width="16" height="16" viewBox="0 0 500 500"><linearGradient id="a" gradientUnits="userSpaceOnUse" x1="121.429" y1="-8.571" x2="478.572" y2="348.572"><stop offset="0" stop-color="#7aa8d9"/><stop offset="1" stop-color="#335f7f"/></linearGradient><path fill="url(#a)" d="M107.143 5.714h385.714v328.572H107.143z"/><linearGradient id="b" gradientUnits="userSpaceOnUse" x1="158.584" y1="71.441" x2="241.417" y2="154.274"><stop offset=".236" stop-color="#f2da00"/><stop offset="1" stop-color="#ffbd00"/></linearGradient><circle fill="url(#b)" cx="200" cy="112.857" r="58.571"/><linearGradient id="c" gradientUnits="userSpaceOnUse" x1="258.746" y1="181.718" x2="388.691" y2="311.663"><stop offset="0" stop-color="#CCC"/><stop offset="1" stop-color="#b3b3b3"/></linearGradient><path fill="url(#c)" d="M278.992 297.88l40.664-14.413 33.134-57.654 39.158 25.223 22.593-5.404 48.195-39.637 30.122 1.5v-26.723L449.18 155.55l-42.17 32.43-52.713-61.258-72.292 122.513-54.22-27.025-86.568 77.037 92.592-17.583z"/><linearGradient id="d" gradientUnits="userSpaceOnUse" x1="232.583" y1="203.815" x2="428.671" y2="399.902"><stop offset="0" stop-color="#CCC"/><stop offset="1" stop-color="#b3b3b3"/></linearGradient><path fill="url(#d)" d="M492.857 335.714V207.496l-30.122-1.5-48.194 39.636-22.592 5.404-39.158-25.223-33.134 57.654-40.664 14.413-45.183-16.216-92.593 17.583-36.93 32.863z"/><linearGradient id="e" gradientUnits="userSpaceOnUse" x1="228.813" y1="200.044" x2="434.704" y2="405.936"><stop offset="0" stop-color="#74b739"/><stop offset="1" stop-color="#56991c"/></linearGradient><path fill="url(#e)" d="M492.857 335.714V207.496l-30.122-1.5-48.194 39.636-22.592 5.404-39.158-25.223-33.134 57.654-40.664 14.413-45.183-16.216-92.593 17.583-36.93 32.863z"/><path fill="#FFF" d="M485.714 14.286v314.286H114.286V14.286h371.428M500 0H100v342.857h400V0z"/><g><linearGradient id="f" gradientUnits="userSpaceOnUse" x1="71.429" y1="70" x2="428.572" y2="427.144"><stop offset="0" stop-color="#7aa8d9"/><stop offset="1" stop-color="#335f7f"/></linearGradient><path fill="url(#f)" d="M57.143 84.286h385.714v328.572H57.143z"/><linearGradient id="g" gradientUnits="userSpaceOnUse" x1="108.584" y1="150.012" x2="191.417" y2="232.845"><stop offset=".236" stop-color="#f2da00"/><stop offset="1" stop-color="#ffbd00"/></linearGradient><circle fill="url(#g)" cx="150" cy="191.428" r="58.571"/><linearGradient id="h" gradientUnits="userSpaceOnUse" x1="208.746" y1="260.29" x2="338.69" y2="390.234"><stop offset="0" stop-color="#CCC"/><stop offset="1" stop-color="#b3b3b3"/></linearGradient><path fill="url(#h)" d="M228.992 376.45l40.664-14.412 33.134-57.654 39.158 25.223 22.593-5.404 48.195-39.637 30.122 1.5v-26.722L399.18 234.12l-42.17 32.43-52.713-61.257-72.292 122.514-54.22-27.026-86.568 77.038 92.592-17.583z"/><linearGradient id="i" gradientUnits="userSpaceOnUse" x1="182.583" y1="282.385" x2="378.671" y2="478.473"><stop offset="0" stop-color="#CCC"/><stop offset="1" stop-color="#b3b3b3"/></linearGradient><path fill="url(#i)" d="M442.857 414.285v-128.22l-30.122-1.5-48.194 39.638-22.592 5.404-39.158-25.223-33.134 57.654-40.664 14.413-45.183-16.215-92.593 17.583-36.93 32.864z"/><linearGradient id="j" gradientUnits="userSpaceOnUse" x1="178.812" y1="278.614" x2="384.705" y2="484.507"><stop offset="0" stop-color="#74b739"/><stop offset="1" stop-color="#56991c"/></linearGradient><path fill="url(#j)" d="M442.857 414.285v-128.22l-30.122-1.5-48.194 39.638-22.592 5.404-39.158-25.223-33.134 57.654-40.664 14.413-45.183-16.215-92.593 17.583-36.93 32.864z"/><path fill="#FFF" d="M435.714 92.857v314.286H64.286V92.857h371.428M450 78.57H50V421.43h400V78.57z"/></g><g><linearGradient id="k" gradientUnits="userSpaceOnUse" x1="21.429" y1="148.571" x2="378.572" y2="505.715"><stop offset="0" stop-color="#7aa8d9"/><stop offset="1" stop-color="#335f7f"/></linearGradient><path fill="url(#k)" d="M7.143 162.857h385.714V491.43H7.143z"/><linearGradient id="l" gradientUnits="userSpaceOnUse" x1="58.584" y1="228.584" x2="141.416" y2="311.416"><stop offset=".236" stop-color="#f2da00"/><stop offset="1" stop-color="#ffbd00"/></linearGradient><circle fill="url(#l)" cx="100" cy="270" r="58.571"/><linearGradient id="m" gradientUnits="userSpaceOnUse" x1="158.746" y1="338.861" x2="288.691" y2="468.806"><stop offset="0" stop-color="#CCC"/><stop offset="1" stop-color="#b3b3b3"/></linearGradient><path fill="url(#m)" d="M178.992 455.022l40.664-14.413 33.134-57.655 39.158 25.224 22.593-5.406 48.195-39.637 30.122 1.502v-26.725L349.18 312.69l-42.17 32.43-52.713-61.255-72.292 122.513-54.22-27.025-86.568 77.037 92.592-17.583z"/><linearGradient id="n" gradientUnits="userSpaceOnUse" x1="132.583" y1="360.957" x2="328.671" y2="557.045"><stop offset="0" stop-color="#CCC"/><stop offset="1" stop-color="#b3b3b3"/></linearGradient><path fill="url(#n)" d="M392.857 492.856V364.64l-30.122-1.503-48.194 39.637-22.592 5.405-39.158-25.225-33.134 57.654-40.664 14.412-45.183-16.215-92.593 17.583-36.93 32.863z"/><linearGradient id="o" gradientUnits="userSpaceOnUse" x1="128.812" y1="357.187" x2="334.705" y2="563.079"><stop offset="0" stop-color="#74b739"/><stop offset="1" stop-color="#56991c"/></linearGradient><path fill="url(#o)" d="M392.857 492.856V364.64l-30.122-1.503-48.194 39.637-22.592 5.405-39.158-25.225-33.134 57.654-40.664 14.412-45.183-16.215-92.593 17.583-36.93 32.863z"/><path fill="#FFF" d="M385.714 171.428v314.286H14.286V171.428h371.428M400 157.143H0V500h400V157.143z"/></g></svg>