<svg xmlns="http://www.w3.org/2000/svg" width="128" height="128" viewBox="0 0 500 500"><linearGradient id="a" x1="94.436" y1="94.436" x2="405.564" y2="405.564"><stop offset="0" stop-color="#F0453C"/><stop offset="1" stop-color="#DA3939"/></linearGradient><path fill="url(#a)" d="M178.872 470c-11 0-26.364-6.364-34.142-14.143L44.142 355.27C36.364 347.49 30 332.127 30 321.127V178.872c0-11 6.364-26.364 14.142-34.142L144.73 44.142C152.508 36.364 167.872 30 178.872 30h142.255c11 0 26.364 6.364 34.143 14.142L455.857 144.73c7.778 7.778 14.143 23.142 14.143 34.142v142.255c0 11-6.364 26.364-14.143 34.143L355.27 455.857c-7.78 7.78-23.143 14.143-34.143 14.143H178.872z"/><path d="M117.194 212.354c0-4.82-.796-8.932-2.373-12.32-1.58-3.395-4.014-5.09-7.3-5.09-3.65 0-6.335 1.473-8.03 4.408-1.71 2.943-2.556 6.215-2.556 9.83 0 5.28 1.365 9.47 4.103 12.55 2.738 3.096 6.178 5.772 10.317 8.035a354.524 354.524 0 0013.324 6.89c4.745 2.342 9.19 5.396 13.324 9.158 4.14 3.774 7.58 8.715 10.317 14.803 2.736 6.108 4.11 14.073 4.11 23.854 0 17.193-3.96 29.666-11.872 37.432-7.906 7.77-19.348 11.642-34.315 11.642-7.063 0-13.303-.714-18.712-2.156-5.412-1.42-9.984-3.91-13.688-7.45-3.717-3.535-6.55-8.18-8.492-13.913-1.945-5.73-2.92-12.805-2.92-21.247v-5.65h32.863v3.833c0 6.94 1.03 11.8 3.104 14.59 2.06 2.784 4.745 4.185 8.03 4.185 3.532 0 6.235-1.497 8.12-4.523 1.887-3.022 2.832-6.695 2.832-11.088 0-5.276-1.31-9.446-3.93-12.55-2.612-3.08-5.897-5.71-9.856-7.905-3.952-2.192-8.246-4.406-12.863-6.66-4.627-2.273-8.92-5.22-12.87-8.834-3.963-3.617-7.248-8.36-9.857-14.24-2.622-5.88-3.93-13.568-3.93-23.063 0-16.42 3.532-28.934 10.587-37.53 7.062-8.587 17.768-12.886 32.133-12.886 14.848 0 25.583 3.95 32.22 11.866 6.633 7.916 9.952 20.537 9.952 37.877h-31.768v-3.85zm39.248-7.014v-35.724h84.7v35.723H215.59v125.715h-33.96V205.34h-25.188zm90.905 6.447c1.586-10.628 4.206-19.294 7.856-26.002 3.65-6.71 8.46-11.602 14.41-14.695 5.97-3.09 13.268-4.635 21.922-4.635 8.63 0 15.934 1.544 21.903 4.635 5.967 3.094 10.758 7.986 14.415 14.695 3.663 6.708 6.263 15.374 7.852 26.002 1.586 10.628 2.38 23.476 2.38 38.554 0 15.082-.794 27.925-2.38 38.54-1.59 10.632-4.188 19.31-7.852 26.008-3.657 6.723-8.448 11.504-14.415 14.37-5.97 2.862-13.272 4.287-21.903 4.287-8.654 0-15.953-1.425-21.92-4.287-5.953-2.866-10.76-7.647-14.412-14.37-3.65-6.697-6.27-15.376-7.856-26.007-1.58-10.615-2.374-23.458-2.374-38.54 0-15.077.794-27.925 2.374-38.553zm33.045 65.57c.237 7.155.762 12.848 1.556 17.075.793 4.212 1.943 7.155 3.46 8.814 1.523 1.662 3.57 2.488 6.128 2.488 2.555 0 4.584-.826 6.11-2.488 1.522-1.66 2.68-4.603 3.458-8.814.793-4.228 1.316-9.92 1.557-17.074.255-7.154.365-16.17.365-27.018 0-10.858-.11-19.862-.364-27.025-.24-7.153-.763-12.846-1.556-17.066-.777-4.22-1.936-7.164-3.458-8.815-1.526-1.66-3.556-2.49-6.11-2.49-2.557 0-4.604.83-6.13 2.49-1.515 1.65-2.665 4.597-3.458 8.814-.794 4.22-1.318 9.912-1.556 17.065-.238 7.163-.364 16.167-.364 27.025 0 10.85.125 19.864.364 27.018zm119.581-107.741c6.44 0 12.046 1.286 16.79 3.845 4.745 2.566 8.666 6.07 11.778 10.515 3.095 4.448 5.38 9.688 6.84 15.71 1.46 6.038 2.19 12.593 2.19 19.678 0 16.73-3.62 29.277-10.855 37.638-7.256 8.38-17.874 12.55-31.853 12.55h-11.875v61.506H349.04v-161.44h50.933zm-10.588 69.65c4.253 0 7.504-1.595 9.76-4.756 2.254-3.162 3.38-8.144 3.38-14.922 0-13.112-4.38-19.673-13.14-19.673h-6.397v39.35h6.397z" fill="#FFF"/></svg>