<svg xmlns="http://www.w3.org/2000/svg" width="12" height="16" viewBox="0 -2 12 16"><linearGradient id="a" x1="11925.736" y1="-16961.227" x2="12279.281" y2="-17314.771" gradientTransform="matrix(.024 0 0 -.024 -284.46 -405.312)"><stop offset="0" stop-color="#74b739"/><stop offset="1" stop-color="#56991c"/></linearGradient><circle fill="url(#a)" cx="6" cy="6" r="6"/><path fill="#FFF" d="M6.36 2.022v1.966c0 .057-.314.103-.7.103H2.938c-.385 0-.7.316-.7.7v2.402c0 .385.315.7.7.7h2.725c.385 0 .7.04.7.088v2.005c0 .056.227-.116.504-.384l3.236-3.123a.672.672 0 000-.972L6.865 2.382c-.277-.267-.504-.43-.504-.36z"/></svg>