<svg xmlns="http://www.w3.org/2000/svg" width="18" height="18" viewBox="0 0 500 500"><linearGradient id="a" gradientUnits="userSpaceOnUse" x1="49.364" y1="49.364" x2="379.637" y2="379.637"><stop offset="0" stop-color="#196b99"/><stop offset="1" stop-color="#0d5c7f"/></linearGradient><path fill="url(#a)" d="M402.482 324.48c0 43.08-34.923 78.002-78 78.002H104.518c-43.08 0-78.002-34.923-78.002-78V104.518c0-43.08 34.922-78.002 78-78.002h219.964c43.078 0 78 34.922 78 78v219.963z"/><circle fill="#FFF" cx="214.5" cy="176.981" r="84.115"/><path fill="#FFF" d="M337.91 256.897c-8.492-6.324-25.64-2.657-38.108 8.15 0 0-42.327 36.688-85.302 36.688-42.974 0-85.3-36.688-85.3-36.688-12.47-10.808-29.618-14.475-38.11-8.15S61.876 296.44 61.876 312.94v23.638c0 16.5 13.5 30 30 30h245.248c16.5 0 30-13.5 30-30v-23.64c0-16.5-20.722-49.716-29.214-56.04z"/><linearGradient id="b" gradientUnits="userSpaceOnUse" x1="280.065" y1="299.849" x2="432.436" y2="452.221"><stop offset="0" stop-color="#74b739"/><stop offset="1" stop-color="#56991c"/></linearGradient><path fill="url(#b)" d="M377.73 253.123v60.902c0 1.733-9.754 3.15-21.678 3.15h-84.375c-11.922 0-21.678 9.754-21.678 21.676v74.363c0 11.922 9.755 21.677 21.677 21.677h84.375c11.924 0 21.678 1.227 21.678 2.73v62.045c0 1.75 7.02-3.594 15.602-11.873l100.232-96.71a20.82 20.82 0 0 0 0-30.103l-100.232-96.71c-8.58-8.276-15.602-13.293-15.602-11.147z"/></svg>