<svg xmlns="http://www.w3.org/2000/svg" width="16" height="16"><path d="M1.55 1.909h12.899v12.142H1.55V1.909z" fill="#fff"/><path d="M1.2 1.6v12.8h13.6V1.6H1.2zm12.96 12.16H1.84V3.616h12.32V13.76z" fill="#b3b3b3"/><path fill="#74b739" d="M2.514 4.42v8.873h10.972V4.42H2.514zM7.7 6.414v.888H5.46v-.888H7.7zm0 1.368v.888H5.46v-.888H7.7zm0 1.368v.888H5.46V9.15H7.7zm0 1.368v.889H5.46v-.889H7.7zm0 1.368v.928H5.46v-.928H7.7zm.48 0h2.24v.928H8.18v-.928zm0-.48v-.889h2.24v.889H8.18zm0-1.368V9.15h2.24v.888H8.18zm0-1.368v-.888h2.24v.888H8.18zm0-1.368v-.888h2.24v.888H8.18zm-5.186-.888H4.98v.888H2.994v-.888zm0 1.368H4.98v.888H2.994v-.888zm0 1.368H4.98v.888H2.994V9.15zm0 1.368H4.98v.889H2.994v-.889zm0 1.368H4.98v.928H2.994v-.928zm10.012.927H10.9v-.928h2.105v.928h.001zm0-1.407H10.9v-.889h2.105v.889zm0-1.368H10.9V9.15h2.105v.888zm0-1.368H10.9v-.888h2.105v.888zm0-1.368H10.9v-.888h2.105v.888z"/></svg>