<svg xmlns="http://www.w3.org/2000/svg" width="16" height="16" viewBox="0 0 500 500"><path fill-rule="evenodd" clip-rule="evenodd" fill="#FFF" d="M48.452 59.645h403.096v379.448H48.452z"/><linearGradient id="a" gradientUnits="userSpaceOnUse" x1="43.751" y1="43.751" x2="456.251" y2="456.251"><stop offset="0" stop-color="#CCC"/><stop offset="1" stop-color="#b3b3b3"/></linearGradient><path fill="url(#a)" d="M37.5 50v400h425V50h-425zm405 380h-385V113h385v317z"/><linearGradient id="b" gradientUnits="userSpaceOnUse" x1="94.967" y1="121.746" x2="405.033" y2="431.812"><stop offset="0" stop-color="#74b739"/><stop offset="1" stop-color="#56991c"/></linearGradient><path fill="url(#b)" d="M78.574 138.138v277.28h342.852V138.14H78.574zm162.063 62.297v27.75h-70v-27.75h70zm0 42.75v27.75h-70v-27.75h70zm0 42.75v27.75h-70v-27.75h70zm0 42.75v27.75h-70v-27.75h70zm0 42.75v28.984h-70v-28.984h70zm15 0h70v28.984h-70v-28.984zm0-15v-27.75h70v27.75h-70zm0-42.75v-27.75h70v27.75h-70zm0-42.75v-27.75h70v27.75h-70zm0-42.75v-27.75h70v27.75h-70zm-162.063-27.75h62.063v27.75H93.574v-27.75zm0 42.75h62.063v27.75H93.574v-27.75zm0 42.75h62.063v27.75H93.574v-27.75zm0 42.75h62.063v27.75H93.574v-27.75zm0 42.75h62.063v28.984H93.574v-28.984zm312.852 28.984h-65.79v-28.984h65.79v28.983zm0-43.984h-65.79v-27.75h65.79v27.75zm0-42.75h-65.79v-27.75h65.79v27.75zm0-42.75h-65.79v-27.75h65.79v27.75zm0-42.75h-65.79v-27.75h65.79v27.75z"/></svg>