<svg xmlns="http://www.w3.org/2000/svg" width="16" height="16" viewBox="0 0 500 500"><path fill="#FFF" d="M410 155v285H90V60h228z"/><path fill="#F9FAFA" d="M410 155v285H90V60h228z"/><linearGradient id="a" gradientUnits="userSpaceOnUse" x1="195.353" y1="345.853" x2="303.648" y2="454.148"><stop offset="0" stop-color="#CCC"/><stop offset="1" stop-color="#b3b3b3"/></linearGradient><ellipse fill="url(#a)" cx="249.5" cy="400" rx="107.5" ry="13"/><linearGradient id="b" gradientUnits="userSpaceOnUse" x1="220.177" y1="279.899" x2="255.544" y2="315.267"><stop offset="0" stop-color="#74b739"/><stop offset="1" stop-color="#56991c"/></linearGradient><path fill-rule="evenodd" clip-rule="evenodd" fill="url(#b)" d="M288.955 281.855l-40.152-30.582-46.615 77.46 19.588 14.917z"/><path fill-rule="evenodd" clip-rule="evenodd" d="M181.457 340.22s-13.076 6.87-14.365 24.632c-1.29 17.762-10.4 17.92-23.782 20.925-13.383 3.002-27.802-8.148-27.802-8.148s32.073 35.054 60.093 27.898c28.02-7.153 39.218-25.74 40.8-34.098 1.585-8.356-.49-15.675-.49-15.675s-11.435-29.18-34.453-15.535z"/><linearGradient id="c" gradientUnits="userSpaceOnUse" x1="292.231" y1="178.337" x2="345.848" y2="231.954"><stop offset="0" stop-color="#74b739"/><stop offset="1" stop-color="#56991c"/></linearGradient><path fill-rule="evenodd" clip-rule="evenodd" fill="url(#c)" d="M314.4 156.388v-.22l-65.273 84.52 49.947 38.04 76.664-122.34z"/><path fill="#FFF" d="M312 65l8 100 90-10z"/><linearGradient id="d" gradientUnits="userSpaceOnUse" x1="36.937" y1="88.064" x2="411.937" y2="463.064"><stop offset="0" stop-color="#CCC"/><stop offset="1" stop-color="#b3b3b3"/></linearGradient><path fill="url(#d)" d="M322.597 49.85L75 50v400h350V153L322.597 49.85zM397.184 153H323l-.292-74.71L397.184 153zM405 430H95V70h205v107h105v253z"/></svg>