<?xml version="1.0" encoding="UTF-8"?>
<svg xmlns="http://www.w3.org/2000/svg" xmlns:xlink="http://www.w3.org/1999/xlink" width="16" height="16" viewBox="0 0 500 500"><defs><path id="a" d="M370.298 273.555s-36.548 32.247-85.994 68.795c-8.6 55.896-38.212 73.782-64.495 74.17-73.096 1.074-84.92-61.272-84.92-61.272s15.113.518 36.547 4.3c18.273 3.225 11.824-4.3 21.5-24.723s38.696-29.023 38.696-29.023l42.997-82.77 134.365-177.36-376.223-2.15v413.844h437.492l-1.074-338.6-98.892 154.79z"/></defs><clipPath id="b"><use xlink:href="#a" overflow="visible"/></clipPath><g clip-path="url(#b)"><path fill-rule="evenodd" clip-rule="evenodd" fill="#FFF" d="M49.97 59.645h403.097v379.448H49.97z"/><linearGradient id="c" gradientUnits="userSpaceOnUse" x1="152" y1="87.501" x2="350" y2="285.5"><stop offset="0" stop-color="#CCC"/><stop offset="1" stop-color="#b3b3b3"/></linearGradient><path fill="url(#c)" d="M412.5 170h-323v-20h323v20zm0 33h-323v20h323v-20z"/><linearGradient id="d" gradientUnits="userSpaceOnUse" x1="43.751" y1="43.751" x2="456.251" y2="456.251"><stop offset="0" stop-color="#CCC"/><stop offset="1" stop-color="#b3b3b3"/></linearGradient><path fill="url(#d)" d="M37.5 50v400h425V50h-425zm405 380h-385V113h385v317zm-30-154h-323v-20h323v20z"/><linearGradient id="e" gradientUnits="userSpaceOnUse" x1="283.791" y1="293.495" x2="407.123" y2="416.827"><stop offset="0" stop-color="#CCC"/><stop offset="1" stop-color="#b3b3b3"/></linearGradient><path fill="url(#e)" d="M278.857 298.428h133.198v113.466H278.857z"/><linearGradient id="f" gradientUnits="userSpaceOnUse" x1="296.621" y1="321.126" x2="325.226" y2="349.731"><stop offset="0" stop-color="#CCC"/><stop offset="1" stop-color="#b3b3b3"/></linearGradient><circle fill="url(#f)" cx="310.923" cy="335.428" r="20.226"/><linearGradient id="g" gradientUnits="userSpaceOnUse" x1="331.21" y1="359.207" x2="376.084" y2="404.081"><stop offset="0" stop-color="#CCC"/><stop offset="1" stop-color="#b3b3b3"/></linearGradient><path fill="url(#g)" d="M338.202 399.32l14.042-4.975 11.443-19.91 13.522 8.71 7.8-1.867 16.643-13.687 10.403.52v-9.23l-15.083-8.71-14.563 11.2-18.203-21.153-24.965 42.306-18.723-9.333-29.896 26.603 31.975-6.07z"/><linearGradient id="h" gradientUnits="userSpaceOnUse" x1="322.176" y1="366.839" x2="389.89" y2="434.553"><stop offset="0" stop-color="#CCC"/><stop offset="1" stop-color="#b3b3b3"/></linearGradient><path fill="url(#h)" d="M412.056 412.387V368.11l-10.403-.52-16.642 13.688-7.8 1.867-13.523-8.71-11.443 19.91-14.042 4.976-15.603-5.598-31.976 6.07-12.754 11.35z"/><linearGradient id="i" gradientUnits="userSpaceOnUse" x1="320.873" y1="365.536" x2="391.973" y2="436.636"><stop offset="0" stop-color="#CCC"/><stop offset="1" stop-color="#b3b3b3"/></linearGradient><path fill="url(#i)" d="M412.056 412.387V368.11l-10.403-.52-16.642 13.688-7.8 1.867-13.523-8.71-11.443 19.91-14.042 4.976-15.603-5.598-31.976 6.07-12.754 11.35z"/><g><linearGradient id="j" gradientUnits="userSpaceOnUse" x1="95.073" y1="293.495" x2="218.405" y2="416.827"><stop offset="0" stop-color="#CCC"/><stop offset="1" stop-color="#b3b3b3"/></linearGradient><path fill="url(#j)" d="M90.14 298.428h133.198v113.466H90.14z"/><linearGradient id="k" gradientUnits="userSpaceOnUse" x1="107.904" y1="321.126" x2="136.508" y2="349.731"><stop offset="0" stop-color="#CCC"/><stop offset="1" stop-color="#b3b3b3"/></linearGradient><circle fill="url(#k)" cx="122.206" cy="335.428" r="20.226"/><linearGradient id="l" gradientUnits="userSpaceOnUse" x1="142.493" y1="359.208" x2="187.367" y2="404.082"><stop offset="0" stop-color="#CCC"/><stop offset="1" stop-color="#b3b3b3"/></linearGradient><path fill="url(#l)" d="M149.485 399.32l14.042-4.975 11.442-19.91 13.522 8.71 7.8-1.867 16.644-13.687 10.402.52v-9.23l-15.083-8.71-14.562 11.2-18.203-21.153-24.965 42.306-18.724-9.333-29.893 26.603 31.974-6.07z"/><linearGradient id="m" gradientUnits="userSpaceOnUse" x1="133.458" y1="366.839" x2="201.173" y2="434.553"><stop offset="0" stop-color="#CCC"/><stop offset="1" stop-color="#b3b3b3"/></linearGradient><path fill="url(#m)" d="M223.338 412.387V368.11l-10.402-.52-16.643 13.688-7.8 1.867-13.524-8.71-11.443 19.91-14.042 4.976-15.604-5.598-31.973 6.07-12.754 11.35z"/><linearGradient id="n" gradientUnits="userSpaceOnUse" x1="132.156" y1="365.536" x2="203.256" y2="436.636"><stop offset="0" stop-color="#CCC"/><stop offset="1" stop-color="#b3b3b3"/></linearGradient><path fill="url(#n)" d="M223.338 412.387V368.11l-10.402-.52-16.643 13.688-7.8 1.867-13.524-8.71-11.443 19.91-14.042 4.976-15.604-5.598-31.973 6.07-12.754 11.35z"/></g></g><g><linearGradient id="o" gradientUnits="userSpaceOnUse" x1="376.011" y1="96.618" x2="447.137" y2="167.744"><stop offset="0" stop-color="#b3b3b3"/><stop offset="1" stop-color="#999"/></linearGradient><path fill-rule="evenodd" clip-rule="evenodd" fill="url(#o)" d="M348.742 266.14l147.3-235.06c6.477-8.503 4.833-20.647-3.67-27.123-8.505-6.476-20.647-4.832-27.123 3.67L296.394 226.274l52.347 39.866z"/><linearGradient id="p" gradientUnits="userSpaceOnUse" x1="266.054" y1="267.367" x2="303.12" y2="304.433"><stop offset="0" stop-color="#b3b3b3"/><stop offset="1" stop-color="#999"/></linearGradient><path fill-rule="evenodd" clip-rule="evenodd" fill="url(#p)" d="M338.137 269.416l-42.082-32.05-48.854 81.182 20.53 15.634z"/><linearGradient id="q" gradientUnits="userSpaceOnUse" x1="156.355" y1="363.41" x2="262.722" y2="363.41"><stop offset="0" stop-color="#999"/><stop offset="1" stop-color="#666"/></linearGradient><path fill-rule="evenodd" clip-rule="evenodd" fill="url(#q)" d="M225.473 330.585s-13.705 7.2-15.056 25.816c-1.352 18.616-10.9 18.782-24.925 21.93-14.026 3.147-29.138-8.54-29.138-8.54s33.614 36.74 62.98 29.242c29.368-7.497 41.102-26.98 42.762-35.737 1.66-8.758-.515-16.428-.515-16.428s-11.984-30.58-36.107-16.282z"/></g><g><linearGradient id="r" gradientUnits="userSpaceOnUse" x1="260.933" y1="291.263" x2="424.861" y2="455.191"><stop offset="0" stop-color="#74b739"/><stop offset="1" stop-color="#56991c"/></linearGradient><path fill="url(#r)" d="M306.348 487.66c-17.264 0-31.31-14.046-31.31-31.31v-82.94c0-4.68-.2-8.488-.448-11.308h-53.224c-4.158 0-7.888-2.454-9.5-6.252-2.4-5.65-.99-10.517 13.974-26.026l95.064-98.526c5.837-6.05 13.648-9.382 21.992-9.382 8.345 0 16.155 3.332 21.992 9.382l95.063 98.526c14.342 14.863 15.77 20.4 13.413 25.946-1.634 3.847-5.422 6.332-9.65 6.332H411.28c-.29 2.784-.526 6.6-.526 11.31v82.938c0 17.264-14.045 31.31-31.31 31.31H306.35z"/><path fill="#FFF" d="M342.896 231.915c5.363 0 10.727 2.11 14.796 6.326l95.063 98.527c8.138 8.435 13.07 15.335 10.96 15.335H403.847c-1.704 0-3.096 9.59-3.096 21.31v82.938c0 11.72-9.59 21.31-21.31 21.31h-73.095c-11.72 0-21.31-9.59-21.31-21.31v-82.94c0-11.72-1.205-21.308-2.68-21.308H221.364c-1.72 0 3.533-6.9 11.67-15.335L328.1 238.24c4.07-4.216 9.433-6.325 14.796-6.325m0-20c-11.084 0-21.45 4.418-29.19 12.44l-95.062 98.526c-4.07 4.22-7.62 8.224-10.26 11.58-3.2 4.066-10.696 13.592-5.723 25.3 3.186 7.498 10.528 12.343 18.706 12.343h43.666c.004.428.006.863.006 1.31v82.938c0 22.778 18.53 41.31 41.308 41.31h73.096c22.777 0 41.31-18.53 41.31-41.31v-82.938c0-.445 0-.882.006-1.31h42.954c8.248 0 15.648-4.875 18.854-12.42 4.927-11.603-2.44-21.384-5.213-25.065-2.595-3.445-6.124-7.503-10.207-11.735l-95.063-98.526c-7.74-8.023-18.107-12.44-29.19-12.44z"/></g></svg>