<svg xmlns="http://www.w3.org/2000/svg" width="16" height="16" viewBox="0 0 500 500"><linearGradient id="a" gradientUnits="userSpaceOnUse" x1="182.968" y1="184.532" x2="370.339" y2="371.903" gradientTransform="matrix(0 1 1 0 -6.4 -21.357)"><stop offset="0" stop-color="#74b739"/><stop offset="1" stop-color="#56991c"/></linearGradient><path fill="url(#a)" d="M191.245 495.078l-64.926-57.515c-9.67-8.563-25.49-22.578-35.157-31.142l-34.028-30.143c-9.668-8.563-9.668-22.58 0-31.145l1.533-1.356 35.155-31.143 97.422-86.3c9.667-8.563 17.577-5.66 17.577 6.45V310.52c95.51-36.585 161.01-111.636 161.01-198.3 0-24.513-5.245-48.098-14.927-70.146-10.247-23.336-20.52-36.455-16.332-40.903 4.187-4.447 16.554 4.052 35.033 20.712 47.746 43.044 76.51 98.588 76.51 159.23 0 114.364-102.29 210.606-241.294 239.05V488.628c0 12.112-7.91 15.014-17.577 6.45z"/></svg>