<?xml version="1.0" encoding="UTF-8"?>
<svg xmlns="http://www.w3.org/2000/svg" width="16" height="16" viewBox="0 0 500 500"><linearGradient id="a" gradientUnits="userSpaceOnUse" x1="101.792" y1="101.792" x2="398.209" y2="398.209"><stop offset="0" stop-color="#c9473d"/><stop offset="1" stop-color="#9e3939"/></linearGradient><path fill="url(#a)" d="M250 90.812C111.93 90.812 0 162.082 0 250s111.93 159.188 250 159.188S500 337.918 500 250 388.07 90.812 250 90.812zm47.572 57.15l-40.872 40.87c-3.957 3.96-10.434 3.96-14.392 0l-40.89-40.89c15.353-2.063 31.41-3.178 47.958-3.178 16.632 0 32.773 1.115 48.196 3.198zM52.882 250c0-45.058 52.882-83.494 127.212-98.497L145.5 186.1c-3.96 3.957-3.944 10.418.032 14.357l42.774 42.38c3.976 3.94 3.99 10.4.033 14.358L145.76 299.77c-3.958 3.96-3.958 10.436 0 14.393l34.333 34.334C105.765 333.493 52.883 295.057 52.883 250zm196.495 105.235c-16.55 0-32.605-1.114-47.96-3.18l40.892-40.89c3.957-3.958 10.434-3.958 14.39 0l40.874 40.872c-15.424 2.084-31.567 3.198-48.197 3.198zm191.65-81.932c-13.83 32.763-56.197 59.726-112.377 73.01-3.25.815-6.533 1.564-9.833 2.28l34.43-34.43c3.957-3.957 3.957-10.434 0-14.392l-42.577-42.574c-3.957-3.96-3.957-10.435 0-14.394l42.576-42.575c3.96-3.958 3.96-10.435 0-14.393l-34.427-34.427c3.3.715 6.583 1.464 9.834 2.28 56.18 13.284 98.547 40.247 112.375 73.012 3.682 7.75 5.55 15.553 5.55 23.3s-1.868 15.552-5.552 23.303z"/></svg>