<svg xmlns="http://www.w3.org/2000/svg" width="13" height="16" viewBox="0 0 13 16"><linearGradient id="a" gradientUnits="userSpaceOnUse" x1="-11953.323" y1="309.425" x2="-12118.394" y2="144.354" gradientTransform="rotate(180 -285.652 9.932) scale(.048)"><stop offset="0" stop-color="#74b739"/><stop offset="1" stop-color="#56991c"/></linearGradient><path fill="url(#a)" d="M.026 7.857H3.192c.092 0 .165.508.165 1.127v4.39c0 .62.506 1.126 1.127 1.126H8.35a1.13 1.13 0 0 0 1.127-1.127v-4.39c0-.618.063-1.126.142-1.126H12.846c.09 0-.187-.364-.617-.81L7.2 1.833a1.084 1.084 0 0 0-1.566 0L.604 7.047c-.43.446-.69.81-.578.81z"/></svg>