<svg xmlns="http://www.w3.org/2000/svg" width="16" height="16" viewBox="0 0 16 16"><linearGradient id="a" gradientUnits="userSpaceOnUse" x1="2428.8672" y1="14013.3984" x2="8774.6514" y2="20359.1816" gradientTransform="matrix(0.001 0 0 0.001 -580.1769 -831.5558)"><stop  offset="0" style="stop-color:#74B739"/><stop  offset="1" style="stop-color:#56991C"/></linearGradient><path fill="url(#a)" d="M8,3.405c2.537,0,4.596,2.057,4.596,4.595c0,2.537-2.059,4.595-4.596,4.595 c-2.538,0-4.595-2.058-4.595-4.595C3.405,5.462,5.462,3.405,8,3.405z"/><path fill="#FFFFFF" d="M8,6.521c0.816,0,1.479,0.662,1.479,1.479c0,0.816-0.662,1.479-1.479,1.479 C7.183,9.479,6.521,8.816,6.521,8C6.521,7.183,7.183,6.521,8,6.521z"/><linearGradient id="b" gradientUnits="userSpaceOnUse" x1="969.5898" y1="12554.125" x2="10232.5742" y2="21817.1113" gradientTransform="matrix(0.001 0 0 0.001 -580.1769 -831.5558)"><stop  offset="0" style="stop-color:#74B739"/><stop  offset="1" style="stop-color:#56991C"/></linearGradient><path fill="url(#b)" d="M8,2.906c-4.418,0-8,2.28-8,5.094c0,2.814,3.582,5.094,8,5.094S16,10.814,16,8 C16,5.186,12.418,2.906,8,2.906z M8.039,11.453C4.54,11.453,1.704,9.907,1.704,8S4.54,4.547,8.039,4.547 c3.498,0,6.334,1.546,6.334,3.453S11.537,11.453,8.039,11.453z"/></svg>