<?xml version="1.0" encoding="UTF-8"?>
<svg xmlns="http://www.w3.org/2000/svg" width="16" height="16" viewBox="0 0 16 16"><linearGradient id="a" gradientUnits="userSpaceOnUse" x1="2.922" y1="3.484" x2="13.088" y2="12.525"><stop offset="0" stop-color="#ccc"/><stop offset="1" stop-color="#b3b3b3"/></linearGradient><path fill="url(#a)" d="M8 2.906c-4.418 0-8 2.28-8 5.094s3.582 5.094 8 5.094 8-2.28 8-5.094-3.582-5.094-8-5.094zM1.704 8c0-1.168 1.067-2.199 2.695-2.824-.614.781-.995 1.754-.995 2.824s.382 2.043.996 2.824C2.771 10.199 1.704 9.168 1.704 8zm9.859 2.869c.637-.788 1.033-1.777 1.033-2.869s-.396-2.081-1.033-2.869c1.694.619 2.81 1.674 2.81 2.869 0 1.196-1.116 2.25-2.81 2.869z"/><path fill="#FFF" d="M8 6.521A1.48 1.48 0 1 1 8 9.48 1.48 1.48 0 0 1 8 6.52z"/></svg>