<?xml version="1.0" encoding="utf-8"?>
<svg version="1.1" xmlns="http://www.w3.org/2000/svg" xmlns:xlink="http://www.w3.org/1999/xlink" viewBox="0 0 178.6 155.9" xml:space="preserve">
<path fill="#fff" d="M11.8,0C5.3,0,0,5.3,0,11.8v132.4c0,6.5,5.3,11.8,11.8,11.8h155c6.5,0,11.8-5.2,11.8-11.7V11.8
	c0-6.5-5.3-11.8-11.8-11.8H11.8z"/>
<path fill="#f47c00" d="M15.9,94.6c5,23.3,9.2,45.4,23.7,61.3H11.8C5.3,156,0,150.7,0,144.2V11.8C0,5.3,5.3,0,11.8,0h20.1
	C27,4.5,22.7,9.5,19.1,15.1C3.2,39.5,9.7,66,15.9,94.6z M166.8,0h-31.5c7.5,7.5,13.8,17.1,18.5,29.1l-47.9,10.1
	C100.6,29.2,92.6,20.8,77,24.1c-8.6,1.8-14.3,6.6-16.8,11.9c-3.1,6.5-4.6,13.8,2.8,48.6s11.8,40.8,17.3,45.5
	c4.5,3.8,11.7,5.9,20.3,4.1c15.6-3.3,19.5-14.2,20.2-25.5l47.9-10.1c1.1,24.8-6.5,44-20.1,57.3h18.2c6.5,0,11.8-5.2,11.8-11.7V11.8
	C178.6,5.3,173.3,0,166.8,0z"/>
</svg>
