<svg xmlns="http://www.w3.org/2000/svg" width="16" height="16"><path fill="#ccc" d="M12.896 1.312H1.667C.745 1.312 0 2.131 0 3.143v8.337c0 1.012.746 1.832 1.667 1.832h11.229c.92 0 1.667-.82 1.667-1.832V3.143c0-1.012-.748-1.831-1.667-1.831M5.044 5.143H7.13v7.335H5.044zm-.189 7.336H2.769V5.143h2.086zm2.464-7.336h2.086v7.335H7.319zm2.276 0h2.086v7.335H9.595zM.758 11.48V5.143h1.821v7.335h-.912c-.501.001-.909-.447-.909-.998m13.046 0c0 .551-.407.998-.908.998H11.87V5.143h1.934z"/><path fill="#c9473d" d="M4.513 7.553H3.09V6.198h1.423zm0 .519H3.09v1.355h1.423zm0 1.875H3.09v1.355h1.423z"/><path fill="#f0f0f0" d="M11.156 15.625c-2.464 0-4.469-2.005-4.469-4.469s2.005-4.469 4.469-4.469 4.469 2.005 4.469 4.469-2.005 4.469-4.469 4.469"/><path fill="#454545" d="M11.156 7.063c2.257 0 4.094 1.837 4.094 4.094s-1.837 4.094-4.094 4.094-4.094-1.837-4.094-4.094 1.837-4.094 4.094-4.094m0-.75a4.844 4.844 0 100 9.687 4.844 4.844 0 000-9.687m.454 4.41-.095.04a.6.6 0 00-.313-.088c-.582-1.508-1.114-2.666-1.213-2.628s.271 1.253.835 2.766a.62.62 0 00-.203.704.63.63 0 00.807.362.62.62 0 00.351-.343c.044-.017.086-.03.131-.048 1.234-.484 2.169-1.048 2.085-1.259s-1.15.009-2.385.494"/></svg>