<svg xmlns="http://www.w3.org/2000/svg" width="32" height="32"><path fill="#6f7685" d="M30.522 21.932c-.022-.36.046-.31.08-.59-.073.033-.103-.276-.106-.395l.017.006c-.005-.178-.062-.582-.067-.875l.04.012c-.04-.246-.024-.707-.034-.885.01-.404.057-1.037-.053-1.586.027-.122.05-.247.073-.372l-.018-.05c-.004-.023-1.44-.344-1.65.348l-.04-.005.02.127c-.007.157.046.225.005.218l-.014-.213c.002.157-.03.05-.057-.007 0 .065.002.13-.006.182.02.028.015-.024.02-.05.023.082.07.196.063.3.006.16-.064.015-.058.204.032.993-.028 1.98-.06 3.01-.018.024-.016-.004-.02-.034.003.312-.017.588-.017.873-.02.077-.048.097-.066.12.04-.047-.074 1.57-.092 1.597l.07.026c-.025.31-.09.082-.1.37.094.12-.055.47-.01.574-.01-.003-.025.136-.057.124.05.05-.002.146.003.235.014.033.02-.02.04-.044l-.003.205c-.025.076-.06.092-.058.006-.04.327-.2 1.423-.33 2.34a.786.786 0 01-.025-.06c-.082-.355-.19-.582-.24-.847l-.127-.228c-.2-.602-.744-2.075-1.383-3.512a49.527 49.527 0 00-1.656-3.4l.028.04c-.87-1.737-3.056-5.124-4.45-6.598-.167-.265-.442-.592-.65-.842.106.147.042.122-.05.015-.648-.744-.066-.03-.74-.765-.406-.407-1.34-1.43-2.33-2.376a61.155 61.155 0 00-2.39-2.18c-.465-.296-.97-.76-1.428-1.047l.053.02c-.45-.36-3.13-2.237-3.747-2.52l.073.053c-.528-.26-.42-.285-.815-.53.016.096-.44-.115-.614-.196l.015-.01c-.26-.127-.87-.37-1.303-.568l.034-.03c-.375-.134-1.046-.463-1.313-.568C4.39 1.276 3.473.836 2.61.617 2.44.522 2.27.43 2.09.34L2.004.326C1.96.317.826 1.447 1.772 2.01l-.028.033.204.056c.237.093.364.088.335.12l-.33-.11c.24.087.062.054-.037.046.1.036.198.07.275.11.054 0-.03-.028-.064-.048.136.03.33.053.485.128.25.092-.004.065.285.175 1.52.593 2.947 1.318 4.403 2.123.025.033-.014.01-.06-.006.447.23.83.458 1.228.683.097.08.113.12.137.154-.033-.09 2.137 1.345 2.15 1.4l.068-.042c.405.288.072.148.45.407.204.025.604.46.76.52-.01.004.166.146.135.162.088 0 .19.133.31.21.05.02-.02-.037-.04-.074l.265.187c.086.095.09.14-.02.057.687.502 3.623 3.32 4.222 4.016-.05-.115-.263-.302-.287-.426.19.152.232.27.334.32-.01.136.345.406.395.608l.087.015.055.113c.744.76.186.16.79.883.356.415.584.564.755.817-.027-.036-.078-.15.023-.05-.023.05.258.272.262.356.09.104.36.458.32.3.02.08.245.408.08.235.08.11.148.22.22.288l-.09-.15c.28.357.38.59.6.798l-.075-.153c.158.22.295.404.3.53l-.177-.218c.26.367.407.596.646.888l-.07-.112c.334.35 1.663 2.488 1.92 2.858l-.05-.204.22.316c-.02-.036-.188-.074-.23-.11.464.723 2.235 4.558 2.42 5.297.083.296-.056.08-.065.08.15.34.11.13.217.43.02.083-.044-.004-.068-.047.055.128.08.255.107.257-.04-.17.044-.123.058-.207l.135.386-.044-.003c.03.087.183.18.293.565.207.645.448 1.338.636 1.992-.026-.004-.082-.136-.14-.268.027.086.075.216.08.302-.005-.17.11.266.09.137.193.363.287.854.407 1.245l-.077-.014a3.287 3.287 0 00-.317-.032l.08.02c-.3.013-1.816-.316-2.1-.324l.107.084-.24-.023c.027.01.156-.13.174-.105-.494-.104-2.99-.91-3.396-1.146-.163-.097 0-.088.005-.095-.218-.07-.11.013-.29-.064-.044-.028.026-.033.057-.028-.08-.025-.146-.074-.16-.054.09.058.023.1.05.155l-.23-.103.027-.033c-.05-.023-.174.05-.39-.07-.37-.182-.78-.36-1.148-.553.016-.017.1.01.185.034-.05-.025-.13-.057-.166-.096.07.083-.167-.053-.106-.002-.315-.048-.62-.31-.885-.383-.056.073-1.264 1.03-1.325 1.113-.076-.048-.152-.095-.17-.115.006.033.15.133.24.168l.04-.04c.196.092.026.056.21.156-.014.047-.186-.043-.334-.125.13.08.245.188.325.175.115.086-.042.04.1.143.115.05.277.09.39.18l-.007.005c.28.206.498.183.756.366l-.037-.003c.088.074.3.136.467.25-.047-.034-.077-.086.033-.04.195.124.35.164.486.265l.165.024c.71.376 3.67 1.368 4.442 1.54h-.032a40 40 0 002.38.582l.346.068.176.033.047.007.013.002h.002c-.042-.003.373.026.198.015h.008l.02-.002.084-.004c.22-.01.438-.022.645-.034l.304-.017.074-.005h.02l.008-.002h.005l.632-.284v-.003l.024-.026.095-.103.175-.2.04-.047.006-.006h.003c.463-.925.13-.26.232-.465v-.006l.002-.017.004-.03.016-.12c.075-.18.106-.442.15-.636-.036.106-.062.065-.046-.02.096-.595-.023-.045.05-.65.073-.697.464-3.35.556-3.97-.028-.34.063-.75.053-1.08l.012.034c.018-.35.233-2.34.22-2.757l-.02.055z"/></svg>