<svg xmlns="http://www.w3.org/2000/svg" width="16" height="16" viewBox="0 0 500 500"><path d="M90 60h320v380H90z" fill="#1b1d21"/><path d="M405 70v360H95V70h310m20-20H75v400h350V50zm-50 78v-20H127v20h248zm0 53v-20H127v20h248zm0 53v-20H127v20h248zm0 53v-20H127v20h248zm0 53v-20H127v20h248zm0 53v-20H127v20h248z" fill="#6f7685"/><circle fill="#74b739" cx="327.789" cy="340.797" r="152.615"/><path fill="#fff" d="M421.804 307.744h-52.15c-4.847 0-8.813-3.965-8.813-8.813v-52.147c0-4.848-3.965-8.814-8.812-8.814h-48.8c-4.848 0-8.796 3.965-8.773 8.813l.242 52.148c.02 4.85-3.926 8.814-8.772 8.814h-52.15c-4.848 0-8.813 3.97-8.813 8.815v48.476c0 4.848 3.966 8.812 8.813 8.812h52.15c4.847 0 8.813 3.967 8.813 8.815v52.15c0 4.848 3.966 8.813 8.814 8.813h48.477c4.846 0 8.812-3.965 8.812-8.813v-52.15c0-4.85 3.967-8.815 8.813-8.815h52.15c4.85 0 8.814-3.964 8.814-8.812V316.56c-.002-4.847-3.968-8.816-8.816-8.816z"/></svg>