<svg xmlns="http://www.w3.org/2000/svg" width="18" height="18" viewBox="0 0 16 16"><path d="M13.12 4.96v9.12H2.88V1.92h7.296l2.944 3.04z" fill="#1b1d21"/><path d="M10.323 1.595L2.4 1.6v12.8h11.2V4.896l-3.277-3.301zm2.387 3.301h-2.374l-.01-2.391 2.384 2.391zm.25 8.864H3.04V2.24H9.6v3.424h3.36v8.096z" fill="#6f7685"/><path fill="#507ea5" d="M8.077 5.551v1.706c0 .049-.272.088-.607.088H5.107a.607.607 0 00-.607.606v2.082c0 .335.273.605.607.605H7.47c.334 0 .607.034.607.077v1.737c0 .049.197-.102.438-.333l2.805-2.706a.585.585 0 00.02-.825l-.02-.019-2.804-2.705c-.242-.233-.439-.372-.439-.313z"/><path fill="gray" d="M11.027 11.745v-1.318c0-.34.287-.625.625-.625h1.63c.339 0 .626.285.626.625v1.318h.959v-1.318a1.59 1.59 0 00-1.585-1.584h-1.63a1.59 1.59 0 00-1.584 1.584v1.318h.959z"/><path fill="#ffad00" d="M15.436 15.614a.32.32 0 01-.317.321H9.823a.323.323 0 01-.323-.321v-3.707c0-.179.145-.322.323-.322h5.291c.179 0 .321.146.321.322v3.707h.001z"/></svg>