<svg xmlns="http://www.w3.org/2000/svg" width="18" height="18" viewBox="0 0 16 16"><path d="M13.12 4.96v9.12H2.88V1.92h7.296l2.944 3.04z" fill="#1b1d21"/><path d="M10.323 1.595L2.4 1.6v12.8h11.2V4.896l-3.277-3.301zm2.387 3.301h-2.374l-.01-2.391 2.384 2.391zm.25 8.864H3.04V2.24H9.6v3.424h3.36v8.096z" fill="#6f7685"/><path fill="#74b739" d="M7.924 5.551c0-.06-.197.08-.437.313L4.681 8.568l-.02.02a.583.583 0 00.02.824l2.807 2.707c.24.232.437.383.437.333v-1.737c0-.043.273-.076.606-.076h2.363a.605.605 0 00.605-.604V7.951a.607.607 0 00-.605-.607H8.529c-.333 0-.605-.038-.605-.087V5.551z"/><path fill="gray" d="M11.027 11.744v-1.318c0-.34.287-.625.625-.625h1.63c.339 0 .626.285.626.625v1.318h.959v-1.318c0-.871-.713-1.582-1.585-1.582h-1.63c-.871 0-1.584.711-1.584 1.582v1.318h.959z"/><path fill="#ffad00" d="M15.436 15.613a.32.32 0 01-.317.322H9.822a.323.323 0 01-.323-.322v-3.707c0-.178.146-.322.323-.322h5.291c.179 0 .322.145.322.322v3.707h.001z"/><path fill="gray" d="M6.309 10.305l.365-.525a.455.455 0 00-.113-.63l-.418-.289a.45.45 0 00-.629.113l-.639.92A6.207 6.207 0 004 9.828c-2.209 0-4 1.146-4 2.563 0 .863.671 1.623 1.691 2.088l-.363.522a.45.45 0 00.113.628l.417.291c.078.055.167.08.257.08a.448.448 0 00.371-.193l.639-.918c.283.039.574.064.875.064 2.209 0 4-1.146 4-2.563 0-.863-.671-1.62-1.691-2.085zM.85 12.391c0-.623.771-1.298 1.971-1.576a1.987 1.987 0 00-.479 2.726l-.161.23c-.827-.333-1.331-.875-1.331-1.38zm4.427 1.558c.439-.367.723-.911.723-1.527 0-.428-.137-.82-.365-1.146l.185-.266c.829.336 1.331.876 1.331 1.381-.001.606-.728 1.265-1.874 1.558z"/></svg>