<svg xmlns="http://www.w3.org/2000/svg" width="18" height="18" viewBox="0 0 16 16"><path d="M13.12 4.96v9.12H2.88V1.92h7.296l2.944 3.04z" fill="#1b1d21"/><path fill="#FFF" d="M4.697 12.68l-.043-1.014.388-1.615s1.164-.561 1.681.15.345 1.486.345 1.486l-2.371.993z"/><path fill="#c9473d" d="M11.307 5.096s.064-.2-.563-.657-.9-.414-.9-.414c-.339-.026-.478-.01-.661.204l-4.291 5.893a.274.274 0 00-.044.089h-.012s-.427 2.684-.338 2.746c.08.057 2.037-.938 2.45-1.131a.284.284 0 00.068-.033h.001a.324.324 0 00.073-.07l4.217-5.792c.257-.367 0-.835 0-.835zm-5.584 7.142s-.243-.565-.688-.465l-.238.322.354-1.923c.35.022.621.108.785.175.231.1.514.258.66.485.34.531.421.81.421.81l-1.294.596z"/><path d="M9.984 2.08l.256 3.2 2.88-.32-3.136-2.88z" fill="#1b1d21"/><path d="M10.323 1.595L2.4 1.6v12.8h11.2V4.896l-3.277-3.301zm2.387 3.301h-2.374l-.01-2.391 2.384 2.391zm.25 8.864H3.04V2.24H9.6v3.424h3.36v8.096z" fill="#6f7685"/><path fill="gray" d="M11.027 11.745v-1.318c0-.34.287-.625.625-.625h1.63c.339 0 .626.285.626.625v1.318h.959v-1.318a1.59 1.59 0 00-1.585-1.584h-1.63a1.59 1.59 0 00-1.584 1.584v1.318h.959z"/><path fill="#ffad00" d="M15.436 15.614a.32.32 0 01-.317.321H9.823a.323.323 0 01-.323-.321v-3.707c0-.179.145-.322.323-.322h5.291c.179 0 .321.146.321.322v3.707h.001z"/></svg>