<svg xmlns="http://www.w3.org/2000/svg" width="16" height="16"><path fill="#1b1d21" d="M2.88 1.92h10.24v12.16H2.88z"/><path fill="#6f7685" d="M12.96 2.24v11.52H3.04V2.24zm.64-.64H2.4v12.8h11.2zM12 4.096v-.64H4.064v.64zm0 1.696v-.64H4.064v.64zm0 1.696v-.64H4.064v.64zm0 1.696v-.64H4.064v.64zm0 1.696v-.64H4.064v.64zm0 1.696v-.64H4.064v.64z"/><path fill="#1b1d21" d="m6.08 12.8-.064-1.504.576-2.4s1.728-.832 2.496.227c.767 1.053.512 2.205.512 2.205z"/><path fill="#6f7685" d="M15.828 1.604s.098-.297-.834-.976C14.06-.05 13.656.014 13.656.014c-.504-.04-.71-.017-.982.303l-6.37 8.75a.4.4 0 00-.066.132h-.016s-.633 3.98-.502 4.075c.118.084 3.025-1.394 3.637-1.682a.3.3 0 00.102-.047.4.4 0 00.108-.105l6.26-8.6c.387-.54 0-1.236 0-1.236zM7.538 12.21s-.36-.84-1.02-.69l-.355.48.526-2.855c.52.033.92.16 1.165.26.343.147.763.38.98.72.506.79.625 1.202.625 1.202z"/></svg>