<svg xmlns="http://www.w3.org/2000/svg" width="16" height="16" viewBox="0 0 500 500"><path fill="#6f7685" d="M432.857 185.715H331.43c-9.43 0-17.144-7.715-17.144-17.143V67.144c0-9.43-7.715-17.144-17.144-17.144h-94.914c-9.43 0-17.107 7.715-17.063 17.144l.47 101.43c.044 9.427-7.635 17.142-17.063 17.142H67.142C57.715 185.716 50 193.43 50 202.86v94.285c0 9.43 7.714 17.143 17.143 17.143h101.43c9.428 0 17.142 7.715 17.142 17.144V432.86c0 9.43 7.715 17.143 17.144 17.143h94.284c9.43 0 17.144-7.714 17.144-17.143V331.43c0-9.43 7.714-17.144 17.143-17.144h101.43c9.43 0 17.143-7.714 17.143-17.143v-94.286c-.003-9.428-7.717-17.142-17.146-17.142"/></svg>