<svg xmlns="http://www.w3.org/2000/svg" width="16" height="16"><path fill="#6f7685" d="M10.26 9.71a3.6 3.6 0 00-.13-.93l.9-.54a4.8 4.8 0 00-.45-1l-1 .26a3.8 3.8 0 00-1-1l.28-1A4.7 4.7 0 007.71 5l-.55.91a3.6 3.6 0 00-.8-.09 4.4 4.4 0 00-.9.11L5 5a5.2 5.2 0 00-1 .4l.29 1a4 4 0 00-1.15 1.11l-1.07-.2a4.6 4.6 0 00-.42 1l.91.54a4 4 0 00-.1.84 3.8 3.8 0 00.09.82l-.9.54a4.5 4.5 0 00.42 1l1-.28A3.8 3.8 0 004.19 13l-.28 1a5 5 0 001 .43l.55-.89a3.8 3.8 0 00.91.12 4.3 4.3 0 00.81-.09l.53.89a5 5 0 001-.41l-.27-1a4 4 0 001.19-1.17l1 .28a5.5 5.5 0 00.42-1l-.86-.66a3.7 3.7 0 00.07-.79M6.35 11.4a1.7 1.7 0 111.7-1.7 1.7 1.7 0 01-1.7 1.7m8.07-7.09-.64-.12a2.4 2.4 0 00-.27-.8l.42-.53a3 3 0 00-.41-.47l-.62.31a2.1 2.1 0 00-.8-.38l-.1-.67a3 3 0 00-.44 0h-.24l-.11.65a2.1 2.1 0 00-.82.3l-.47-.47a3.4 3.4 0 00-.49.44l.32.62a2 2 0 00-.35.72L8.71 4a2.7 2.7 0 00-.05.5 1.4 1.4 0 000 .2l.64.1a2.3 2.3 0 00.27.81l-.46.46a3 3 0 00.41.51l.62-.31a2.2 2.2 0 00.82.41v.66a3.3 3.3 0 00.55 0h.14l.1-.65a2.2 2.2 0 00.88-.28l.53.43a3.4 3.4 0 00.45-.4l-.35-.57a2.2 2.2 0 00.42-.81l.71-.06a3 3 0 000-.51 1 1 0 00.03-.18m-2.87 1.15a1 1 0 111-1 1 1 0 01-1 1"/></svg>